/* XPM */
static char *result[] = {
/* columns rows colors chars-per-pixel */
"32 32 218 2 ",
"   c #2D180E",
".  c #271B16",
"X  c #301B12",
"o  c #332618",
"O  c #422714",
"+  c #4D2A1A",
"@  c #503D15",
"#  c #59382B",
"$  c #6E3F2A",
"%  c #704F18",
"&  c #675012",
"*  c #7E6817",
"=  c #565B2D",
"-  c #595E3B",
";  c #755731",
":  c #5B6C2E",
">  c #597226",
",  c #5A722D",
"<  c #5B6837",
"1  c #597B3A",
"2  c #716E2E",
"3  c #67732C",
"4  c #616C32",
"5  c #65663C",
"6  c #6C6F3C",
"7  c #746833",
"8  c #716B3F",
"9  c #637534",
"0  c #697534",
"q  c #657B35",
"w  c #6C7C35",
"e  c #64723B",
"r  c #6C723D",
"t  c #657B39",
"y  c #6D7B3C",
"u  c #747838",
"i  c #737C3C",
"p  c #585A40",
"a  c #725041",
"s  c #5F6342",
"d  c #626C42",
"f  c #686A47",
"g  c #726D44",
"h  c #7A6C45",
"j  c #6C7442",
"k  c #6D7B41",
"l  c #667949",
"z  c #747545",
"x  c #737B44",
"c  c #7B7C45",
"v  c #78754C",
"b  c #767E48",
"n  c #7B7B4A",
"m  c #7C7955",
"M  c #7E7674",
"N  c #906E17",
"B  c #906F1D",
"V  c #9A7519",
"C  c #A07B19",
"Z  c #8E573E",
"A  c #8F6B20",
"S  c #977223",
"D  c #A57C25",
"F  c #837848",
"G  c #847C55",
"H  c #817D5B",
"J  c #927E5B",
"K  c #9B7D66",
"L  c #67802D",
"P  c #638233",
"I  c #6B8334",
"U  c #6D8B34",
"Y  c #66823B",
"T  c #6D823C",
"R  c #638A38",
"E  c #6D8B3C",
"W  c #728435",
"Q  c #758A34",
"!  c #73843C",
"~  c #7B853C",
"^  c #758C3C",
"/  c #7B8C3B",
"(  c #799734",
")  c #76913D",
"_  c #7B943D",
"`  c #6B8443",
"'  c #748443",
"]  c #7C8444",
"[  c #748C43",
"{  c #7C8B44",
"}  c #748349",
"|  c #7C844B",
" . c #748A4B",
".. c #7C8B4B",
"X. c #6A904A",
"o. c #769242",
"O. c #7B9244",
"+. c #799947",
"@. c #7C934B",
"#. c #7C9B4B",
"$. c #768452",
"%. c #7E8552",
"&. c #758B52",
"*. c #7C8B52",
"=. c #7E9456",
"-. c #B48B1C",
";. c #849929",
":. c #858C3E",
">. c #82943C",
",. c #849B3C",
"<. c #8A993A",
"1. c #979039",
"2. c #B58A23",
"3. c #8CA53F",
"4. c #CA980F",
"5. c #D6A110",
"6. c #E6AD1C",
"7. c #EEB51A",
"8. c #F7BA14",
"9. c #F6BA17",
"0. c #C79626",
"q. c #C4932A",
"w. c #C2A121",
"e. c #D5A727",
"r. c #DDB128",
"t. c #E5AC21",
"y. c #E6B927",
"u. c #EDC129",
"i. c #F2C625",
"p. c #F7C626",
"a. c #F4CA26",
"s. c #FAC42C",
"d. c #F6CD32",
"f. c #F7C93C",
"g. c #828343",
"h. c #848C44",
"j. c #8C8C45",
"k. c #84824B",
"l. c #8B8549",
"z. c #848D4C",
"x. c #8B8E4D",
"c. c #908A47",
"v. c #839344",
"b. c #8A9443",
"n. c #859946",
"m. c #8B9C43",
"M. c #83934C",
"N. c #8A934B",
"B. c #849B4B",
"V. c #8B9B4C",
"C. c #939749",
"Z. c #929A4C",
"A. c #838453",
"S. c #8A8552",
"D. c #848D52",
"F. c #8C8D55",
"G. c #858A5A",
"H. c #8B8C5A",
"J. c #948957",
"K. c #928D56",
"L. c #839454",
"P. c #8A9453",
"I. c #859B52",
"U. c #8C9B52",
"Y. c #85945C",
"T. c #8C975A",
"R. c #879C58",
"E. c #8E9B5B",
"W. c #929454",
"Q. c #989054",
"!. c #939B54",
"~. c #9B9C54",
"^. c #93965B",
"/. c #9A935D",
"(. c #959D5C",
"). c #999C5B",
"_. c #A08A42",
"`. c #AE974D",
"'. c #A09E5F",
"]. c #82A242",
"[. c #8EA242",
"{. c #84A34B",
"}. c #8BA14C",
"|. c #94A14B",
" X c #9BA64C",
".X c #98B74E",
"XX c #8DA354",
"oX c #8BA558",
"OX c #94A254",
"+X c #94A35C",
"@X c #9BA55D",
"#X c #9BA858",
"$X c #BCA24B",
"%X c #ADA052",
"&X c #A3A45E",
"*X c #A9B751",
"=X c #908E63",
"-X c #958B66",
";X c #8C9A61",
":X c #939D63",
">X c #9A9A67",
",X c #A59E67",
"<X c #9AA263",
"1X c #9CA963",
"2X c #99A468",
"3X c #9BB765",
"4X c #A2A464",
"5X c #A0A56B",
"6X c #A6AA68",
"7X c #A4B466",
"8X c #C9AD53",
"9X c #FCCF49",
"0X c #F8D147",
"qX c #E2C052",
"wX c #FDD454",
"eX c #EFCD61",
"rX c #FED862",
"tX c #ABAB81",
/* pixels */
"w Q >.W b.t #.[ Q _ oXl ;X:X,.! ^ Y.x.2 ( .X XK ,XA.y =.n.M.h.5 ",
") [.{.! < 9 g.g.w %.&.Y.2X&.{ :.*.v @.*X<.;.~.J F 6 ..R.{.XXJ.g ",
"] ^.D.^.z.[ i r N.] N.x =.U.O.:.h 5 &.!.j.( /.-Xh ~ x L.*.P.Q.P.",
"j v F F.@X4X` , Y | @.[ =.I.{.v.c T ^ _ v.9 h.z d c i  .}.m.1XM.",
"g - D.#XOXV.q P t Y ^ E M.B.' ).Q.' T [.j.v [ U P.,XH ` n.+.+.( ",
"$.D.7X(.K.z.' } ` U N.#X,.U { 6XS.b >.M.e A / ! (.'.i ] P...@.[ ",
"D...P.c.Q.A.u ' | h.C.m.@._ O.4XZ.v.Z.r = 9 _ E =X-X/ z.N.@XW I ",
"A.| A.c.v v _ ].B.H C.<.O.O.N.tX[ P ~  .< l [ n.$.p 9 z.P.P.n.U ",
"` ' M.P.>X@X^ v.+ ; o u 9 > @.M 9 W | v.V.i z.| +.A.g i ' y ..! ",
"+X@X7X}.*X;.;./.+ Z # F ! Q _ , : i k.Z.C.L.x.z ,X>XS.h.T e x y ",
"V.4X&X].|.h.,.>XO ; a ! ~ w I E O.G G i v.V.V.M.6X<XP.x [ { w c ",
"V.g.l.>.B.o.Q oXX $ ; L.e 9 U ~ 5X^.n r c h.<.(.^.G.L.D.R.} 0 z.",
"E q n 9 M.XXT oXk.+ $ N 2.1.w { 5X!.W.-Xv 0 Z.| H.U.+.` | s , y ",
"_ ..z.y ` +.3.+XF   & 2.i.0X`.z.4XR.5Xx.{ m.N.( ] B.~ / {.' 4 o.",
"| m ^ O.I.t I b.F B 7.B i.p.0X$X7 +X4XV.' b.' Q W , g.{ +Xg.o.R ",
"g f  .!.N.>.!.>.@ 0.9.C e.y.a.0XeX_.5XI.V.z. .' T L U.=X2XJ.%.X.",
"5 y ' n.!.E B.~ @ 2.9.e.& e.i.i.f.rX8Xz +X[ +.M.E { 2X5X!.<X@XM.",
"x.o.Y Y o. .}.<.-X* 7.s.e.D 0.y.p.d.wXqX$X$X7   ' R.T.6X>X1XU.` ",
"/.^.! h.@.| T n.b.M.D 9.f.f.2.V 2.5.a.d.d.a.w.+ y T.b R.2X2Xk 1 ",
"A.A.b n O.h.w _ m.!.h.q.t.y.9X7.5.N D r.u.7.-.o { z.n.^ n.P.=.#.",
"G.t I i B.!.#X<X{ } v.% q.t.s.wX0Xp.4.V B D C O [ o.v.q W <.N.@.",
"D.Z.i H.B.l.h P.M.^ @.` /.D e.9.p.9XwXwX9X9.A # y n.N.:.V.m.P.h.",
"k.h.' A.z.7 j < 6 B.) @.b.C.S q.6.8.8.8.7.0.@ . | U.W.W.4XO.t N.",
"x.y g.i j z R. .P.I.{ x.g.V.~ v.* D 2.2.S y M./ V.+.F 5 y ] +.n.",
"j.6 - z c z.I.h.@Xx.k.k.h.D.j F c v c 8 ^ q < 9 h.~ : ..l z #.^ ",
"c v k.8 0 ' } k.).P.c i S.f z z z D.&Xm G.P.! T r z x.T.@.).D.{ ",
"5 T.).m ..n.U.!.P.} z.b G r z.F.L.;XH.D.z.K.@X~.' : [ =.K.&X!.F ",
"U.:X=X^...c U.h.{ | M.w !.(.P.>XOXL.s n ^.U.+X(.q P q ..g.!.*.| ",
"U.Y.< n D.k [ ' ) ` E V. X_ T.} x  .| j 1X<XP.v.T ' M.OX|.N.c L.",
"j  .| x @.Y.0 q _ / E.I.{.{.&Xv.oXoXB.U.(.j.K.H.] b j n.g.O.' +.",
"3XU.O.n...L.O.O.B.Y >.>.B.#.@.v.(.#Xc.F.%.y u e c c w w w ^ w +.",
"l L.' OX@.j t ..u 3 ( |.1X(.h.^.C.%XH.H.: U 9 T = n <XT E [ U.;X"
};
