/* XPM */
static char *result[] = {
/* columns rows colors chars-per-pixel */
"32 32 129 2 ",
"   c #2D180E",
".  c #2A1912",
"X  c #241D1A",
"o  c #301B12",
"O  c #342711",
"+  c #31241F",
"@  c #402214",
"#  c #432C14",
"$  c #4B291B",
"%  c #4D2918",
"&  c #4D2B1B",
"*  c #4E3B15",
"=  c #523E15",
"-  c #5F3523",
";  c #523B32",
":  c #6E3F2A",
">  c #544017",
",  c #674212",
"<  c #675012",
"1  c #795C1E",
"2  c #7E6817",
"3  c #664F20",
"4  c #6C412E",
"5  c #7A5D21",
"6  c #7D4D37",
"7  c #736434",
"8  c #786930",
"9  c #705042",
"0  c #745040",
"q  c #7A6E45",
"w  c #96720F",
"e  c #8A691E",
"r  c #906F1D",
"t  c #9C7611",
"y  c #95731D",
"u  c #98721A",
"i  c #9E7A1C",
"p  c #A07912",
"a  c #A07C1F",
"s  c #804B33",
"d  c #8E573E",
"f  c #8F6B20",
"g  c #967123",
"h  c #987223",
"j  c #A27926",
"k  c #A87E24",
"l  c #A78011",
"z  c #B48B1C",
"x  c #9D873B",
"c  c #AE8321",
"v  c #AB8621",
"b  c #AC8520",
"n  c #B28622",
"m  c #B38E21",
"M  c #BC8D25",
"N  c #B79821",
"B  c #A18331",
"V  c #CA980F",
"C  c #D6A110",
"Z  c #E3AA1D",
"A  c #E8AF1A",
"S  c #ECB213",
"D  c #EFB417",
"F  c #EEB41E",
"G  c #EFB81E",
"H  c #F2B516",
"J  c #F6B913",
"K  c #F7BA14",
"L  c #F7BB16",
"P  c #F8BC15",
"I  c #F7BC1B",
"U  c #C39221",
"Y  c #C89627",
"T  c #C3922A",
"R  c #C49229",
"E  c #C5942C",
"W  c #C99B29",
"Q  c #C2A121",
"!  c #D4A725",
"~  c #D4A726",
"^  c #D9A326",
"/  c #D6AD23",
"(  c #D0A229",
")  c #D9AA2A",
"_  c #DDB128",
"`  c #E4AB21",
"'  c #E6AD21",
"]  c #E5BA25",
"[  c #E6B828",
"{  c #FAC01F",
"}  c #EDC129",
"|  c #F1C625",
" . c #F2C625",
".. c #FAC121",
"X. c #FBC326",
"o. c #F4C925",
"O. c #F4CA26",
"+. c #F9C22A",
"@. c #FBC42A",
"#. c #FAC52F",
"$. c #F3C828",
"%. c #F5CB2A",
"&. c #F6CC30",
"*. c #F6CD32",
"=. c #F7CD35",
"-. c #F3C33B",
";. c #FBC93C",
":. c #F8CF3C",
">. c #A08A42",
",. c #AE974D",
"<. c #BA9F43",
"1. c #BEA34A",
"2. c #BAA04C",
"3. c #C9AD53",
"4. c #FCCC40",
"5. c #FBCE4B",
"6. c #FDCF48",
"7. c #FDCF49",
"8. c #F9D143",
"9. c #F8D147",
"0. c #F7D04A",
"q. c #E2C052",
"w. c #FDD250",
"e. c #FED354",
"r. c #FBD556",
"t. c #FED457",
"y. c #EFCD61",
"u. c #FED862",
"i. c None",
/* pixels */
"i.i.i.i.i.i.i.i.i.i.i.i.i.i.i.i.i.i.i.i.i.i.i.i.i.i.i.i.i.i.i.i.",
"i.i.i.i.i.i.i.i.i.i.i.i.i.i.i.i.i.i.i.i.i.i.i.i.i.i.i.i.i.i.i.i.",
"i.i.i.i.i.i.i.i.i.i.i.i.i.i.i.i.i.i.i.i.i.i.i.i.i.i.i.i.i.i.i.i.",
"i.i.i.i.i.i.i.i.i.i.i.i.i.i.i.i.i.i.i.i.i.i.i.i.i.i.i.i.i.i.i.i.",
"i.i.i.i.i.i.i.i.i.i.i.i.i.i.i.i.i.i.i.i.i.i.i.i.i.i.i.i.i.i.i.i.",
"i.i.i.i.i.i.i.i.i.i.i.i.i.i.i.i.i.i.i.i.i.i.i.i.i.i.i.i.i.i.i.i.",
"i.i.i.i.i.i.i.i.i.i.i.i.i.i.i.i.i.i.i.i.i.i.i.i.i.i.i.i.i.i.i.i.",
"i.i.i.i.i.i.i.i.i.i.i.i.i.i.i.i.i.i.i.i.i.i.i.i.i.i.i.i.i.i.i.i.",
"i.i.i.i.i.i.i.i.i.i.i.i.i.i.i.i.i.i.i.i.i.+ 6 $ i.i.i.i.i.i.i.i.",
"i.i.i.i.i.i.i.i.i.i.i.i.i.i.i.i.i.i.i.i.i.; d % i.i.i.i.i.i.i.i.",
"i.i.i.i.i.i.i.i.i.i.i.i.i.i.i.i.i.i.i.i.i.9 s @ i.i.i.i.i.i.i.i.",
"i.i.i.i.i.i.i.i.i.i.i.i.i.i.i.i.i.i.i.i.i.0 : o i.i.i.i.i.i.i.i.",
"i.i.i.i.i.i.i.i.i.i.i.i.i.i.i.i.i.i.x N 2 4 & i.i.i.i.i.i.i.i.i.",
"i.i.i.i.i.i.i.i.i.i.i.i.i.i.i.i.i.,.9.o.m ,   i.i.i.i.i.i.i.i.i.",
"i.i.i.i.i.i.i.i.i.i.i.i.i.i.i.7 2.0.O. .r S e i.i.i.i.i.i.i.i.i.",
"i.i.i.i.i.i.i.i.i.i.i.i.i.i.>.y.8.O.| ( p { Y > i.i.i.i.i.i.i.i.",
"i.i.i.i.i.i.i.i.i.i.i.i.q 3.u.:.o.| ) < ! P M * i.i.i.i.i.i.i.i.",
"i.i.i.i.i.i.i.i.. 8 <.1.q.r.=. .[ W i ~ @.A 1 i.i.i.i.i.i.i.i.i.",
"i.i.i.i.i.i.i.i.& Q %.*.&.$./ b u z -.;.F k i.i.i.i.i.i.i.i.i.i.",
"i.i.i.i.i.i.i.i.O v ] } _ a w C G 5.+.' T i.i.i.i.i.i.i.i.i.i.i.",
"i.i.i.i.i.i.i.i.# l B y t V ..4.w.#.` E 3 i.i.i.i.i.i.i.i.i.i.i.",
"i.i.i.i.i.i.i.i.- f I 6.e.t.7.X.H ^ j i.i.i.i.i.i.i.i.i.i.i.i.i.",
"i.i.i.i.i.i.i.i.X = U D K L J Z R h i.i.i.i.i.i.i.i.i.i.i.i.i.i.",
"i.i.i.i.i.i.i.i.i.i.i.g n n c 5 i.i.i.i.i.i.i.i.i.i.i.i.i.i.i.i.",
"i.i.i.i.i.i.i.i.i.i.i.i.i.i.i.i.i.i.i.i.i.i.i.i.i.i.i.i.i.i.i.i.",
"i.i.i.i.i.i.i.i.i.i.i.i.i.i.i.i.i.i.i.i.i.i.i.i.i.i.i.i.i.i.i.i.",
"i.i.i.i.i.i.i.i.i.i.i.i.i.i.i.i.i.i.i.i.i.i.i.i.i.i.i.i.i.i.i.i.",
"i.i.i.i.i.i.i.i.i.i.i.i.i.i.i.i.i.i.i.i.i.i.i.i.i.i.i.i.i.i.i.i.",
"i.i.i.i.i.i.i.i.i.i.i.i.i.i.i.i.i.i.i.i.i.i.i.i.i.i.i.i.i.i.i.i.",
"i.i.i.i.i.i.i.i.i.i.i.i.i.i.i.i.i.i.i.i.i.i.i.i.i.i.i.i.i.i.i.i.",
"i.i.i.i.i.i.i.i.i.i.i.i.i.i.i.i.i.i.i.i.i.i.i.i.i.i.i.i.i.i.i.i.",
"i.i.i.i.i.i.i.i.i.i.i.i.i.i.i.i.i.i.i.i.i.i.i.i.i.i.i.i.i.i.i.i."
};
