/* XPM */
static char *_9337f139a93450d8b9c9240fbec778eAsY7k4B25sPgIRtx[] = {
/* columns rows colors chars-per-pixel */
"32 32 205 2 ",
"   c #1B1614",
".  c #24170E",
"X  c #251B18",
"o  c #371C13",
"O  c #3A2413",
"+  c #54390F",
"@  c #413112",
"#  c #50331A",
"$  c #402D26",
"%  c #5A2F20",
"&  c #5C3E33",
"*  c #6B3B29",
"=  c #603E31",
"-  c #3E4422",
";  c #664B18",
":  c #6A5613",
">  c #7A5A18",
",  c #48611D",
"<  c #4A4E22",
"1  c #474C2D",
"2  c #485627",
"3  c #4B5928",
"4  c #525B25",
"5  c #5A5528",
"6  c #58552E",
"7  c #5A5C2C",
"8  c #504930",
"9  c #4D5133",
"0  c #525630",
"q  c #555837",
"w  c #5E5A32",
"e  c #645724",
"r  c #7A4430",
"t  c #655A35",
"y  c #605C38",
"u  c #4A6122",
"i  c #486A2C",
"p  c #526427",
"a  c #546B26",
"s  c #5E6A21",
"d  c #52602D",
"f  c #5B612E",
"g  c #536A2C",
"h  c #5A6A2B",
"j  c #517127",
"k  c #54712D",
"l  c #5A722B",
"z  c #527A2B",
"x  c #5C7B2A",
"c  c #4D6D33",
"v  c #596234",
"b  c #5B6A33",
"n  c #546739",
"m  c #5B6939",
"M  c #547436",
"N  c #597334",
"B  c #69652C",
"V  c #606A2B",
"C  c #677A27",
"Z  c #61722D",
"A  c #68742E",
"S  c #627C2E",
"D  c #626433",
"F  c #606935",
"G  c #686A35",
"H  c #62623D",
"J  c #68633B",
"K  c #666A39",
"L  c #6F6A3D",
"P  c #716334",
"I  c #617334",
"U  c #6B7235",
"Y  c #627B34",
"T  c #697A34",
"R  c #617239",
"E  c #69713B",
"W  c #61793B",
"Q  c #697B3B",
"!  c #717B34",
"~  c #797A36",
"^  c #71703B",
"/  c #787339",
"(  c #717C3B",
")  c #787D3C",
"_  c #696743",
"`  c #716A43",
"'  c #637341",
"]  c #697A41",
"[  c #727242",
"{  c #717C41",
"}  c #797C43",
"|  c #7F7548",
" . c #727948",
".. c #797C49",
"X. c #6B6361",
"o. c #845F1B",
"O. c #87620F",
"+. c #896515",
"@. c #946B18",
"#. c #9B731A",
"$. c #A5781A",
"%. c #8D7329",
"&. c #8A7A39",
"*. c #817D44",
"=. c #896A53",
"-. c #837953",
";. c #728F1F",
":. c #5B822E",
">. c #58803A",
",. c #64812F",
"<. c #6A842F",
"1. c #678828",
"2. c #768225",
"3. c #71842E",
"4. c #728C2E",
"5. c #7B8A2D",
"6. c #648232",
"7. c #698234",
"8. c #6A8A35",
"9. c #6A833B",
"0. c #628A3C",
"q. c #6A8C3B",
"w. c #708335",
"e. c #788434",
"r. c #728B36",
"t. c #7A8D34",
"y. c #70833C",
"u. c #78833C",
"i. c #728C3B",
"p. c #798C3C",
"a. c #769433",
"s. c #789D30",
"d. c #72943B",
"f. c #79923C",
"g. c #6A8346",
"h. c #6C8843",
"j. c #708443",
"k. c #788442",
"l. c #738C44",
"z. c #7A8B41",
"x. c #73844B",
"c. c #7A8648",
"v. c #7A8B4A",
"b. c #7A9346",
"n. c #7A9947",
"m. c #AE8D1A",
"M. c #B8831C",
"N. c #80853C",
"B. c #88863C",
"V. c #808A3C",
"C. c #9E863D",
"Z. c #89973D",
"A. c #B68121",
"S. c #BC8A20",
"D. c #AB8F34",
"F. c #AB903C",
"G. c #8FAB3E",
"H. c #CD9217",
"J. c #CA9A1D",
"K. c #DD9C1A",
"L. c #D9A91E",
"P. c #E8A616",
"I. c #F3AD13",
"U. c #EDBC1E",
"Y. c #F5B016",
"T. c #F7B51B",
"R. c #CA9721",
"E. c #DFAB20",
"W. c #ECB925",
"Q. c #F8BA26",
"!. c #F0C11E",
"~. c #F2C325",
"^. c #F5C62C",
"/. c #F6C737",
"(. c #FAC63A",
"). c #808344",
"_. c #808C42",
"`. c #898C43",
"'. c #818649",
"]. c #88824B",
"[. c #858D49",
"{. c #829443",
"}. c #819449",
"|. c #8A954A",
" X c #8E9C48",
".X c #96954A",
"XX c #868554",
"oX c #818D50",
"OX c #8A8E54",
"+X c #948D56",
"@X c #849550",
"#X c #8C9455",
"$X c #8B9C51",
"%X c #8F9658",
"&X c #859859",
"*X c #919754",
"=X c #929F51",
"-X c #9C9E55",
";X c #BD9F42",
":X c #93AA4D",
">X c #9B9C6E",
",X c #DAB541",
"<X c #EAC44F",
"1X c #FCCC44",
"2X c #FDD150",
/* pixels */
"s x 4.l 3.f q.,.x <.b.M x.oX3.Z ,.c.) 5 C G.Z.=.+XE h g.t.y.( 8 ",
"<.t.f.I 2 p U U h ] ' x.&X] T w.Q H w.G.V.;.V.*.P w Q b.d.d.*.y ",
"E [.[ ).9.A G f u.U ) m g.p.7.! t 0 ] {.! 1.].].w A b j.9.c.`.).",
"v H K } @X*XN u g U q.Y h.l.i.w.L l S 7.w.p / v q K F R p.t.@Xy.",
"y 1 { }.V.p.a j k k x S w.i.I [.*.Z k a.&.J Y x u.XX_ I i.<.8.<.",
"' ( :X[.).( I R b x u. Xt.S T %X/ K 3.( 4 B S Z oX[.T R k.Q Q 6.",
"{ Q c.~ &.[ V K E 7.V.t.8.,.7.=Xp.w.V.h - 4 <.S XX-.C ) u.|.x j ",
"[ E [ u.H J <.a.i._ B.5.T 6.e.>X7.a U N d v 6.w.' 1 p ( u.c.r.x ",
"m I 9.z.`.|.A 7.'.XX) V a , Q X.p l E w.t.X * o Q [ y V U h Q I ",
"{.|. Xb.:X2.;.].=.B v G Z S <.3 3 G ^ N.V.$ r O OXOX[ Q l 4 F h ",
"u.=X-Xs.{.3.r.-.c.6 7 A A h l x ,.` ` V w.& * . -X@X*.N Y ! h G ",
"k.U / Y p.6.C b.v - h y.d u x A *X'.G 7 L = % . '. .l.[ v.b p ( ",
"C j K p k.b.l n.! S :.i F v a T %X_.%.m.: % O U ..z.8.N E 9 u h ",
"<.Q ( h N 8.s.{.P ] M N l.R B ! *XC./.U.$.+ . <.T i.A A d.I 3 6.",
"E ` S 7.i.k l 4.^ c.l.R h.i.h e F./.!.W.> P.> C Z u U T n.! 6.z ",
"q q W z.u.<._.! 3.r.j.Q v.i.&.<X/.U.U.J.+.T.M.@ l a ).x.%X| [ >.",
"6 h Y i._.x i.A 7.g c g.y ;X2X^.!.U.R.+ J.Y.$.O N e.#X*X_.#X@X9.",
"~ Y k k 7.W f.t.. e D.F.,X1X^.!.E.S.+.R.Q.K.; U I l.c.-XOX$Xz.N ",
"'.'.I ! 9.E a r.o m.!.~.~.!.R.#.o.$.^.^.P.#.E 4 h c.R l.#X%Xh i ",
"[ [ F G ! ! h <.X #.L.W.E.+.O.H.P.(.Q.K.A.z.K 4 T u.y.x i.).g.0.",
" .h k h i._.`.$XO @.@.> +.H.I.Q.(.Q.K.A.# a.C w.Y Y w.p x 4.e.9.",
"} p.F ..f./ t k.# > T.(.1X1X(.T.P.R.@.<.k.! l p V i.u.! t.e.c.~ ",
"L ! F ^ Q 7 v 3   @ M.P.I.I.I.K.M.+.F U c.Z l A E z.)._.$XT a u.",
") h T Z v D c.R k.h.6.+.#.$.#.; ~ f 1 J ) h g.S l.8.U 8 b U 8.r.",
"~ w 1 v G ( l.e..X) ^ U ( y.b L D v K w S a 3 p ! A 3 Q n y r.x ",
"K G J w f I I ^ [.k.G G / q w D y } .X_  .k.F N 7 F ) z.9.[.j.T ",
"0 } OX[ Q r.z._.k.R ( F ` d ( } 9.oXXX( ( *.|.`.Y 3 Y g.} *X_.^ ",
"z.oX..).Q G z.! T E 9.h [.[.c.OXb.x.9 K ).p.n.[.p a a Q U z.[ U ",
"p.j.9 K { v 6.I ,.l :.p.Z.7.c.E F W E v $X@X).w.I l y.p.Z.u.U k.",
"v W E F 9.x.p a ,.T c.l.d.f. X7.n.b.i.z.'.~ *...T K D i.G T I 6.",
":Xz.8.i.Q g.7.7.r.l <.3.y.q.9.w.`.`.N.} W V V 0 U D h h h ,.k 8.",
"n ] I {.7.v h Q B p 1.{. X}.! _.V..X|  .3 x p g < L @Xk x T z.c."
};
