/* XPM */
static char *result[] = {
/* columns rows colors chars-per-pixel */
"32 32 135 2 ",
"   c #2D170B",
".  c #311807",
"X  c #331C12",
"o  c #381E12",
"O  c #3E230A",
"+  c #3A2315",
"@  c #3E2A13",
"#  c #33221B",
"$  c #3A241A",
"%  c #3C2B1C",
"&  c #3A2A23",
"*  c #40290D",
"=  c #442414",
"-  c #4A2815",
";  c #462B1E",
":  c #4D2A1B",
">  c #4F331D",
",  c #503114",
"<  c #553A11",
"1  c #54311D",
"2  c #4A2E21",
"3  c #5D3522",
"4  c #5F3929",
"5  c #4E3C33",
"6  c #603622",
"7  c #623924",
"8  c #6B3D29",
"9  c #5C4414",
"0  c #6B4D18",
"q  c #6B501C",
"w  c #755416",
"e  c #7A5F16",
"r  c #70511C",
"t  c #7D5E19",
"y  c #6F432E",
"u  c #655326",
"i  c #745321",
"p  c #87691B",
"a  c #936E1C",
"s  c #9D7417",
"d  c #93731B",
"f  c #9D761C",
"g  c #A47D1D",
"h  c #A97F1D",
"j  c #826122",
"k  c #876826",
"l  c #8C6D26",
"z  c #8D702A",
"x  c #977620",
"c  c #997422",
"v  c #9F7823",
"b  c #94742A",
"n  c #A17A22",
"m  c #A27E28",
"M  c #AC831E",
"N  c #AF8819",
"B  c #BA8E14",
"V  c #B28719",
"C  c #B48D1C",
"Z  c #BD8F18",
"A  c #BE9217",
"S  c #BA901F",
"D  c #A68022",
"F  c #AB8323",
"G  c #AA8329",
"H  c #B08123",
"J  c #B68C21",
"K  c #BA8D23",
"L  c #B79120",
"P  c #BB9522",
"I  c #A08939",
"U  c #C1931D",
"Y  c #CD9D1B",
"T  c #D39F1C",
"R  c #D5A21B",
"E  c #DEA81F",
"W  c #E3AD1D",
"Q  c #EBB31E",
"!  c #C39626",
"~  c #C89625",
"^  c #C49A25",
"/  c #CE9E26",
"(  c #C1962F",
")  c #C69E28",
"_  c #CE9D2A",
"`  c #CA9D31",
"'  c #CDA326",
"]  c #CCA12A",
"[  c #DAA523",
"{  c #DDAC26",
"}  c #D2A22C",
"|  c #D8A428",
" . c #DDAA28",
".. c #DFB527",
"X. c #D9B228",
"o. c #CDA532",
"O. c #D3A933",
"+. c #DFB033",
"@. c #DDBB3F",
"#. c #E2AE24",
"$. c #E1B326",
"%. c #EDB624",
"&. c #E6BA26",
"*. c #E8BB27",
"=. c #E6B32C",
"-. c #EBB62C",
";. c #E2BC2A",
":. c #ECBB2B",
">. c #F0BA27",
",. c #F2BD2C",
"<. c #E3B536",
"1. c #E9B732",
"2. c #ECBB33",
"3. c #E6B738",
"4. c #EBBD3D",
"5. c #F1BF33",
"6. c #EEC226",
"7. c #EFC72F",
"8. c #F1C626",
"9. c #F2C52B",
"0. c #EFC03C",
"q. c #F4C235",
"w. c #F8C534",
"e. c #F3CA33",
"r. c #F4C43B",
"t. c #F8C639",
"y. c #F6CD3D",
"u. c #AD9854",
"i. c #BEA343",
"p. c #F4CD47",
"a. c #F4CD4C",
"s. c #F9D046",
"d. c #EDC952",
"f. c white",
"g. c None",
/* pixels */
"g.g.g.g.g.g.g.g.g.g.g.g.g.g.g.g.g.g.g.g.g.g.g.g.g.g.g.g.g.g.g.g.",
"g.g.g.g.g.g.g.g.g.g.g.g.g.g.g.g.g.g.g.g.g.g.g.g.g.g.g.g.g.g.g.g.",
"g.g.g.g.g.g.g.g.g.g.g.g.g.g.g.g.g.g.g.g.g.g.g.g.g.g.g.g.g.g.g.g.",
"g.g.g.g.g.g.g.g.g.g.g.g.g.g.g.g.g.g.g.g.g.g.g.g.g.g.g.g.g.g.g.g.",
"g.g.g.g.g.g.g.g.g.g.g.g.g.f.g.g.g.g.g.g.g.g.g.g.g.g.g.g.g.g.g.g.",
"g.g.g.g.g.g.% y 4 $ 5 g.g.f.f.g.g.g.g.g.g.g.g.g.g.g.g.g.g.g.g.g.",
"g.g.g.g.g.g.X 8 3 X X g.g.f.f.f.g.g.g.g.g.g.g.g.g.g.g.g.g.g.g.g.",
"g.g.g.g.g.g.X 8 7 o + g.g.f.f.f.f.g.g.g.g.g.g.g.g.g.g.g.g.g.g.g.",
"g.g.g.g.g.g.X 8 8 8 6 g.g.g.g.g.g.g.g.g.g.g.g.g.g.g.g.g.g.g.g.g.",
"g.g.g.g.5 o = : 6 6 3 7 j D F G g.g.g.g.g.g.g.g.g.g.g.g.g.g.g.g.",
"g.g.g.g.X X - - * = , 0 a P ;.@.^ g.g.g.g.g.g.g.g.g.g.g.g.g.g.g.",
"g.g.g.g.$ X = = o < w s C P 9.e.^ ^ u.g.g.g.g.g.g.g.g.g.g.g.g.g.",
"g.g.g.g.g.g.o o * 0 g T Y V $.8.e.e.' ^ g.g.g.g.g.g.g.g.g.g.g.g.",
"g.g.g.g.g.g.X   * 0 h W R V L *.8.e.p.e.^ ^ ) g.g.g.g.g.g.g.g.g.",
"g.g.g.g.g.g.g.. 9 j h R W S d ' &.6.e.s.d.e.e.g g D g.g.g.g.g.g.",
"g.g.g.g.g.g.g.g.g B h U %.*.' M ^ X.&.6.y.a.e.e.i.I u % # g.g.g.",
"g.g.g.g.g.g.g.g.k K T n n ,.r.2.S g M ^ $.9.e.e.7.X.x x ; g.g.g.",
"g.g.g.g.g.g.g.g.n T Q 1.n [ -.5.4.{ R A V P X.6.6.' x x + % g.g.",
"g.g.g.g.g.g.g.g.m | 1.:./ n | -.t.t.:.$.Y A Z C P J x x @ % g.g.",
"g.g.g.g.g.g.g.g.z H ,.:.#._ v ~ =.5.9.w.2.<.O.o.o.J x x > g.g.g.",
"g.g.g.g.g.g.g.g.g.c / ,.1.:.1.` n [ #.<.5.5.5.2.#.V q > ; g.g.g.",
"g.g.g.g.g.g.g.g.g.z F _ ,.2.>.4.( n n )  .#.#.[ J x ; % & g.g.g.",
"g.g.g.g.g.g.g.g.g.g.b m K ,.%.r.3.2.4.~ n v ( J c % ; g.g.g.g.g.",
"g.g.g.g.g.g.g.g.f.g.g.l p F ,.} -.>.t.4.3.3.+.! q # # g.g.g.g.g.",
"g.g.g.g.g.g.g.g.f.f.f.g.g.f c n [ W %.,.,.,.=.F 2 g.g.g.g.g.g.g.",
"g.g.g.g.g.g.g.g.f.f.f.g.g.g.g.e n ,.,.,.,.,.} i ; g.g.g.g.g.g.g.",
"g.g.g.g.g.g.g.g.g.f.f.f.g.g.g.g.v p ^ ) ^ ^ c ; 2 g.g.g.g.g.g.g.",
"g.g.g.g.g.g.g.g.g.g.g.g.g.g.g.g.g.g.F D D n 2 2 g.g.g.g.g.g.g.g.",
"g.g.g.g.g.g.g.g.g.g.g.g.g.g.g.g.g.g.g.g.g.g.g.g.g.g.g.g.g.g.g.g.",
"g.g.g.g.g.g.g.g.g.g.g.g.g.g.g.g.g.g.g.g.g.g.g.g.g.g.g.g.g.g.g.g.",
"g.g.g.g.g.g.g.g.g.g.g.g.g.g.g.g.g.g.g.g.g.g.g.g.g.g.g.g.g.g.g.g.",
"g.g.g.g.g.g.g.g.g.g.g.g.g.g.g.g.g.g.g.g.g.g.g.g.g.g.g.g.g.g.g.g."
};
