/* XPM */
static char *result[] = {
/* columns rows colors chars-per-pixel */
"32 32 135 2 ",
"   c #2D170B",
".  c #311807",
"X  c #331C12",
"o  c #381E12",
"O  c #3E230A",
"+  c #3A2315",
"@  c #3E2A13",
"#  c #33221B",
"$  c #3A241A",
"%  c #3C2B1C",
"&  c #3A2A23",
"*  c #40290D",
"=  c #442414",
"-  c #4A2815",
";  c #462B1E",
":  c #4D2A1B",
">  c #4F331D",
",  c #503114",
"<  c #553A11",
"1  c #54311D",
"2  c #4A2E21",
"3  c #5D3522",
"4  c #5F3929",
"5  c #4E3C33",
"6  c #603622",
"7  c #623924",
"8  c #6B3D29",
"9  c #5C4414",
"0  c #6B4D18",
"q  c #6B501C",
"w  c #755416",
"e  c #7A5F16",
"r  c #70511C",
"t  c #7D5E19",
"y  c #6F432E",
"u  c #655326",
"i  c #745321",
"p  c #87691B",
"a  c #936E1C",
"s  c #9D7417",
"d  c #93731B",
"f  c #9D761C",
"g  c #A47D1D",
"h  c #A97F1D",
"j  c #826122",
"k  c #876826",
"l  c #8C6D26",
"z  c #8D702A",
"x  c #977620",
"c  c #997422",
"v  c #9F7823",
"b  c #94742A",
"n  c #A17A22",
"m  c #A27E28",
"M  c #AC831E",
"N  c #AF8819",
"B  c #BA8E14",
"V  c #B28719",
"C  c #B48D1C",
"Z  c #BD8F18",
"A  c #BE9217",
"S  c #BA901F",
"D  c #A68022",
"F  c #AB8323",
"G  c #AA8329",
"H  c #B08123",
"J  c #B68C21",
"K  c #BA8D23",
"L  c #B79120",
"P  c #BB9522",
"I  c #A08939",
"U  c #C1931D",
"Y  c #CD9D1B",
"T  c #D39F1C",
"R  c #D5A21B",
"E  c #DEA81F",
"W  c #E3AD1D",
"Q  c #EBB31E",
"!  c #C39626",
"~  c #C89625",
"^  c #C49A25",
"/  c #CE9E26",
"(  c #C1962F",
")  c #C69E28",
"_  c #CE9D2A",
"`  c #CA9D31",
"'  c #CDA326",
"]  c #CCA12A",
"[  c #DAA523",
"{  c #DDAC26",
"}  c #D2A22C",
"|  c #D8A428",
" . c #DDAA28",
".. c #DFB527",
"X. c #D9B228",
"o. c #CDA532",
"O. c #D3A933",
"+. c #DFB033",
"@. c #DDBB3F",
"#. c #E2AE24",
"$. c #E1B326",
"%. c #EDB624",
"&. c #E6BA26",
"*. c #E8BB27",
"=. c #E6B32C",
"-. c #EBB62C",
";. c #E2BC2A",
":. c #ECBB2B",
">. c #F0BA27",
",. c #F2BD2C",
"<. c #E3B536",
"1. c #E9B732",
"2. c #ECBB33",
"3. c #E6B738",
"4. c #EBBD3D",
"5. c #F1BF33",
"6. c #EEC226",
"7. c #EFC72F",
"8. c #F1C626",
"9. c #F2C52B",
"0. c #EFC03C",
"q. c #F4C235",
"w. c #F8C534",
"e. c #F3CA33",
"r. c #F4C43B",
"t. c #F8C639",
"y. c #F6CD3D",
"u. c #AD9854",
"i. c #BEA343",
"p. c #F4CD47",
"a. c #F4CD4C",
"s. c #F9D046",
"d. c #EDC952",
"f. c white",
"g. c None",
/* pixels */
"g.g.g.g.g.g.g.g.g.g.g.g.g.g.g.g.g.g.g.g.g.g.g.g.g.g.g.g.g.g.g.g.",
"g.g.g.g.g.g.g.g.g.g.g.g.g.g.g.g.g.g.g.g.g.g.g.g.g.g.g.g.g.g.g.g.",
"g.g.g.g.g.g.g.g.g.g.g.g.g.g.g.g.g.g.g.g.g.g.g.g.g.g.g.g.g.g.g.g.",
"g.g.g.g.g.g.g.g.g.g.g.g.g.g.g.g.g.g.g.g.g.g.g.g.g.g.g.g.g.g.g.g.",
"g.g.g.g.g.g.g.g.g.g.g.g.g.g.g.g.g.g.f.g.g.g.g.g.g.g.g.g.g.g.g.g.",
"g.g.g.g.g.g.g.g.g.g.g.g.g.g.g.g.g.f.f.g.g.5 $ 4 y & g.g.g.g.g.g.",
"g.g.g.g.g.g.g.g.g.g.g.g.g.g.g.g.f.f.f.g.g.X X 3 8 X g.g.g.g.g.g.",
"g.g.g.g.g.g.g.g.g.g.g.g.g.g.g.f.f.f.f.g.g.+ o 7 8 X g.g.g.g.g.g.",
"g.g.g.g.g.g.g.g.g.g.g.g.g.g.g.g.g.g.g.g.g.6 7 8 8 X g.g.g.g.g.g.",
"g.g.g.g.g.g.g.g.g.g.g.g.g.g.g.g.D D D j 7 3 6 6 : = $ 5 g.g.g.g.",
"g.g.g.g.g.g.g.g.g.g.g.g.g.g.g.) @.;.A a 0 , * = - - X o g.g.g.g.",
"g.g.g.g.g.g.g.g.g.g.g.g.g.u.^ ) e.e.U V g w < o = = o o g.g.g.g.",
"g.g.g.g.g.g.g.g.g.g.g.g.) ^ e.e.8.$.C Y Y n 0 * o X g.g.g.g.g.g.",
"g.g.g.g.g.g.g.g.g.) ^ ^ e.p.e.6.*.L C R W H q *   X g.g.g.g.g.g.",
"g.g.g.g.g.g.D g g e.e.d.s.e.6.&.' d P W R h t 9 . g.g.g.g.g.g.g.",
"g.g.g.# % u I i.e.e.a.y.6.*.{ ^ D / *.%.U M Z g g.g.g.g.g.g.g.g.",
"g.g.g.; x x X.7.e.e.9.$.^ M g C 3.r.,.n n T K k g.g.g.g.g.g.g.g.",
"g.g.% + x x ] 6.6.X.P N B R #.4.9.>.| n -.Q T m g.g.g.g.g.g.g.g.",
"g.g.% @ x x J P L C Z Y $.5.t.t.%.| n _ 2.:./ G g.g.g.g.g.g.g.g.",
"g.g.g.> x x J ] o.O.<.5.9.w.5.=.~ n /  .,.9.H l g.g.g.g.g.g.g.g.",
"g.g.g.; > q M #.2.5.q.5.1.{ [ v ` 1.-.1.,./ c g.g.g.g.g.g.g.g.g.",
"g.g.g.& % 2 x J [ $.#. .~ n n ( 4.>.2.,._ F z g.g.g.g.g.g.g.g.g.",
"g.g.g.g.g.2 % x K ! n v ^ 4.4.3.0.%.,.K m b g.g.g.g.g.g.g.g.g.g.",
"g.g.g.g.g.# # 0 ! +.<.3.4.t.>.%.} 5.H p l g.g.f.g.g.g.g.g.g.g.g.",
"g.g.g.g.g.g.g.; H =.,.,.,.%.W [ n c f g.g.f.f.f.g.g.g.g.g.g.g.g.",
"g.g.g.g.g.g.g.; i ] ,.,.,.,.,.n e g.g.g.g.f.f.f.g.g.g.g.g.g.g.g.",
"g.g.g.g.g.g.g.2 2 x ! ! ! ! p m g.g.g.g.f.f.f.g.g.g.g.g.g.g.g.g.",
"g.g.g.g.g.g.g.g.2 2 D D D D g.g.g.g.g.g.g.g.g.g.g.g.g.g.g.g.g.g.",
"g.g.g.g.g.g.g.g.g.g.g.g.g.g.g.g.g.g.g.g.g.g.g.g.g.g.g.g.g.g.g.g.",
"g.g.g.g.g.g.g.g.g.g.g.g.g.g.g.g.g.g.g.g.g.g.g.g.g.g.g.g.g.g.g.g.",
"g.g.g.g.g.g.g.g.g.g.g.g.g.g.g.g.g.g.g.g.g.g.g.g.g.g.g.g.g.g.g.g.",
"g.g.g.g.g.g.g.g.g.g.g.g.g.g.g.g.g.g.g.g.g.g.g.g.g.g.g.g.g.g.g.g."
};
