/* XPM */
static char *result[] = {
/* columns rows colors chars-per-pixel */
"32 32 243 2 ",
"   c #2D1402",
".  c #2D170B",
"X  c #2F190F",
"o  c #301A0F",
"O  c #2F1A10",
"+  c #2D1B13",
"@  c #301A10",
"#  c #311A10",
"$  c #321B11",
"%  c #341B10",
"&  c #331C11",
"*  c #351D10",
"=  c #371D12",
"-  c #381E12",
";  c #381F13",
":  c #3C2109",
">  c #3F250B",
",  c #3A2713",
"<  c #3A2014",
"1  c #3E2A13",
"2  c #392817",
"3  c #33231C",
"4  c #34231C",
"5  c #3A291B",
"6  c #3E2F1B",
"7  c #40290D",
"8  c #432310",
"9  c #432415",
"0  c #452516",
"q  c #482911",
"w  c #4B2817",
"e  c #462B1E",
"r  c #4A291B",
"t  c #4F2B1A",
"y  c #4F331D",
"u  c #503114",
"i  c #553A11",
"p  c #50301B",
"a  c #57321F",
"s  c #4D2E20",
"d  c #5A3323",
"f  c #5B3423",
"g  c #5F3521",
"h  c #603622",
"j  c #603C20",
"k  c #623825",
"l  c #633826",
"z  c #643926",
"x  c #6A3C28",
"c  c #6A3D28",
"v  c #6E3F2A",
"b  c #5C4414",
"n  c #6C4918",
"m  c #6A4F18",
"M  c #6B4F18",
"N  c #6B501C",
"B  c #755416",
"V  c #7A5F16",
"C  c #70511C",
"Z  c #7D5E19",
"A  c #655326",
"S  c #745321",
"D  c #83651B",
"F  c #82621E",
"G  c #86671C",
"H  c #866819",
"J  c #87691C",
"K  c #8D6C1D",
"L  c #936E1C",
"P  c #9D7417",
"I  c #93731B",
"U  c #9D761C",
"Y  c #9D771D",
"T  c #A27A1A",
"R  c #A37C1F",
"E  c #A47D1C",
"W  c #A97F1D",
"Q  c #815F20",
"!  c #8B6A21",
"~  c #977620",
"^  c #987421",
"/  c #9A7423",
"(  c #9F7823",
")  c #9F7923",
"_  c #A17A22",
"`  c #A67E20",
"'  c #AD821B",
"]  c #A8821F",
"[  c #AB841E",
"{  c #AE851E",
"}  c #AF8819",
"|  c #BA8E14",
" . c #B28719",
".. c #B78F1A",
"X. c #B28A1C",
"o. c #B48D1D",
"O. c #BD8F18",
"+. c #BE9217",
"@. c #BA901F",
"#. c #AB8222",
"$. c #AE8320",
"%. c #AE8422",
"&. c #A98124",
"*. c #AF8625",
"=. c #B08123",
"-. c #B78B20",
";. c #B38E22",
":. c #B78D20",
">. c #BB8C20",
",. c #B88D26",
"<. c #B79120",
"1. c #B99222",
"2. c #BA9721",
"3. c #BC9421",
"4. c #BE9721",
"5. c #BE9722",
"6. c #B99527",
"7. c #A08939",
"8. c #C1931D",
"9. c #C99A19",
"0. c #CE9F1B",
"q. c #CF9D1C",
"w. c #D39F1B",
"e. c #D39F1C",
"r. c #D2A018",
"t. c #D5A31B",
"y. c #D7A31D",
"u. c #DEA81F",
"i. c #E3AA1C",
"p. c #E3AF1E",
"a. c #EBB31E",
"s. c #C39626",
"d. c #C89625",
"f. c #C49B22",
"g. c #C49827",
"h. c #CB9B25",
"j. c #CF9E26",
"k. c #CF9F27",
"l. c #C1962F",
"z. c #CE9D2A",
"x. c #CA9D31",
"c. c #CCA026",
"v. c #CEA127",
"b. c #CEA724",
"n. c #CCA12A",
"m. c #DAA420",
"M. c #D8A621",
"N. c #DBA624",
"B. c #D9A427",
"V. c #DFAB26",
"C. c #D9AD27",
"Z. c #DFAD25",
"A. c #D2A22C",
"S. c #D8A428",
"D. c #DAA828",
"F. c #DFAC28",
"G. c #DFB527",
"H. c #DAB028",
"J. c #D8B428",
"K. c #CDA532",
"L. c #D3A933",
"P. c #DFB033",
"I. c #DDBB3F",
"U. c #E4AF23",
"Y. c #E3AF24",
"T. c #E0AD26",
"R. c #E2B025",
"E. c #E0B526",
"W. c #EDB522",
"Q. c #ECB622",
"!. c #EDB625",
"~. c #EDB527",
"^. c #E7BB25",
"/. c #E5B926",
"(. c #E8BB27",
"). c #E4B02A",
"_. c #E7B32C",
"`. c #E7B52F",
"'. c #EDB729",
"]. c #E8B52E",
"[. c #E2BC2A",
"{. c #EBB828",
"}. c #EFB929",
"|. c #EABF28",
" X c #EABF2A",
".X c #EDB92D",
"XX c #EDB92E",
"oX c #EEBA2F",
"OX c #F0BA27",
"+X c #F2BB28",
"@X c #F2BB2A",
"#X c #F1BC2B",
"$X c #F2BD2C",
"%X c #F2BE2C",
"&X c #F1BD2E",
"*X c #E0B333",
"=X c #E4B537",
"-X c #E4B637",
";X c #E9B731",
":X c #E8B733",
">X c #EDBB31",
",X c #EFBE33",
"<X c #E8B936",
"1X c #E6B738",
"2X c #EBBA38",
"3X c #EBBD3D",
"4X c #EABD3F",
"5X c #EBBE3E",
"6X c #F3BF30",
"7X c #F0BF33",
"8X c #F0BE36",
"9X c #EEC226",
"0X c #EFC72F",
"qX c #F1C626",
"wX c #F1C728",
"eX c #F1C629",
"rX c #F6C12F",
"tX c #F0C42C",
"yX c #F0C52D",
"uX c #EFC03C",
"iX c #F7C432",
"pX c #F2C036",
"aX c #F4C237",
"sX c #F8C431",
"dX c #F8C637",
"fX c #F2CA33",
"gX c #F4C930",
"hX c #F4CB32",
"jX c #F5CC33",
"kX c #F3CB34",
"lX c #F5CC36",
"zX c #F5C339",
"xX c #F1C23D",
"cX c #F6C63C",
"vX c #F8C639",
"bX c #F6CD3D",
"nX c #A48D42",
"mX c #BEA343",
"MX c #F4CD47",
"NX c #F4CD4C",
"BX c #F9D046",
"VX c #EDC952",
"CX c None",
/* pixels */
"CXCXCXCXCXCXCXCXCXCXCXCXCXCXCXCXCXCXCXCXCXCXCXCXCXCXCXCXCXCXCXCX",
"CXCXCXCXCXCXCXCXCXCXCXCXCXCXCXCXCXCXCXCXCXCXCXCXCXCXCXCXCXCXCXCX",
"CXCXCXCXCXCXCXCXCXCXCXCXCXCXCXCXCXCXCXCXCXCXCXCXCXCXCXCXCXCXCXCX",
"CXCXCXCXCXCXCXCXCXCXCXCXCXCXCXCXCXCXCXCXCXCXCXCXCXCXCXCXCXCXCXCX",
"CXCXCXCXCXCXCXCXCXCXCXCXCXCXCXCXCXCXCXCXCXCXCXCXCXCXCXCXCXCXCXCX",
"CXCXCXCXCXCX# c d $ O CXCXCXCXCXCXCXCXCXCXCXCXCXCXCXCXCXCXCXCXCX",
"CXCXCXCXCXCX# c f & @ CXCXCXCXCXCXCXCXCXCXCXCXCXCXCXCXCXCXCXCXCX",
"CXCXCXCXCXCX# c l ; < CXCXCXCXCXCXCXCXCXCXCXCXCXCXCXCXCXCXCXCXCX",
"CXCXCXCXCXCX@ x v z k CXCXCXCXCXCXCXCXCXCXCXCXCXCXCXCXCXCXCXCXCX",
"CXCXCXCXo * 0 t g h a j Q E E E CXCXCXCXCXCXCXCXCXCXCXCXCXCXCXCX",
"CXCXCXCXX % w w 8 q u n L 2.[.I.f.CXCXCXCXCXCXCXCXCXCXCXCXCXCXCX",
"CXCXCXCX% = 9 9 : i B P  .4.eXkXf.f.nXCXCXCXCXCXCXCXCXCXCXCXCXCX",
"CXCXCXCXCXCX- - > M R q.9.o.E.wXlXfXf.f.CXCXCXCXCXCXCXCXCXCXCXCX",
"CXCXCXCXCXCXX . 7 m $.u.t.X.1.(.qXjXMXfXf.f.f.CXCXCXCXCXCXCXCXCX",
"CXCXCXCXCXCXCX  b Z W y.p.3.I v./.9XgXBXVXfXfXE E E CXCXCXCXCXCX",
"CXCXCXCXCXCXCXCXT O.' 8.Q.{.c.] g.C.^.tXbXNXfXfXmX7.A 2 + CXCXCX",
"CXCXCXCXCXCXCXCXF >.e.( ( @XzX<X@.E [ f.G.yXhXfX0XJ.~ ~ r CXCXCX",
"CXCXCXCXCXCXCXCXY w.a.].( B.'.rX5XZ.r.| } 5.H. X|.b.~ ~ , 5 CXCX",
"CXCXCXCXCXCXCXCX` j.XX.Xk.( S.~.dXcX7XR.0.+...<.6.;.~ ~ 1 5 CXCX",
"CXCXCXCXCXCXCXCX! *.%X&XF.k.( d._.6XsXiX,X*XL.K.n.:.~ ~ p CXCXCX",
"CXCXCXCXCXCXCXCXCX^ h.%X;XXX:Xx.( N.V.`.8XaXpX>XT.{ C y e CXCXCX",
"CXCXCXCXCXCXCXCXCXG #.z.%XoXOX4Xl.( ( g.D.Y.U.M.-.~ e 5 4 CXCXCX",
"CXCXCXCXCXCXCXCXCXCXK &.,.%XW.xX-X2X3Xg.( ( g.-.~ 6 e CXCXCXCXCX",
"CXCXCXCXCXCXCXCXCXCXCXD J %.%XA.}.+XvXuX1X=XP.s.N 3 4 CXCXCXCXCX",
"CXCXCXCXCXCXCXCXCXCXCXCXCXU / ( m.i.!.#X$X%X).=.e CXCXCXCXCXCXCX",
"CXCXCXCXCXCXCXCXCXCXCXCXCXCXCXV _ %X%X%X%X%XA.S e CXCXCXCXCXCXCX",
"CXCXCXCXCXCXCXCXCXCXCXCXCXCXCXCX) H g.g.g.g.~ e s CXCXCXCXCXCXCX",
"CXCXCXCXCXCXCXCXCXCXCXCXCXCXCXCXCXCXE E E E e e CXCXCXCXCXCXCXCX",
"CXCXCXCXCXCXCXCXCXCXCXCXCXCXCXCXCXCXCXCXCXCXCXCXCXCXCXCXCXCXCXCX",
"CXCXCXCXCXCXCXCXCXCXCXCXCXCXCXCXCXCXCXCXCXCXCXCXCXCXCXCXCXCXCXCX",
"CXCXCXCXCXCXCXCXCXCXCXCXCXCXCXCXCXCXCXCXCXCXCXCXCXCXCXCXCXCXCXCX",
"CXCXCXCXCXCXCXCXCXCXCXCXCXCXCXCXCXCXCXCXCXCXCXCXCXCXCXCXCXCXCXCX"
};
