/* XPM */
static char *result[] = {
/* columns rows colors chars-per-pixel */
"32 32 158 2 ",
"   c #1F150C",
".  c #1C150F",
"X  c #28180B",
"o  c #2A1A0D",
"O  c #2A1A0E",
"+  c #331E0D",
"@  c #351F0D",
"#  c #211912",
"$  c #2C1E12",
"%  c #35200E",
"&  c #37200E",
"*  c #39210D",
"=  c #3A210D",
"-  c #3C2310",
";  c #42260F",
":  c #45260F",
">  c #49270F",
",  c #4A280F",
"<  c #422610",
"1  c #492910",
"2  c #4B2D12",
"3  c #4F2C10",
"4  c #4F2C12",
"5  c #4E2C13",
"6  c #4A2C15",
"7  c #4C2D14",
"8  c #502D11",
"9  c #512D11",
"0  c #522D11",
"q  c #522E11",
"w  c #532E11",
"e  c #552F12",
"r  c #4B321C",
"t  c #4A321D",
"y  c #4C311C",
"u  c #563011",
"i  c #553012",
"p  c #563112",
"a  c #573213",
"s  c #533014",
"d  c #553114",
"f  c #583212",
"g  c #593313",
"h  c #5A3313",
"j  c #5A3413",
"k  c #593314",
"l  c #593414",
"z  c #5B3515",
"x  c #5B3617",
"c  c #5E3817",
"v  c #563318",
"b  c #573519",
"n  c #593518",
"m  c #5B3618",
"M  c #623C1A",
"N  c #643C18",
"B  c #663E1A",
"V  c #423426",
"C  c #4A3520",
"Z  c #4F3822",
"A  c #4E3C29",
"S  c #5D3F28",
"D  c #67401D",
"F  c #67401E",
"G  c #68411F",
"H  c #6B431E",
"J  c #51402E",
"K  c #53422F",
"L  c #54402C",
"P  c #604427",
"I  c #6A4320",
"U  c #6A4322",
"Y  c #6C4521",
"T  c #6E4621",
"R  c #6A4525",
"E  c #6E4924",
"W  c #674B2F",
"Q  c #6E4B29",
"!  c #704721",
"~  c #704822",
"^  c #714822",
"/  c #734A24",
"(  c #724A25",
")  c #754D27",
"_  c #764D27",
"`  c #764E28",
"'  c #734D2C",
"]  c #734E2D",
"[  c #754F2F",
"{  c #785029",
"}  c #795029",
"|  c #7B522A",
" . c #7A522B",
".. c #7B522B",
"X. c #7C532B",
"o. c #78502C",
"O. c #7C532C",
"+. c #7D542C",
"@. c #7E552C",
"#. c #7E552D",
"$. c #7F562E",
"%. c #7F562F",
"&. c #685037",
"*. c #67513B",
"=. c #7C5530",
"-. c #7D5530",
";. c #7C5633",
":. c #7D5733",
">. c #795534",
",. c #7C5938",
"<. c #7C5C3C",
"1. c #81582F",
"2. c #825932",
"3. c #845A32",
"4. c #815934",
"5. c #855D36",
"6. c #865E36",
"7. c #885F35",
"8. c #815C38",
"9. c #835C38",
"0. c #855D38",
"q. c #876037",
"w. c #87613B",
"e. c #87603D",
"r. c #86613D",
"t. c #88613B",
"y. c #8E653B",
"u. c #88623C",
"i. c #8C643C",
"p. c #856544",
"a. c #8F6F4D",
"s. c #906941",
"d. c #926941",
"f. c #936A41",
"g. c #926A42",
"h. c #906944",
"j. c #916B44",
"k. c #936A45",
"l. c #976E45",
"z. c #997146",
"x. c #98724B",
"c. c #9C7248",
"v. c #9E754B",
"b. c #9C7752",
"n. c #A2784E",
"m. c #A37A51",
"M. c #A57C52",
"N. c #A87E53",
"B. c #AA8155",
"V. c #AC8356",
"C. c #B2885D",
"Z. c #B4895D",
"A. c #B58C5F",
"S. c #B78E60",
"D. c #B78D62",
"F. c #B78E62",
"G. c #B99166",
"H. c None",
/* pixels */
"H.H.H.H.H.H.H.H.H.H.H.H.H.H.H.H.H.H.H.H.H.H.H.H.H.H.H.H.H.H.H.H.",
"H.H.H.H.H.H.H.H.H.H.H.H.H.H.H.H.H.H.H.H.H.H.H.H.H.H.H.H.H.H.H.H.",
"H.H.H.H.H.H.H.H.H.H.H.H.H.H.H.H.H.H.H.H.H.H.H.H.H.H.H.H.H.H.H.H.",
"H.H.H.H.H.H.H.H.H.H.H.H.H.H.H.H.H.H.H.H.H.H.H.H.H.H.H.H.H.H.H.H.",
"H.H.H.H.H.H.H.H.H.H.H.H.H.H.H.H.H.H.H.H.H.H.H.H.H.H.H.H.H.H.H.H.",
"H.H.H.H.H.H.H.H.H.H.H.H.H.H.H.H.H.H.H.H.H.H.H.H.H.H.H.H.H.H.H.H.",
"H.H.H.H.H.H.H.H.H.H.H.H.H.H.H.H.H.H.H.H.H.H.H.H.H.H.H.H.H.H.H.H.",
"H.H.H.H.H.H.H.H.H.H.H.H.H.H.H.H.H.H.H.H.H.H.H.H.H.H.H.H.H.H.H.H.",
"H.H.H.H.H.H.H.H.H.H.H.H.H.H.H.L K H.H.H.H.H.H.H.H.H.H.H.H.H.H.H.",
"H.H.H.H.H.H.H.H.H.H.H.H.H.V Z ,.a.*.H.H.H.H.H.H.H.H.H.H.H.H.H.H.",
"H.H.H.H.H.H.H.H.H.H.H.H.t E F :.A.Z.b.J H.H.H.H.H.H.H.H.H.H.H.H.",
"H.H.H.H.H.H.H.H.H.H.H.C Q g.4.e.S.A.V.p.H.H.H.H.H.H.H.H.H.H.H.H.",
"H.H.H.H.H.H.H.H.H.H.H.W s.9.;.m.F.G.B.x.&.H.H.H.H.H.H.H.H.H.H.H.",
"H.H.H.H.H.H.H.H.H.H.. =.l.' o.k.C.D.n.z.<.H.H.H.H.H.H.H.H.H.H.H.",
"H.H.H.H.H.H.H.H.H.H.% I 2.0.d.] M.N.c.y.t.# H.H.H.H.H.H.H.H.H.H.",
"H.H.H.H.H.H.H.H.H.H.2 n U -.v.[ f.i.5.$.3.A H.H.H.H.H.H.H.H.H.H.",
"H.H.H.H.H.H.H.H.H.O b w m >.w.6. .q...| r.j.H.H.H.H.H.H.H.H.H.H.",
"H.H.H.H.H.H.H.H.H.o 3 a c H { 7.+.#.@.O.} h.H.H.H.H.H.H.H.H.H.H.",
"H.H.H.H.H.H.H.H.H.X d j l N ~ 1.X.#.X._ ^ u.H.H.H.H.H.H.H.H.H.H.",
"H.H.H.H.H.H.H.H.H.H.S f p x M %.` 8.( ! Y P H.H.H.H.H.H.H.H.H.H.",
"H.H.H.H.H.H.H.H.H.H.r 9 e d z ~ ) R G T D $ H.H.H.H.H.H.H.H.H.H.",
"H.H.H.H.H.H.H.H.H.H.  w q g i B / p h u 1 H.H.H.H.H.H.H.H.H.H.H.",
"H.H.H.H.H.H.H.H.H.H.H.< , v 5 0 k s 8 : & H.H.H.H.H.H.H.H.H.H.H.",
"H.H.H.H.H.H.H.H.H.H.H.H.* y 6 > 4 7 ; + H.H.H.H.H.H.H.H.H.H.H.H.",
"H.H.H.H.H.H.H.H.H.H.H.H.H.H.@ = - H.H.H.H.H.H.H.H.H.H.H.H.H.H.H.",
"H.H.H.H.H.H.H.H.H.H.H.H.H.H.H.H.H.H.H.H.H.H.H.H.H.H.H.H.H.H.H.H.",
"H.H.H.H.H.H.H.H.H.H.H.H.H.H.H.H.H.H.H.H.H.H.H.H.H.H.H.H.H.H.H.H.",
"H.H.H.H.H.H.H.H.H.H.H.H.H.H.H.H.H.H.H.H.H.H.H.H.H.H.H.H.H.H.H.H.",
"H.H.H.H.H.H.H.H.H.H.H.H.H.H.H.H.H.H.H.H.H.H.H.H.H.H.H.H.H.H.H.H.",
"H.H.H.H.H.H.H.H.H.H.H.H.H.H.H.H.H.H.H.H.H.H.H.H.H.H.H.H.H.H.H.H.",
"H.H.H.H.H.H.H.H.H.H.H.H.H.H.H.H.H.H.H.H.H.H.H.H.H.H.H.H.H.H.H.H.",
"H.H.H.H.H.H.H.H.H.H.H.H.H.H.H.H.H.H.H.H.H.H.H.H.H.H.H.H.H.H.H.H."
};
