/* XPM */
static char *result[] = {
/* columns rows colors chars-per-pixel */
"32 32 111 2 ",
"   c #271C05",
".  c #2A1D05",
"X  c #022204",
"o  c #06260A",
"O  c #07280D",
"+  c #0A2A0D",
"@  c #102F04",
"#  c #112F0A",
"$  c #0F300D",
"%  c #153404",
"&  c #1A3A04",
"*  c #14330C",
"=  c #18370F",
"-  c #1A3B0D",
";  c #0D2D14",
":  c #0E2F18",
">  c #0F3016",
",  c #0F3119",
"<  c #133315",
"1  c #183716",
"2  c #173817",
"3  c #1B3A14",
"4  c #13341C",
"5  c #1B3B1D",
"6  c #2F2106",
"7  c #26220B",
"8  c #2B2208",
"9  c #2D2A0E",
"0  c #332407",
"q  c #382707",
"w  c #382608",
"e  c #352A0B",
"r  c #3D2A08",
"t  c #232C15",
"y  c #2D2D11",
"u  c #263017",
"i  c #223D12",
"p  c #293B14",
"a  c #263118",
"s  c #233E1B",
"d  c #153721",
"f  c #173923",
"g  c #1B3C24",
"h  c #1D3F28",
"j  c #1F4019",
"k  c #234306",
"l  c #224209",
"z  c #2B4B09",
"x  c #374B0E",
"c  c #325407",
"v  c #35550C",
"b  c #395A0C",
"n  c #224316",
"m  c #2B4414",
"M  c #2B4B15",
"N  c #23441C",
"B  c #28441C",
"V  c #26481C",
"C  c #2B4B1B",
"Z  c #334F1E",
"A  c #2F5116",
"S  c #2E5019",
"D  c #335413",
"F  c #375817",
"G  c #3B5C12",
"H  c #35531F",
"J  c #3F5A1F",
"K  c #3F600E",
"L  c #1F4025",
"P  c #1F4128",
"I  c #224323",
"U  c #264821",
"Y  c #2C4B25",
"T  c #23442A",
"R  c #27492B",
"E  c #2A4C2D",
"W  c #314E23",
"Q  c #2E502E",
"!  c #345126",
"~  c #3A5525",
"^  c #3D5925",
"/  c #355329",
"(  c #385728",
")  c #2B4E31",
"_  c #2E5032",
"`  c #335535",
"'  c #365835",
"]  c #385A37",
"[  c #365938",
"{  c #385B39",
"}  c #3C603B",
"|  c #40610E",
" . c #486117",
".. c #45631A",
"X. c #4F661C",
"o. c #4C6919",
"O. c #536B1C",
"+. c #445D23",
"@. c #4B6525",
"#. c #4F6921",
"$. c #536D27",
"%. c #5C7427",
"&. c #56702C",
"*. c #416236",
"=. c #4E6B31",
"-. c #526F32",
";. c #547030",
":. c #617725",
">. c #647A26",
",. c #698028",
"<. c None",
/* pixels */
"<.<.<.<.<.<.<.<.<.<.<.<.<.<.<.<.<.<.<.<.<.<.<.<.<.<.<.<.<.<.<.<.",
"<.<.<.<.<.<.<.<.<.<.f h h f f g f g f f Y L C g f <.<.<.<.<.<.<.",
"<.<.<.<.<.<.<.<.f f g >.^ g Y #.N f f f @.I G V g ! <.<.<.<.<.<.",
"<.<.<.<.<.<.<.f f 4 5 +.I d ^ :.3 ; ; f I I 3 d I >.>.<.<.<.<.<.",
"<.<.<.<.<.g g f f 4 + O 4 g g V s * X g R L o + 4 Y / <.<.<.<.<.",
"<.<.<.<.f I @.h g M V * 4 ) I ~ o.b n f L L 5 4 d f T [ <.<.<.<.",
"<.<.<.f d h Y d + O.v D T ) f 3 m n b f f ! >.5 ; 4 d h <.<.<.<.",
"<.<.f g I g g d 4 i + D N 4 , o o + 1 4 d L +.2 ; 5 h h ` <.<.<.",
"<.<.f h @.j d h d d X 3 3 ; 4 , 4 d f O > 4 g g ) *.] E ) T <.<.",
"<.<.d W n o * #.B M z % > d g _ ' { ` 5 , E P ` ^ X.< 5 2 d T <.",
"<.s O M j j L U < & l c < ; 4 g > + 5 < X O < 5 ; < ; - M 5 } <.",
"<.B - D M C U P L X X k % X X X X X X X X > X ; ; d h 4 4 f E <.",
"<.< * + + ; , L 4 % = X O 4 f E E T O > ; L > X + E Q Q T d f <.",
"<.@.I * * * 2 J F b - : 4 4 E Q N E 2 > O ; ; > 5 4 > g E 5 f <.",
"<.%.U  .A M S ..D 5 + ; f R E ; > d d R g 4 + 4 T L + l M _ T <.",
"<.<.I ~ Z 4 ! $.h + o 4 g _ h ; 4 4 ; 4 , , P ` =.&.E L I [ <.<.",
"<.<.f I +.$ 4 2 3 k M g f Q g O ; ; O d d d I f 5 s h g _ ` <.<.",
"<.<.<.g g d ; o +  .D D f f 3 l M - 4 f g ( :.I < < f f <.<.<.<.",
"<.<.<.<.f Y ^ g g @.L c B f 5  .o.K N d 4 ;.&.] ` h f h <.<.<.<.",
"<.<.<.<.<.Y +.g 4 > + < 5 f g W B l b f 5 5 + ; T h T { <.<.<.<.",
"<.<.<.<.<.<.<.d O o ; g f f 4 < o + 2 f ) 5 ; 4 g ^ / <.<.<.<.<.",
"<.<.<.<.<.<.<.<.<.d ^ @.I g #.>.I d 4 g I T I f Y >.<.<.<.<.<.<.",
"<.<.<.<.<.<.<.<.<.<.<.@.W g I W g f f g $.C | V g <.<.<.<.<.<.<.",
"<.<.<.<.<.<.<.<.<.<.<.<.g a t <.7 <.e <.<.<.<.| <.<.<.<.<.<.<.<.",
"<.<.<.<.<.<.<.<.<.<.<.<.<.e . <.. <.r <.<.<.<.<.<.<.<.<.<.<.<.<.",
"<.<.<.<.<.<.<.<.<.<.<.<.<.w <.<.<.<.r <.<.<.<.<.<.<.<.<.<.<.<.<.",
"<.<.<.<.<.<.<.<.<.<.<.<.<.0 <.<.  <.r . 9 <.0 <.<.<.<.<.<.<.<.<.",
"<.<.<.<.<.<.<.<.<.<.<.<.y 6 <.. <.<.q 7 D t <.m p <.. <.<.<.<.<.",
"<.<.<.<.<.<.<.<.<.<.<.<.<.0 . . 0 <.0 8 x t <.D C t 0 6 <.<.<.<.",
"<.<.<.<.<.<.<.<.<.<.<.<.6 0 . 6 w w . w e e <.p s t 6 w w w <.<.",
"<.<.<.<.<.<.<.<.<.<.<.<.<.<.<.q q q <.<.<.w r <.<.<.<.w w w <.<.",
"<.<.<.<.<.<.<.<.<.<.<.<.<.<.<.<.<.<.<.<.<.<.<.<.<.<.<.<.<.<.<.<."
};
