/* XPM */
static char *fa872b61a2664e1ef2d11eaccca1291fTxC2qVnPfIsaI4Az[] = {
/* columns rows colors chars-per-pixel */
"32 32 207 2 ",
"   c #4D522C",
".  c #50572D",
"X  c #5C5F2D",
"o  c #595E3B",
"O  c #695C3B",
"+  c #5B6C2E",
"@  c #597226",
"#  c #5A722D",
"$  c #536431",
"%  c #5D6B35",
"&  c #5E623D",
"*  c #597B3A",
"=  c #646E2E",
"-  c #716E2E",
";  c #61722A",
":  c #717B2C",
">  c #636C33",
",  c #63633B",
"<  c #6B673C",
"1  c #65683F",
"2  c #6C6F3C",
"3  c #706B35",
"4  c #716B3F",
"5  c #637534",
"6  c #697533",
"7  c #657B34",
"8  c #6C7C35",
"9  c #64723B",
"0  c #6C733C",
"q  c #657B3A",
"w  c #6D7B3B",
"e  c #737B35",
"r  c #71743C",
"t  c #7C773A",
"y  c #737C3C",
"u  c #78793E",
"i  c #585A40",
"p  c #685B40",
"a  c #5F6342",
"s  c #5F7E42",
"d  c #686A47",
"f  c #716C42",
"g  c #796B44",
"h  c #736E48",
"j  c #6C7443",
"k  c #6E7C42",
"l  c #6E7648",
"z  c #667949",
"x  c #6E7E49",
"c  c #747545",
"v  c #737B44",
"b  c #7B7C45",
"n  c #75744E",
"m  c #7B754B",
"M  c #767E48",
"N  c #7A7B4A",
"B  c #7C7955",
"V  c #7E7674",
"C  c #847543",
"Z  c #827C4E",
"A  c #847C55",
"S  c #917759",
"D  c #9B7D66",
"F  c #67802D",
"G  c #638233",
"H  c #6B8335",
"J  c #6D8A34",
"K  c #66823B",
"L  c #6D823C",
"P  c #638A38",
"I  c #6D8A3C",
"U  c #728435",
"Y  c #7A8134",
"T  c #718D35",
"R  c #7A8B33",
"E  c #73833C",
"W  c #7B853C",
"Q  c #748C3C",
"!  c #7B8C3B",
"~  c #6D923C",
"^  c #799734",
"/  c #76913D",
"(  c #7C943D",
")  c #668546",
"_  c #6B8443",
"`  c #688F40",
"'  c #748443",
"]  c #7C8444",
"[  c #748C43",
"{  c #7C8B43",
"}  c #748349",
"|  c #7C834B",
" . c #748A4C",
".. c #7C8C4B",
"X. c #6A904A",
"o. c #769241",
"O. c #7B9243",
"+. c #7C9944",
"@. c #7C934B",
"#. c #74994D",
"$. c #7C9B4B",
"%. c #768452",
"&. c #7E8552",
"*. c #758B52",
"=. c #7C8B52",
"-. c #7E9854",
";. c #7C9358",
":. c #849E28",
">. c #858C3E",
",. c #899231",
"<. c #83943C",
"1. c #849B3C",
"2. c #8A9B3D",
"3. c #909837",
"4. c #8EA03F",
"5. c #8AAA3E",
"6. c #828343",
"7. c #848C44",
"8. c #8B8C45",
"9. c #84824B",
"0. c #8B8549",
"q. c #848D4C",
"w. c #8B8E4D",
"e. c #908A47",
"r. c #839344",
"t. c #8A9443",
"y. c #849A46",
"u. c #8B9C43",
"i. c #83934C",
"p. c #8A934C",
"a. c #849B4B",
"s. c #8B9B4C",
"d. c #909B40",
"f. c #92954C",
"g. c #9A964C",
"h. c #929A4C",
"j. c #838453",
"k. c #8A8552",
"l. c #848D52",
"z. c #8C8D55",
"x. c #858A5A",
"c. c #8C8D5B",
"v. c #928D56",
"b. c #988C50",
"n. c #92875A",
"m. c #839454",
"M. c #8A9453",
"N. c #849B52",
"B. c #8C9B52",
"V. c #85945C",
"C. c #8C965A",
"Z. c #869B59",
"A. c #8C9B5C",
"S. c #929455",
"D. c #989054",
"F. c #929C53",
"G. c #9B9C54",
"H. c #93965B",
"J. c #9A935D",
"K. c #959D5B",
"L. c #999C5B",
"P. c #82A242",
"I. c #8EA242",
"U. c #84A24B",
"Y. c #8BA14C",
"T. c #98A14F",
"R. c #9CA94B",
"E. c #98B74E",
"W. c #87A051",
"Q. c #8DA354",
"!. c #8BA957",
"~. c #8BA159",
"^. c #8FA95E",
"/. c #93A253",
"(. c #98A557",
"). c #93A35B",
"_. c #9BA45C",
"`. c #9FAA5A",
"'. c #A6B64E",
"]. c #A3A45E",
"[. c #AEA558",
"{. c #ACB754",
"}. c #958B66",
"|. c #889560",
" X c #8F9E61",
".X c #969463",
"XX c #939D62",
"oX c #9D9D62",
"OX c #92966B",
"+X c #9E976A",
"@X c #9C9E6A",
"#X c #A49E62",
"$X c #A69C6E",
"%X c #96A462",
"&X c #9AA263",
"*X c #9CAA63",
"=X c #97A76C",
"-X c #9EA369",
";X c #9BB765",
":X c #A2A464",
">X c #A3AD63",
",X c #A0A56B",
"<X c #A3AA6C",
"1X c #ACAC68",
"2X c #A4B466",
"3X c #C4BD77",
"4X c #ABAB81",
/* pixels */
": T 1.H <.r $.o.T ( ~.) V.XX<.E / C.w.- R E.R.D $X| w ;.u.i.7.p ",
"( u.Y.' $ 5 6.6.w =.%.|.=X=.{ r...n @.'.3.:.L.n.C 2 ..~.U.U.v.f ",
"| K.k.S.i.W v 0 p.] w.v ;.s.O.>.g , *.F.7.^ J..Xh W k m.@.C.G.S.",
"j n N z.%X:X_ # q ] $.[ -.N.a.r.Z L Q O.r.6 0.j d b v } s.u.%Xi.",
"h o l.(./.s.7 G K K I Q r.a.' L.D.E K I.e.m [ J p.+XB ' a.( +.( ",
"%.q.2XK.S.q.' } k J p.`.u.T ] <Xk.M <.7.> t ! E XXL.] } M.....o.",
"l...C.e.b.j.e M | O.F.u.+./ O.>Xh.r.h.w . = ( Q OX}.R w.p._.J G ",
"j.| j.w.m m ( P.a.B g.3.{ o.p.4Xo.7 W  .9 j o.r.%.i 5 q.M.C.y.T ",
"x ' i.B.K.%XW r.H.+Xw.e 7 @ ..V 5 H | r.y.k q.| O.j.f y ] w ..E ",
"/._.`.Q.{.,.:.J.S C j b E Q ( # % b 6.f.h.M.w.c oX@Xk...H 9 v w ",
"p.>X1X5./.<.1.}.C.< 0 W Y 8 H I O.A A e r.s.y.p.1X%Xv.' [ 7.8 b ",
"M.6.0.Q s.o.R ~.l   w i.9 5 J W ,XH.b 0 Z 7.2.K.H.x.N.j.Z.x 6 q.",
"J G N 6 m.W.L !.7.Q ~ * v j 8 { ,XF.S.}.m 7 h.] c.B.+._ | a # w ",
"( ..q.w _ +.5.).C =.) _ Z.} u 7.:XN.<Xw.{ t.p.( ] a.W W U.' % o.",
"| A Q O.N.K H 1.6.C.Z.} -.a.8 } /.%X:XB.[ t.' T U # 6.{ ^.7.o.P ",
"d d  .F.p.<.F.>.<.y.m...Z.a.7.N.I 7.,Xa.i.q...' L F f.|.-Xn.j.X.",
"< w [ a.F.I a.W r.5 s ;.=.A.' o.H | q.L.K.` 7.i._ 7.-X,XF.&X%Xi.",
"8.[ K K o. .Y.d.S. .~ m. XU.s.W L w 0 Q.*X).a.' ' Z.C.1X@X*XB._ ",
"H.H.' 7.@.| K y.t.i.Z.a.p.XX/.p.I r.M./ ] K.| > w C.} N.-X,Xw * ",
"j.j.v b 7.7.8 ( 4.K.{ { &X<X[.B.m.w @.I E B.N = { p.i.T y.S.;.#.",
"x.w H w a.F.G.*X..| t.[ (.3X#X.X.XF.H 7 / 2.R r.[ [ r.5 J 2.t.@.",
"z.s.y c.Y.0.g M.@.J a.L L.$Xv.n 9.t.J ( M.7.H 5 y a.p.>.y.t.C.8.",
"Z 7.M 9...3 j % 2 a.Q O.t.g.] % v w v W S.E L W | B.S.F.*X{ 7 p.",
"w.w ] E j c C. .M.m.O.w.] u.W 7.8.r o N w.w -.Q N.+.] O k ] +.y.",
"8.4 o c b q.N.t.].w.9.6.q.i.w Z c c b 2 Q 7 % 5 7.W % ..z f a.I ",
"N b N f 0 ' } 9.L.M.b u k.d h c n z.#XB x.M.v L 4 v w.B.@.L.m.{ ",
"1 z.oX&...y.B.F.M.} q.v A 9 q.z.@.XX.Xl.q.v._.G.[ + [ ;.z.].F.9.",
"B.XXc.S...b B.7.{ | @.y K.K.M.@XQ.V.a N S.s.^.K.5 F q ..6.F.j.] ",
"B.m.& N l.j o.' / L ~ s.R.( C.| v  .| j *X%XS.r.E L i.F.T.p.] M.",
"j  .| v @.V.5 7 / { A.N.a.Y.`.O.!.~.y.B.K.8.v.c.] M c a.] { ' o.",
";XB.+.y...;.O.O.y.H ( <.i.$.@.r.K.G.f.z.%.e u 9 ] c 8 8 8 / K +.",
"z l.' /.r.j w ..u ; ^ T.*X).7.F.h.[.n.x.+ J 5 q X Z %XK I { F.V."
};
