/* XPM */
static char *result[] = {
/* columns rows colors chars-per-pixel */
"32 31 151 2 ",
"   c #010202",
".  c #0B0101",
"X  c #040804",
"o  c #0C0905",
"O  c #020709",
"+  c #040B0B",
"@  c #120101",
"#  c #170E04",
"$  c #1A0403",
"%  c #131D0D",
"&  c #0C1B1B",
"*  c #0B1712",
"=  c #101F1E",
"-  c #192711",
";  c #1C2A13",
":  c #263A1B",
">  c #293F1D",
",  c #031C22",
"<  c #042128",
"1  c #0D252B",
"2  c #152826",
"3  c #132F2D",
"4  c #1A322F",
"5  c #052D37",
"6  c #0F2A31",
"7  c #0B343E",
"8  c #163836",
"9  c #13353E",
"0  c #1A3F3C",
"q  c #3E2E29",
"w  c #352925",
"e  c #203D3A",
"r  c #460000",
"t  c #480000",
"y  c #42070A",
"u  c #590000",
"i  c #4E1900",
"p  c #4B2000",
"a  c #582600",
"s  c #5F2900",
"d  c #673234",
"f  c #6B3D3C",
"g  c #2C401D",
"h  c #2F4620",
"j  c #314A22",
"k  c #365D2E",
"l  c #365D3C",
"z  c #2F6233",
"x  c #356030",
"c  c #356D39",
"v  c #754314",
"b  c #7E4B18",
"n  c #43662F",
"m  c #466C31",
"M  c #4F7837",
"N  c #537E3B",
"B  c #0D3843",
"V  c #153B44",
"C  c #1F4A46",
"Z  c #17404A",
"A  c #19424D",
"S  c #244946",
"D  c #284F4C",
"F  c #2A5447",
"G  c #235652",
"H  c #255A56",
"J  c #2B5A56",
"K  c #275D59",
"L  c #2F595B",
"P  c #2C5356",
"I  c #306F41",
"U  c #336D4D",
"Y  c #347B46",
"T  c #3A7E47",
"R  c #33754B",
"E  c #357B49",
"W  c #397E4A",
"Q  c #337545",
"!  c #2A605C",
"~  c #366F5D",
"^  c #357553",
"/  c #387D53",
"(  c #316562",
")  c #366966",
"_  c #386C67",
"`  c #376A68",
"'  c #386C69",
"]  c #3A716E",
"[  c #3F7C77",
"{  c #70584F",
"}  c #436F43",
"|  c #407E79",
" . c #8E0000",
".. c #9A0101",
"X. c #A60D0E",
"o. c #A80F0F",
"O. c #A8100E",
"+. c #B4150F",
"@. c #A91010",
"#. c #AD1A1A",
"$. c #B31A1A",
"%. c #BC1C1C",
"&. c #BE301A",
"*. c #CB2B2B",
"=. c #CB3332",
"-. c #804C19",
";. c #834B29",
":. c #CB6501",
">. c #CE6C02",
",. c #E77E18",
"<. c #E07B15",
"1. c #53803A",
"2. c #3E8347",
"3. c #3C8048",
"4. c #418547",
"5. c #438549",
"6. c #4B8B4A",
"7. c #518F4A",
"8. c #5D8B41",
"9. c #57934A",
"0. c #5B964B",
"q. c #5E984B",
"w. c #639647",
"e. c #659B4A",
"r. c #699E4A",
"t. c #6CA24C",
"y. c #71AA4F",
"u. c #73AD51",
"i. c #76B353",
"p. c #78B654",
"a. c #7CBC57",
"s. c #7DBE58",
"d. c #CD932D",
"f. c #CD9A34",
"g. c #FF952F",
"h. c #F78933",
"j. c #FF9630",
"k. c #FF9B33",
"l. c #DAA034",
"z. c #E7B34D",
"x. c #81C45B",
"c. c #86CC5E",
"v. c #8BD563",
"b. c #8FDA65",
"n. c #91DE66",
"m. c #95E469",
"M. c #9AEC6D",
"N. c #9DF06F",
"B. c #FFCB65",
"V. c #FFCF69",
"C. c None",
/* pixels */
"C.C.C.C.C.C.C.  M.a.C.C.C.C.C.C.C.C.C.C.C.C.s.m.  C.C.C.C.C.C.C.",
"C.C.C.C.C.C.C.t.w.K C.C.C.C.C.C.C.C.C.C.C.C.K w.t.C.C.C.C.C.C.C.",
"C.C.C.C.C.C.b.j | C.C.C.C.C.C.C.C.C.C.C.C.C.C.[ : n.C.C.C.C.C.C.",
"C.C.C.C.C.C.i.7.H C.C.C.C.C.C.C.C.C.C.C.C.C.C.K 6.i.C.C.C.C.C.C.",
"C.C.h m.1.C.q.F C.% v.m C.C.C.C.C.C.C.C.n v.% C.F 0.C.M M.h C.C.",
"C.O / Y t.p.r.R m.b.9.r.r.C.C.C.C.C.C.e.r.9.b.m.U r.s.u.Y E + C.",
"C.C.] Y 5.y.r.; x./ r.` r.c C.C.C.C.x t.` t.^ x.h e.u.3.Y ] C.C.",
"C.C.M.i.N.k r.s.- Y ' O S C.C.C.C.C.C.S O ` Y % s.r.k N.i.N.C.C.",
"C.a.t.6.  v.  t.i.X J   C.C.C.C.C.C.C.C.  D   p.r.  c.  5.t.c.C.",
"C.r.R 0 u.u.t.  } p.1.u.C.C.C.C.C.C.C.C.i.8.a.Y   r.u.t.4 R e.C.",
": Y ) m.I L ! O l r.M.2.N.C.C.C.C.C.C.M.4.M.t.}   ( P Q n.` R j ",
"u.~ H r.Y ] 8 ( ) Y c.& R C.C.C.C.C.C.T 2 c.Y ) ) 3 ] Y t.K ~ y.",
"w.) O 6.3.!   O 0 * t.M.C.C.C.C.C.C.C.C.M.t.O C O   ! T 5.X ) 9.",
"R G   e.Y   { 5 O 0 T t.C.C.C.C.C.C.C.C.t.Y S O 5 w   T 0.  G R ",
"` C.b.t.  , o 1 5 C.' 0.C.C.C.C.C.C.C.C.0.' C.5 6 q < + t.m.C.` ",
"  C.t.E O 7 ;.C.O A C.& * C.C.C.C.C.C.+ = C.Z O C.;.7 O E t.C.  ",
"C.C.Y H B + ;.C.C.& C.C.C.C.C.C.C.C.C.C.C.C.9 C.C.;.O 7 K R C.C.",
"C.C.' C.V C.d C.C.C.C.  C.C.C.C.C.C.C.C.C.C.C.C.C.d C.V C._ C.C.",
"C.C.  C.C.C.d   C.C.  b   C.C.C.C.C.C.C.C.C.C.-.d d C.  C.X C.C.",
"C.C.C.C.C.C.d d C.C.b y =.C.C.C.C.C.C.C.C.C.-.i d d C.C.C.C.C.C.",
"C.C.C.C.C.C.d ;.C.b o k.=.$.. C.C.C.C.C.C.  a C.;.;.C.C.C.C.C.C.",
"C.C.C.C.C.C.C.d # a k.V.k.=.@.*.  C.C.C.o v X.C.;.C.C.C.C.C.C.C.",
"C.C.C.C.C.C.C.f i =.k.j.V.k.$.o.O.X.X.X.v ..C.d ;.C.C.C.C.C.C.C.",
"C.C.C.C.C.C.C.;.;.$.=.h.j.B.,.>.o.O.O.+... .C.;.f C.C.C.C.C.C.C.",
"C.C.C.C.C.C.C.d d C.@ =.k.k.z.>.:.:.:.X...C.C.d d C.C.C.C.C.C.C.",
"C.C.C.C.C.C.C.d ;.C.r $.%.&.<.d.f.l.$...C.C.C.;.d C.C.C.C.C.C.C.",
"C.C.C.C.C.C.C.C.d ;.C.t ..#.. $ $...... C.C.;.;.C.C.C.C.C.C.C.C.",
"C.C.C.C.C.C.C.C.d d C.C.. ..........  C.C.C.d d C.C.C.C.C.C.C.C.",
"C.C.C.C.C.C.C.C.d d C.C.C.C.@ u   C.C.C.C.C.d d C.C.C.C.C.C.C.C.",
"C.C.C.C.C.C.C.C.d ;.C.C.C.C.C.C.C.C.C.C.C.C.;.d C.C.C.C.C.C.C.C.",
"C.C.C.C.C.C.C.C.C.C.C.C.C.C.C.C.C.C.C.C.C.C.C.C.C.C.C.C.C.C.C.C."
};
