/* XPM */
static char *result[] = {
/* columns rows colors chars-per-pixel */
"32 32 9 1 ",
"  c #3C2316",
". c #563E2C",
"X c #78553C",
"o c #666047",
"O c #976B4B",
"+ c #B8AE81",
"@ c #CCC28F",
"# c #F2E6AA",
"$ c None",
/* pixels */
"$$$$$$$$$$$$$$$$$$$$$$$$$$$$$$$$",
"$$$$$$$$$$$$$$$$$$$$$$$$$$$$$$$$",
"$$$$$$$$$$$$$$$$$$$$$$$$$$$$$$$$",
"$$$$$$$$$$$$$$$$$$$$$$$$$$$$$$$$",
"$$$$$$$$$$$$$$$$$$$$$$$$$$$$$$$$",
"$$$$$$$$$$$$$$$$$$$$$$$$$$$$$$$$",
"   $$$$$$$$$$$$$$$$$$$$$$$$$$   ",
" O  $$$$$$$$$$$$$$$$$$$$$$$$  O ",
"  X $$$$$$$$$$$$$$$$$$$$$$$$ X  ",
"$ . $$$$$$$$$$$$$$$$$$$$$$$$ . $",
"$o+oo$$$$$$$$$$$$$$$$$$$$$$oo+o$",
"$o@ooooo$$$$$$$$$$$$$$$$ooooo@o$",
"$ .o+o+oooo$$$$$$$$$$oooo+o+o. $",
"$ . o+#+#ooooooooooooo+o+++o . $",
"$ X $o+@#o@o@o@o@#@o@+@oo+o$ X $",
"$ O  $o+oo#@o@oo#o#+@o+#+o$  O $",
"$  X $$oo#@#@#@o@o#o@o+oo$$ X  $",
"$$ O $$$oooo+o++@o+@+ooo$$$ O $$",
"$$ X $$$$$oooooooooooo$$$$$ X $$",
"$$ O  $$$$$$oooooooo$$$$$$  O $$",
"$$  X $$$$$$$$$$$$$$$$$$$$ X  $$",
"$$$ . $$$$$$$$$$$$$$$$$$$$ . $$$",
"$$$ . $$$$$$$$$$$$$$$$$$$$ . $$$",
"$$$   $$$$$$$$$$$$$$$$$$$$   $$$",
"$$$$$$$$$$$$$$$$$$$$$$$$$$$$$$$$",
"$$$$$$$$$$$$$$$$$$$$$$$$$$$$$$$$",
"$$$$$$$$$$$$$$$$$$$$$$$$$$$$$$$$",
"$$$$$$$$$$$$$$$$$$$$$$$$$$$$$$$$",
"$$$$$$$$$$$$$$$$$$$$$$$$$$$$$$$$",
"$$$$$$$$$$$$$$$$$$$$$$$$$$$$$$$$",
"$$$$$$$$$$$$$$$$$$$$$$$$$$$$$$$$",
"$$$$$$$$$$$$$$$$$$$$$$$$$$$$$$$$"
};
