/* XPM */
static char *_d94af8017254702c084a9d3088cbc7aW9iPWIxXRstRxIgH[] = {
/* columns rows colors chars-per-pixel */
"32 32 219 2 ",
"   c #070703",
".  c #0D0E07",
"X  c #13140B",
"o  c #15180D",
"O  c #191B0F",
"+  c #171910",
"@  c #1C1D12",
"#  c #211B15",
"$  c #1E2113",
"%  c #222415",
"&  c #252917",
"*  c #282D17",
"=  c #242619",
"-  c #282619",
";  c #262919",
":  c #2B2D1C",
">  c #342F1E",
",  c #2E321D",
"<  c #31341E",
"1  c #343A1D",
"2  c #2D2D22",
"3  c #322E20",
"4  c #2F3121",
"5  c #333522",
"6  c #353B22",
"7  c #393D24",
"8  c #3B3C29",
"9  c #48351F",
"0  c #54351F",
"q  c #413C24",
"w  c #493B27",
"e  c #5A3D24",
"r  c #3D4325",
"t  c #3D4827",
"y  c #41511F",
"u  c #424324",
"i  c #434B26",
"p  c #4D4927",
"a  c #43442C",
"s  c #4B4B2D",
"d  c #5B4D25",
"f  c #554629",
"g  c #5D4A29",
"h  c #435221",
"j  c #4B5526",
"k  c #4F5C2D",
"l  c #58542C",
"z  c #515A2D",
"x  c #5E5D2B",
"c  c #444431",
"v  c #4C4C32",
"b  c #4C5A31",
"n  c #555534",
"m  c #535B33",
"M  c #585937",
"N  c #5D5E3B",
"B  c #624D2C",
"V  c #65542E",
"C  c #655B35",
"Z  c #53632F",
"A  c #5A692C",
"S  c #58722E",
"D  c #556531",
"F  c #5C6334",
"G  c #5C6D35",
"H  c #5E6639",
"J  c #5E693C",
"K  c #5D7834",
"L  c #716E2E",
"P  c #61722A",
"I  c #717B2C",
"U  c #636332",
"Y  c #6C6233",
"T  c #616D34",
"R  c #696837",
"E  c #63643D",
"W  c #6A663B",
"Q  c #63693B",
"!  c #6D6D3C",
"~  c #706A35",
"^  c #74663A",
"/  c #716B3F",
"(  c #637433",
")  c #6B7333",
"_  c #647B35",
"`  c #6D7B36",
"'  c #6B733C",
"]  c #66783B",
"[  c #6D7B3C",
"{  c #707936",
"}  c #72753C",
"|  c #747C3C",
" . c #797C3E",
".. c #585A40",
"X. c #645E40",
"o. c #735E48",
"O. c #636B42",
"+. c #6B6F43",
"@. c #706C41",
"#. c #7A6C44",
"$. c #6C7243",
"%. c #667942",
"&. c #6E7B42",
"*. c #6A774B",
"=. c #6D7B49",
"-. c #737443",
";. c #727B44",
":. c #797C43",
">. c #75754D",
",. c #7B764A",
"<. c #747D49",
"1. c #7C7B4A",
"2. c #737350",
"3. c #847749",
"4. c #867856",
"5. c #9B7D66",
"6. c #638233",
"7. c #6C8136",
"8. c #6D8B35",
"9. c #64823A",
"0. c #6D833B",
"q. c #638A38",
"w. c #6B893B",
"e. c #738536",
"r. c #718D35",
"t. c #73823E",
"y. c #7D863E",
"u. c #748B3B",
"i. c #7D8B38",
"p. c #7C9936",
"a. c #75903C",
"s. c #7B943E",
"d. c #6B8244",
"f. c #748443",
"g. c #7C8343",
"h. c #758B43",
"j. c #7B8D44",
"k. c #73844B",
"l. c #7B834A",
"z. c #748A4B",
"x. c #7C8B4B",
"c. c #6A904A",
"v. c #779342",
"b. c #7B9244",
"n. c #7D924A",
"m. c #7B9949",
"M. c #768452",
"N. c #7E8453",
"B. c #758B52",
"V. c #7D8A52",
"C. c #7E9558",
"Z. c #849929",
"A. c #858D3F",
"S. c #84953A",
"D. c #89973B",
"F. c #849B3C",
"G. c #909837",
"H. c #818443",
"J. c #848C44",
"K. c #8A8D46",
"L. c #85824B",
"P. c #848E4C",
"I. c #8D8E4E",
"U. c #908A47",
"Y. c #839445",
"T. c #8A9445",
"R. c #859946",
"E. c #8A9E45",
"W. c #83934C",
"Q. c #8B944B",
"!. c #849C4A",
"~. c #8A9B4C",
"^. c #92974E",
"/. c #939B4D",
"(. c #838451",
"). c #848D52",
"_. c #8C8C55",
"`. c #858959",
"'. c #8B8B5B",
"]. c #928D56",
"[. c #988C50",
"{. c #829356",
"}. c #8A9354",
"|. c #859A53",
" X c #8B9D53",
".X c #85945C",
"XX c #8C975A",
"oX c #879C58",
"OX c #929554",
"+X c #939B54",
"@X c #9B9C54",
"#X c #97975B",
"$X c #959D5C",
"%X c #A09E5F",
"&X c #88A448",
"*X c #8BA14C",
"=X c #97A14D",
"-X c #9CA94B",
";X c #98B74E",
":X c #87A051",
">X c #8EA354",
",X c #8BA957",
"<X c #8BA159",
"1X c #94A254",
"2X c #95A55C",
"3X c #9BA55D",
"4X c #95A95D",
"5X c #9EA95A",
"6X c #A5A55F",
"7X c #A9B751",
"8X c #938E6B",
"9X c #8C9A61",
"0X c #939C68",
"qX c #A49E68",
"wX c #98A263",
"eX c #99A867",
"rX c #9BB765",
"tX c #A0A966",
"yX c #A4B466",
/* pixels */
"I r.S.` T.[ m.s.r.s.<X=..XwXF.t.u.XX_.L i.;X-X5.qX(.0.C.T.W.J.C ",
"s.E.&Xt.Z _ H.g.[ V.B..XeX*.5 | x.>.n.7XZ.Z.#X4.3.! x.<X&X:X].@.",
"l.+XW V | y.;.! Q.:.P.| C.H $ b #.E z.1XP.p.n 7 @.g.;..XP.}.#XXX",
"$.>.4._.$XtXf.S 0.} f.h.C.t $ 2 ~ t.w.b.Y.i = < O.! ' ] &X&XwXW.",
"#.N ).2X1X~.) _ V 0 0 ` n.m = % W f.7.&X~ : # r H N n j t.e.m.a.",
"M.W.yX$X_.;.a p f A  .6XF.h % ; v <.S.P.7 ; % q p w 7 p $.x.x.s.",
").z.}.U.[.O.; 2 a | ^.E.n.Z * : r f./.H & & : D 0X8X) B Y 3X8.6.",
"(.l.(.I.,.>.r ; ; a K.G.Y.Z & ; : A y.k % , , u.M.M ( C n s j.r.",
"k.f.W.}.0X0X) , : < u ) _ y % : % j g.1 ; % u l.j.,.a : % 7 k.t.",
"1X3X5X>X7XZ.Z.N : > : q ) K 1 * & 1 M * 7 & M B `.v = % 7 G ;.[ ",
"Q.6X6X` Q.S.F.4.7 : : : t k 1 5 1 6 - > 1 * ' l - : : 7 9.J.{ g.",
"|.K.^ d | a.a.} 7 : & 5 , , * 6 5 < & : : 1 T 1 % - > 1.oX=.) P.",
"8._ E z J z.d.,X~ u , , 4 : * , 5 ; - 2 ; & < : - 5 G d.l.O.S [ ",
"s.m $ @ $ , k J Y &.t : 6 : $ & 6 = = % % % , , ; f.y.u.:Xf.G h.",
"l.2.Z , : : , & - 5 t 6 & , $ $ < % % - O % : * j S  .| |.J.v.q.",
"o.O.z.W.Q i 4 < 5 : 5 5 : 4 , $ % % % ; o ; ; , i r 5 : 2 c $.c.",
"W ` h.!. Xw.G a , 6 6 5 $ % : % $ @ % O + % % : = ; ; % 2 5 <.x.",
"Q.h.9.9.m.k.&XS.+.t , < : * $ O $ @ O X O @ ; ; ; 8 r Q `.wX<Xd.",
"#X#Xg.:.&.G D j.[ n 5 < , & $ X O O X . o % : : r N.;.oX0XtX[ K ",
"(.1.;.U z a 7 7 5 : < : & : : O . X   . @ $ 8 9 } x.!.w.R.XXC.m.",
"`.[ x p 7 : : ; 4 4 : , ; : & O .     X % % , z G Z Y._ 8.F.^.n.",
"'.*X} w ; 2 5 q s Z m m v : % @ % O % : % % ; , i f.T.A.~.T.}.J.",
"L.K.:.L.&.C +.G ! !.a.n.s - = : , 1 - 7 : % ; , $. X+XOXtXb.` W.",
"P.} g.t.$.;.XXz.}.|.b.C : % - 5 ' M # 0 Q u 4 2 x.b.3.C [ g.m.R.",
"J.~ F ;.,.x.|.T.@XV B w - - > E ,.#.# M a._ m Z Y y.T x.%.$.!.u.",
"1.1.3.@.' f.k.L.$XP./ U 2 3 E -.$.`.2 ..`.}.t.7.V f V }.P.$X).x.",
"O._.%XN.x.T.H.+X}.l.P.;.X.N P.'.W.9Xw t P.].3X#Xt.d 0 g I.6X/.L.",
" X0X'._.} V  .W.j.l.n.t.+X$XQ.0X>X.Xq 3 OX>X4X$X_ 6.A W H.OXV.l.",
" X{.N e 0 g h.f._ G w.j.-Xb..Xl.;.z.s # }.wXOXY.0.f.W.+X=XQ.:.}.",
"' z.^ d &..X) _ u.j Q x.!.&X5XY.,X<XT # @.K.].'.g.<.-.!.g.n.h.v.",
"rX Xm.R.x.{.b.b.T._ s.D.W.m.m.K.#X@XR @ Q { @.] g.,.7._ ` a.` v.",
"*.).t.+XY.%.[ x.| P p.=XeX2XJ.OX/.%XC # t 8.( ` A 1.wX0.w.j. X9X"
};
