/* XPM */
static char *_7404cb019ff4f83f51dbcbe69176bdf0E5Ho0T9ISk7Pd2N[] = {
/* columns rows colors chars-per-pixel */
"32 32 220 2 ",
"   c #001F02",
".  c #022205",
"X  c #0B2B07",
"o  c #05250A",
"O  c #07280E",
"+  c #0A2A0D",
"@  c #103005",
"#  c #1A3A05",
"$  c #13330B",
"%  c #1C3C0E",
"&  c #072810",
"*  c #0B2C13",
"=  c #0E2F19",
"-  c #0F311A",
";  c #133313",
":  c #173811",
">  c #1C3B15",
",  c #13341C",
"<  c #17381D",
"1  c #1B3C1D",
"2  c #382B0C",
"3  c #203F05",
"4  c #3A2D11",
"5  c #203C10",
"6  c #203E1B",
"7  c #303315",
"8  c #3C3414",
"9  c #143623",
"0  c #163923",
"q  c #1B3D24",
"w  c #1E3F28",
"e  c #203E25",
"r  c #473E17",
"t  c #244406",
"y  c #2B4B09",
"u  c #33540C",
"i  c #3C5E0D",
"p  c #234114",
"a  c #294517",
"s  c #2A4B14",
"d  c #23441D",
"f  c #26481B",
"g  c #2B4C1D",
"h  c #314C16",
"j  c #3A4B15",
"k  c #345513",
"l  c #395915",
"z  c #33531B",
"x  c #395818",
"c  c #1F4021",
"v  c #1F4128",
"b  c #234324",
"n  c #284527",
"m  c #2C4B25",
"M  c #23442A",
"N  c #28462C",
"B  c #27492D",
"V  c #2B4C2C",
"C  c #3C4521",
"Z  c #364E26",
"A  c #2F512F",
"S  c #395525",
"D  c #3A5A27",
"F  c #3C5925",
"G  c #35512C",
"H  c #39532E",
"J  c #2B4E31",
"K  c #394C31",
"L  c #2F5132",
"P  c #335534",
"I  c #3C5834",
"U  c #42451D",
"Y  c #4B441A",
"T  c #4F4A1D",
"R  c #51491E",
"E  c #48551D",
"W  c #51501F",
"Q  c #476318",
"!  c #4D6A1A",
"~  c #546E16",
"^  c #444521",
"/  c #4C4422",
"(  c #4B4C22",
")  c #574F21",
"_  c #564E2A",
"`  c #435D26",
"'  c #425B2B",
"]  c #555323",
"[  c #555E24",
"{  c #56562D",
"}  c #5E552A",
"|  c #59592A",
" . c #4A5E31",
".. c #585B34",
"X. c #625E2B",
"o. c #615D33",
"O. c #695C3B",
"+. c #456026",
"@. c #4A6425",
"#. c #4C632A",
"$. c #526A24",
"%. c #57672B",
"&. c #5C7524",
"*. c #5C732B",
"=. c #446136",
"-. c #4A6233",
";. c #4A653C",
":. c #5D6433",
">. c #586837",
",. c #53683C",
"<. c #5C6D3B",
"1. c #5E7934",
"2. c #5A7639",
"3. c #5A753C",
"4. c #69662D",
"5. c #637529",
"6. c #717B2C",
"7. c #686533",
"8. c #696234",
"9. c #636C34",
"0. c #69673A",
"q. c #656A3C",
"w. c #6E6E3A",
"e. c #706B35",
"r. c #627435",
"t. c #667835",
"y. c #6C7A36",
"u. c #6C743B",
"i. c #637B3A",
"p. c #6D7B3C",
"a. c #737839",
"s. c #685B40",
"d. c #526742",
"f. c #576D42",
"g. c #656A42",
"h. c #6D6F44",
"j. c #706A41",
"k. c #786B45",
"l. c #6B7442",
"z. c #697B48",
"x. c #737A44",
"c. c #7B7B44",
"v. c #75774A",
"b. c #7C7C4A",
"n. c #81794D",
"m. c #947963",
"M. c #6C842A",
"N. c #6B8335",
"B. c #6F8C35",
"V. c #688639",
"C. c #728436",
"Z. c #738B33",
"A. c #74833D",
"S. c #7B8439",
"D. c #748D3C",
"F. c #7D8D3E",
"G. c #7A943A",
"H. c #7B933D",
"J. c #6B8442",
"K. c #768542",
"L. c #7C8344",
"P. c #768C44",
"I. c #7B8C45",
"U. c #73834B",
"Y. c #7D834A",
"T. c #74884A",
"R. c #7C8B4A",
"E. c #6A904A",
"W. c #769342",
"Q. c #7B9343",
"!. c #7C924C",
"~. c #7A9948",
"^. c #7D8452",
"/. c #7C8956",
"(. c #7E9456",
"). c #86993D",
"_. c #828443",
"`. c #858C43",
"'. c #8B8A46",
"]. c #85814B",
"[. c #848C4D",
"{. c #8B8F4D",
"}. c #978A44",
"|. c #849544",
" X c #899444",
".X c #859846",
"XX c #8A9F44",
"oX c #82934B",
"OX c #8B944C",
"+X c #849B4B",
"@X c #8B9B4B",
"#X c #939D4A",
"$X c #818453",
"%X c #838E53",
"&X c #8C8C54",
"*X c #898B5B",
"=X c #849256",
"-X c #8A9453",
";X c #859A51",
":X c #8C9D53",
">X c #85955B",
",X c #8E975A",
"<X c #8D9A5B",
"1X c #929454",
"2X c #969859",
"3X c #969D5B",
"4X c #86A54B",
"5X c #89A34A",
"6X c #95B44D",
"7X c #89A157",
"8X c #96A355",
"9X c #95A459",
"0X c #9BA75E",
"qX c #A2A45E",
"wX c #949E64",
"eX c #A29A6D",
"rX c #96A661",
"tX c #9CA663",
"yX c #9BB765",
"uX c #A4B466",
/* pixels */
"6.Z.).y.|.p.~.W.Z.H.7Xf.z.(.H.a.D.=X[.4.Z.6X#Xm.eX^.C.(..XoX`.s.",
"G.5X4XK.%.r._._.p.U.d.J M M G ' I K H H F +.S K ..q.T.7X4X:X-Xj.",
"L.2X%X1XoXK.x.q.<.H b @.D 0 M S q 9 q 0 @.g l f 0  .x.=X%X-X2X1X",
"h.v.n.&XtX2X3.m q , c $.V 0 ` M.5 * , 0 n b p 0 m M.t.U.5XXXtXoX",
"k...=X9XoXI e 0 q = o + , 0 q m > X o 0 V 1   + 0 F =.l.|.G.~.G.",
"/.oXuX=XH w +.n 0 b d + * B q z ! i > 0 b w , = 0 9 B ,.=X[.R.W.",
"%XP.,X..0 w F b $ ~ Q y q P 0 a l s l 0 9 D *.1 , , w ;.`.0XB.N.",
"^.Y.g.b w 0 0 9 ; p $ l g 0 - o . + % 9 9 V $.% O ; b P f.%X.XB.",
"z.J.=.e @.b < c 0 9 . : p = - = , 0 , & - , 0 0 P =.P B L -.R.A.",
"9X[.N m s O o ! g g y @ * 0 w J P I L - - B v A @.E : d < M <.p.",
"OX9.- h p > > A % 3 y u : = , b < ; c ; . + 1 c X : & % s b ;.x.",
".X` ; u z g g v 0 .   t #   . .   . . . . ; o + - 0 v , , v P R.",
"V.d $ $ + - - 0 < @ $ o o + , M b c + & + c ; . + V A V c 0 n t.",
"D.` S $ $ $ ; S l k % * , 0 L P b V < , O = = = < < - c B < n J.",
"b.v.' E l z g ! z < o * 0 M B + & 0 < V c - * , V c o t g L 2.V.",
"k.d.N ` +.q f &.b & . , < P w O , q & < * - v P *.2.B c B d.U.E.",
"q.y.-.n @.$ * < $ t s 0 0 A q o & & + 0 9 , n < > c B B P >XrX[.",
"'.P.V.V q 0 * o $ Q l k 0 0 : # s > , 0 0 D &.c & - M f./.rX:XJ.",
"2X2XK.<.N b ` w w ` b y s 0 > ! ! i f 0 0 >.$.P P 0 v I wXtXz.1.",
"$X$Xx.c.p. .#.q - * O ; < 0 0 m 6 @ k 9 c , O * B 0 B 2..X,X(.~.",
"*Xp.N.u.;XOXL.,.Z o ; e 0 9 > 5 X O , 9 P 1 * , b @.>.2.B.).@X!.",
"*X@XA.&X@X'.k.=XP.=.i.*.V 0 $.5.1 n 9 0 m b f 0 S 6.).).@X X-X'.",
"].`.x.$XR.e.l.<.w.+XV.%.D 9 N S e  .n q %.l i f V J.2X1XtXQ.i. X",
"{.u._.A.u.v.,XT.=X;XP.<.-.C ( 9.^ { r ,.u.<.i.*.R.Q.S.O.x.L.~..X",
"'.w...v.c.R.;XOXqXOX].]._.Y _ 8.{ o.R O.C.*.:.r.|.S.:.R.z.h.+XD.",
"b.b.n.j.u.K.U.].2X-Xc.a.c.4 } } ^ k.} o.b.].r.t.w.v.OX<X!.3X=XR.",
"q.*X3X$XR.+X@X#X-XU.[.w.o.2 4.o.| g./ U | 8.X.7.9.[ p.R.OXqX#Xn.",
":XwX*X2XR.c.:X[.I.Y.!.%...r x./ p.l.2 7 x >.u.#.Z E U :.n.2XR.Y.",
":X>X<.b.%Xi.P.K.G.V.D.P.y.2 8 r T ..8 8 j ..w.l g ^ r Y e.S.c.-X",
"l.T.Y.x.!.>Xy.t.D.F.>Xq.%.] Y ] T T T 4.{ ) _ U C { / W Y %.K.W.",
"yX:XQ..XR.(.I.Q. XV.).Z.w.r.9.X._ 4.a.0...] ) 9.7.o.[ ( Y [ r.W.",
"z.%XK.8XQ.l.p.R.a.*.G.#X3X'.S.{.a.}.b.$X[ M.%.i.:.b.3Xt.5.A.@X>X"
};
