/* XPM */
static char *result[] = {
/* columns rows colors chars-per-pixel */
"32 32 233 2 ",
"   c black",
".  c #020000",
"X  c #020200",
"o  c #050000",
"O  c #050200",
"+  c #070200",
"@  c #070202",
"#  c #070502",
"$  c #0A0502",
"%  c #0C0502",
"&  c #0F0502",
"*  c #0F0702",
"=  c #0F0705",
"-  c #120702",
";  c #140702",
":  c #120705",
">  c #170A05",
",  c #1C0A02",
"<  c #190A05",
"1  c #190C05",
"2  c #190C07",
"3  c #1C0C05",
"4  c #1E0C05",
"5  c #1E0F07",
"6  c #210F07",
"7  c #211207",
"8  c #231207",
"9  c #261207",
"0  c #281407",
"q  c #2D1407",
"w  c #23120A",
"e  c #2B140A",
"r  c #2D170C",
"t  c #301707",
"y  c #371707",
"u  c #3A1405",
"i  c #32140A",
"p  c #30170A",
"a  c #30190C",
"s  c #32190C",
"d  c #35190C",
"f  c #371C0C",
"g  c #3A1C0C",
"h  c #3A1C0F",
"j  c #3A1E0F",
"k  c #3C1E0F",
"l  c #3E1E0F",
"z  c #41190A",
"x  c #411C0A",
"c  c #411E0C",
"v  c #41210C",
"b  c #43210C",
"n  c #41210F",
"m  c #43230F",
"M  c #48210F",
"N  c #48230F",
"B  c #4C260F",
"V  c #4E260F",
"C  c #57260F",
"Z  c #57280F",
"A  c #59280F",
"S  c #5F280F",
"D  c #452312",
"F  c #452614",
"G  c #4E2612",
"H  c #4A2614",
"J  c #502812",
"K  c #572B12",
"L  c #532817",
"P  c #552B14",
"I  c #572D17",
"U  c #5D2B12",
"Y  c #592D14",
"T  c #5D2D14",
"R  c #5F2D14",
"E  c #593017",
"W  c #5B3017",
"Q  c #5D3014",
"!  c #5F3014",
"~  c #5D3017",
"^  c #5D3217",
"/  c #55301C",
"(  c #5F3219",
")  c #632D12",
"_  c #613014",
"`  c #613217",
"'  c #633217",
"]  c #653014",
"[  c #653217",
"{  c #693517",
"}  c #6C3717",
"|  c #6E3717",
" . c #653519",
".. c #61351C",
"X. c #67371C",
"o. c #693719",
"O. c #6C3719",
"+. c #6E3719",
"@. c #6F3A19",
"#. c #6A3A1C",
"$. c #693A1E",
"%. c #6C3A1C",
"&. c #6F3C1C",
"*. c #6C3C1E",
"=. c #733717",
"-. c #763C19",
";. c #773C19",
":. c #713C1C",
">. c #733C1C",
",. c #713E1E",
"<. c #733E1E",
"1. c #743E1C",
"2. c #713E21",
"3. c #73411E",
"4. c #74411E",
"5. c #79411E",
"6. c #79431E",
"7. c #7A431E",
"8. c #7E451E",
"9. c #6F4123",
"0. c #734121",
"q. c #734123",
"w. c #764121",
"e. c #774321",
"r. c #744323",
"t. c #764526",
"y. c #7A4321",
"u. c #7A4521",
"i. c #7C4521",
"p. c #7D4521",
"a. c #7A4823",
"s. c #7C4821",
"d. c #7E4821",
"f. c #7D4823",
"g. c #7A4826",
"h. c #82481E",
"j. c #804821",
"k. c #814823",
"l. c #804A23",
"z. c #814A23",
"x. c #824A23",
"c. c #844A23",
"v. c #814C23",
"b. c #844C23",
"n. c #814A26",
"m. c #814C26",
"M. c #834C26",
"N. c #844C26",
"B. c #854E26",
"V. c #864E26",
"C. c #884E23",
"Z. c #894E23",
"A. c #824C28",
"S. c #834E28",
"D. c #844E28",
"F. c #865026",
"G. c #885026",
"H. c #83502B",
"J. c #865028",
"K. c #865328",
"L. c #86502B",
"P. c #86532B",
"I. c #8A5328",
"U. c #88532B",
"Y. c #8A5528",
"T. c #8B5528",
"R. c #89552B",
"E. c #8A552B",
"W. c #8B552B",
"Q. c #8C572B",
"!. c #8A552D",
"~. c #8B572D",
"^. c #8C572D",
"/. c #8E592D",
"(. c #8F592D",
"). c #8F5B2D",
"_. c #90592D",
"`. c #905B2D",
"'. c #8C5B32",
"]. c #8F5F37",
"[. c #905B30",
"{. c #905D30",
"}. c #915D30",
"|. c #925F30",
" X c #935F30",
".X c #925F32",
"XX c #935F32",
"oX c #945F30",
"OX c #905D35",
"+X c #936130",
"@X c #926132",
"#X c #936132",
"$X c #946132",
"%X c #956332",
"&X c #936135",
"*X c #946135",
"=X c #956135",
"-X c #946335",
";X c #956335",
":X c #956535",
">X c #966735",
",X c #946537",
"<X c #966737",
"1X c #976737",
"2X c #986937",
"3X c #986A37",
"4X c #95673A",
"5X c #95693A",
"6X c #97693A",
"7X c #98693A",
"8X c #986A3A",
"9X c #996A3A",
"0X c #9A6A3A",
"qX c #9A6C3A",
"wX c #9A6C3C",
"eX c #9B6C3C",
"rX c #9B6F3E",
"tX c #9C6F3E",
"yX c #986E43",
"uX c #9A6F43",
"iX c #9D7141",
"pX c #9D7341",
"aX c #9E7441",
"sX c #9F7745",
"dX c #A07743",
"fX c #A07948",
"gX c #A17C48",
"hX c #A17C4A",
"jX c #A27D4C",
"kX c #A37E4C",
"lX c #A48150",
"zX c #A88857",
"xX c None",
/* pixels */
"xXxXxXxXxXxXxXxXxXxXxXxXxXxXxXxXxXxXxXxXxXxXxXxXxXxXxXxXxXxXxXxX",
"xXxXxXxXxXxXxXxXxXxXxXxXxXxXxXxXxXxXxXxXxXxXxXxXxXxXxXxXxXxXxXxX",
"xXxXxXxXxXxXxXxXxXxXxXxXxXxXxXxXxXxXxXxXxXxXxXxXxXxXxXxXxXxXxXxX",
"xXxXxXxXxXxXxXxXxXxXxXxXxXxXxXxXxXxXxXxXxXxXxXxXxXxXxXxXxXxXxXxX",
"xXxXxXxXxXxXxXxXxXxXxXxXxXxXxXxXxXxXxXxXxXxXxXxXxXxXxXxXxXxXxXxX",
"xXxXxXxXxXxXxXxXxXxXxXxXxXxXxXxXxXxXxXxXxXxXxXxXxXxXxXxXxXxXxXxX",
"xXxXxXxXxXxXxXxXxXxXxXxXxXxXxXxXxXxXxXxXxXxXxXxXxXxXxXxXxXxXxXxX",
"xXxXxXxXxXxXxXxXxXxXxXxXxXxXxXxXxXxXxXxXxXxXxXxXxXxXxXxXxXxXxXxX",
"xXxXxXxXxXxXxXxXxXxXxXxXxXxXxXxXxXxXxXxXxXxXxXxXxXxXxXxXxXxXxXxX",
"xXxXxXxXxXxXxXxXxXxXxXxXxXxXxXxXxXxXxXxXxXxXxXxXxXxXxXxXxXxXxXxX",
"xXxXxX'.wX,.1.s.XXp.xXxXxXxX .H.jX*.sXg.lXE 4XS.3.xXxXxXxXxXxXxX",
"xXxXuX..pX~.~.~ .X1X*X[ +.W 6XA.L.F OX5Xr.q.rX$.eXw N xXxXxXxXxX",
"xXt./ hXh oXD 8X. e.m.a.G 7X,XtX.X:X1X5 d k ^ >X3X2.>.1.xXxXxXxX",
"xX].9.r.3 d 2XD.I <.U.{.( m.1X|.8 l.P.w.Y N.1X#.l.j.A c B.xXxXxX",
"a yXj > wX0Xu.D iX  J.    4.K.#X= J.e.~ Y.{ !.v.f x.B xX$   xXxX",
"xXzX6X-XwX/.&XsXR.qXn <X5 #X@X#XW.#X=X%.    Q p   1.] xXxX) c xX",
"xXy.J i.` xXg gX# 2Xk &X  ~ 1 #X  {.% I.&.  p.4.+ ' q xXxXC _ xX",
"xXxXxXxXxXxXxXxXkX  m ;XO /.[.y.4 |.@ T.4 ).Y.`.5.. h.xXxXxX3 xX",
"xXxXxXxXxXxXxXxXfXr &XL G   3 (.%X+X  W.6 o.I.:.X < x xXxXxXV xX",
"xXxXxXxXxXxXxXxX0 n.7 1X  $XP l }.: o @ C.  `.F.b.>.xXxXxXxX  xX",
"xXxXxXxXxXxXxXxXxXj wX9X@X& ^.M.  m  XB.@ S B.F.1 xXxXxXxXxX; xX",
"xXxXxXxXxXxXxXxX. 9 -X7X`.  `.` - Q.f.b xX;.E.J - xXxXxXxX| U xX",
"xXxXxXxXxXxXxXxXo.} 0.E._.  xXxXxXxXu xXZ.Z e 7.xXxXxXxXxX8.xXxX",
"xXxXxXxXxXxXxXxX  t E.  v xXxXxXxXxX  y M -.6.G.xXxXxXxX. xXxXxX",
"xXxXxXxXxXk.  w.T xXxX2 - xXxXxXxXxX+ c.xXxX_   xX, 4 ! xXxXxXxX",
"xXxXxXxXxX1   ;XxXxXxXaXi xXxXxXxXxXxXxXxXxXV.@.xXxXxXxXxXxXxXxX",
"xXxXxXxXxXxX* G.xXxXqXpXz xXxXxXxXxXxXxXxXxX`.K xXxXxXxXxXxXxXxX",
"xXxXxXxXxXxXxXxXxXxXs X.xXxXxXxXxXxXxXxX=.d.X xXxXxXxXxXxXxXxXxX",
"xXxXxXxXxXxXxXxXxX:.dX  xXxXxXxXxXxXxXxXz.O.& xXxXxXxXxXxXxXxXxX",
"xXxXxXxXxXxXxXxXH eX1XR xXxXxXxXxXxXxXxXxXxXxXxXxXxXxXxXxXxXxXxX",
"xXxXxXxXxXxXxXxXxXxXxXxXxXxXxXxXxXxXxXxXxXxXxXxXxXxXxXxXxXxXxXxX",
"xXxXxXxXxXxXxXxXxXxXxXxXxXxXxXxXxXxXxXxXxXxXxXxXxXxXxXxXxXxXxXxX"
};
