/* XPM */
static char *result[] = {
/* columns rows colors chars-per-pixel */
"32 32 242 2 ",
"   c black",
".  c #070200",
"X  c #0A0200",
"o  c #0C0200",
"O  c #0C0502",
"+  c #140702",
"@  c #170702",
"#  c #140A05",
"$  c #170A05",
"%  c #210C02",
"&  c #260C02",
"*  c #210C05",
"=  c #210F07",
"-  c #260F05",
";  c #2B1407",
":  c #23120A",
">  c #28120A",
",  c #2D170A",
"<  c #2D170C",
"1  c #35170A",
"2  c #30190A",
"3  c #35190A",
"4  c #30190C",
"5  c #32190C",
"6  c #35190F",
"7  c #351C0C",
"8  c #371C0C",
"9  c #3A1C0C",
"0  c #3A1E0F",
"q  c #3C1C0C",
"w  c #3E1E0C",
"e  c #3C1C0F",
"r  c #3E2112",
"t  c #431E0A",
"y  c #411E0F",
"u  c #41210F",
"i  c #45210C",
"p  c #48210F",
"a  c #4A260F",
"s  c #4E260F",
"d  c #50260F",
"f  c #50280F",
"g  c #432112",
"h  c #452312",
"j  c #452614",
"k  c #4A2312",
"l  c #482612",
"z  c #4C2612",
"x  c #4E2612",
"c  c #482614",
"v  c #4C2614",
"b  c #4A2817",
"n  c #4E2814",
"m  c #4E2B14",
"M  c #532812",
"N  c #552B12",
"B  c #502814",
"V  c #572B14",
"C  c #572D14",
"Z  c #572D17",
"A  c #592D14",
"S  c #5B2D14",
"D  c #592D17",
"F  c #593017",
"G  c #5D3217",
"H  c #553019",
"J  c #5B3019",
"K  c #5D3519",
"L  c #633217",
"P  c #673214",
"I  c #693517",
"U  c #653519",
"Y  c #673519",
"T  c #673719",
"R  c #61351E",
"E  c #65371C",
"W  c #67371C",
"Q  c #693519",
"!  c #69371C",
"~  c #6C3A19",
"^  c #6C3A1C",
"/  c #6E3A1C",
"(  c #6C3C1C",
")  c #6F3C1C",
"_  c #6C3C1E",
"`  c #6E3C1E",
"'  c #6F3C1E",
"]  c #6F3E1E",
"[  c #773C19",
"{  c #713C1C",
"}  c #733C1C",
"|  c #733E1C",
" . c #713E1E",
".. c #773E1C",
"X. c #743E1E",
"o. c #6E3E21",
"O. c #733E21",
"+. c #73411E",
"@. c #74411E",
"#. c #79411E",
"$. c #734121",
"%. c #714123",
"&. c #744121",
"*. c #764121",
"=. c #774321",
"-. c #764323",
";. c #774323",
":. c #744526",
">. c #794321",
",. c #7C4321",
"<. c #7A4521",
"1. c #7A4523",
"2. c #7C4521",
"3. c #7D4521",
"4. c #7E4821",
"5. c #7D4823",
"6. c #7E4823",
"7. c #7C4826",
"8. c #7D4826",
"9. c #7D4A26",
"0. c #794A28",
"q. c #7E4A28",
"w. c #804823",
"e. c #804A23",
"r. c #824A23",
"t. c #804A26",
"y. c #824A26",
"u. c #814C26",
"i. c #824C26",
"p. c #844E26",
"a. c #814C28",
"s. c #824C28",
"d. c #814E2B",
"f. c #844E28",
"g. c #854E28",
"h. c #854E2B",
"j. c #804E2D",
"k. c #83502B",
"l. c #855028",
"z. c #865028",
"x. c #86532B",
"c. c #86532D",
"v. c #885028",
"b. c #895028",
"n. c #885328",
"m. c #895328",
"M. c #8A5328",
"N. c #89552B",
"B. c #8A552B",
"V. c #8A572B",
"C. c #8C5528",
"Z. c #8E572B",
"A. c #8A552D",
"S. c #8A572D",
"D. c #8B572D",
"F. c #8D572D",
"G. c #8E572D",
"H. c #8F5B2D",
"J. c #905B2D",
"K. c #895530",
"L. c #8A5530",
"P. c #8A5730",
"I. c #895930",
"U. c #8B5930",
"Y. c #8A5932",
"T. c #8C5930",
"R. c #8F5B30",
"E. c #8E5B32",
"W. c #8F5D32",
"Q. c #8C5B35",
"!. c #905B30",
"~. c #905D30",
"^. c #915D30",
"/. c #925D30",
"(. c #905F30",
"). c #925F30",
"_. c #905D32",
"`. c #955F30",
"'. c #915F35",
"]. c #936132",
"[. c #956332",
"{. c #936135",
"}. c #936335",
"|. c #926137",
" X c #946135",
".X c #946335",
"XX c #956335",
"oX c #956535",
"OX c #946537",
"+X c #956537",
"@X c #976537",
"#X c #976737",
"$X c #986937",
"%X c #95673A",
"&X c #96673A",
"*X c #97693C",
"=X c #98693A",
"-X c #986A3A",
";X c #9A6A3C",
":X c #996C3C",
">X c #9A6C3C",
",X c #9B6E3C",
"<X c #996C3E",
"1X c #9A6E3E",
"2X c #9B6F3E",
"3X c #9C6F3C",
"4X c #9C6F3E",
"5X c #9D713E",
"6X c #9A6C41",
"7X c #996E41",
"8X c #9B6F41",
"9X c #9C7141",
"0X c #9D7141",
"qX c #9D7341",
"wX c #9E7445",
"eX c #9F7745",
"rX c #9E794A",
"tX c #9F794A",
"yX c #A07743",
"uX c #A07645",
"iX c #A07945",
"pX c #A27C4A",
"aX c #A27D4A",
"sX c #A27D4C",
"dX c #A37D4C",
"fX c #A37E4C",
"gX c #A27E4E",
"hX c #A37E4E",
"jX c #A68553",
"kX c #A78553",
"lX c #A68555",
"zX c #A98A5B",
"xX c #AB8A5B",
"cX c #AB8B5B",
"vX c #AB8B5D",
"bX c #AD8F61",
"nX c #AF9063",
"mX c #B19165",
"MX c #B29265",
"NX c #B6966E",
"BX c #B99871",
"VX c None",
/* pixels */
"VXVXVXVXVXVXVXVXVXVXVXVXVXVXVXVXVXVXVXVXVXVXVXVXVXVXVXVXVXVXVXVX",
"VXVXVXVXVXVXVXVXVXVXVXVXVXVXVXf +Xk n.VXVXVXVXVXVXVXVXVXVXVXVXVX",
"VXVXVXVXVXVXVXVXVXVXVXVXVX X9X*X6X<XwXA.U VXVXVXVXVXVXVXVXVXVXVX",
"VXVXVXVXVXVXVXVXVXVXVXVX1.2XY.h lX6 c.jXR U VXVXVXVXVXVXVXVXVXVX",
"VXVXVXVXVXVXVXVXVXVXVX>.H.P.;.kXT.8X%X|.K.^ m.VXVXVXVXVXVXVXVXVX",
"VXVXVXVXVXVXVXVXVXVX^.Y 4.1X'.T.L.-.OX+.9X! b.y.VXVXVXVXVXVXVXVX",
"VXVXVXVXVXVXVXVXVXI X 3.(.D m eX:Xg yX_ # ;X; 5.VXVXVXVXVXVXVXVX",
"VXVXVXVXVXVXVXVXVX{ ..) ].K >XqXE.iXeXq.5.-XA ..VXVXVXVXVXVXVXVX",
"VXVXVXVXVXVXVXVXVX@ r.l 8 U 2.t.B.$.q N.5Xf.!.u.VXVXVXVXVXVXVXVX",
"VXVXVXVXVXVXVXVXVXx a =.` Q V 8.oX$X~.U G {.9 v.VXVXVXVXVXVXVXVX",
"VXVXVXVXVXVXVXVXVXd [./ S k e.V D.! @XB.h w.N !.VXVXVXVXVXVXVXVX",
"VXVXVXVXVXVXVXVXVXt F.p.M.#.M ( Q @.#X0X2 D w 4.VXVXVXVXVXVXVXVX",
"VXVXVXVXVXVXVXVXVXO B.i { aXa.1.}.].b.+X4X# = ^ VXVXVXVXVXVXVXVX",
"VXVXVXVXVXVXVXVXVXs | 9 W.hXQ.c -.cXZ.6.z.J 8 =XVXVXVXVXVXVXVXVX",
"VXVXVXVXVXVXVXVXVX* * r < vXbX  j xXO   e O.x.7.VXVXVXVXVXVXVXVX",
"VXVXVXVXVXVXVXVXVXQ 0 $   BXj.  d.sXE 5 E l -XC VXVXVXVXVXVXVXVX",
"VXVXVXVXVXVXVXVXVXVX. _.gXrX0.NXb u e.&XfXdX8 !.VXVXVXVXVXVXVXVX",
"VXVXVXVXVXVXVXVXVXVX).0XtX# %.nXH >Xi.#Xo.>X}.&.VXVXVXVXVXVXVXVX",
"VXVXVXVXVXVXVXVXVXVX{.0Xz MXzXI./.w.V.F y k.  qXVXVXVXVXVXVXVXVX",
"VXVXVXVXVXVXVXVXVXVX,  X  mX7XpX^.L ,Xs.; 4 T .XVXVXVXVXVXVXVXVX",
"VXVXVXVXVXVXVXVXVXVXO W X :., & } M - z.`.S.v _ VXVXVXVXVXVXVXVX",
"VXVXVXVXVXVXVXVXVXVX~ B C.1 VXVXVXVXVXVXp  X .*.VXVXVXVXVXVXVXVX",
"VXVXVXVXVXVXVXVXVXVXZ = ;.[ VXVXVXVXVXVX% U.<.n VXVXVXVXVXVXVXVX",
"VXVXVXVXVXVXVXVXVXVXA.' J.VXVXVXVXVXVXVXVX3XuX1.VXVXVXVXVXVXVXVX",
"VXVXVXVXVXVXVXVXVXVXVXt.<.VXVXVXVXVXVXVXVX+XR.VXVXVXVXVXVXVXVXVX",
"VXVXVXVXVXVXVXVXVXVXVX#XX.VXVXVXVXVXVXVXVX>Xh.VXVXVXVXVXVXVXVXVX",
"VXVXVXVXVXVXVXVXVXVXVX@X,.VXVXVXVXVXVXVXVXg.] VXVXVXVXVXVXVXVXVX",
"VXVXVXVXVXVXVXVXVXVXVX&.: VXVXVXVXVXVXVXVXG.XXVXVXVXVXVXVXVXVXVX",
"VXVXVXVXVXVXVXVXVXVXVX+ qX7 VXVXVXVXVXVXVXF.l.VXVXVXVXVXVXVXVXVX",
"VXVXVXVXVXVXVXVXVXVXVXo P 3 VXVXVXVXVXVXVXg.9.> VXVXVXVXVXVXVXVX",
"VXVXVXVXVXVXVXVXVXVXVXVXVXVXVXVXVXVXVXVXVXVXVXVXVXVXVXVXVXVXVXVX",
"VXVXVXVXVXVXVXVXVXVXVXVXVXVXVXVXVXVXVXVXVXVXVXVXVXVXVXVXVXVXVXVX"
};
