/* XPM */
static char *result[] = {
/* columns rows colors chars-per-pixel */
"32 32 245 2 ",
"   c black",
".  c #020000",
"X  c #020200",
"o  c #050000",
"O  c #0C0502",
"+  c #120702",
"@  c #140705",
"#  c #140A05",
"$  c #170A05",
"%  c #170C07",
"&  c #1E0F05",
"*  c #210F07",
"=  c #280F05",
"-  c #211207",
";  c #281207",
":  c #28140A",
">  c #2B140A",
",  c #2D140A",
"<  c #2B170C",
"1  c #2D170C",
"2  c #301207",
"3  c #371407",
"4  c #351707",
"5  c #30170C",
"6  c #30190C",
"7  c #32190C",
"8  c #35190C",
"9  c #351C0C",
"0  c #371C0C",
"q  c #371E0C",
"w  c #3A1C0C",
"e  c #3A1C0F",
"r  c #3C1E0F",
"t  c #3E1E0F",
"y  c #3C2112",
"u  c #411C0C",
"i  c #431E0C",
"p  c #48210C",
"a  c #4A230F",
"s  c #53260F",
"d  c #412112",
"f  c #432112",
"g  c #432312",
"h  c #482312",
"j  c #482314",
"k  c #4E2614",
"l  c #4A2814",
"z  c #4E2814",
"x  c #502812",
"c  c #532B12",
"v  c #552B12",
"b  c #502B14",
"n  c #532B14",
"m  c #502B17",
"M  c #572D14",
"N  c #552D17",
"B  c #5B2B12",
"V  c #592B14",
"C  c #592D14",
"Z  c #5B2D14",
"A  c #5D2D14",
"S  c #592D19",
"D  c #593017",
"F  c #5F3217",
"G  c #593019",
"H  c #5B3219",
"J  c #5F3219",
"K  c #613219",
"L  c #633519",
"P  c #653519",
"I  c #673519",
"U  c #61351C",
"Y  c #63351C",
"T  c #67371C",
"R  c #65371E",
"E  c #6A3719",
"W  c #6E3719",
"Q  c #69371C",
"!  c #653A1E",
"~  c #693A1C",
"^  c #6F3C1C",
"/  c #6E3C1E",
"(  c #6E3E1E",
")  c #6F3E1E",
"_  c #713E1E",
"`  c #733E1E",
"'  c #743E1C",
"]  c #773E1C",
"[  c #763E1E",
"{  c #653A21",
"}  c #6F3C21",
"|  c #6E3E21",
" . c #6F3E21",
".. c #6E3E23",
"X. c #6F3E23",
"o. c #74411C",
"O. c #76411C",
"+. c #74411E",
"@. c #76411E",
"#. c #77411E",
"$. c #79411E",
"%. c #7C431E",
"&. c #714121",
"*. c #744321",
"=. c #744323",
"-. c #7A4321",
";. c #7A4521",
":. c #7A4523",
">. c #7C4521",
",. c #7D4521",
"<. c #7E4521",
"1. c #7C4823",
"2. c #7D4823",
"3. c #7D4826",
"4. c #7E4826",
"5. c #7C4A28",
"6. c #804821",
"7. c #804823",
"8. c #804A23",
"9. c #814A23",
"0. c #824A23",
"q. c #834A23",
"w. c #864E23",
"e. c #804A26",
"r. c #814C26",
"t. c #824C26",
"y. c #834C26",
"u. c #804C28",
"i. c #824C28",
"p. c #834E28",
"a. c #824E2B",
"s. c #834E2B",
"d. c #844E28",
"f. c #864E28",
"g. c #885026",
"h. c #835028",
"j. c #82502B",
"k. c #83502B",
"l. c #845028",
"z. c #865028",
"x. c #85502B",
"c. c #84532B",
"v. c #86532D",
"b. c #86552D",
"n. c #885028",
"m. c #895328",
"M. c #8A5328",
"N. c #88532B",
"B. c #8A532B",
"V. c #8A552B",
"C. c #8B552B",
"Z. c #8C572B",
"A. c #8A552D",
"S. c #8A572D",
"D. c #8B572D",
"F. c #8E592B",
"G. c #8F592B",
"H. c #8E592D",
"J. c #8F592D",
"K. c #8F5B2D",
"L. c #8A5730",
"P. c #8B5730",
"I. c #8A5732",
"U. c #8A5930",
"Y. c #8D5930",
"T. c #8F5930",
"R. c #8F5B30",
"E. c #8D5D32",
"W. c #8F5D35",
"Q. c #905D32",
"!. c #915D32",
"~. c #925F32",
"^. c #905F35",
"/. c #925F35",
"(. c #946132",
"). c #936135",
"_. c #926137",
"`. c #936137",
"'. c #946135",
"]. c #956135",
"[. c #946335",
"{. c #956335",
"}. c #966335",
"|. c #956337",
" X c #956537",
".X c #966537",
"XX c #976537",
"oX c #94673A",
"OX c #96673A",
"+X c #95673C",
"@X c #97673C",
"#X c #97693A",
"$X c #95693C",
"%X c #9A6A3A",
"&X c #986A3C",
"*X c #9A6A3C",
"=X c #996C3C",
"-X c #9A6C3C",
";X c #9B6E3C",
":X c #986C3E",
">X c #9A6C3E",
",X c #9A6E3E",
"<X c #9B6E3E",
"1X c #9C6F3E",
"2X c #9D713E",
"3X c #986C41",
"4X c #9B7143",
"5X c #9C7141",
"6X c #9D7141",
"7X c #9D7341",
"8X c #9E7341",
"9X c #9D7343",
"0X c #9E7343",
"qX c #9D7443",
"wX c #9E7443",
"eX c #9F7643",
"rX c #9E7445",
"tX c #9F7645",
"yX c #9D774A",
"uX c #A07643",
"iX c #A07745",
"pX c #A07945",
"aX c #A07A48",
"sX c #A17A48",
"dX c #A27D4A",
"fX c #A37D4A",
"gX c #A27D4C",
"hX c #A37E4C",
"jX c #A3804E",
"kX c #A4814E",
"lX c #A48150",
"zX c #A68350",
"xX c #A68353",
"cX c #A68355",
"vX c #A78555",
"bX c #A78859",
"nX c #A98A59",
"mX c #AA8A5B",
"MX c #AC8C5D",
"NX c #AB8E63",
"BX c #AE9063",
"VX c #B2936A",
"CX c #B99871",
"ZX c #BD9C77",
"AX c None",
/* pixels */
"AXAXAXAXAXAXAXAXAXAXAXAXAXAXAXAXAXAXAXAXAXAXAXAXAXAXAXAXAXAXAXAX",
"AXAXAXAXAXAXAXAXAXAXAXAXAXAXAX+ u AXAXAXAXAXAXAXAXAXAXAXAXAXAXAX",
"AXAXAXAXAXAXAXAXAXAXAXAXAXAXAXM.V.AXAXAXAXAXAXAXAXAXAXAXAXAXAXAX",
"AXAXAXAXAXAXAXAXAXAXAXAXAXAX: 0 ..AXAXAXAXAXAXAXAXAXAXAXAXAXAXAX",
"AXAXAXAXAXAXAXAXAXAXAXAXAXAX+.u.9XAXAXAXAXAXAXAXAXAXAXAXAXAXAXAX",
"AXAXAXAXAXAXAXAXAXAXAXAXAXAXQ.S `.AXAXAXAXAXAXAXAXAXAXAXAXAXAXAX",
"AXAXAXAXAXAXAXAXAXAXAXAXAXAXB.3 *XI AXAXAXAXAXAXAXAXAXAXAXAXAXAX",
"AXAXAXAXAXAXAXAXAXAXAXAXAX XkXN j gXe AXAXAXAXAXAXAXAXAXAXAXAXAX",
"AXAXAXAXAXAXAXAXAXAXAXx.s.5.U U.+Xq rXrXd.AXAXAXAXAXAXAXAXAXAXAX",
"AXAXAXAXAXAXAXAXAXAXt 1.j.cXMXy X.jXI.mX!.g.AXAXAXAXAXAXAXAXAXAX",
"AXAXAXAXAXAXAXAXAXZ.n c zXnXxX, vXk.| W.5 p M.AXAXAXAXAXAXAXAXAX",
"AXAXAXAXAXAXAXAXa O.m.7.dX^.7 ! O 5Xb.tXC.f.0.AXAXAXAXAXAXAXAXAX",
"AXAXAXAXAXAXAXAX@.4 M.` ( a.E.6 h  X7Xb 8.H.q.AXAXAXAXAXAXAXAXAX",
"AXAXAXAXAXAXAXAXE ' ^ {.wX<X. -X1XX /.;X;.<.' AXAXAXAXAXAXAXAXAX",
"AXAXAXAXAXAXAXAXAX,.9.^ z.O 2.B.P n.[ = #.; Z AXAXAXAXAXAXAXAXAX",
"AXAXAXAXAXAXAXAXAX-.>.F (.M -.v K t.A %.] V 6.AXAXAXAXAXAXAXAXAX",
"AXAXAXAXAXAXAXAX# C 8 m.F.* }._ aXlX7 5Xw.2 @ AXAXAXAXAXAXAXAXAX",
"AXAXAXAXAXAXAXAX^ M.r.J.G.O wX:X+XU c._.d L x AXAXAXAXAXAXAXAXAX",
"AXAXAXAXAXAXAXAXg ~ #Xl &X/ h.- 9 BXCXoXgXx f AXAXAXAXAXAXAXAXAX",
"AXAXAXAXAXAXAXAXAXi.p.7XA.> i & % ZXVX$XsXo.XXAXAXAXAXAXAXAXAXAX",
"AXAXAXAXAXAXAXAXAX)  XL.Y }  XR 3X4XyXH pXK.D.AXAXAXAXAXAXAXAXAX",
"AXAXAXAXAXAXAXAXAXqXhXr eX@Xr hX0X{ NXbXD   :.AXAXAXAXAXAXAXAXAX",
"AXAXAXAXAXAXAXAXAX7X&X|.V *X).T.=X]., k M.  4.AXAXAXAXAXAXAXAXAX",
"AXAXAXAXAXAXAXAXAXl..X    AXAXAXAXAXB '.).Y.~.AXAXAXAXAXAXAXAXAX",
"AXAXAXAXAXAXAXAXAXiXfXo n AXAXAXAXAXq.[.v.OXP.AXAXAXAXAXAXAXAXAX",
"AXAXAXAXAXAXAXAXAXAXG ,XR.AXAXAXAXAXAX8X9X=.* AXAXAXAXAXAXAXAXAX",
"AXAXAXAXAXAXAXAXAXAX$ 6XuXAXAXAXAXAXAX2XQ.< Q AXAXAXAXAXAXAXAXAX",
"AXAXAXAXAXAXAXAXAXAXz &.S.AXAXAXAXAXAXP m >XAXAXAXAXAXAXAXAXAXAX",
"AXAXAXAXAXAXAXAXAXAX .T r.AXAXAXAXAXAX*.Q.3.AXAXAXAXAXAXAXAXAXAX",
"AXAXAXAXAXAXAXAXAXAXw J %XAXAXAXAXAXAX$.e.O AXAXAXAXAXAXAXAXAXAX",
"AXAXAXAXAXAXAXAXAXAXAXN.Y.AXAXAXAXAXAXW y.1 AXAXAXAXAXAXAXAXAXAX",
"AXAXAXAXAXAXAXAXAXAXAXAXAXAXAXAXAXAXAXAXAXs AXAXAXAXAXAXAXAXAXAX"
};
