/* XPM */
static char *result[] = {
/* columns rows colors chars-per-pixel */
"32 32 230 2 ",
"   c black",
".  c #020200",
"X  c #050200",
"o  c #050202",
"O  c #0C0702",
"+  c #0F0702",
"@  c #120502",
"#  c #140702",
"$  c #140A02",
"%  c #140A05",
"&  c #190C05",
"*  c #1C0C05",
"=  c #1C0C07",
"-  c #210F05",
";  c #210F07",
":  c #230F07",
">  c #260F05",
",  c #211207",
"<  c #231207",
"1  c #281207",
"2  c #281407",
"3  c #2B1407",
"4  c #2D1407",
"5  c #28140A",
"6  c #2B170A",
"7  c #2D170C",
"8  c #301707",
"9  c #32170A",
"0  c #35170A",
"q  c #32170C",
"w  c #35190A",
"e  c #37190A",
"r  c #35190C",
"t  c #37190C",
"y  c #3C1C0C",
"u  c #3E1E0C",
"i  c #3C1E0F",
"p  c #3E1E0F",
"a  c #411E0F",
"s  c #431E0F",
"d  c #41210F",
"f  c #43210F",
"g  c #45230F",
"h  c #48230F",
"j  c #4A230F",
"k  c #4C230C",
"l  c #4E260F",
"z  c #50260F",
"x  c #59280C",
"c  c #432314",
"v  c #432614",
"b  c #4A2612",
"n  c #4A2814",
"m  c #552812",
"M  c #572B12",
"N  c #502814",
"B  c #552814",
"V  c #552B14",
"C  c #572D17",
"Z  c #5D2B12",
"A  c #5B2D14",
"S  c #592D17",
"D  c #593017",
"F  c #5F3017",
"G  c #573019",
"H  c #5B3219",
"J  c #5D3219",
"K  c #5F3219",
"L  c #5B321E",
"P  c #613217",
"I  c #633217",
"U  c #673517",
"Y  c #6A3517",
"T  c #613219",
"R  c #613519",
"E  c #633519",
"W  c #653519",
"Q  c #63351C",
"!  c #65371E",
"~  c #693519",
"^  c #693719",
"/  c #6A371C",
"(  c #6A3A1C",
")  c #6C3A1C",
"_  c #6E3A1C",
"`  c #6F3C1C",
"'  c #6C3C1E",
"]  c #6F3C1E",
"[  c #713C1C",
"{  c #733E1C",
"}  c #733E1E",
"|  c #743E1E",
" . c #763E1E",
".. c #653A21",
"X. c #6F3E21",
"o. c #733E21",
"O. c #74411E",
"+. c #76411E",
"@. c #79411E",
"#. c #7A411E",
"$. c #79431E",
"%. c #7C431E",
"&. c #7D431E",
"*. c #6F4123",
"=. c #714121",
"-. c #744321",
";. c #774321",
":. c #744123",
">. c #744323",
",. c #774523",
"<. c #744526",
"1. c #7A4321",
"2. c #7C4321",
"3. c #794521",
"4. c #7A4521",
"5. c #794523",
"6. c #7C4521",
"7. c #7C4523",
"8. c #7E4821",
"9. c #7E4823",
"0. c #7D4A23",
"q. c #7D4A28",
"w. c #804823",
"e. c #814823",
"r. c #804A23",
"t. c #814A23",
"y. c #824C23",
"u. c #844C23",
"i. c #814A26",
"p. c #804C26",
"a. c #824C26",
"s. c #834C26",
"d. c #854E26",
"f. c #804C28",
"g. c #814C28",
"h. c #834E28",
"j. c #844E28",
"k. c #865026",
"l. c #865028",
"z. c #865328",
"x. c #84502B",
"c. c #85502B",
"v. c #86502B",
"b. c #86532B",
"n. c #84502D",
"m. c #895028",
"M. c #895328",
"N. c #88532B",
"B. c #89532B",
"V. c #8A532B",
"C. c #895528",
"Z. c #8A5528",
"A. c #8B5528",
"S. c #89552B",
"D. c #8A552B",
"F. c #8A572B",
"G. c #8D5728",
"H. c #88532D",
"J. c #8A572D",
"K. c #8B572D",
"L. c #8C572D",
"P. c #8C592D",
"I. c #8D592D",
"U. c #8E592D",
"Y. c #8F5B2D",
"T. c #905B2D",
"R. c #885730",
"E. c #895732",
"W. c #8A5930",
"Q. c #8B5930",
"!. c #8C5930",
"~. c #8F5B30",
"^. c #8D5B32",
"/. c #8E5B32",
"(. c #8F5F35",
"). c #8E5F37",
"_. c #915B30",
"`. c #905D30",
"'. c #925D30",
"]. c #915F30",
"[. c #925F30",
"{. c #905F32",
"}. c #925F32",
"|. c #905F35",
" X c #915F35",
".X c #936132",
"XX c #956132",
"oX c #946332",
"OX c #936135",
"+X c #936335",
"@X c #946335",
"#X c #956335",
"$X c #956535",
"%X c #976735",
"&X c #956537",
"*X c #976737",
"=X c #976935",
"-X c #93673C",
";X c #986A3A",
":X c #98693C",
">X c #9B6E3C",
",X c #9A6E3E",
"<X c #9B6E3E",
"1X c #9C6E3C",
"2X c #9C6F3E",
"3X c #9D713E",
"4X c #9C7141",
"5X c #9D7341",
"6X c #9E7443",
"7X c #9F7948",
"8X c #9F7A4C",
"9X c #A27C48",
"0X c #A07A4C",
"qX c #A27D4C",
"wX c #A27E50",
"eX c #A48150",
"rX c #A68555",
"tX c #A68659",
"yX c #AB8B5D",
"uX c #AD8D5F",
"iX c #AD8E61",
"pX c #B19163",
"aX c #B19165",
"sX c #B29265",
"dX c #B29367",
"fX c #B29369",
"gX c #B39369",
"hX c #B7966C",
"jX c #B8976F",
"kX c None",
/* pixels */
"kXkXkXkXkXkXkXkXkXkXkXkXkXkXkXkXkXkXkXkXkXkXkXkXkXkXkXkXkXkXkXkX",
"kXkXkXkXkXkXkXkXkXkXkXkXkXkXkXkXkXkXkXkXkXkXkXkXkXkXkXkXkXkXkXkX",
"kXkXkXkXkXkXkXkXkXkXkXkXkXkXkXkXkXkXkXkXkXkXkXkXkXkXkXkXkXkXkXkX",
"kXkXkXkXkXkXkXkXkXkXkXkXkXkXkXkXkXkXkXkXkXkXkXkXkXkXkXkXkXkXkXkX",
"kXkXkXkXkXkXkXkXkXkXkX| x.:.4XrX/.J ^.-.& kXkXkXkXkXkXkXkXkXkXkX",
"kXkXkXkXkXkXkXkXkXkXk.M <X;.qX9Xd (.Q 5X4 # kXkXkXkXkXkXkXkXkXkX",
"kXkXkXkXkXkXkXkXkXT.M e.Q.c >.h.!.p q. X@XY X kXkXkXkXkXkXkXkXkX",
"kXkXkXkXkXkXkXkXw.Z.5.2.6X|.J.W.N b.  ;X=X{ # kXkXkXkXkXkXkXkXkX",
"kXkXkXkXkXkXkXkX$ 6.t.3X' q +Xb ,XX.:XH : %.0 kXkXkXkXkXkXkXkXkX",
"kXkXkXkXkXkXkXkXl h 9.( OX{.. 4.[ { h.K.d z.;.kXkXkXkXkXkXkXkXkX",
"kXkXkXkXkXkXkXkX< `./ V s l.b K.~.L.T +.T y.U.kXkXkXkXkXkXkXkXkX",
"kXkXkXkXkXkXkXkXz $.^ ) .XO.+ D.r.}.4.t = M.1.kXkXkXkXkXkXkXkXkX",
"kXkXkXkXkXkXkXkXk 3.j } `.0.g } oXV.P - 6 5 p kXkXkXkXkXkXkXkXkX",
"kXkXkXkXkXkXkXkXa a.s.8 s.7X  n wXR.X.1Xi.,.< kXkXkXkXkXkXkXkXkX",
"kXkXkXkXkXkXkXkX| P.i   * eX  E.8X  o._.& a.C kXkXkXkXkXkXkXkXkX",
"kXkXkXkXkXkXkXkX'.K @XF.S.v 0XjX).yX-Xu E D j.kXkXkXkXkXkXkXkXkX",
"kXkXkXkXkXkXkXkX1.R L.l.#.iXhXdXL sX&X6..Xf $XkXkXkXkXkXkXkXkXkX",
"kXkXkXkXkXkXkXkXkXj.h.      uXjXfXX f.] d.H.j.kXkXkXkXkXkXkXkXkX",
"kXkXkXkXkXkXkXkXkXOXU.5   G   aXtXo 2X].~ d >XkXkXkXkXkXkXkXkXkX",
"kXkXkXkXkXkXkXkXkX; 7   B ..<.gX*.n.f I m   >XkXkXkXkXkXkXkXkXkX",
"kXkXkXkXkXkXkXkXkXc.) C.x A pXa.% uX` @ D.#X7 kXkXkXkXkXkXkXkXkX",
"kXkXkXkXkXkXkXkXkX*X) L.A.kX> ! O W &.&.B.} , kXkXkXkXkXkXkXkXkX",
"kXkXkXkXkXkXkXkXkX;.7.Y.  kXkXkXkXkXkX1 $XB.J kXkXkXkXkXkXkXkXkX",
"kXkXkXkXkXkXkXkXkXI.=.I.) kXkXkXkXkXkXU .X%XN.kXkXkXkXkXkXkXkXkX",
"kXkXkXkXkXkXkXkXkXkXp.  G.kXkXkXkXkXkXr v.D.kXkXkXkXkXkXkXkXkXkX",
"kXkXkXkXkXkXkXkXkXkXi V @.kXkXkXkXkXkXF Y.#XkXkXkXkXkXkXkXkXkXkX",
"kXkXkXkXkXkXkXkXkXkX9 XX  kXkXkXkXkXkXj y S kXkXkXkXkXkXkXkXkXkX",
"kXkXkXkXkXkXkXkXkXkX3 w   kXkXkXkXkXkX* C _ kXkXkXkXkXkXkXkXkXkX",
"kXkXkXkXkXkXkXkXkXkX8.u.Z kXkXkXkXkXkXe m.#XkXkXkXkXkXkXkXkXkXkX",
"kXkXkXkXkXkXkXkXkXkXg.@X .kXkXkXkXkXkXe.~.p kXkXkXkXkXkXkXkXkXkX",
"kXkXkXkXkXkXkXkXkXkX2   [.kXkXkXkXkXkX  ( * kXkXkXkXkXkXkXkXkXkX",
"kXkXkXkXkXkXkXkXkXkXkXkXkXkXkXkXkXkXkXkXkXkXkXkXkXkXkXkXkXkXkXkX"
};
