/* XPM */
static char *result[] = {
/* columns rows colors chars-per-pixel */
"32 32 233 2 ",
"   c black",
".  c #020000",
"X  c #020200",
"o  c #050200",
"O  c #070202",
"+  c #0A0502",
"@  c #0C0502",
"#  c #0F0702",
"$  c #120702",
"%  c #140A02",
"&  c #170A05",
"*  c #170C05",
"=  c #190A05",
"-  c #1C0C05",
";  c #1E0C05",
":  c #1C0C07",
">  c #230F05",
",  c #230F07",
"<  c #2B0F05",
"1  c #231207",
"2  c #281407",
"3  c #2B1407",
"4  c #2D1707",
"5  c #26140A",
"6  c #28140A",
"7  c #2B140A",
"8  c #2D140A",
"9  c #2D170A",
"0  c #301407",
"q  c #351707",
"w  c #3A1707",
"e  c #30170A",
"r  c #32170A",
"t  c #35170A",
"y  c #30170C",
"u  c #37190A",
"i  c #35190C",
"p  c #37190C",
"a  c #3C190A",
"s  c #3E190C",
"d  c #3A1C0C",
"f  c #3E1E0C",
"g  c #3E1E0F",
"h  c #431E0A",
"j  c #411E0C",
"k  c #431E0C",
"l  c #481E0A",
"z  c #4E1E0A",
"x  c #41210C",
"c  c #43210F",
"v  c #43230F",
"b  c #45210C",
"n  c #45210F",
"m  c #45230F",
"M  c #48210C",
"N  c #48230F",
"B  c #4E210C",
"V  c #4A260F",
"C  c #4E260F",
"Z  c #53260F",
"A  c #432312",
"S  c #482312",
"D  c #482612",
"F  c #4A2612",
"G  c #4E2812",
"H  c #502612",
"J  c #502812",
"K  c #572B12",
"L  c #532814",
"P  c #532B14",
"I  c #552B14",
"U  c #552D17",
"Y  c #5F2B12",
"T  c #5F2D12",
"R  c #5F2D17",
"E  c #5B3017",
"W  c #5D3014",
"Q  c #5F3014",
"!  c #5D3217",
"~  c #5F3219",
"^  c #5F321C",
"/  c #613012",
"(  c #633217",
")  c #693212",
"_  c #6A3214",
"`  c #6A3514",
"'  c #693517",
"]  c #6F3717",
"[  c #633519",
"{  c #673719",
"}  c #67371C",
"|  c #6A3719",
" . c #6C3719",
".. c #69371C",
"X. c #6C3A19",
"o. c #6E3A19",
"O. c #693A1C",
"+. c #6A3A1E",
"@. c #6C3A1C",
"#. c #6F3C1C",
"$. c #6E3C1E",
"%. c #733A19",
"&. c #743C19",
"*. c #763C19",
"=. c #733E1C",
"-. c #713E1E",
";. c #733E1E",
":. c #743E1C",
">. c #77411C",
",. c #76411E",
"<. c #77411E",
"1. c #7A431C",
"2. c #79431E",
"3. c #7A431E",
"4. c #7C431C",
"5. c #7D451C",
"6. c #7D451E",
"7. c #764523",
"8. c #764526",
"9. c #7C4321",
"0. c #794521",
"q. c #7A4521",
"w. c #794523",
"e. c #7A4523",
"r. c #7C4521",
"t. c #7E4521",
"y. c #7D4523",
"u. c #7C4526",
"i. c #7D4823",
"p. c #7E4A26",
"a. c #80481E",
"s. c #82481E",
"d. c #804821",
"f. c #824A21",
"g. c #834A21",
"h. c #834C21",
"j. c #844C23",
"k. c #854C23",
"l. c #864E23",
"z. c #804A26",
"x. c #814A26",
"c. c #824A26",
"v. c #834C26",
"b. c #834E26",
"n. c #864E26",
"m. c #834E28",
"M. c #844E28",
"N. c #885026",
"B. c #895026",
"V. c #8A5026",
"C. c #895326",
"Z. c #8A5326",
"A. c #855028",
"S. c #865028",
"D. c #86502B",
"F. c #86532B",
"G. c #895328",
"H. c #8A5328",
"J. c #8A532B",
"K. c #8B5528",
"L. c #88552B",
"P. c #89552B",
"I. c #8B552B",
"U. c #8B572B",
"Y. c #8C5528",
"T. c #8C5728",
"R. c #8C572B",
"E. c #8D572B",
"W. c #8A552D",
"Q. c #8A572D",
"!. c #8C572D",
"~. c #8D592B",
"^. c #8E592B",
"/. c #8D592D",
"(. c #8E592D",
"). c #8F592D",
"_. c #905B2D",
"`. c #915B2D",
"'. c #905D2D",
"]. c #855530",
"[. c #8D5930",
"{. c #8F5B30",
"}. c #8F5B32",
"|. c #905B30",
" X c #905D30",
".X c #915D30",
"XX c #925D30",
"oX c #915F30",
"OX c #925F30",
"+X c #935F30",
"@X c #925F32",
"#X c #935F32",
"$X c #935F35",
"%X c #936130",
"&X c #926132",
"*X c #936132",
"=X c #946132",
"-X c #946332",
";X c #956332",
":X c #926135",
">X c #936135",
",X c #946335",
"<X c #956335",
"1X c #956337",
"2X c #956535",
"3X c #976535",
"4X c #956537",
"5X c #976537",
"6X c #976737",
"7X c #986937",
"8X c #986A37",
"9X c #96673A",
"0X c #97693A",
"qX c #98693A",
"wX c #986A3A",
"eX c #986C3E",
"rX c #9B6E3E",
"tX c #9C6F3E",
"yX c #9D733E",
"uX c #9D7141",
"iX c #9D7341",
"pX c #9D7143",
"aX c #9D7443",
"sX c #9E7443",
"dX c #9F7645",
"fX c #A07745",
"gX c #A27D4A",
"hX c #A37E4A",
"jX c #A4804E",
"kX c #A68453",
"lX c #A98959",
"zX c #B5956A",
"xX c None",
/* pixels */
"xXxXxXxXxXxXxXxXxXxXxXxXxXxXxXxXxXxXxXxXxXxXxXxXxXxXxXxXxXxXxXxX",
"xXxXxXxXxXxXxXxXxXxXxXxXxXxXxXxXxXxXxXxXxXxXxXxXxXxXxXxXxXxXxXxX",
"xXxXxXxXxXxXxXxXxXxXxXxXxXxXxXxXxXxXxXxXxXxXxXxXxXxXxXxXxXxXxXxX",
"xXxXxXxXxXxXxXxXxXxXxXxXxXxXxXxXxXxXxXxXxXxXxXxXxXxXxXxXxXxXxXxX",
"xXxXxXxXxXxXxXxXxXxXxXxXxXxXxXxXxXxXxXxXxXxXxXxXxXxXxXxXxXxXxXxX",
"xXxXxXxXxXxXxXxXxXxXxXxXxXxXxXxXxXxXxXxXxXxXxXxXxXxXxXxXxXxXxXxX",
"xXxXxXxXxXxXxXxXxXxXxXxXxXxXxXxXxXxXxXxXxXxXxXxXxXxXxXxXxXxXxXxX",
"xXxXxXxXxXxXxXxXxXxXxXxXxXxXxXxXxXxXxXxXxXxXxXxXxXxXxXxXxXxXxXxX",
"xXxXxXxXxXxXxXxXxXxXxXxXxXxXxXxXxXxXxXxXxXxXxXxXxXxXxXxXxXxXxXxX",
"xXxXxXxXxXxXxXxXxXxXrX  fXdXpX).xXxXxXxXxXxXc.x.r.'.e 9.9XxXxXxX",
"xXxXxXxXxXxXxX#.1X@.jXA L.>X0X^ $XQ.E M._.I.[.U.b.U.v P kX8.xXxX",
"xXxXxXxXxXxX7 v.!.S hX7.y 6Xr.sXF.tX3XH F (.<.=Xc 5XJ #XgX+ xXxX",
"xXxXxXxX; x q.z.-X3.o -.I P.g 2Xq.d e.I #X(./.#XqXr {.wXaXlXzXxX",
"xXxXxXxX- ` E.2.oX XV.  6 =X-X  ..! . 5X~ .X;X- /.A.  tX  D ].xX",
"xXxXxXxXM &.H.9 XX( j.  J.U.,Xz.S.I } F i.g -X    # 7X}.  :XeXA ",
"xXxXxX] z t @ j.c.4 j K.N.R.*X+X= 6 : W.Q.3X XuXy.xXG.  4Xp.O.xX",
"xXxXxX6.xX3   K   N T.:.| &XOX  [ [ @ <X6Xm.i yXxXxXxXxXxXD.;.xX",
"xXxXxXf xX .k.a ^.;.c ,.2.. v.H.@X%X& 8X6X7 m.  xXxXxXxXxXxXxXxX",
"xXxX'   xXb e j.~.B.X.n I.X.m   *X`.(.G   iXu. .xXxXxXxXxXxXxXxX",
"xXxX)   xX1.% n.L R W t.c   e { .X8 @ R.7 +.5 xXxXxXxXxXxXxXxXxX",
"xXxXT w xXo.C j.R.=._ Y f (.).O p xXQ _.7X$ xXxXxXxXxXxXxXxXxXxX",
"xXxXxX*.xXa.g.h.k xXxXxXxXxXxXxXxXxXxX2 Q.g xXxXxXxXxXxXxXxXxXxX",
"xXxXxX4.xX*   + xXxXxXxXxXxXxXxXxXxXxX( X |.xXxXxXxXxXxXxXxXxXxX",
"xXxXxXl xXf.l.  xXxXxXxXxXxXxXxXxXxXxXj.tXxXxXxXxXxXxXxXxXxXxXxX",
"xXxXxX` xX  N.b xXxXxXxXxXxXxXxXxXxXxX5.w.xXxXxXxXxXxXxXxXxXxXxX",
"xXxXxXo xXZ.7 M xXxXxXxXxXxXxXxXxXxXxX  0.xXxXxXxXxXxXxXxXxXxXxX",
"xXxXxXk xXs   0 %.xXxXxXxXxXxXxXxXxXxX  u , xXxXxXxXxXxXxXxXxXxX",
"xXxXB Z xXxXC.  xXxXxXxXxXxXxXxXxXxXxX1 q d.xXxXxXxXxXxXxXxXxXxX",
"xX/ xXxXxXxX> Y.s.xXxXxXxXxXxXxXxXxXxXN.U $.xXxXxXxXxXxXxXxXxXxX",
"xXh xXxXxXxX< >.V xXxXxXxXxXxXxXxXxXxXxX+ 6 xXxXxXxXxXxXxXxXxXxX",
"xXxXxXxXxXxXxXxXxXxXxXxXxXxXxXxXxXxXxXxXxXxXxXxXxXxXxXxXxXxXxXxX",
"xXxXxXxXxXxXxXxXxXxXxXxXxXxXxXxXxXxXxXxXxXxXxXxXxXxXxXxXxXxXxXxX"
};
