/* XPM */
static char *result[] = {
/* columns rows colors chars-per-pixel */
"32 32 229 2 ",
"   c black",
".  c #020200",
"X  c #050200",
"o  c #0A0502",
"O  c #0F0700",
"+  c #0C0502",
"@  c #0F0502",
"#  c #0F0702",
"$  c #120702",
"%  c #170A02",
"&  c #120A05",
"*  c #140A05",
"=  c #170A05",
"-  c #190A02",
";  c #190C07",
":  c #1E0F05",
">  c #1C0C07",
",  c #1E0F07",
"<  c #210F05",
"1  c #211207",
"2  c #231207",
"3  c #281207",
"4  c #2B1207",
"5  c #2B1407",
"6  c #26140A",
"7  c #28120A",
"8  c #2B120A",
"9  c #28140A",
"0  c #2D140A",
"q  c #2D170A",
"w  c #30140A",
"e  c #30170A",
"r  c #35170A",
"t  c #37190A",
"y  c #32190C",
"u  c #35190C",
"i  c #37190C",
"p  c #371C0C",
"a  c #3A190A",
"s  c #3C190A",
"d  c #3A1C0C",
"f  c #3C1C0C",
"g  c #3C1E0C",
"h  c #431407",
"j  c #451C0A",
"k  c #411E0C",
"l  c #411E0F",
"z  c #41210F",
"x  c #43210F",
"c  c #45210C",
"v  c #45210F",
"b  c #48210C",
"n  c #48210F",
"m  c #4E230F",
"M  c #4A260F",
"N  c #50260F",
"B  c #57260F",
"V  c #55280F",
"C  c #59280F",
"Z  c #5B280F",
"A  c #412112",
"S  c #432112",
"D  c #4C2612",
"F  c #4E2612",
"G  c #4A2614",
"H  c #4C2812",
"J  c #4E2812",
"K  c #4E2814",
"L  c #502812",
"P  c #572B12",
"I  c #532B14",
"U  c #572B14",
"Y  c #532D14",
"T  c #572D14",
"R  c #572D17",
"E  c #592B14",
"W  c #5B2D14",
"Q  c #5D2D14",
"!  c #5F3217",
"~  c #5F3219",
"^  c #5B321C",
"/  c #612D12",
"(  c #632D12",
")  c #653217",
"_  c #633517",
"`  c #633519",
"'  c #653519",
"]  c #653719",
"[  c #61351C",
"{  c #693719",
"}  c #6C3719",
"|  c #69371C",
" . c #6A371C",
".. c #6E3A19",
"X. c #6F3C1C",
"o. c #6F3E1E",
"O. c #743A19",
"+. c #743C19",
"@. c #733E1C",
"#. c #713C1E",
"$. c #713E1E",
"%. c #743E1E",
"&. c #793E19",
"*. c #733E21",
"=. c #77411C",
"-. c #76411E",
";. c #77411E",
":. c #7D4319",
">. c #79411E",
",. c #7A431E",
"<. c #7D431C",
"1. c #734121",
"2. c #714123",
"3. c #744121",
"4. c #774321",
"5. c #794321",
"6. c #794523",
"7. c #7A4523",
"8. c #7C4521",
"9. c #7D4521",
"0. c #7C4823",
"q. c #7D4823",
"w. c #7E4823",
"e. c #7E4A23",
"r. c #7C4826",
"t. c #774528",
"y. c #7E4C28",
"u. c #81431E",
"i. c #804521",
"p. c #804821",
"a. c #814821",
"s. c #814A21",
"d. c #804A23",
"f. c #814A23",
"g. c #834A23",
"h. c #844C23",
"j. c #814A26",
"k. c #824C26",
"l. c #834C26",
"z. c #834E26",
"x. c #844E26",
"c. c #854E26",
"v. c #884E26",
"b. c #834E28",
"n. c #844E28",
"m. c #854E28",
"M. c #855026",
"N. c #865026",
"B. c #885023",
"V. c #885026",
"C. c #8A5326",
"Z. c #855028",
"A. c #865028",
"S. c #86502B",
"D. c #8A5328",
"F. c #88532B",
"G. c #8A5528",
"H. c #89552B",
"J. c #8A552B",
"K. c #8B552B",
"L. c #8A572B",
"P. c #8B572B",
"I. c #8D5728",
"U. c #8C572B",
"Y. c #8D572B",
"T. c #8E572B",
"R. c #8B572D",
"E. c #8D592B",
"W. c #8F592B",
"Q. c #8E592D",
"!. c #8F5B2D",
"~. c #905B2D",
"^. c #915D2D",
"/. c #8B5932",
"(. c #8C5930",
"). c #8D5930",
"_. c #8E5D35",
"`. c #915B30",
"'. c #915D30",
"]. c #925D30",
"[. c #935D30",
"{. c #915F30",
"}. c #925F30",
"|. c #935F30",
" X c #925D32",
".X c #915F32",
"XX c #935F32",
"oX c #936132",
"OX c #946132",
"+X c #956332",
"@X c #956135",
"#X c #956335",
"$X c #956535",
"%X c #966535",
"&X c #976735",
"*X c #966737",
"=X c #986737",
"-X c #986937",
";X c #9A6A37",
":X c #97693A",
">X c #97693C",
",X c #98693A",
"<X c #986A3A",
"1X c #9A6A3A",
"2X c #9A6C3A",
"3X c #986A3C",
"4X c #9A6C3C",
"5X c #9B6E3C",
"6X c #996C3E",
"7X c #9B6E3E",
"8X c #9C6F3C",
"9X c #9D6F3C",
"0X c #9C6F3E",
"qX c #9D713E",
"wX c #9D733E",
"eX c #9B6F41",
"rX c #9D7141",
"tX c #9D7341",
"yX c #9E7343",
"uX c #9E7441",
"iX c #9F7743",
"pX c #9F7645",
"aX c #A07745",
"sX c #A07945",
"dX c #A17945",
"fX c #A07948",
"gX c #A17C4A",
"hX c #A98959",
"jX c None",
/* pixels */
"jXjXjXjXjXjXjXjXjXjXjXjXjXjXjXjXjXjXjXjXjXjXjXjXjXjXjXjXjXjXjXjX",
"jXjXjXjXjXjXjXjXjXjXjXjXjXjXjXjXjXjXjXjXjXjXjXjXjXjXjXjXjXjXjXjX",
"jXjXjXjXjXjXjXjXjXjXjXjXjXjXjXjXjXjXjXjXjXjXjXjXjXjXjXjXjXjXjXjX",
"jXjXjXjXjXjXjXjXjXjXjXjXjXjXjXjXjXjXjXjXjXjXjXjXjXjXjXjXjXjXjXjX",
"jXjXjXjXjXjXjXjXjXjXjXjXjXjXjXjXjXjXjXjXjXjXjXjXjXjXjXjXjXjXjXjX",
"jXjXjXjXjXjXjXjXjXjXjXjXjXjXjXjXjXjXjXjXjXjXjXjXjXjXjXjXjXjXjXjX",
"jXjXjXjXjXjXjXjXjXjXjXjXjXjXjXjXjXjXjXjXjXjXjXjXjXjXjXjXjXjXjXjX",
"jXjXjXjXjXjXjXjXjXjXjXjXjXjXjXjXjXjXjXjXjXjXjXjXjXjXjXjXjXjXjXjX",
"jXjXjXjXjXjXjXjXjXjXjXjXjXjXjXjXjXjXjXjXjXjXjXjXjXjXjXjXjXjXjXjX",
"jXjXjXjXjXjXjXjXjXjXjXjXjXjXjXjXjXjXjXjXjXjXjXjXjXjXjXjXjXjXjXjX",
"jXjXjXjXjXjXjX= 3Xy.sX6Xt.2.r.S.iX1.jXjXjXjXjXjXjXjXjXjXjXjXjXjX",
"jXjXjXjXjXP uX).j.d gX[ :X>XeXfX:X(.yXW 5.U I ] G.T.w e F.jXjXjX",
"jXjXjXjXx.e ~ 4XJ.-XR.: @ 3 K.$X2Xo.l.#.Z.*X~ q #Xv A.  S.hXjXjX",
"jXjXjXM.<.7 L |.f.oX    A.Y $XOX#X%.D F ,X1 9 !.T -.3.' }.; jXjX",
"jXjXp.,.  / # U.d oXX - K # L #XR q.Q.*.=XH.0.oX1XV.# 0X6 /.^ jX",
"jXC k jXjX) s.5 o M E.t #   %Xq 3.w.y XX' =     9X;XJ.*Xy G _.jX",
"jXV O.jXjXk W $ 9.i   f %   +X+Xe.J.&X  | P.o.  $ $.  rX-XqXfX, ",
"jX> jXjXjXr t -.U.~.W I.c c.N.|.8.f & %XL.w.wX  L jXa ` m.@ dXjX",
"jXa.jXjXjXjXn ..k.[.;.l + d.e x   { u %X7XtXA 8XjXjXjX{.jXK O jX",
"jX= jXjXjXjX+.8 ! y h >.g m.e '.@XD.  -X,X  4.U jXjXjXjXjXjXjXjX",
"jXQ jXjXjXjXjX  h.  `.u.e ~.~.= oXn.T.<   5XH jXjXjXjXjXjXjXjXjX",
"jX4 jXjXjXjXjXjX..e ^.jXQ l.k z.= q * Y.S A.k jXjXjXjXjXjXjXjXjX",
"jXjXC.jXjXjXjXjXm . ].jXjXjXjXjXjXjXjX .<X> .XjXjXjXjXjXjXjXjXjX",
"jXjXb =.jX( j jX  _ 8.jXjXjXjXjXjXjXjXL 7.z p   jXjXjXjXjXjXjXjX",
"jXjXjXB jXjXjXjXjXa   &.jXjXjXjXjXjXjXjXX.X R. XjXjXjXjXjXjXjXjX",
"jXjXjXjXjXjXjXjXjXs B.@.i.2 jXjXjXjXjXjXr 3 6.0 jXjXjXjXjXjXjXjX",
"jXjXjXjXjXjXjXjXjXZ g.+.J W.jXjXjXjXjXjXE } y b.N jXv.jXjXjXjXjX",
"jXjXjXjXjXjXjXjXjXjXjXjXjXjXjXjXjXjXjXjXjX3 :.  pXaXy jXjXjXjXjX",
"jXjXjXjXjXjXjXjXjXjXjXjXjXjXjXjXjXjXjXjXjXjXjXjX7Xo 5XjXjXjXjXjX",
"jXjXjXjXjXjXjXjXjXjXjXjXjXjXjXjXjXjXjXjXjXjXjXjXjXjXjXjXjXjXjXjX",
"jXjXjXjXjXjXjXjXjXjXjXjXjXjXjXjXjXjXjXjXjXjXjXjXjXjXjXjXjXjXjXjX",
"jXjXjXjXjXjXjXjXjXjXjXjXjXjXjXjXjXjXjXjXjXjXjXjXjXjXjXjXjXjXjXjX"
};
