/* XPM */
static char *result[] = {
/* columns rows colors chars-per-pixel */
"31 32 227 2 ",
"   c black",
".  c #020000",
"X  c #050200",
"o  c #070200",
"O  c #070202",
"+  c #070500",
"@  c #0A0200",
"#  c #0A0500",
"$  c #0C0502",
"%  c #0F0502",
"&  c #0F0702",
"*  c #120702",
"=  c #1C0A02",
"-  c #1E0A02",
";  c #190C05",
":  c #1C0C07",
">  c #260A02",
",  c #210C02",
"<  c #210C05",
"1  c #230C05",
"2  c #210F07",
"3  c #230F07",
"4  c #260F07",
"5  c #280C05",
"6  c #2B0F05",
"7  c #231207",
"8  c #2B1205",
"9  c #2B1207",
"0  c #2D1205",
"q  c #2D1407",
"w  c #26140A",
"e  c #2D140A",
"r  c #2D170A",
"t  c #321205",
"y  c #371407",
"u  c #351707",
"i  c #371707",
"p  c #3A1707",
"a  c #3A1907",
"s  c #3E1907",
"d  c #30170A",
"f  c #32170A",
"g  c #37170A",
"h  c #35190A",
"j  c #37190A",
"k  c #37190C",
"l  c #371C0F",
"z  c #3A190A",
"x  c #3C190A",
"c  c #3A1C0A",
"v  c #3C1C0A",
"b  c #3C1C0C",
"n  c #3E1E0F",
"m  c #411907",
"M  c #481907",
"N  c #431C0A",
"B  c #451E0A",
"V  c #411E0C",
"C  c #431E0C",
"Z  c #431E0F",
"A  c #451E0C",
"S  c #551E0A",
"D  c #4C210A",
"F  c #4E210A",
"G  c #48230F",
"H  c #4A230F",
"J  c #4C210C",
"K  c #4C230C",
"L  c #4C260F",
"P  c #55210A",
"I  c #50230C",
"U  c #53230C",
"Y  c #55230C",
"T  c #53260C",
"R  c #53260F",
"E  c #57260C",
"W  c #59210A",
"Q  c #5B230C",
"!  c #53280F",
"~  c #55280F",
"^  c #57280F",
"/  c #5F280F",
"(  c #5F2B0F",
")  c #452312",
"_  c #4C2312",
"`  c #4C2612",
"'  c #4E2612",
"]  c #4E2814",
"[  c #552812",
"{  c #532B14",
"}  c #532B17",
"|  c #572D17",
" . c #5D2D12",
".. c #5F2D12",
"X. c #592B14",
"o. c #5B2D14",
"O. c #5D2D14",
"+. c #5B3017",
"@. c #5D3014",
"#. c #5F3014",
"$. c #5F3217",
"%. c #5D3219",
"&. c #5F3219",
"*. c #5F351C",
"=. c #632B0F",
"-. c #632D0F",
";. c #652D0F",
":. c #612B12",
">. c #612D12",
",. c #613012",
"<. c #633012",
"1. c #653012",
"2. c #673012",
"3. c #653212",
"4. c #673212",
"5. c #613014",
"6. c #613214",
"7. c #633017",
"8. c #613217",
"9. c #653214",
"0. c #673214",
"q. c #653217",
"w. c #693012",
"e. c #6A3212",
"r. c #693214",
"t. c #6C3717",
"y. c #6E3717",
"u. c #613219",
"i. c #633219",
"p. c #613519",
"a. c #63351C",
"s. c #67351C",
"d. c #6A3719",
"f. c #6F3719",
"g. c #69371C",
"h. c #6A3A19",
"j. c #6E3A1C",
"k. c #6F3A1C",
"l. c #6F3C1C",
"z. c #6E3C1E",
"x. c #6F3C1E",
"c. c #713A17",
"v. c #713C19",
"b. c #733C19",
"n. c #743C19",
"m. c #763C19",
"M. c #763E19",
"N. c #713C1E",
"B. c #713E1E",
"V. c #733E1E",
"C. c #763E1C",
"Z. c #773E1C",
"A. c #743E1E",
"S. c #6E3E21",
"D. c #76411E",
"F. c #77431E",
"G. c #794119",
"H. c #79411C",
"J. c #7A411C",
"K. c #79411E",
"L. c #79431E",
"P. c #7A431E",
"I. c #7C411C",
"U. c #7C431C",
"Y. c #7C431E",
"T. c #7D431E",
"R. c #7D451E",
"E. c #734123",
"W. c #774321",
"Q. c #764526",
"!. c #794321",
"~. c #794523",
"^. c #7E4521",
"/. c #7E4821",
"(. c #7E4A23",
"). c #7D4826",
"_. c #80481E",
"`. c #814821",
"'. c #824A21",
"]. c #834C26",
"[. c #844E26",
"{. c #854E26",
"}. c #824C28",
"|. c #824E2B",
" X c #844E28",
".X c #865028",
"XX c #84502B",
"oX c #86532D",
"OX c #885328",
"+X c #895328",
"@X c #8A532B",
"#X c #8B552B",
"$X c #8C572B",
"%X c #8D572B",
"&X c #8C572D",
"*X c #8D572D",
"=X c #8E592D",
"-X c #8F592D",
";X c #905D2D",
":X c #885530",
">X c #925F30",
",X c #935F30",
"<X c #915F32",
"1X c #925F35",
"2X c #936132",
"3X c #956132",
"4X c #956332",
"5X c #956335",
"6X c #966535",
"7X c #96673C",
"8X c #98693A",
"9X c #9A6C3A",
"0X c #9A6C3C",
"qX c #9B6E3C",
"wX c #9B6F3C",
"eX c #9B6F3E",
"rX c #9C713E",
"tX c #9A6F41",
"yX c #9C7141",
"uX c #9D7443",
"iX c #9D7445",
"pX c #A07A4A",
"aX c #A27C48",
"sX c #A27D4C",
"dX c #A68555",
"fX c #A88857",
"gX c None",
/* pixels */
"gXgXgXgXgXgXgXgXgXgXgXgXgXgXgXgXgXgXgXgXgXgXgXgXgXgXgXgXgXgXgX",
"gXgXgXgXgXgXgXgXgXgXgXgXgXgXgXgXgXgXgXgXgXgXgXgXgXgXgXgXgXgXgX",
"gXgXgXgXgXgXgXgXgXgXgXgXL.b ` %X(.G b gXgXgXgXgXgXgXgXgXgXgXgX",
"gXgXgXgXgXgXgXgXgXgXo i.#X{ . >XN.+X' d.gXgXgXgXgXgXgXgXgXgXgX",
"gXgXgXgXgXgXgXgXgXgX` 3X6XV.).&X&.4Xu.Z gXgXgXgXgXgXgXgXgXgXgX",
"gXgXgXgXgXgXgXgXgXgXgX_ F.W.0X9XqXn 7 j.gXgXgXgXgXgXgXgXgXgXgX",
"gXgXgXgXgXgXgXgXgXgXgXJ ,Xi.| rXS.l aX} B.gXgXgXgXgXgXgXgXgXgX",
"gXgXgXgXgXgXgXgXgXgXgX@.~.}.+.$X9 s. XE.a.wXgXgXgXgXgXgXgXgXgX",
"gXgXgXgXgXgXgXgXgXgXgX8.=X8X*.dXiXQ.oX+.1X) k.gXgXgXgXgXgXgXgX",
"gXgXgXgXgXgXgXgXgXgX;Xb A.tXfX7X] %.%.:XsX!.D.OXgXgXgXgXgXgXgX",
"gXgXgXgXgXgXgXgXgXo.y.K.l.yX: 5Xc q <XuXpX&X{.A.gXgXgXgXgXgXgX",
"gXgXgXgXgXgXgXgXgXL W.+XeX|.4 j J ~ 9 XXp.-X* v.gXgXgXgXgXgXgX",
"gXgXgXgXgXgXgXgXgX[ $.2X].@X2 x 9.# X g.w *X.X+ gXgXgXgXgXgXgX",
"gXgXgXgXgXgXgXgXgXgX6.[.x.-Xd . >.  O ; h.!.z.k gXgXgXgXgXgXgX",
"gXgXgXgXgXgXgXgXgX5.^ & b.T.- -...R Y D b.G X.  gXgXgXgXgXgXgX",
"gXgXgXgXgXgXgXgXgX  ^.G e 2.0 =.4.q I < ;./.`.C gXgXgXgXgXgXgX",
"gXgXgXgXgXgXgXgXgXo.C.@.C E ;.:.3 w.Q N T J.[ h gXgXgXgXgXgXgX",
"gXgXgXgXgXgXgXgXgX#.J.n.G.i U 0.3.I P / U I.V R.gXgXgXgXgXgXgX",
"gXgXgXgXgXgXgXgXgXO.X H j , r.1.m W S s y I G X gXgXgXgXgXgXgX",
"gXgXgXgXgXgXgXgXgXv v r F W K > t F 6 M   8 d _.gXgXgXgXgXgXgX",
"gXgXgXgXgXgXgXgXgXZ.Y.2 @ Y gXgXgXgXgXs e.7.2 % gXgXgXgXgXgXgX",
"gXgXgXgXgXgXgXgXgXgX  f =.= gXgXgXgXgXm P.U.'.gXgXgXgXgXgXgXgX",
"gXgXgXgXgXgXgXgXgXgX. q.a t gXgXgXgXgXp m.b.H gXgXgXgXgXgXgXgX",
"gXgXgXgXgXgXgXgXgXgX  M.u f.gXgXgXgXgXgX .+ t.gXgXgXgXgXgXgXgX",
"gXgXgXgXgXgXgXgXgXgXgXj <.! gXgXgXgXgXgXy.& <.gXgXgXgXgXgXgXgX",
"gXgXgXgXgXgXgXgXgXgXgX,.A B gXgXgXgXgXgXH.M.^ gXgXgXgXgXgXgXgX",
"gXgXgXgXgXgXgXgXgXgXgX$ # ~ gXgXgXgXgXgXg ..c.gXgXgXgXgXgXgXgX",
"gXgXgXgXgXgXgXgXgXgXgX$ 5 gXgXgXgXgXgXgXz ( 1 gXgXgXgXgXgXgXgX",
"gXgXgXgXgXgXgXgXgXgXgXgXgXgXgXgXgXgXgXgXgXgXgXgXgXgXgXgXgXgXgX",
"gXgXgXgXgXgXgXgXgXgXgXgXgXgXgXgXgXgXgXgXgXgXgXgXgXgXgXgXgXgXgX",
"gXgXgXgXgXgXgXgXgXgXgXgXgXgXgXgXgXgXgXgXgXgXgXgXgXgXgXgXgXgXgX",
"gXgXgXgXgXgXgXgXgXgXgXgXgXgXgXgXgXgXgXgXgXgXgXgXgXgXgXgXgXgXgX"
};
