/* XPM */
static char *result[] = {
/* columns rows colors chars-per-pixel */
"32 32 238 2 ",
"   c black",
".  c #020000",
"X  c #050000",
"o  c #050200",
"O  c #070502",
"+  c #0A0502",
"@  c #0C0502",
"#  c #0C0702",
"$  c #0F0505",
"%  c #120702",
"&  c #170702",
"*  c #120A02",
"=  c #140A05",
"-  c #170A05",
";  c #170C05",
":  c #190A02",
">  c #1C0A02",
",  c #1C0C05",
"<  c #1E0C07",
"1  c #1C0F07",
"2  c #210F07",
"3  c #230F07",
"4  c #231207",
"5  c #261207",
"6  c #2B1407",
"7  c #26140A",
"8  c #2B140A",
"9  c #2B170A",
"0  c #2D170A",
"q  c #371707",
"w  c #30140A",
"e  c #30170A",
"r  c #32170A",
"t  c #35170A",
"y  c #37170A",
"u  c #35190A",
"i  c #37190A",
"p  c #32190C",
"a  c #35190C",
"s  c #37190C",
"d  c #321C0C",
"f  c #371C0C",
"g  c #371C0F",
"h  c #3A1C0C",
"j  c #3A1E0F",
"k  c #3C1C0C",
"l  c #431E0A",
"z  c #451C0A",
"x  c #451E0A",
"c  c #431E0C",
"v  c #4C1E0A",
"b  c #43210C",
"n  c #41210F",
"m  c #43210F",
"M  c #48210F",
"N  c #4A230F",
"B  c #50230C",
"V  c #53230C",
"C  c #53230F",
"Z  c #59280F",
"A  c #452312",
"S  c #482312",
"D  c #4A2612",
"F  c #4C2612",
"G  c #4C2614",
"H  c #502812",
"J  c #532812",
"K  c #532814",
"L  c #532B14",
"P  c #552B14",
"I  c #572D14",
"U  c #5D2D12",
"Y  c #5B3014",
"T  c #5B3017",
"R  c #5D3017",
"E  c #5F3217",
"W  c #5F3219",
"Q  c #5F351E",
"!  c #633014",
"~  c #613217",
"^  c #633217",
"/  c #653214",
"(  c #673217",
")  c #673517",
"_  c #6A3214",
"`  c #693517",
"'  c #6A3717",
"]  c #6E3717",
"[  c #6F3A17",
"{  c #633519",
"}  c #61351C",
"|  c #67371C",
" . c #6C3A19",
".. c #6E3A19",
"X. c #6A3A1C",
"o. c #6F3A1C",
"O. c #6C3C1C",
"+. c #6E3C1C",
"@. c #733C19",
"#. c #733C1C",
"$. c #733E1C",
"%. c #713C1E",
"&. c #713E1E",
"*. c #763E1C",
"=. c #743E1E",
"-. c #763E1E",
";. c #71411E",
":. c #73411E",
">. c #74411E",
",. c #7A431C",
"<. c #79411E",
"1. c #7A411E",
"2. c #79431E",
"3. c #7A431E",
"4. c #7A451E",
"5. c #7E451E",
"6. c #714121",
"7. c #744121",
"8. c #774523",
"9. c #794321",
"0. c #7A4321",
"q. c #7D4521",
"w. c #7C4821",
"e. c #7D4821",
"r. c #7C4826",
"t. c #80481E",
"y. c #814A21",
"u. c #834A21",
"i. c #804823",
"p. c #814A23",
"a. c #824A23",
"s. c #824C23",
"d. c #844C23",
"f. c #854C23",
"g. c #854E23",
"h. c #864E23",
"j. c #814A26",
"k. c #814C26",
"l. c #824C26",
"z. c #834C26",
"x. c #844E26",
"c. c #854E26",
"v. c #864E26",
"b. c #814C28",
"n. c #814E28",
"m. c #854E28",
"M. c #885026",
"N. c #895026",
"B. c #855028",
"V. c #865028",
"C. c #85532D",
"Z. c #895028",
"A. c #885328",
"S. c #8A5328",
"D. c #88532B",
"F. c #8C5328",
"G. c #8A5528",
"H. c #8B5528",
"J. c #8A552B",
"K. c #8B552B",
"L. c #8B572B",
"P. c #8C552B",
"I. c #8C572B",
"U. c #88552D",
"Y. c #8A572D",
"T. c #8D572D",
"R. c #8E592B",
"E. c #8C592D",
"W. c #8D592D",
"Q. c #8E592D",
"!. c #8F592D",
"~. c #8F5B2D",
"^. c #905B2D",
"/. c #905D2D",
"(. c #935D2D",
"). c #925F2D",
"_. c #8A5730",
"`. c #8A5932",
"'. c #8F5B32",
"]. c #8E5D32",
"[. c #8E5B35",
"{. c #905B30",
"}. c #905D30",
"|. c #915D30",
" X c #915F30",
".X c #925F30",
"XX c #935F30",
"oX c #935F32",
"OX c #936132",
"+X c #946332",
"@X c #956332",
"#X c #956532",
"$X c #936135",
"%X c #936337",
"&X c #956535",
"*X c #966535",
"=X c #956537",
"-X c #956737",
";X c #976737",
":X c #986737",
">X c #976937",
",X c #97673A",
"<X c #97693A",
"1X c #96693C",
"2X c #98693A",
"3X c #986A3A",
"4X c #996A3A",
"5X c #9B6A3A",
"6X c #9B6C3A",
"7X c #996A3C",
"8X c #9A6C3C",
"9X c #9A6C3E",
"0X c #9B6E3E",
"qX c #9C6F3E",
"wX c #9B7143",
"eX c #9C7141",
"rX c #9D7141",
"tX c #9D7443",
"yX c #9E7443",
"uX c #9F7643",
"iX c #9F794A",
"pX c #A07748",
"aX c #A17C4A",
"sX c #A27C4A",
"dX c #A27D4C",
"fX c #A37D4C",
"gX c #A48150",
"hX c #A68453",
"jX c #A78555",
"kX c #A88857",
"lX c #A98959",
"zX c #AA8B5D",
"xX c #AD8D5F",
"cX c #AD8E5F",
"vX c #AB8C61",
"bX c #B19165",
"nX c #B49469",
"mX c None",
/* pixels */
"mXmXmXmXmXmXmXmXmXmXmXmXmXmXmXmXmXmXmXmXmXmXmXmXmXmXmXmXmXmXmXmX",
"mXmXmXmXmXmXmXmXmXmXmXmXmXmXmXmXmXmXmXmXmXmXmXmXmXmXmXmXmXmXmXmX",
"mXmXmXmXmXmXmXmXmXmXmXmXmXmXmXmXmXmXmXmXmXmXmXmXmXmXmXmXmXmXmXmX",
"mXmX' k.,XmXmXmXmXmXmXmXmXmXmXmXmXmXmXmXmXmXmXmXmXmXmXmXmXmXmXmX",
"mXU mX@.q p.mXmXmXmXmXmXmXmXmXmXmXmXmXmXmXmXmXmXmXmXmXmXmXmXmXmX",
"mX  mXmXmXt.tXmXmXmXmXmXmXmXmXmXmXmXmXmXmXmXmXmXmXY ..d./ mXmXmX",
"mX3.mXmXmXB r 5 pXtX1XlXcXxX[.6.mXmXmXmXmXmXmX0.B.M i.N r.eXmXmX",
"mX( mXmXmXmX[ 5X_.C.kXjXiXwXj hX3 mXmXmXmX!.:.$.S.p.F  .eXnXmXmX",
"mXZ mXmXmXv S | m %XD aX>X  *X].n.7XT >X0X, W h D < 4 ..gXd bXmX",
"mXV mXmX: l !.A }.n   V.4Xm.0 a ;.qXA b.k.f R ~.J.:XK u U.Q vX`.",
"mXmXmXmX_ y.6 7 {.      &X+XOXp   +X  .X^.}.8 }.A.:X  8.# o zXmX",
"x mXmXmXz d.X % % H.}.N.~.j.@XJ s R >.{.-   O.G fX-XZ.L.8 ~ 7.mX",
"@ mXmXmX! ` H   G.f.I.N.  +.L.o .XJ./.|.&.W.;X8XdXa.mXw mXmXmXmX",
"mXmXmXmX*.i c.  I.m s.  s.I.l.E x.*   *XT.2X1 =Xq.mXmXmXmXmXmXmX",
"mXmXmXmX' u.v.P # 0 R.t P.  ^.g oXy.XX3   rXD eXmXmXmXmXmXmXmXmX",
"mXmXmXmX1...=.% L J R.F.M.d.{.oXp.e. X  J.<XyX9XmXmXmXmXmXmXmXmX",
"mXmX4.g.5.  8 >.N.9 <.H.I.).^.^ X.o.{ +XD.8XeXmXmXmXmXmXmXmXmXmX",
"mX/ v.    D 2 1.-.mXmXC  .. S.w.K.c.= z.3XuXY.mXmXmXmXmXmXmXmXmX",
"mXb @ mXz ,.+ mXmXmXmXmXmXmXmXmXmXmXI + >Xe O   mXmXmXmXmXmXmXmX",
"mX) #.mXmX$ N.mXmXmXmXmXmXmXmXmXmXmXmXmXO %.uXsXmXmXmXmXmXmXmXmX",
"mX$.2.mXmXy d.mXmXmXmXmXmXmXmXmXmXmXmXmX> X.Q.} mXmXmXmXmXmXmXmX",
"mXh.mXmXmXmXX b mXmXmXmXmXmXmXmXmXmXmXmXmXmX#XyXc (.f mXmXmXmXmX",
"mXu.k mXmXmXmXh.& mXmXmXmXmXmXmXmXmXmXmXmXmXM '.(.) S mXmXmXmXmX",
"mXmXN.mXmXmXmX] N.mXmXmXmXmXmXmXmXmXmXmXmXmXmX9.  6X-XmXmXmXmXmX",
"mXmXmXmXmXmXmXmXmXmXmXmXmXmXmXmXmXmXmXmXmXmXmXmX$X; mXmXmXmXmXmX",
"mXmXmXmXmXmXmXmXmXmXmXmXmXmXmXmXmXmXmXmXmXmXmXmXE.mXmXmXmXmXmXmX",
"mXmXmXmXmXmXmXmXmXmXmXmXmXmXmXmXmXmXmXmXmXmXmXmXmXmXmXmXmXmXmXmX",
"mXmXmXmXmXmXmXmXmXmXmXmXmXmXmXmXmXmXmXmXmXmXmXmXmXmXmXmXmXmXmXmX",
"mXmXmXmXmXmXmXmXmXmXmXmXmXmXmXmXmXmXmXmXmXmXmXmXmXmXmXmXmXmXmXmX",
"mXmXmXmXmXmXmXmXmXmXmXmXmXmXmXmXmXmXmXmXmXmXmXmXmXmXmXmXmXmXmXmX",
"mXmXmXmXmXmXmXmXmXmXmXmXmXmXmXmXmXmXmXmXmXmXmXmXmXmXmXmXmXmXmXmX",
"mXmXmXmXmXmXmXmXmXmXmXmXmXmXmXmXmXmXmXmXmXmXmXmXmXmXmXmXmXmXmXmX"
};
