/* XPM */
static char *result[] = {
/* columns rows colors chars-per-pixel */
"32 32 237 2 ",
"   c black",
".  c #020000",
"X  c #050200",
"o  c #070202",
"O  c #070500",
"+  c #070502",
"@  c #0A0200",
"#  c #0A0502",
"$  c #0C0502",
"%  c #0F0502",
"&  c #0F0702",
"*  c #120702",
"=  c #140702",
"-  c #140A05",
";  c #170A05",
":  c #170C05",
">  c #190C05",
",  c #1C0C05",
"<  c #1E0F05",
"1  c #1E0F07",
"2  c #210C05",
"3  c #230F07",
"4  c #231207",
"5  c #281207",
"6  c #2B1707",
"7  c #28140A",
"8  c #2B140A",
"9  c #301707",
"0  c #3A1407",
"q  c #3E1707",
"w  c #3A1907",
"e  c #30170A",
"r  c #32170A",
"t  c #35170A",
"y  c #32170C",
"u  c #35190A",
"i  c #371C0A",
"p  c #371C0C",
"a  c #3A190A",
"s  c #3C190A",
"d  c #3A1C0C",
"f  c #3A1C0F",
"g  c #3C1C0C",
"h  c #3C1E0C",
"j  c #3E1E0C",
"k  c #3C1E0F",
"l  c #3E1E0F",
"z  c #3E210F",
"x  c #41190A",
"c  c #431E0C",
"v  c #411E0F",
"b  c #43210C",
"n  c #43210F",
"m  c #45230F",
"M  c #4A210F",
"N  c #48230F",
"B  c #4C230C",
"V  c #4C260F",
"C  c #53260F",
"Z  c #57260F",
"A  c #53280F",
"S  c #452312",
"D  c #482612",
"F  c #4C2612",
"G  c #532812",
"H  c #532B12",
"J  c #502B14",
"K  c #552B14",
"L  c #532D17",
"P  c #592812",
"I  c #5D2B12",
"U  c #5F2D12",
"Y  c #5B2D14",
"T  c #5B2D17",
"R  c #5F2D14",
"E  c #5F3012",
"W  c #5B3017",
"Q  c #5D3017",
"!  c #5F3217",
"~  c #593019",
"^  c #5D3019",
"/  c #5D3219",
"(  c #632B12",
")  c #612D12",
"_  c #653214",
"`  c #673214",
"'  c #653517",
"]  c #673517",
"[  c #693517",
"{  c #693717",
"}  c #6C3514",
"|  c #6E3714",
" . c #6C3517",
".. c #613519",
"X. c #633519",
"o. c #673719",
"O. c #63351C",
"+. c #65371C",
"@. c #693719",
"#. c #6A3719",
"$. c #673A19",
"%. c #6A3A1C",
"&. c #6C3A1C",
"*. c #6F3C1C",
"=. c #743C19",
"-. c #743E19",
";. c #743C1C",
":. c #743E1C",
">. c #763E1C",
",. c #773E1C",
"<. c #73411E",
"1. c #77411E",
"2. c #79411E",
"3. c #79431E",
"4. c #7C431E",
"5. c #7D431E",
"6. c #7E451E",
"7. c #734323",
"8. c #744321",
"9. c #774321",
"0. c #764323",
"q. c #794321",
"w. c #794523",
"e. c #7A4523",
"r. c #7D4521",
"t. c #7C4523",
"y. c #7D4821",
"u. c #7E4821",
"i. c #7E4823",
"p. c #7E4C28",
"a. c #81431C",
"s. c #80481E",
"d. c #814821",
"f. c #804A21",
"g. c #814A21",
"h. c #824A21",
"j. c #804823",
"k. c #844A21",
"l. c #854C21",
"z. c #844C23",
"x. c #854E23",
"c. c #804C26",
"v. c #834C26",
"b. c #834E26",
"n. c #854C26",
"m. c #844E26",
"M. c #854E26",
"N. c #8A4E23",
"B. c #884E26",
"V. c #814C28",
"C. c #824E28",
"Z. c #854E28",
"A. c #895026",
"S. c #895326",
"D. c #855028",
"F. c #85502B",
"G. c #86532B",
"H. c #885028",
"J. c #8A5328",
"K. c #8B5328",
"L. c #89532B",
"P. c #8A5528",
"I. c #8B5528",
"U. c #89552B",
"Y. c #8A552B",
"T. c #8C5528",
"R. c #8C552B",
"E. c #8C572B",
"W. c #8D572B",
"Q. c #8F572B",
"!. c #89532D",
"~. c #8A552D",
"^. c #8C572D",
"/. c #8D592B",
"(. c #8E592B",
"). c #8F592B",
"_. c #8C592D",
"`. c #8D592D",
"'. c #8E592D",
"]. c #8F592D",
"[. c #90592B",
"{. c #90592D",
"}. c #905B2D",
"|. c #905D2D",
" X c #8E5930",
".X c #8F5930",
"XX c #8F5B30",
"oX c #8D5D32",
"OX c #905B30",
"+X c #905D30",
"@X c #915D30",
"#X c #935F30",
"$X c #915D32",
"%X c #935D32",
"&X c #905F32",
"*X c #935F32",
"=X c #905D35",
"-X c #936132",
";X c #946132",
":X c #946332",
">X c #966332",
",X c #936337",
"<X c #956335",
"1X c #966535",
"2X c #966737",
"3X c #976737",
"4X c #986535",
"5X c #986737",
"6X c #976937",
"7X c #986937",
"8X c #98693A",
"9X c #996A3A",
"0X c #986A3C",
"qX c #996A3C",
"wX c #986A3E",
"eX c #986C3E",
"rX c #9A6C3E",
"tX c #9B6E3E",
"yX c #9C6F3C",
"uX c #9D6F3C",
"iX c #9C6F3E",
"pX c #986C41",
"aX c #9B7143",
"sX c #9D7141",
"dX c #9D7341",
"fX c #9D7143",
"gX c #9E7343",
"hX c #9F7643",
"jX c #9D7445",
"kX c #9E7645",
"lX c #A07748",
"zX c #A27D4A",
"xX c #A38050",
"cX c #A78555",
"vX c #A88657",
"bX c #AB8C5D",
"nX c None",
/* pixels */
"nXnXnXnXnXnXnXnXnXnXnXnXnXnXnXnXnXnXnXnXnXnXnXnXnXnXnXnXnXnXnXnX",
"nXnXnXnXnXnXnXnXnXnXnXnXnXnXnXnXnXnXnXnXnXnXnXnXnXnXnXnXnXnXnXnX",
"nXnXnXnXnXnXnXnXnXnXnXnXnXnXnXnXnXnXnXnXnXnXnXnXnXnXnXnXnXnXnXnX",
"nXnXnXnXnXnXnXnXnXnXnXnXnXnXnXnXnXnXnXnXnXnXnXnXnXnXfXF.-XA nXnX",
"nXnXnXnXnXnXnXnXnXnXnXnXnXnXnXnXnXnXnXnXnXnXnXnXnX: 6X,. .nXh.nX",
"nXnXnXnXnXnXnXnXnXnXnXnXnXnXnXnXnXnXnXnXnXnXnXnXnX0XM.nXnXnXu nX",
"nXnXnX^.r ! g o.nXnXnXnXnXnXnXnXkXjXO.pXcXxXeXrX=X& Z nXnXnXu.nX",
"nXnXnXX.B.:.W #.p ~.$XnXnXnXnXzX7.p.aXwXvXwX~ 0Xe.a.nXnXnXnX% nX",
"nXnX!.i 6 U [.*XQ w.d t.L 9.S lX,X*.8.z rXoXdXdXk / q nXnXnXs nX",
"nXbXiX8 -X& v - *.}.< Y.yXC.l i.z  X& -X;XT.2XXX, }.g.P nXnXC nX",
"nXgXsXb L.4 O F   @X  Z.3  Xm `.j.:X, <X/.T   _.2 3.d.} nXnXnXnX",
"nX9XY.    D.n 7X  J.+ .Xo L.  P.8 # >X&.M.#XI.;X* 1.# ( nXnXnX) ",
"nXp  X  G.;X%Xh +.c.F f # *X5 ; & #X5   *.m.J.{.  x._ w nXnXnXU ",
"nXnXnXnXnXnXnX@.3X  -Xb.+Xy.  M.e   }.R.J.E.).' H o [ Y c B.nX9 ",
"nXnXnXnXnXnXnXnX*.5X^ $ . #.%.+X= '.#X  o T.9.n.4.g.  * M o ` nX",
"nXnXnXnXnXnXnXnX*XuX7XL.  1X* j @XF h   4.@.d.7 ].S.  -.  a | nX",
"nXnXnXnXnXnXnXnX#   / t.  $.  e - # E.P.{ W.z.f.K q.r.>.nX5.R nX",
"nXnXnXnXnXnXnXnX... 7   N Q.*X<.O D |.J.. nXnX#.  v.s.6.nX;.U nX",
"nXnXnXnXnXnXnXnX4Xk   OX(.r nXnXnXnXnXnXnXnXnXnXnXA.x.  nXa =.nX",
"nXnXnXnXnXnXnXnX).qXV.H.nXnXnXnXnXnXnXnXnXnXnXnXnX1 > V nXa   nX",
"nXnXnXnXnXnXnXnXh U.y K nXnXnXnXnXnXnXnXnXnXnXnXnXK.t B nXl.@ nX",
"nXnXnXnXnXJ x . d 0.3XnXnXnXnXnXnXnXnXnXnXnXnXnXnXE I.0 nXnXnXnX",
"nXnXnXnXnXY.t N.hXO.j nXnXnXnXnXnXnXnXnXnXnXnXnXnX  r.nXnXnXnXnX",
"nXnXnXnXnXnXnXI iX  nXnXnXnXnXnXnXnXnXnXnXnXnXnXA.] nXnXnXnXnXnX",
"nXnXnXnXnX@XtXsXtXnXnXnXnXnXnXnXnXnXnXnXnXnXnXk.X nXnXnXnXnXnXnX",
"nXnXnXnXnXnX&X8X2.nXnXnXnXnXnXnXnXnXnXnXnXnXnXG X nXnXnXnXnXnXnX",
"nXnXnXnXnXnXnXnXnXnXnXnXnXnXnXnXnXnXnXnXnXnXnXnXnXnXnXnXnXnXnXnX",
"nXnXnXnXnXnXnXnXnXnXnXnXnXnXnXnXnXnXnXnXnXnXnXnXnXnXnXnXnXnXnXnX",
"nXnXnXnXnXnXnXnXnXnXnXnXnXnXnXnXnXnXnXnXnXnXnXnXnXnXnXnXnXnXnXnX",
"nXnXnXnXnXnXnXnXnXnXnXnXnXnXnXnXnXnXnXnXnXnXnXnXnXnXnXnXnXnXnXnX",
"nXnXnXnXnXnXnXnXnXnXnXnXnXnXnXnXnXnXnXnXnXnXnXnXnXnXnXnXnXnXnXnX",
"nXnXnXnXnXnXnXnXnXnXnXnXnXnXnXnXnXnXnXnXnXnXnXnXnXnXnXnXnXnXnXnX"
};
