/* XPM */
static char *result[] = {
/* columns rows colors chars-per-pixel */
"32 32 212 2 ",
"   c black",
".  c #020000",
"X  c #020200",
"o  c #050200",
"O  c #070200",
"+  c #0A0202",
"@  c #0A0502",
"#  c #0C0702",
"$  c #120702",
"%  c #140702",
"&  c #120705",
"*  c #170A02",
"=  c #140A05",
"-  c #170A05",
";  c #190C05",
":  c #1E0C05",
">  c #1E0F05",
",  c #1C0C07",
"<  c #1C0F07",
"1  c #1E0F07",
"2  c #230F07",
"3  c #231207",
"4  c #261207",
"5  c #2B170A",
"6  c #2D140A",
"7  c #2D170C",
"8  c #3A1407",
"9  c #3A1907",
"0  c #30170A",
"q  c #32170A",
"w  c #30170C",
"e  c #35190A",
"r  c #37190A",
"t  c #32190C",
"y  c #35190C",
"u  c #3A1C0C",
"i  c #3A1C0F",
"p  c #3C1C0C",
"a  c #3E1E0C",
"s  c #3E210F",
"d  c #431C0C",
"f  c #431E0C",
"g  c #41210F",
"h  c #43210F",
"j  c #43230F",
"k  c #45210F",
"l  c #45230F",
"z  c #4C230F",
"x  c #4E230F",
"c  c #55210A",
"v  c #50260F",
"b  c #59230C",
"n  c #482312",
"m  c #4A2612",
"M  c #4C2612",
"N  c #4E2612",
"B  c #4E2814",
"V  c #502612",
"C  c #532B12",
"Z  c #572B12",
"A  c #502814",
"S  c #572B14",
"D  c #552B17",
"F  c #572D14",
"G  c #552D17",
"H  c #5B2B12",
"J  c #5D2B12",
"K  c #592B14",
"L  c #5B2D14",
"P  c #5D2D14",
"I  c #5B3017",
"U  c #5F3217",
"Y  c #5D3219",
"T  c #613217",
"R  c #633217",
"E  c #693214",
"W  c #693514",
"Q  c #6A3514",
"!  c #693517",
"~  c #6E3A17",
"^  c #6F3A17",
"/  c #65351C",
"(  c #693719",
")  c #69371C",
"_  c #6A371C",
"`  c #6E3A19",
"'  c #6E3C1C",
"]  c #6C3C1E",
"[  c #6E3C1E",
"{  c #6F3E1E",
"}  c #713A17",
"|  c #713C19",
" . c #733C1C",
".. c #713E1C",
"X. c #733E1C",
"o. c #713C1E",
"O. c #733E1E",
"+. c #773E1C",
"@. c #743E1E",
"#. c #793E1C",
"$. c #713C21",
"%. c #77431E",
"&. c #7A411C",
"*. c #79411E",
"=. c #7C431E",
"-. c #7E431E",
";. c #7E451E",
":. c #714121",
">. c #734321",
",. c #744121",
"<. c #764121",
"1. c #774321",
"2. c #734326",
"3. c #7A4321",
"4. c #794521",
"5. c #7A4523",
"6. c #7C4521",
"7. c #7C4523",
"8. c #7D4523",
"9. c #7C4821",
"0. c #7D4821",
"q. c #7D4823",
"w. c #7E4823",
"e. c #7E4A26",
"r. c #7C4828",
"t. c #80451E",
"y. c #80481E",
"u. c #83481E",
"i. c #814A21",
"p. c #824823",
"a. c #804A23",
"s. c #814A23",
"d. c #824A23",
"f. c #814C23",
"g. c #824C23",
"h. c #844C23",
"j. c #854C23",
"k. c #864E23",
"l. c #814A26",
"z. c #824A26",
"x. c #814C26",
"c. c #824C26",
"v. c #844C26",
"b. c #844E26",
"n. c #864E26",
"m. c #804E28",
"M. c #834E28",
"N. c #885026",
"B. c #8A5026",
"V. c #84502B",
"C. c #86502B",
"Z. c #885028",
"A. c #885328",
"S. c #895328",
"D. c #8A5328",
"F. c #8A5528",
"G. c #8B552B",
"H. c #8B572B",
"J. c #8D572B",
"K. c #8E572B",
"L. c #8A552D",
"P. c #8A572D",
"I. c #8D592D",
"U. c #8E592D",
"Y. c #8F592D",
"T. c #8E5B2D",
"R. c #905B2D",
"E. c #905D2D",
"W. c #915D2D",
"Q. c #895530",
"!. c #8D5930",
"~. c #8F5D30",
"^. c #905B30",
"/. c #905D30",
"(. c #925D30",
"). c #915F30",
"_. c #925F30",
"`. c #915F32",
"'. c #935F32",
"]. c #936132",
"[. c #946132",
"{. c #956332",
"}. c #936135",
"|. c #946135",
" X c #946335",
".X c #956335",
"XX c #956535",
"oX c #966535",
"OX c #96673A",
"+X c #96673C",
"@X c #97693A",
"#X c #976A3C",
"$X c #95693E",
"%X c #98693A",
"&X c #986A3A",
"*X c #996A3C",
"=X c #9A6A3C",
"-X c #9A6E3C",
";X c #9B6E3C",
":X c #9C6F3E",
">X c #9D7341",
",X c #9D7443",
"<X c #9E7443",
"1X c #9E7643",
"2X c #9F7643",
"3X c #9F7745",
"4X c #9F7748",
"5X c #9E774A",
"6X c #A27D4A",
"7X c #A98A59",
"8X c #B8976E",
"9X c None",
/* pixels */
"9X9X9X9X9X9X9X9X9X9X9X9X9X9X9X9X9X9X9X9X9X9X9X9X9X9X9X9X9X9X9X9X",
"9X9X9X9X9X9X9X9X9X9X9X9X9X9X9X9X9X9X9X9X9X9X9X9X9X9X9X9X9X9X9X9X",
"9X9X9X9X9X9X9X9X9X9X9X9X9X9X9X9X9X9X9X9X9X9X9X9X9X9X9X9X9X9X9X9X",
"9X9X9X9X9X9X9X9X9X9X9X9X9X9X9X9X9X9X9X9X9X9X9X9X9X9X9X9X9X9X9X9X",
"9X9X9X9X9X9X9X9X9X9X9X9X9X9X9X9X9X9X9X9X9X9X9X9X9X9X9X9X9X9X9X9X",
"9X9X9X9X9X9X9X9X9X9X9X9X9X9X9X9X9X9X9X9X9X9X9X9X9X9X9X9X9X9X9X9X",
"9X9X9X9X9X9X9X9X9X9X9X9X9X9X9X9X9X9X9X9X9X9X9X9X9X9X9X9X9X9X9X9X",
"9X9X9X^.E.).X.9X9X9X9X9X9X9X9X9X9X9X9X9X9X9X9X9X9X9X9X9X9X9X9X9X",
"9X9X9X;XN.1.I b.9X9X9X9X9X9X9X9X9X9X9X9X9X9X9X9X9X9X9X9X9X9X9X9X",
"9X9X2.-X%  .W.oXe. X!.L.T G.] OXQ.r.6X,X4X7XD 9X9X9X9X9X9X9X9X9X",
"$X8Xm.i _.u U.c.@.T.] `.+ C./ +X@ `.%X>XV.3Xm :.P.9X9X9X9X9X9X9X",
"/ 5XG X @X<.|.U   S g.e.>X1XB M.  x.XXF .X1 #X}.&X& 9X9X9X9X9X9X",
"9XY *X].=Xo.{..Xw./.3     ( = 1 .X].    q Y.t.g.Y.A _ s.9X9X9X9X",
"9Xw.e.@ ~.{ a 7 ].U.6 A.  XXb.h O.8.a.5.G.l E.w S.0.g.~ 9X9X9X9X",
"9X9X9X9X9X9Xg ) D   ]., (.f.' S.y XXZ._.D.# R.J.S F.P   L 9X9X9X",
"9X9X9X9X9X9X9X9X@.2X    o 7.[.    D.W.H.    L n - +.v 9X  | 9X9X",
"9X9X9X9X9X9X9X9X3 <X,.x.  9.t I.O /.< K.    n.3.0 *.p 9Xz y.9X9X",
"9X9X9X9X9X9X9X9X/.o   s.    1   E.  k $   d.J.R.4   +.9X9Xj.Z 9X",
"9X9X9X9X9X9X9X9Xk $.s   * a 4.[ O l.c.R.% 0 z...    } 9X9X` &.9X",
"9X9X9X9X9X9X9X9X9X9X:Xy o u.z.M ; R.v.i.B.x ^.  i.Z 9X9X9X9X> 9X",
"9X9X9X9X9X9X9X9X9X9XS >.XXo 9X9X9X9X9X9X9Xt.s.R e   9X9X9X9X! H ",
"9X9X9X9X9X9X9X9X9X9X9Xq.oX@ 9X9X9X9X9X9X9XK.J.    : 9X9X9X9X9 Q ",
"9X9X9X9X9X9X9X9X9X9X9X9XI.& b 9X9X9X9X9X9XK u . u d 9X9X9X9X9Xr ",
"9X9X9X9X9X9X9X9X9X9X9X9X5 .XE 9X9X9X9X9X9X9XC h.;.8 9X9X9X9X9Xy.",
"9X9X9X9X9X9X9X9X9X9X9X9X9X' a.W 9X9X9X9X9X9Xu   9X9X9X9X9X9Xf   ",
"9X9X9X9X9X9X9X9X9X9X9X9Xj -.J.O.9X9X9Xc =.Y.%.J 9X9X9X9X9X+.2 9X",
"9X9X9X9X9X9X9X9X9X9X9X9Xp.9X) A 9X9X9Xu 6.N V 9X9X9X9X9X9XK 9X9X",
"9X9X9X9X9X9X9X9X9X9X9X9X9X9X,.k.9X9X9X9X^ 9X9X9X9X9X9X#.9X9X9X9X",
"9X9X9X9X9X9X9X9X9X9X9X9X9X9X'.9X9X9X9X9X9X9X9X9X9X9X9X@.9X9X9X9X",
"9X9X9X9X9X9X9X9X9X9X9X9X9X9X9X9X9X9X9X9X9X9X9X9X9X9X9X9X9X9X9X9X",
"9X9X9X9X9X9X9X9X9X9X9X9X9X9X9X9X9X9X9X9X9X9X9X9X9X9X9X9X9X9X9X9X",
"9X9X9X9X9X9X9X9X9X9X9X9X9X9X9X9X9X9X9X9X9X9X9X9X9X9X9X9X9X9X9X9X"
};
