/* XPM */
static char *result[] = {
/* columns rows colors chars-per-pixel */
"32 32 234 2 ",
"   c black",
".  c #020000",
"X  c #050200",
"o  c #070202",
"O  c #0F0200",
"+  c #0C0202",
"@  c #0A0502",
"#  c #0C0502",
"$  c #0F0502",
"%  c #120702",
"&  c #140702",
"*  c #170702",
"=  c #1E0702",
"-  c #170A02",
";  c #140A05",
":  c #170A05",
">  c #140C05",
",  c #1E0A02",
"<  c #190C05",
"1  c #1C0C05",
"2  c #1E0C05",
"3  c #1E0F05",
"4  c #1E0C07",
"5  c #1C0F07",
"6  c #230C05",
"7  c #230F05",
"8  c #210F07",
"9  c #230F07",
"0  c #260F05",
"q  c #2B0F05",
"w  c #280F07",
"e  c #261207",
"r  c #281205",
"t  c #2B1205",
"y  c #281207",
"u  c #2B1207",
"i  c #2D1205",
"p  c #2D1707",
"a  c #23120A",
"s  c #26140A",
"d  c #321205",
"f  c #301407",
"g  c #321407",
"h  c #351405",
"j  c #351407",
"k  c #371707",
"l  c #3A1707",
"z  c #3C1707",
"x  c #3E1C07",
"c  c #30170A",
"v  c #35190A",
"b  c #37190A",
"n  c #351C0C",
"m  c #3A190A",
"M  c #3C1C0A",
"N  c #3E1C0A",
"B  c #3A190C",
"V  c #3A1C0F",
"C  c #3C1C0C",
"Z  c #3E1C0C",
"A  c #451707",
"S  c #4A1C07",
"D  c #451C0A",
"F  c #431E0C",
"G  c #481E0A",
"H  c #4C1E0A",
"J  c #4E1E0A",
"K  c #41210F",
"L  c #43210F",
"P  c #45210C",
"I  c #4A210C",
"U  c #4A230C",
"Y  c #4A210F",
"T  c #4E210C",
"R  c #4C230C",
"E  c #4C230F",
"W  c #4E230F",
"Q  c #53210A",
"!  c #55210A",
"~  c #53230C",
"^  c #55230C",
"/  c #50260F",
"(  c #53260F",
")  c #57260C",
"_  c #55260F",
"`  c #59260C",
"'  c #5D260F",
"]  c #55280F",
"[  c #57280F",
"{  c #59280F",
"}  c #5B280F",
"|  c #592B0F",
" . c #5B2B0F",
".. c #5F280C",
"X. c #5D2B0F",
"o. c #4A2614",
"O. c #4C2614",
"+. c #552612",
"@. c #502812",
"#. c #532812",
"$. c #532B12",
"%. c #552812",
"&. c #572812",
"*. c #572B12",
"=. c #552B14",
"-. c #572D14",
";. c #592B12",
":. c #5B2B12",
">. c #5D2B12",
",. c #5F2D12",
"<. c #592D14",
"1. c #592D17",
"2. c #5D2D14",
"3. c #592D19",
"4. c #5F3017",
"5. c #5B3219",
"6. c #632B0F",
"7. c #612D0F",
"8. c #612D14",
"9. c #633012",
"0. c #653012",
"q. c #673012",
"w. c #613014",
"e. c #653214",
"r. c #673517",
"t. c #693012",
"y. c #6A3212",
"u. c #693214",
"i. c #693717",
"p. c #6A3717",
"a. c #6E3514",
"s. c #6C3717",
"d. c #6E3717",
"f. c #6F3717",
"g. c #6F3A17",
"h. c #633519",
"j. c #653519",
"k. c #673519",
"l. c #653719",
"z. c #67371C",
"x. c #693719",
"c. c #6A3719",
"v. c #6C3A19",
"b. c #693A1C",
"n. c #6C3A1C",
"m. c #6E3A1C",
"M. c #6E3C1C",
"N. c #6F3C1C",
"B. c #6E3C1E",
"V. c #6F3E1E",
"C. c #733A17",
"Z. c #713C19",
"A. c #733C19",
"S. c #743C19",
"D. c #773E19",
"F. c #713C1E",
"G. c #733E1E",
"H. c #743C1C",
"J. c #77411C",
"K. c #74411E",
"L. c #76411E",
"P. c #79411C",
"I. c #79431E",
"U. c #7A431E",
"Y. c #7C431E",
"T. c #7D451E",
"R. c #774121",
"E. c #764321",
"W. c #774321",
"Q. c #744123",
"!. c #794321",
"~. c #7A4521",
"^. c #7A4523",
"/. c #7E4821",
"(. c #7C4823",
"). c #7D4823",
"_. c #7E4823",
"`. c #7E4A23",
"'. c #804821",
"]. c #814A21",
"[. c #814A23",
"{. c #834C21",
"}. c #824C23",
"|. c #804A26",
" X c #834E26",
".X c #844E26",
"XX c #884E26",
"oX c #804C28",
"OX c #834C28",
"+X c #824E28",
"@X c #834E28",
"#X c #854E28",
"$X c #81502B",
"%X c #855028",
"&X c #865028",
"*X c #86502B",
"=X c #895328",
"-X c #8A552B",
";X c #8A552D",
":X c #8A572D",
">X c #8B572D",
",X c #8E592D",
"<X c #905D2D",
"1X c #8D5930",
"2X c #8E5930",
"3X c #8E5D32",
"4X c #905B30",
"5X c #905D30",
"6X c #915D30",
"7X c #935F30",
"8X c #905D32",
"9X c #905F32",
"0X c #925F32",
"qX c #935F32",
"wX c #936132",
"eX c #926135",
"rX c #936135",
"tX c #936335",
"yX c #956335",
"uX c #986937",
"iX c #98673A",
"pX c #96693A",
"aX c #986A3A",
"sX c #9A6C3A",
"dX c #98693C",
"fX c #996A3C",
"gX c #996A3E",
"hX c #9B6E3C",
"jX c #9B6F3E",
"kX c #9F7643",
"lX c #9F7745",
"zX c #A07948",
"xX c #A37E4C",
"cX c None",
/* pixels */
"cXcXcXcXcXcXcXcXcXcXcXcXcXcXcXcXcXcXcXcXcXcXcXcXcXcXcXcXcXcXcXcX",
"cXcXcXcXcXcXcXcXcXcXcXcXcXcXcXOX1.cXcXcXcXcXcXcXcXcXcXcXcXcXcXcX",
"cXcXcXcXcXcXcXcXcXcXcXcXcX6X4XwX}.< cXcXcXcXcXcXcXcXcXcXcXcXcXcX",
"cXcXcXcXcXcXcXcXcXcXcXcXcX6Xk.>XL.V -.cXcXcXcXcXcXcXcXcXcXcXcXcX",
"cXcXcXcXcXcXcXcXcXcXcXC ,XG.yX X;X. U.&XV.cXcXcXcXcXcXcXcXcXcXcX",
"cXcXcXcXcXcXcXcXcXcXcXcXe O.).E.eX@X>XuXcXcXcXcXcXcXcXcXcXcXcXcX",
"cXcXcXcXcXcXcXcXcXcXcX=.wXn ; kX>XiXz.aXp cXcXcXcXcXcXcXcXcXcXcX",
"cXcXcXcXcXcXcXcXcXcXZ l.F.^.8X+XK.!.%Xs 1.}.cXcXcXcXcXcXcXcXcXcX",
"cXcXcXcXcXcXcXcXcX1.<X).a zX5.dX$XgX9XQ.=Xh.K cXcXcXcXcXcXcXcXcX",
"cXcXcXcXcXcXcXcX<.K [.0XzX3X:XpXoXxXlXhX~.R.j.cXcXcXcXcXcXcXcXcX",
"cXcXcXcXcXcXcXcX< #Xm.V.tXrX3.*X;XqXfX1X,X5X.XcXcXcXcXcXcXcXcXcX",
"cXcXcXcXcXcXcXcX4.N.n.1   B.o.5 (.sX@ > W.N.wXcXcXcXcXcXcXcXcXcX",
"cXcXcXcXcXcXcXcXc 6X/.  |.L jX-X`.aXO.b.7Xc I.cXcXcXcXcXcXcXcXcX",
"cXcXcXcXcXcXcXcXcXr.x.$.^.2X@ U.(.9 b.M.h.8 ;.cXcXcXcXcXcXcXcXcX",
"cXcXcXcXcXcXcXcX#   _.#.C.% P y @.T.q.P.<.=XXXcXcXcXcXcXcXcXcXcX",
"cXcXcXcXcXcXcXcX2.@   P.2 k +.e.u.O }   b A.: cXcXcXcXcXcXcXcXcX",
"cXcXcXcXcXcXcXcXB '.P.W X H , f.,.u !   H.;.4 cXcXcXcXcXcXcXcXcX",
"cXcXcXcXcXcXcXcXH.].s.Y : z & ;.,.Q ^ 0 g.  %.cXcXcXcXcXcXcXcXcX",
"cXcXcXcXcXcXcXcX;.r *.- ) ! 6 * D.& 6.~ c P.  cXcXcXcXcXcXcXcXcX",
"cXcXcXcXcXcXcXcX&.c m   j A = | w.$ ' q c c.$ cXcXcXcXcXcXcXcXcX",
"cXcXcXcXcXcXcXcX  J.b E d   cX:.v cXS J  .Y.v.cXcXcXcXcXcXcXcXcX",
"cXcXcXcXcXcXcXcXcX*.i.l h cXcXR g.cXh ..G   {.cXcXcXcXcXcXcXcXcX",
"cXcXcXcXcXcXcXcXcXi p.` t.cXcX>.x cXcX+ k ( Z.cXcXcXcXcXcXcXcXcX",
"cXcXcXcXcXcXcXcXcXcX/ T X.cXcX_ g cXcXt y.o cXcXcXcXcXcXcXcXcXcX",
"cXcXcXcXcXcXcXcXcXcX7 I D cXcXM 0.cXcXN a.] cXcXcXcXcXcXcXcXcXcX",
"cXcXcXcXcXcXcXcXcXcX1 2 { cXcXF   cXcX*  .W cXcXcXcXcXcXcXcXcXcX",
"cXcXcXcXcXcXcXcXcXcX3 # f cXcX8.] cXcX7.>.U cXcXcXcXcXcXcXcXcXcX",
"cXcXcXcXcXcXcXcXcXcXcXcXcXcXcXr u cXcXcXcXcXcXcXcXcXcXcXcXcXcXcX",
"cXcXcXcXcXcXcXcXcXcXcXcXcXcXcXd.w cXcXcXcXcXcXcXcXcXcXcXcXcXcXcX",
"cXcXcXcXcXcXcXcXcXcXcXcXcXcXcX[ S.cXcXcXcXcXcXcXcXcXcXcXcXcXcXcX",
"cXcXcXcXcXcXcXcXcXcXcXcXcXcXcX9.cXcXcXcXcXcXcXcXcXcXcXcXcXcXcXcX",
"cXcXcXcXcXcXcXcXcXcXcXcXcXcXcXcXcXcXcXcXcXcXcXcXcXcXcXcXcXcXcXcX"
};
