/* XPM */
static char *result[] = {
/* columns rows colors chars-per-pixel */
"32 32 226 2 ",
"   c black",
".  c #020000",
"X  c #020200",
"o  c #050000",
"O  c #050200",
"+  c #070200",
"@  c #0A0200",
"#  c #0A0502",
"$  c #0C0500",
"%  c #0C0502",
"&  c #0F0702",
"*  c #120702",
"=  c #120705",
"-  c #170A02",
";  c #170A05",
":  c #1C0A02",
">  c #190C05",
",  c #1C0C05",
"<  c #1E0C05",
"1  c #1E0F05",
"2  c #260F07",
"3  c #231207",
"4  c #261205",
"5  c #261207",
"6  c #281207",
"7  c #2D1207",
"8  c #281407",
"9  c #2B1407",
"0  c #2D1407",
"q  c #28140A",
"w  c #2B140A",
"e  c #2B170A",
"r  c #2D190C",
"t  c #301205",
"y  c #321407",
"u  c #301707",
"i  c #32170A",
"p  c #35170A",
"a  c #30190A",
"s  c #35190A",
"d  c #37190A",
"f  c #32190C",
"g  c #3C190A",
"h  c #3A1C0A",
"j  c #3C1C0A",
"k  c #3E1C0A",
"l  c #3A190C",
"z  c #3A1C0C",
"x  c #3E1E0C",
"c  c #411E0C",
"v  c #431E0C",
"b  c #411E0F",
"n  c #41210F",
"m  c #43210F",
"M  c #45210C",
"N  c #45210F",
"B  c #45230F",
"V  c #48210F",
"C  c #48230F",
"Z  c #4C210F",
"A  c #4E230F",
"S  c #4A260F",
"D  c #4E260C",
"F  c #4E260F",
"G  c #50230F",
"H  c #50260F",
"J  c #53260F",
"K  c #432312",
"L  c #452312",
"P  c #482312",
"I  c #482612",
"U  c #4C2614",
"Y  c #4E2812",
"T  c #4E2814",
"R  c #502812",
"E  c #552812",
"W  c #572B12",
"Q  c #532814",
"!  c #572B14",
"~  c #552B17",
"^  c #572D17",
"/  c #5B2D14",
"(  c #5D2D17",
")  c #593017",
"_  c #553019",
"`  c #5D3019",
"'  c #5F3019",
"]  c #5D3219",
"[  c #5F321C",
"{  c #612B0F",
"}  c #613012",
"|  c #613014",
" . c #613017",
".. c #633217",
"X. c #693517",
"o. c #6C3517",
"O. c #6C3717",
"+. c #613219",
"@. c #613519",
"#. c #673519",
"$. c #653719",
"%. c #6E3719",
"&. c #6A3A19",
"*. c #6A3A1E",
"=. c #6F3E1C",
"-. c #6F3C1E",
";. c #763A17",
":. c #743C19",
">. c #713C1C",
",. c #713E1E",
"<. c #6E3E21",
"1. c #76411E",
"2. c #77431E",
"3. c #7A431C",
"4. c #79411E",
"5. c #7C431E",
"6. c #7E451E",
"7. c #7E481E",
"8. c #764121",
"9. c #774321",
"0. c #774323",
"q. c #794321",
"w. c #7A4321",
"e. c #794323",
"r. c #7A4523",
"t. c #7C4521",
"y. c #7D4521",
"u. c #7D4821",
"i. c #7E4821",
"p. c #7D4823",
"a. c #7E4A26",
"s. c #80451E",
"d. c #81481E",
"f. c #804521",
"g. c #804821",
"h. c #814821",
"j. c #824A21",
"k. c #804823",
"l. c #824A23",
"z. c #834C21",
"x. c #834C23",
"c. c #864C21",
"v. c #844E23",
"b. c #834A26",
"n. c #814C26",
"m. c #834C26",
"M. c #854C26",
"N. c #844E26",
"B. c #894E23",
"V. c #824E28",
"C. c #834E28",
"Z. c #855026",
"A. c #865026",
"S. c #895026",
"D. c #8A5026",
"F. c #855028",
"G. c #895028",
"H. c #895328",
"J. c #8A5328",
"K. c #8B5328",
"L. c #89532B",
"P. c #8A532B",
"I. c #8A5528",
"U. c #8A552B",
"Y. c #8B552B",
"T. c #8D5528",
"R. c #8E5728",
"E. c #8C552B",
"W. c #8C572B",
"Q. c #8D572B",
"!. c #8F572B",
"~. c #88532D",
"^. c #89552D",
"/. c #8A552D",
"(. c #8B572D",
"). c #8C572D",
"_. c #8D592B",
"`. c #8B592D",
"'. c #8D592D",
"]. c #8E592D",
"[. c #8F592D",
"{. c #8F5B2D",
"}. c #905B2D",
"|. c #915D2D",
" X c #8B5930",
".X c #8F5B30",
"XX c #905B30",
"oX c #905D30",
"OX c #915D30",
"+X c #915F30",
"@X c #925F30",
"#X c #935F30",
"$X c #925F32",
"%X c #935F32",
"&X c #936130",
"*X c #936132",
"=X c #946132",
"-X c #946332",
";X c #956335",
":X c #956535",
">X c #966535",
",X c #976735",
"<X c #976737",
"1X c #986937",
"2X c #97693A",
"3X c #98693A",
"4X c #986A3A",
"5X c #996A3A",
"6X c #9A6C3A",
"7X c #996C3C",
"8X c #9B6C3C",
"9X c #9B6E3C",
"0X c #9A6E3E",
"qX c #9B6E3E",
"wX c #9D6F3E",
"eX c #9D713E",
"rX c #9B6E43",
"tX c #9D7141",
"yX c #9D7341",
"uX c #9D7343",
"iX c #9D7441",
"pX c #A68353",
"aX c #AC8C5D",
"sX c #B19063",
"dX c #B6956C",
"fX c None",
/* pixels */
"fXfXfXfXfXfXfXfXfXfXfXfXfXfXfXfXfXfXfXfXfXfXfXfXfXfXfXfXfXfXfXfX",
"fXfXfXfXfXfXfXfXfXfXfXfXfXfXfXfXfXfXfXfXfXfXfXfXfXfXfXfXfXfXfXfX",
"fXfXfXfXfXfXfXfXfXfXfXfXfXfXfXfXfXfXfXfXfXfXfXfXfXfXfXfXfXfXfXfX",
"fXfXfXfXfXfXfXfXfXfXfXfXfXfXfXfXfXfXfXfXfXfXfXfXfXfXfXfXfXfXfXfX",
"fXfXfXfXfXfXfXfXfXfXfXfXfXfXfXfXfXfXfXfXfXfXfXfXfXfXfXfXfXfXfXfX",
"fXfXfXfXfXfXfXfXfXfXfXfXfXfXfXfXfXfXfXfXfXfXfXfXfXfXfXfXfXfXfXfX",
"fXfXfXfXfXfXfXfXfXfXfXfXfXfXfXfXfXfXfXfXfXfXfXfXfX! G.u.$XfXfXfX",
"fXfXfXfXfXfXfXfXfXfXfXfXfXfXfXfXfXfXfXfXfXfXfXfXl.8.P.R.*.fXfXfX",
"fXfXfXfXfXfXfXfXfX0XU pXK rXuX^.2XqX(.e.w.1X=.  =X*Xc.g   sXfXfX",
"fXfXfXfXfXfXfXN `.~ [  XtX  Y C.a./..X( r.5X@.{.S O f '.] aXdXfX",
"fXfXfXfXfXfX1X0.7X* L.)   w 1X    3XwXI V.C n [.>X#X2.1XoX<._ +.",
"fXfXfXfX* 5 ' ;XF.D.z n.>XO 3     9.  5 Y   ..$.; 8Xe 5X1XeXr fX",
"fXfXfXfX0 H.R ]._.}.  b T & -X  p., E.Q.N...*X|.*Xw 4X9X5XQ ~.fX",
"fXfXfXM # D o M.! +Xg.  U.L.@X, q.    .Xm.5   n.L.fXfXfXfXfXfXfX",
"fXfX4 W fXX.d.0 = C J.T.!.#X  @XN.{.&XP   3X& e.fXfXfXfXfXfXfXfX",
"fXfXd.f.fXH &.o t.s   9   i W.oXS Z.{.  ,.> /.XXfXfXfXfXfXfXfXfX",
"fX.   fXfXv 8 %.b.}.>.R Q./ A.  %X).z :XoXiXwXV fXfXfXfXfXfXfXfX",
"fXH c fXfX< % i.# OXm.F W.#X` -.Y.k.  =X6XyX9X .fXfXfXfXfXfXfXfX",
"fXz.fXfXfXfX5.l V &.J.K.S   t.+.m P 2 [.L.X T fXfXfXfXfXfXfXfXfX",
"d u fXfXfXfX  j.i I.h fXfXfXfXfXfXt 4.5 ^ 5XfXfXfXfXfXfXfXfXfXfX",
"o.6 fXfXfXfXfXh.C 1.fXfXfXfXfXfXfXk Z W.L fXfXfXfXfXfXfXfXfXfXfX",
"3.fXfXfXfXfXfX7.X O.{ fXfXfXfXfXE B.- <X1.fXfXfXfXfXfXfXfXfXfXfX",
"5.fXfXfXfXfXfXv.1 0 B.;.fXfXfXfXs.i.G q fXfXfXfXfXfXfXfXfXfXfXfX",
"7 @ fXfXfXfXJ   fXfXfX* A fXfXfX+ j +Xa fXfXfXfXfXfXfXfXfXfXfXfX",
"fX3.y fXfXfX}   fXfXfXfXfXfXfXfXfX! B x.fXfXfXfXfXfXfXfXfXfXfXfX",
"fXfX  :.fXfXfXy.#.fXfXfXfXfXfXfXfX| ,XfXfXfXfXfXfXfXfXfXfXfXfXfX",
"fXfXfXfX$ fXfXfXS.6.p fXfXfXfXfXfX: x m fXfXfXfXfXfXfXfXfXfXfXfX",
"fXfXfXfXfXfXfXfX# J.z fXfXfXfXfXfXfX@X% fXfXfXfXfXfXfXfXfXfXfXfX",
"fXfXfXfXfXfXfXfXfXfXfXfXfXfXfXfXfXfXfXfXfXfXfXfXfXfXfXfXfXfXfXfX",
"fXfXfXfXfXfXfXfXfXfXfXfXfXfXfXfXfXfXfXfXfXfXfXfXfXfXfXfXfXfXfXfX",
"fXfXfXfXfXfXfXfXfXfXfXfXfXfXfXfXfXfXfXfXfXfXfXfXfXfXfXfXfXfXfXfX",
"fXfXfXfXfXfXfXfXfXfXfXfXfXfXfXfXfXfXfXfXfXfXfXfXfXfXfXfXfXfXfXfX"
};
