/* XPM */
static char *result[] = {
/* columns rows colors chars-per-pixel */
"32 32 231 2 ",
"   c black",
".  c #020000",
"X  c #050000",
"o  c #0C0500",
"O  c #0F0702",
"+  c #120702",
"@  c #140705",
"#  c #170A02",
"$  c #190C05",
"%  c #1C0C05",
"&  c #1E0F07",
"*  c #230C05",
"=  c #230F07",
"-  c #280F05",
";  c #261207",
":  c #2B1407",
">  c #2D1407",
",  c #2B140A",
"<  c #30170A",
"1  c #32170A",
"2  c #35190A",
"3  c #32190C",
"4  c #35190C",
"5  c #371C0C",
"6  c #371E0F",
"7  c #3A190C",
"8  c #3A1C0C",
"9  c #3A1C0F",
"0  c #3A1E0F",
"q  c #3C1E0C",
"w  c #3E1E0F",
"e  c #3E210F",
"r  c #431E0C",
"t  c #41210C",
"y  c #41210F",
"u  c #43210F",
"i  c #43230F",
"p  c #45210C",
"a  c #48230C",
"s  c #48230F",
"d  c #4A230F",
"f  c #53260F",
"g  c #55260F",
"h  c #4A2312",
"j  c #4C2312",
"k  c #4E2612",
"l  c #4C2614",
"z  c #4E2812",
"x  c #4E2814",
"c  c #502812",
"v  c #552B12",
"b  c #532B14",
"n  c #502B17",
"m  c #552B14",
"M  c #532D17",
"N  c #572D14",
"B  c #552D17",
"V  c #592D17",
"C  c #5B2D17",
"Z  c #5F2D14",
"A  c #5B3014",
"S  c #593017",
"D  c #5D3014",
"F  c #5F3017",
"G  c #5D3217",
"H  c #5F3217",
"J  c #573019",
"K  c #593019",
"L  c #5D3219",
"P  c #5F3219",
"I  c #5F351C",
"U  c #633014",
"Y  c #653217",
"T  c #693517",
"R  c #6A3517",
"E  c #6C3517",
"W  c #6C3717",
"Q  c #613219",
"!  c #633219",
"~  c #633519",
"^  c #653519",
"/  c #673719",
"(  c #63351C",
")  c #63371E",
"_  c #65371C",
"`  c #67371C",
"'  c #693519",
"]  c #693719",
"[  c #6A3719",
"{  c #6C3719",
"}  c #6E3719",
"|  c #6E3A19",
" . c #6F3A19",
".. c #693A1C",
"X. c #6A3A1C",
"o. c #6E3A1C",
"O. c #6C3A1E",
"+. c #6F3C1C",
"@. c #6C3C1E",
"#. c #733E1C",
"$. c #713E1E",
"%. c #733E1E",
"&. c #763C1C",
"*. c #773E1C",
"=. c #6E3E21",
"-. c #6F3E21",
";. c #73411E",
":. c #76411E",
">. c #77431E",
",. c #79411C",
"<. c #79411E",
"1. c #79431E",
"2. c #7A431E",
"3. c #7C431E",
"4. c #764121",
"5. c #744321",
"6. c #744323",
"7. c #764323",
"8. c #764526",
"9. c #7A4521",
"0. c #794523",
"q. c #7C4523",
"w. c #7D4523",
"e. c #7A4823",
"r. c #7E4821",
"t. c #7D4823",
"y. c #7E4823",
"u. c #7A4826",
"i. c #7C4826",
"p. c #7E4A26",
"a. c #813E19",
"s. c #804521",
"d. c #804823",
"f. c #814823",
"g. c #804A23",
"h. c #814A23",
"j. c #824C23",
"k. c #854C23",
"l. c #804A26",
"z. c #814A26",
"x. c #814C26",
"c. c #824C26",
"v. c #844C26",
"b. c #824E28",
"n. c #885026",
"m. c #895026",
"M. c #895326",
"N. c #855028",
"B. c #885028",
"V. c #895028",
"C. c #895328",
"Z. c #8A5328",
"A. c #88532B",
"S. c #8A532B",
"D. c #8A552B",
"F. c #8B552B",
"G. c #8D5528",
"H. c #8C572B",
"J. c #89552D",
"K. c #8B552D",
"L. c #8A572D",
"P. c #8B572D",
"I. c #8C572D",
"U. c #8C592D",
"Y. c #8F5B2D",
"T. c #905B2D",
"R. c #895730",
"E. c #8A5932",
"W. c #8E5930",
"Q. c #8D5D37",
"!. c #905D30",
"~. c #925F30",
"^. c #905D32",
"/. c #905F32",
"(. c #915F32",
"). c #935F32",
"_. c #955F32",
"`. c #936132",
"'. c #956332",
"]. c #926135",
"[. c #936335",
"{. c #926337",
"}. c #946335",
"|. c #956335",
" X c #966335",
".X c #966535",
"XX c #976735",
"oX c #966537",
"OX c #986937",
"+X c #92613A",
"@X c #94633A",
"#X c #976A3E",
"$X c #98693A",
"%X c #986A3A",
"&X c #986A3C",
"*X c #9B6E3C",
"=X c #9A6C3E",
"-X c #9B6F3E",
";X c #9C6F3E",
":X c #9C713E",
">X c #9D733E",
",X c #996E41",
"<X c #9C7141",
"1X c #9C7143",
"2X c #9D7443",
"3X c #9D7345",
"4X c #9E7445",
"5X c #9F7A4C",
"6X c #A07743",
"7X c #A07948",
"8X c #A07A4A",
"9X c #A27C4A",
"0X c #A27D4A",
"qX c #A27D4C",
"wX c #A3804E",
"eX c #A4814E",
"rX c #A58250",
"tX c #A8895B",
"yX c #AC8C5D",
"uX c #AC8D5D",
"iX c #AF9065",
"pX c #B09167",
"aX c #B29167",
"sX c #B4956A",
"dX c #B5956A",
"fX c #B6956C",
"gX c #B6976E",
"hX c #B7976E",
"jX c #B99871",
"kX c #C49F7D",
"lX c None",
/* pixels */
"lXlXlXlXlXlXlXlXlXlXlXlXlXlXlXlXlXlXlXlXlXlXlXlXlXlXlXlXlXlXlXlX",
"lXlXlXlXlXlXlXlXlXlXlXlXlXlXlXlXlXlXlXlXlXlXlXlXlXlXlXlXlXlXlXlX",
"lXlXlXlXlXlXlXlXlXlXlXlXlXlXlX0.@.lXlXlXlXlXlXlXlXlXlXlXlXlXlXlX",
"lXlXlXlXlXlXlXlXlXlXlX/ L p.3 +X3X=.wX0Xd lXlXlXlXlXlXlXlXlXlXlX",
"lXlXlXlXlXlXlXlXlXlX&.w.4Xu.1XyX{.,X) eXY.D lXlXlXlXlXlXlXlXlXlX",
"lXlXlXlXlXlXlXlXlX+ <.H.y <XrX=X6.9 J _ 1.d v lXlXlXlXlXlXlXlXlX",
"lXlXlXlXlXlXlXlXlXH.{ z 9 9X-X<X& 7X0 9Xe.# T lXlXlXlXlXlXlXlXlX",
"lXlXlXlXlXlXlXlXU } g.I.].A.0.7.N.U.P.~.3 T.Z.lXlXlXlXlXlXlXlXlX",
"lXlXlXlXlXlXlXlX*.m.a x.N 5 H !.h.< l ;X:X> >.lXlXlXlXlXlXlXlXlX",
"lXlXlXlXlXlXlXlXR ,.c $.}.< ! F 1 2.j.G .XZ g.lXlXlXlXlXlXlXlXlX",
"lXlXlXlXlXlXlXlX7 k d W :.3 W.t.2XB   p #.j V.lXlXlXlXlXlXlXlXlX",
"lXlXlXlXlXlXlXlXr +.: 4.f I 1X&XR.8XA E 4 B.m.lXlXlXlXlXlXlXlXlX",
"lXlXlXlXlXlXlXlXY = t.$.P.aXK jXfXtXb.M.Q q.T.lXlXlXlXlXlXlXlXlX",
"lXlXlXlXlXlXlXlX` X.K.s } hXqXiXQ.,Xo g..Xl.2 lXlXlXlXlXlXlXlXlX",
"lXlXlXlXlXlXlXlX[ 8 5 '.F.E.uX5XgXdXO.F ^ , ;XlXlXlXlXlXlXlXlXlX",
"lXlXlXlXlXlXlXlXlXq.L.h 1   6 kXjXx | i _ 5.`.lXlXlXlXlXlXlXlXlX",
"lXlXlXlXlXlXlXlXlX<X>X3.XX8.iXpX@XsXy.|.G.u $.lXlXlXlXlXlXlXlXlX",
"lXlXlXlXlXlXlXlXlXw *Xm.u S.#XM n X 9.V r.-.( lXlXlXlXlXlXlXlXlX",
"lXlXlXlXlXlXlXlXlX..%.q a.$.F.8 '.t ] - J.z.U.lXlXlXlXlXlXlXlXlX",
"lXlXlXlXlXlXlXlXlX;.%X|._.lXlX .g * 1 n.5   #.lXlXlXlXlXlXlXlXlX",
"lXlXlXlXlXlXlXlXlX/.(.).$ lXlXlXlX. lXf.).[.$XlXlXlXlXlXlXlXlXlX",
"lXlXlXlXlXlXlXlXlXe O p.^ lXlXlXlXlXlXb P OXlXlXlXlXlXlXlXlXlXlX",
"lXlXlXlXlXlXlXlXlX  ; $ D.lXlXlXlXlXlX' 5 d.lXlXlXlXlXlXlXlXlXlX",
"lXlXlXlXlXlXlXlXlXlXc.~ s lXlXlXlXlXlXZ.V.C.lXlXlXlXlXlXlXlXlXlX",
"lXlXlXlXlXlXlXlXlXlXC.v.u lXlXlXlXlXlXm oX% lXlXlXlXlXlXlXlXlXlX",
"lXlXlXlXlXlXlXlXlXlXy S.k.lXlXlXlXlXlXi.6Xo.lXlXlXlXlXlXlXlXlXlX",
"lXlXlXlXlXlXlXlXlXlX5  Xs.lXlXlXlXlXlXS ^.C lXlXlXlXlXlXlXlXlXlX",
"lXlXlXlXlXlXlXlXlXlX  0.@ lXlXlXlXlXlXlXlXlXlXlXlXlXlXlXlXlXlXlX",
"lXlXlXlXlXlXlXlXlXlXlXlXlXlXlXlXlXlXlXlXlXlXlXlXlXlXlXlXlXlXlXlX",
"lXlXlXlXlXlXlXlXlXlXlXlXlXlXlXlXlXlXlXlXlXlXlXlXlXlXlXlXlXlXlXlX",
"lXlXlXlXlXlXlXlXlXlXlXlXlXlXlXlXlXlXlXlXlXlXlXlXlXlXlXlXlXlXlXlX",
"lXlXlXlXlXlXlXlXlXlXlXlXlXlXlXlXlXlXlXlXlXlXlXlXlXlXlXlXlXlXlXlX"
};
