/* XPM */
static char *result[] = {
/* columns rows colors chars-per-pixel */
"32 32 227 2 ",
"   c black",
".  c #020000",
"X  c #000200",
"o  c #020200",
"O  c #050200",
"+  c #070200",
"@  c #070202",
"#  c #0C0502",
"$  c #0F0502",
"%  c #0C0702",
"&  c #0C0705",
"*  c #120702",
"=  c #120705",
"-  c #170A05",
";  c #170C05",
":  c #1E0A02",
">  c #190C05",
",  c #1C0C05",
"<  c #1E0C05",
"1  c #1C0F07",
"2  c #1E0F07",
"3  c #230F05",
"4  c #260F07",
"5  c #211207",
"6  c #231207",
"7  c #261207",
"8  c #281207",
"9  c #2B1407",
"0  c #28140A",
"q  c #2B140A",
"w  c #2D140A",
"e  c #2D170A",
"r  c #351407",
"t  c #30170A",
"y  c #32170A",
"u  c #35170A",
"i  c #30170C",
"p  c #32190A",
"a  c #35190A",
"s  c #37190A",
"d  c #32190C",
"f  c #371C0C",
"g  c #3C190A",
"h  c #3C1C0A",
"j  c #3E1C0C",
"k  c #3E1C0F",
"l  c #3C1E0F",
"z  c #3E1E0F",
"x  c #431C0A",
"c  c #411E0C",
"v  c #431E0C",
"b  c #451E0C",
"n  c #43230F",
"m  c #45210F",
"M  c #45230F",
"N  c #4A210C",
"B  c #48230F",
"V  c #4A230F",
"C  c #4E230C",
"Z  c #4E230F",
"A  c #50230F",
"S  c #55280F",
"D  c #59280F",
"F  c #5B2B0F",
"G  c #482312",
"H  c #4A2612",
"J  c #4C2612",
"K  c #4C2614",
"L  c #4C2814",
"P  c #4E2814",
"I  c #4E2B14",
"U  c #502812",
"Y  c #552812",
"T  c #572B12",
"R  c #552B14",
"E  c #572B14",
"W  c #572D17",
"Q  c #5D2B12",
"!  c #5F2B12",
"~  c #5B2D14",
"^  c #5B2D17",
"/  c #532D19",
"(  c #5B3017",
")  c #5F3217",
"_  c #5B3019",
"`  c #5D3219",
"'  c #673212",
"]  c #613217",
"[  c #633517",
"{  c #693212",
"}  c #6A3517",
"|  c #6F3517",
" . c #613219",
".. c #65351C",
"X. c #65371C",
"o. c #67371C",
"O. c #69371C",
"+. c #6F3A19",
"@. c #6F3C19",
"#. c #6A3A1E",
"$. c #6C3A1C",
"%. c #6F3A1C",
"&. c #6E3C1C",
"*. c #6F3C1C",
"=. c #6E3C1E",
"-. c #713C19",
";. c #763E19",
":. c #773E19",
">. c #763E1C",
",. c #6F3E21",
"<. c #73411E",
"1. c #77411C",
"2. c #74411E",
"3. c #76411E",
"4. c #79411C",
"5. c #7A411C",
"6. c #7A431E",
"7. c #7C451E",
"8. c #7D451E",
"9. c #7E451E",
"0. c #744121",
"q. c #764121",
"w. c #764321",
"e. c #774321",
"r. c #744123",
"t. c #734326",
"y. c #794523",
"u. c #7C4521",
"i. c #7E4521",
"p. c #7C4523",
"a. c #7D4821",
"s. c #7C4823",
"d. c #7E4A23",
"f. c #794826",
"g. c #7C4826",
"h. c #80451E",
"j. c #80481E",
"k. c #804521",
"l. c #804821",
"z. c #814821",
"x. c #814A21",
"c. c #824A21",
"v. c #804823",
"b. c #814A23",
"n. c #834C23",
"m. c #844C23",
"M. c #844C26",
"N. c #844E26",
"B. c #854E26",
"V. c #864E26",
"C. c #884E23",
"Z. c #884E26",
"A. c #834E28",
"S. c #814E2B",
"D. c #844E28",
"F. c #854E28",
"G. c #855026",
"H. c #865026",
"J. c #885026",
"K. c #8A5026",
"L. c #895326",
"P. c #845028",
"I. c #855028",
"U. c #865028",
"Y. c #85532D",
"T. c #885028",
"R. c #8A5328",
"E. c #8B5328",
"W. c #8B5528",
"Q. c #89552B",
"!. c #8A552B",
"~. c #8B552B",
"^. c #8D5728",
"/. c #8C552B",
"(. c #8D572B",
"). c #8E572B",
"_. c #88532D",
"`. c #8C572D",
"'. c #8E572D",
"]. c #8E592B",
"[. c #8F592B",
"{. c #8D592D",
"}. c #8E592D",
"|. c #8F592D",
" X c #905B2D",
".X c #8D5B30",
"XX c #8F5D30",
"oX c #905B30",
"OX c #905D30",
"+X c #915F30",
"@X c #935F30",
"#X c #905F32",
"$X c #925F32",
"%X c #935F32",
"&X c #925F35",
"*X c #936132",
"=X c #936332",
"-X c #946130",
";X c #946332",
":X c #956332",
">X c #936135",
",X c #956135",
"<X c #946335",
"1X c #956335",
"2X c #956337",
"3X c #966535",
"4X c #966537",
"5X c #976537",
"6X c #976737",
"7X c #986737",
"8X c #98693A",
"9X c #996A3A",
"0X c #986A3C",
"qX c #986A3E",
"wX c #9A6C3C",
"eX c #9A6E3C",
"rX c #9B6E3C",
"tX c #9C6F3E",
"yX c #9D713E",
"uX c #9A6F41",
"iX c #9D7141",
"pX c #9D7343",
"aX c #9C7345",
"sX c #A07A48",
"dX c #A4814E",
"fX c #A98A5B",
"gX c None",
/* pixels */
"gXgXgXgXgXgXgXgXgXgXgXgXgXgXgXgXgXgXgXgXgXgXgXgXgXgXgXgXgXgXgXgX",
"gXgXgXgXgXgXgXgXgXgXgXgXgXgXgXgXgXgXgXgXgXgXgXgXgXgXgXgXgXgXgXgX",
"gXgXgXgXgXgXgXgXgXgXgXgXgXgXgXgXgXgXgXgXgXgXgXgXgXgXgXgXgXgXgXgX",
"gXgXgXgXgXgXgXgXgXgXgXgXgXgXgXgXgXgXgXgXgXgXgXgXgXgXgXgXgXgXgXgX",
"gXgXgXgXgXgXgXgXgXgXgXgXgXgXgXgXgXgXgXgXgXgXgXgXgXgXgXgXgXgXgXgX",
"gXgXgXgXgXgXgXgXgXgXgXgXgXgXgXgXgXgXgXgXgXgXgXgXgXgXgXgXgXgXgXgX",
"gXgXgXgXgXgXgXgXgXgXgXgXgXgXgXgXgXgXgXgXgXgXgXgXgXgXgXgXgXgXgXgX",
"gXgXgXgXgXgXgXgXgXgXgXgXgXgXgXgXgXgXgXgXgXgXgXgXgXgXgXgXgXgXgXgX",
"gXgXgXgX!.c gXgXgXgXgXgXgXgXgXgXgXgXgXgXgXgXgXgXgXgXgXgXgXgXgXgX",
"gXgXgXqX[.}.H.Y 3.V.gXgXgXgXgXgXa.y.S.` g.#XgXgXgXgXgXgXgXgXgXgX",
"gXgXqXq.oXy &.b.> p.D.1 ] ;X#.eXK k y._.,..XpXL 0.gXgXgXgXgXgXgX",
"gXgX/ Y.-XY 7X6X@ M $Xo.E I.XX`.iX..W 0Xf.r.=.o.5X# gXgXgXgXgXgX",
"gXfXuX. =XU._ o *X  |.:X; 1XOXe.( t 8XF.P.< ~.<.l 2.U c.gXgXgXgX",
"gXaXdX .6 ,XD.rX. *Xi q !.4XH ~.*X*X5 v.- Z.. [ }.l.m 8 gXgXgXgX",
"2 t.sX  &Xs.o.O.X 6XP n 0 d.*X  *X  = ^   E.@Xt M.^.v a gXgXgXgX",
"gXf Q.- 8XZ gXB !.2   A.#   ( U.G *X3 }.L.'.  u.    ;.: 5.gXgXgX",
"gXgXz gXgXgXgXgXw d 8XT.    (     OX X7 W.(.  *.    s gX9.gXgXgX",
"gXgXgXgXgXgXgXgXV w.  6X  <XJ.;XN.l   (.+.h ).O c.m.8.gX. ! gXgX",
"gXgXgXgXgXgXgXgXz.  X.>X}.  T.% {., G.i.+ n.O   & 4.j.gXC 4 gXgX",
"gXgXgXgXgXgXgXgXgXi yXX.}.h B.%X  $Xo &.K.9 ^.  %.n.>.gX:.F gXgX",
"gXgXgXgXgXgXgXgXgXgXtX2X].j gX+X  8 ) 6.Q r n.~ J.  u gX{ N gXgX",
"gXgXgXgXgXgXgXgXgXgXR   p gXgXgXgXgXgXgXgXgXgXC.R.  1.gX5.gXgXgX",
"gXgXgXgXgXgXgXgXgXgX/.I * gXgXgXgXgXgXgXgXgXgXgX  @.~ gX} gXgXgX",
"gXgXgXgXgXgXgXgXgXgXgXwX8 gXgXgXgXgXgXgXgXgXgXgXp   T gXD gXgXgX",
"gXgXgXgXgXgXgXgXgXgXgX9XA gXgXgXgXgXgXgXgXgXgXgX# 7.w gX' gXgXgX",
"gXgXgXgXgXgXgXgXgXgXS 3XV gXgXgXgXgXgXgXgXgXgXgXY J.x.gX-.gXgXgX",
"gXgXgXgXgXgXgXgXgXgXJ y ] gXgXgXgXgXgXgXgXgXgXx b ] g gX  gXgXgX",
"gXgXgXgXgXgXgXgXgXgXgXk.OXgXgXgXgXgXgXgXgXgXgXgXb   gXgX+ | gXgX",
"gXgXgXgXgXgXgXgXgXgX$.Q.$ gXgXgXgXgXgXgXgXgXgXh.W.8 gXgXgXgX  gX",
"gXgXgXgXgXgXgXgXgXgXw.*XgXgXgXgXgXgXgXgXgXgXgXe J.r gXgXgXgX# gX",
"gXgXgXgXgXgXgXgXgXgXgXgXgXgXgXgXgXgXgXgXgXgXgXgXgXgXgXgXgXgXgXgX",
"gXgXgXgXgXgXgXgXgXgXgXgXgXgXgXgXgXgXgXgXgXgXgXgXgXgXgXgXgXgXgXgX"
};
