/* XPM */
static char *result[] = {
/* columns rows colors chars-per-pixel */
"32 32 229 2 ",
"   c black",
".  c #020000",
"X  c #050200",
"o  c #070200",
"O  c #050202",
"+  c #070202",
"@  c #0A0502",
"#  c #0C0502",
"$  c #0F0702",
"%  c #120702",
"&  c #140702",
"*  c #170702",
"=  c #170705",
"-  c #170A02",
";  c #170A05",
":  c #190A02",
">  c #190A05",
",  c #1C0C05",
"<  c #1E0C05",
"1  c #1E0C07",
"2  c #1E0F07",
"3  c #210C05",
"4  c #210F05",
"5  c #210F07",
"6  c #260F05",
"7  c #2D0C05",
"8  c #261207",
"9  c #281207",
"0  c #2B1207",
"q  c #2D1207",
"w  c #281407",
"e  c #2B1407",
"r  c #2D1407",
"t  c #26120A",
"y  c #28140A",
"u  c #2B140A",
"i  c #2D170A",
"p  c #301407",
"a  c #301707",
"s  c #321707",
"d  c #371407",
"f  c #351707",
"g  c #3C1705",
"h  c #351907",
"j  c #3C1907",
"k  c #30170A",
"l  c #35170A",
"z  c #37170A",
"x  c #3A190A",
"c  c #3C190A",
"v  c #3A1C0F",
"b  c #43190A",
"n  c #411C0A",
"m  c #431C0A",
"M  c #411E0A",
"N  c #411E0C",
"B  c #431E0C",
"V  c #411E0F",
"C  c #4C190A",
"Z  c #481E0C",
"A  c #41210F",
"S  c #48210C",
"D  c #48230F",
"F  c #4A230F",
"G  c #4E230C",
"H  c #4C230F",
"J  c #4E230F",
"K  c #4E280F",
"L  c #50230C",
"P  c #53230C",
"I  c #50260F",
"U  c #53260F",
"Y  c #57260F",
"T  c #59260C",
"R  c #5B260C",
"E  c #5D260F",
"W  c #53280F",
"Q  c #59280C",
"!  c #5B280C",
"~  c #59280F",
"^  c #5B2B0F",
"/  c #412312",
"(  c #4A2312",
")  c #4E2612",
"_  c #4A2614",
"`  c #502812",
"'  c #532812",
"]  c #552812",
"[  c #572B12",
"{  c #502814",
"}  c #532B14",
"|  c #572D14",
" . c #592B12",
".. c #5B2B12",
"X. c #5D2B12",
"o. c #5B2D12",
"O. c #5D2D12",
"+. c #5F2D12",
"@. c #5B2D14",
"#. c #5D3012",
"$. c #5D3014",
"%. c #5F3014",
"&. c #5D3017",
"*. c #5F3017",
"=. c #5D3217",
"-. c #5F3219",
";. c #632B0F",
":. c #612D0F",
">. c #632D0F",
",. c #612D12",
"<. c #633214",
"1. c #653014",
"2. c #673214",
"3. c #653217",
"4. c #653514",
"5. c #673517",
"6. c #693214",
"7. c #693514",
"8. c #6A3514",
"9. c #693517",
"0. c #693717",
"q. c #6C3514",
"w. c #6C3717",
"e. c #613219",
"r. c #633519",
"t. c #653519",
"y. c #673719",
"u. c #693519",
"i. c #693719",
"p. c #6A3719",
"a. c #6C3719",
"s. c #6E3719",
"d. c #69371C",
"f. c #6F3A19",
"g. c #6F3C19",
"h. c #693A1E",
"j. c #6A3C1E",
"k. c #6C3C1E",
"l. c #713A17",
"z. c #773C17",
"x. c #763E19",
"c. c #733C1C",
"v. c #713E1E",
"b. c #733E1E",
"n. c #743E1C",
"m. c #763E1C",
"M. c #773E1C",
"N. c #763E1E",
"B. c #6E3E21",
"V. c #6F3E21",
"C. c #774119",
"Z. c #73411E",
"A. c #77411C",
"S. c #76411E",
"D. c #77411E",
"F. c #79411C",
"G. c #79431E",
"H. c #7C431C",
"J. c #7C431E",
"K. c #7E451E",
"L. c #6F4123",
"P. c #734123",
"I. c #7C4521",
"U. c #7C4523",
"Y. c #7E4821",
"T. c #7C4823",
"R. c #7C4826",
"E. c #7E4A28",
"W. c #80481E",
"Q. c #804521",
"!. c #804821",
"~. c #804A23",
"^. c #814A23",
"/. c #834C23",
"(. c #844C21",
"). c #814C26",
"_. c #824C26",
"`. c #844E26",
"'. c #814C28",
"]. c #834E28",
"[. c #865026",
"{. c #895026",
"}. c #855028",
"|. c #84502B",
" X c #895328",
".X c #8A5328",
"XX c #88532B",
"oX c #8A5528",
"OX c #8B5528",
"+X c #89552B",
"@X c #8A552B",
"#X c #8C572B",
"$X c #88532D",
"%X c #8B552D",
"&X c #8B572D",
"*X c #8F592B",
"=X c #8E592D",
"-X c #90592B",
";X c #8F5D30",
":X c #8E5D32",
">X c #915D30",
",X c #915F30",
"<X c #905F32",
"1X c #915F35",
"2X c #946132",
"3X c #956332",
"4X c #966332",
"5X c #916135",
"6X c #956335",
"7X c #966535",
"8X c #966537",
"9X c #956737",
"0X c #966737",
"qX c #97693A",
"wX c #976A3C",
"eX c #98693A",
"rX c #9A6C3A",
"tX c #98693C",
"yX c #9B6E3C",
"uX c #9C713E",
"iX c #9D7341",
"pX c #9D7343",
"aX c #A07945",
"sX c #A27C4A",
"dX c #A17D4C",
"fX c #A37E4C",
"gX c #A58250",
"hX c #A68453",
"jX c None",
/* pixels */
"jXjXjXjXjXjXjXjXjXjXjXjXjXjXjXjXjXjXjXjXjXjXjXjXjXjXjXjXjXjXjXjX",
"jXjXjXjXjXjXjXjXjXjXjXjXjXjXjXjXjXjXjXjXjXjXjXjXjXjXjXjXjXjXjXjX",
"jXjXjXjXjXjXjXjXjXjXjXjXjXjXjXjXjXjXjXjXjXjXjXjXjXjXjXjXjXjXjXjX",
"jXjXjXjXjXjXjXjXjXjXjXjXjXjXjXjXjXjXI.jXjXjXjXjXjXjXjXjXjXjXjXjX",
"jXjXjXjXjXjXjXjXjXjXjXjXjXjXjX=Xe.&.r.4 $ i.jXjXjXjXjXjXjXjXjXjX",
"jXjXjXjXjXjXjXjXjXjXjXjXjX%.J.i.[.S.5 d.`.) @.jXjXjXjXjXjXjXjXjX",
"jXjXjXjXjXjXjXjXjXjXjXjXjX( 8X}.rX_ -.  ( Z.-XjXjXjXjXjXjXjXjXjX",
"jXjXjXjXjXjXjXjXjXjXjXjXjX X0X,XR.  ).y.` V 4XjXjXjXjXjXjXjXjXjX",
"jXjXjXjXjXjXjXjXjXjXjX5 XX+Xv %X0X<XV.A U..XjXjXjXjXjXjXjXjXjXjX",
"jXjXjXjXjXjXjXjXjXjX0 =.} T.qXdX:X{ ;Xu.b.k.jXjXjXjXjXjXjXjXjXjX",
"jXjXjXjXjXjXjXjXjXjXN &X'.sX1Xj.pXgXE.9XN.^.jXjXjXjXjXjXjXjXjXjX",
"jXjXjXjXjXjXjXjXjXoXb. X$XhXP./ fX|.5XpX}.#.D jXjXjXjXjXjXjXjXjX",
"jXjXjXjXjXjXjXjX~.@Xt.>XB.h.L.+ tXi qXwXn.#X*.jXjXjXjXjXjXjXjXjX",
"jXjXjXjXjXjXjXjX)./.Y.2Xb.A ; 1 aX| uXiX3Xk A.jXjXjXjXjXjXjXjXjX",
"jXjXjXjXjXjXjXjXS !.w t eX6Xy 2 ].k yXeX' D %.jXjXjXjXjXjXjXjXjX",
"jXjXjXjXjXjXjXjXjXf.e.@X~.8 2Xc.v.>X_.v.7Xu a jXjXjXjXjXjXjXjXjX",
"jXjXjXjXjXjXjXjX  K n.OXf.^ 8 *Xe {.z.=   ^.G.jXjXjXjXjXjXjXjXjX",
"jXjXjXjXjXjXjXjX    0...2.< p.{.9 W.G C.  D.$ jXjXjXjXjXjXjXjXjX",
"jXjXjXjXjXjXjXjX9.8 M.5.S   g D.3.g.b H.I s.(.jXjXjXjXjXjXjXjXjX",
"jXjXjXjXjXjXjXjXW [   [ W.p # % Z * C o B $.O jXjXjXjXjXjXjXjXjX",
"jXjXjXjXjXjXjXjXa.<.  m.l & $ 8.I U *   M a.  jXjXjXjXjXjXjXjXjX",
"jXjXjXjXjXjXjXjXo.F K.3 :.E c 4 S H 7 : F.] Q.jXjXjXjXjXjXjXjXjX",
"jXjXjXjXjXjXjXjXJ   4.q ;.m ! L  .s @ 6 l p  .jXjXjXjXjXjXjXjXjX",
"jXjXjXjXjXjXjXjXjX ., x >.jXjXjX7.p Y f R ] O.jXjXjXjXjXjXjXjXjX",
"jXjXjXjXjXjXjXjXjXa.F h 1.jXjXjX7.Z jXd T I jXjXjXjXjXjXjXjXjXjX",
"jXjXjXjXjXjXjXjXjX0 H +.X jXjXjXr Q jX> ~ w.jXjXjXjXjXjXjXjXjXjX",
"jXjXjXjXjXjXjXjXjXjXx.p c jXjXjX4 . jXjXj jXjXjXjXjXjXjXjXjXjXjX",
"jXjXjXjXjXjXjXjXjXjXl.8 z P jXjXB - jXjXjXjXjXjXjXjXjXjXjXjXjXjX",
"jXjXjXjXjXjXjXjXjXjXX.- Z jXO.,.q.6.jXjXjXjXjXjXjXjXjXjXjXjXjXjX",
"jXjXjXjXjXjXjXjXjXjX  n jXjXjXjXjXjXjXjXjXjXjXjXjXjXjXjXjXjXjXjX",
"jXjXjXjXjXjXjXjXjXjXjXjXjXjXjXjXjXjXjXjXjXjXjXjXjXjXjXjXjXjXjXjX",
"jXjXjXjXjXjXjXjXjXjXjXjXjXjXjXjXjXjXjXjXjXjXjXjXjXjXjXjXjXjXjXjX"
};
