/* XPM */
static char *result[] = {
/* columns rows colors chars-per-pixel */
"32 32 248 2 ",
"   c black",
".  c #020000",
"X  c #020200",
"o  c #050200",
"O  c #070200",
"+  c #070202",
"@  c #0C0502",
"#  c #0F0502",
"$  c #0C0702",
"%  c #0F0702",
"&  c #140A05",
"*  c #170A05",
"=  c #1C0A02",
"-  c #1C0A05",
";  c #1C0C05",
":  c #1E0C05",
">  c #1C0C07",
",  c #210C05",
"<  c #230C05",
"1  c #230F05",
"2  c #230F07",
"3  c #280F05",
"4  c #2D0F05",
"5  c #231205",
"6  c #231207",
"7  c #2B1207",
"8  c #2D1207",
"9  c #2B1407",
"0  c #2D1707",
"q  c #26120A",
"w  c #28140A",
"e  c #2B140A",
"r  c #2D170A",
"t  c #371707",
"y  c #3C1707",
"u  c #3A1907",
"i  c #30170A",
"p  c #3C170A",
"a  c #37190A",
"s  c #37190C",
"d  c #351C0C",
"f  c #351C0F",
"g  c #371C0F",
"h  c #3A190A",
"j  c #3E190A",
"k  c #3A1C0A",
"l  c #3C1C0A",
"z  c #3A1C0C",
"x  c #3A1C0F",
"c  c #3C1C0C",
"v  c #3E1C0C",
"b  c #3C1E0C",
"n  c #411C0A",
"m  c #451C0A",
"M  c #411E0C",
"N  c #4A1C0A",
"B  c #4A1E0A",
"V  c #4E1E0A",
"C  c #43210F",
"Z  c #4A230C",
"A  c #48210F",
"S  c #4E210C",
"D  c #4C230C",
"F  c #4E230C",
"G  c #4C260F",
"H  c #4E260F",
"J  c #50210A",
"K  c #53210C",
"L  c #50260F",
"P  c #55260F",
"I  c #57280F",
"U  c #5B280F",
"Y  c #592B0F",
"T  c #5B2B0F",
"R  c #5D2B0F",
"E  c #452312",
"W  c #482312",
"Q  c #4A2312",
"!  c #4A2612",
"~  c #4E2812",
"^  c #4E2B17",
"/  c #502612",
"(  c #532812",
")  c #552812",
"_  c #572812",
"`  c #572B12",
"'  c #532B14",
"]  c #552B14",
"[  c #572D14",
"{  c #572D17",
"}  c #592812",
"|  c #592B12",
" . c #5D2B12",
".. c #592D12",
"X. c #5B2D12",
"o. c #5D2D12",
"O. c #5B2D14",
"+. c #592D17",
"@. c #5F2D14",
"#. c #532D19",
"$. c #5F3012",
"%. c #5B3014",
"&. c #5B3017",
"*. c #5B3217",
"=. c #5F3519",
"-. c #5D321C",
";. c #612D0F",
":. c #613012",
">. c #633012",
",. c #653012",
"<. c #653212",
"1. c #613014",
"2. c #633014",
"3. c #633214",
"4. c #613217",
"5. c #653214",
"6. c #673214",
"7. c #653017",
"8. c #673514",
"9. c #6A3514",
"0. c #693517",
"q. c #6A3517",
"w. c #6A3717",
"e. c #6E3514",
"r. c #6C3714",
"t. c #6F3717",
"y. c #6F3A17",
"u. c #613219",
"i. c #673519",
"p. c #67351C",
"a. c #67371E",
"s. c #693719",
"d. c #6A3719",
"f. c #6A371C",
"g. c #6C371C",
"h. c #6F3A19",
"j. c #6A3A1C",
"k. c #6F3A1C",
"l. c #6E3C1C",
"z. c #6C3C1E",
"x. c #713A14",
"c. c #713A17",
"v. c #733A17",
"b. c #733C19",
"n. c #743E19",
"m. c #763E19",
"M. c #713C1C",
"N. c #733C1C",
"B. c #713E1C",
"V. c #743C1C",
"C. c #743E1C",
"Z. c #773E1C",
"A. c #793E1C",
"S. c #693A21",
"D. c #6C3C21",
"F. c #774119",
"G. c #73411E",
"H. c #77411E",
"J. c #7A411C",
"K. c #79411E",
"L. c #7A411E",
"P. c #7A431E",
"I. c #7C431C",
"U. c #7C431E",
"Y. c #7D451C",
"T. c #7D451E",
"R. c #7E451E",
"E. c #7E481E",
"W. c #744121",
"Q. c #764121",
"!. c #774321",
"~. c #794321",
"^. c #7A4523",
"/. c #7D4521",
"(. c #7C4523",
"). c #7D4823",
"_. c #7E4823",
"`. c #7E4A23",
"'. c #7E4A26",
"]. c #804821",
"[. c #814821",
"{. c #814A21",
"}. c #804823",
"|. c #804A23",
" X c #844C21",
".X c #854C23",
"XX c #824C26",
"oX c #834E26",
"OX c #844C26",
"+X c #844E26",
"@X c #854E26",
"#X c #824C28",
"$X c #834C28",
"%X c #834E2B",
"&X c #854E28",
"*X c #865026",
"=X c #895026",
"-X c #855028",
";X c #84502B",
":X c #86502B",
">X c #86532B",
",X c #85532D",
"<X c #885028",
"1X c #8A5328",
"2X c #89532B",
"3X c #8A552B",
"4X c #88552D",
"5X c #8D572D",
"6X c #8E592B",
"7X c #8D592D",
"8X c #8F592D",
"9X c #90592D",
"0X c #905B2D",
"qX c #8A5930",
"wX c #8B5930",
"eX c #8C5930",
"rX c #8D5930",
"tX c #8F5B30",
"yX c #8F5D32",
"uX c #905B30",
"iX c #915D30",
"pX c #935F32",
"aX c #916135",
"sX c #936335",
"dX c #956335",
"fX c #956337",
"gX c #966535",
"hX c #976735",
"jX c #976737",
"kX c #986937",
"lX c #96673A",
"zX c #97693C",
"xX c #98693A",
"cX c #9A6C3A",
"vX c #9B6C3C",
"bX c #9B6E3C",
"nX c #9B6E3E",
"mX c #9C6E3E",
"MX c #9D7343",
"NX c #9D7443",
"BX c #9E7443",
"VX c #9E7645",
"CX c #9F7645",
"ZX c #A07945",
"AX c #A58350",
"SX c #A58453",
"DX c #A78555",
"FX c None",
/* pixels */
"FXFXFXFXFXFXFXFXFXFXFXFXFXFXFXFXFXFXFXFXFXFXFXFXFXFXFXFXFXFXFXFX",
"FXFXFXFXFXFXFXFXFXFXFXFXFXFXFXFXFXFXFXFXFXFXFXFXFXFXFXFXFXFXFXFX",
"FXFXFXFXFXFXFXFXFXFXFXFXFX<XA l.' oXFXFXFXFXFXFXFXFXFXFXFXFXFXFX",
"FXFXFXFXFXFXFXFXFXFXFXFX} 7X] O w u.i A.FXFXFXFXFXFXFXFXFXFXFXFX",
"FXFXFXFXFXFXFXFXFXFXFX1 [.OX).{ #X5XtXpX+XFXFXFXFXFXFXFXFXFXFXFX",
"FXFXFXFXFXFXFXFXFXFXFX7.-X$XB.i.>XC `.@Xc FXFXFXFXFXFXFXFXFXFXFX",
"FXFXFXFXFXFXFXFXFXFXFXFX(.!.rXp.fXdXXXw FXFXFXFXFXFXFXFXFXFXFXFX",
"FXFXFXFXFXFXFXFXFXFXFXXXf zX  sX'.  j.cXi FXFXFXFXFXFXFXFXFXFXFX",
"FXFXFXFXFXFXFXFXFXFXFXbXkX& d G.lXmX;XeXjXFXFXFXFXFXFXFXFXFXFXFX",
"FXFXFXFXFXFXFXFXFXFX* u.:X,Xa.DX%X-.yXQ.3Xz FXFXFXFXFXFXFXFXFXFX",
"FXFXFXFXFXFXFXFXFX*Xk.1XMXS.#.  MX^ SXAXl.i.H.FXFXFXFXFXFXFXFXFX",
"FXFXFXFXFXFXFXFXb iX_.E qXwXNX4XBXaXD.  W %.0 FXFXFXFXFXFXFXFXFX",
"FXFXFXFXFXFXFXFX) 3Xr z.CXnXD.q ;XX z.x 2X3X}.FXFXFXFXFXFXFXFXFX",
"FXFXFXFXFXFXFXFXFX7X0X&.VXg > +.ZX$ yXG.~.Q iXFXFXFXFXFXFXFXFXFX",
"FXFXFXFXFXFXFXFXFX.X; j.vX&XW.*.  =.hXxXd./.O.FXFXFXFXFXFXFXFXFX",
"FXFXFXFXFXFXFXFXFX_ [ |.^.f.gXl.! 8X`.s.uX4.2 FXFXFXFXFXFXFXFXFX",
"FXFXFXFXFXFXFXFX~ M.N.6Xg.=Xe ( w d.9X@ @ {.U.FXFXFXFXFXFXFXFXFX",
"FXFXFXFXFXFXFXFX6 . q.0.k b.C.]., ` o.c O K.# FXFXFXFXFXFXFXFXFX",
"FXFXFXFXFXFXFXFXw.( J.8.v     ; ..l n J.G h. XFXFXFXFXFXFXFXFXFX",
"FXFXFXFXFXFXFXFXa     | m.y s n.- 9 S @ 1 @.+ FXFXFXFXFXFXFXFXFX",
"FXFXFXFXFXFXFXFXP.M R.c.y.y K Y.: B , h 5 Z.E.FXFXFXFXFXFXFXFXFX",
"FXFXFXFXFXFXFXFXFX: 3.2.;.< t 5.h m % 7 b.X.U.FXFXFXFXFXFXFXFXFX",
"FXFXFXFXFXFXFXFXFXc i U 4 FXFX:.7 FXV J L 2 T.FXFXFXFXFXFXFXFXFX",
"FXFXFXFXFXFXFXFXFXV.F.N = FXFXZ t.FX3 e.v.I.L.FXFXFXFXFXFXFXFXFX",
"FXFXFXFXFXFXFXFXFXFXo.  j FXFXu P FXFXR o ` 1.FXFXFXFXFXFXFXFXFX",
"FXFXFXFXFXFXFXFXFXFX9.D p FXFX$.& FXFXO  .h.FXFXFXFXFXFXFXFXFXFX",
"FXFXFXFXFXFXFXFXFXFXo.8 2.FXFXT : FXFXY  .>.FXFXFXFXFXFXFXFXFXFX",
"FXFXFXFXFXFXFXFXFXFXFXFXFXFXFX<.r.FXFX/ x.6.FXFXFXFXFXFXFXFXFXFX",
"FXFXFXFXFXFXFXFXFXFXFXFXFXFXFXH l FXFXFXF   FXFXFXFXFXFXFXFXFXFX",
"FXFXFXFXFXFXFXFXFXFXFXFXFXFXFX  ,.FXFXFXFXFXFXFXFXFXFXFXFXFXFXFX",
"FXFXFXFXFXFXFXFXFXFXFXFXFXFXI , FXFXFXFXFXFXFXFXFXFXFXFXFXFXFXFX",
"FXFXFXFXFXFXFXFXFXFXFXFXFXFXFXFXFXFXFXFXFXFXFXFXFXFXFXFXFXFXFXFX"
};
