/* XPM */
static char *result[] = {
/* columns rows colors chars-per-pixel */
"32 32 180 2 ",
"   c black",
".  c #341C0C",
"X  c #381C08",
"o  c #3F2007",
"O  c #39220D",
"+  c #511C02",
"@  c #4E2007",
"#  c #45220B",
"$  c #4A250C",
"%  c #47280C",
"&  c #4C2B0D",
"*  c #532303",
"=  c #542B04",
"-  c #5A2B05",
";  c #532B0B",
":  c #592F0A",
">  c #53320C",
",  c #5C350F",
"<  c #5D3B0F",
"1  c #452410",
"2  c #4A2D14",
"3  c #512D10",
"4  c #582F10",
"5  c #4E301C",
"6  c #563214",
"7  c #5C3513",
"8  c #5D3C15",
"9  c #51361C",
"0  c #5B361B",
"q  c #5C3A1A",
"w  c #632601",
"e  c #632C04",
"r  c #653106",
"t  c #6A3604",
"y  c #63360D",
"u  c #683708",
"i  c #613B0E",
"p  c #6C3F0F",
"a  c #773D05",
"s  c #733D0D",
"d  c #623210",
"f  c #633B14",
"g  c #6C3F13",
"h  c #643719",
"j  c #633D1B",
"k  c #693E1A",
"l  c #723F13",
"z  c #5E3F29",
"x  c #5F421F",
"c  c #7B450B",
"v  c #624417",
"b  c #6B4216",
"n  c #64421C",
"m  c #6F441B",
"M  c #6A491D",
"N  c #724214",
"B  c #7C4613",
"V  c #774913",
"C  c #794916",
"Z  c #73461C",
"A  c #7A471D",
"S  c #734A1C",
"D  c #7B4B1D",
"F  c #5B4B39",
"G  c #644120",
"H  c #6C4421",
"J  c #6F4C27",
"K  c #6B4C29",
"L  c #7A4F22",
"P  c #6E512C",
"I  c #775022",
"U  c #7C5024",
"Y  c #76532E",
"T  c #7C5129",
"R  c #7C592F",
"E  c #6B5437",
"W  c #745633",
"Q  c #7B5B35",
"!  c #755438",
"~  c #785739",
"^  c #7A5E3D",
"/  c #7A5432",
"(  c #7C643D",
")  c #7C6236",
"_  c #6C5A43",
"`  c #7F6347",
"'  c #7D7257",
"]  c #804105",
"[  c #884000",
"{  c #824108",
"}  c #904603",
"|  c #964904",
" . c #8B550E",
".. c #9F5505",
"X. c #965A0B",
"o. c #834D1E",
"O. c #8B4C1E",
"+. c #8C5414",
"@. c #82531E",
"#. c #835314",
"$. c #95571A",
"%. c #945B1C",
"&. c #99591B",
"*. c #A54D00",
"=. c #AD5F0B",
"-. c #A35202",
";. c #B15E0E",
":. c #A55F13",
">. c #B06001",
",. c #B06009",
"<. c #A96012",
"1. c #825325",
"2. c #835820",
"3. c #83572F",
"4. c #845D2C",
"5. c #8F5E2C",
"6. c #8B5225",
"7. c #945E24",
"8. c #815C36",
"9. c #885C31",
"0. c #8C6123",
"q. c #95632E",
"w. c #96682C",
"e. c #846134",
"r. c #8F6130",
"t. c #8F6C36",
"y. c #82613B",
"u. c #8A633B",
"i. c #8C6C3E",
"p. c #926933",
"a. c #986F34",
"s. c #976C3E",
"d. c #9A6E3C",
"f. c #926433",
"g. c #A56C2E",
"h. c #B06E21",
"j. c #B5792A",
"k. c #B17739",
"l. c #806243",
"z. c #866940",
"x. c #8C6D44",
"c. c #8A6446",
"v. c #976F43",
"b. c #957344",
"n. c #9B7546",
"m. c #9E7F45",
"M. c #977749",
"N. c #9A754A",
"B. c #967849",
"V. c #9C7C4D",
"C. c #9A7C51",
"Z. c #A17F44",
"A. c #A27D4B",
"S. c #A77A52",
"D. c #C08633",
"F. c #9B8152",
"G. c #AB8447",
"H. c #A4814D",
"J. c #AC844F",
"K. c #B18147",
"L. c #B9864E",
"P. c #A48056",
"I. c #A98250",
"U. c #A38A54",
"Y. c #B38955",
"T. c #BA8F51",
"R. c #B68E5F",
"E. c #B79053",
"W. c #B2925B",
"Q. c #BF965C",
"!. c #A68E65",
"~. c #AE9465",
"^. c #BF9364",
"/. c #C28A41",
"(. c #C08C48",
"). c #C3995A",
"_. c #C9A16C",
"`. c #C8A369",
"'. c #D2AC65",
"]. c None",
/* pixels */
"].].].].].].].].].].].].].].].W.].].].].].].].].].].].].].].].].",
"].].].].].].].].].].].].].].s.o.o.].].].].].].].].].].].].].].].",
"].].].].].].].].].].].].].].A.  A ).].].].].].].].].].].].].].].",
"].].].].].].].].].].].].].].J.  V A.].].].].].].].].].].].].].].",
"].].].].].].].].].].].].].].T.a   W.].].].].].].].].].].].].].].",
"].].].].].' N.].].].].].].].A.c Z M.].].].].].].].].].].].].].].",
"].].].]._ f.:./.].].].].].].d.g g G.].].].].].].K.q.! _ ].].].].",
"].].].].s.=.-.0.a.x.x.F.~.).D $ & 3._.].U.C.H.H.%.*.$.E ].].].].",
"].].].].g.X.o.b B j v ) E J.j & 6 f Q.b.( n 7 S N } -.J ].].].].",
"].].].].].A.e.H U     d m 2 q # # C % K     , 4 k D 1.5.].].].].",
"].].].].].].].Q S Z   v h S b     B f Z f q Z   K P.].].].].].].",
"].].].].].].].].n.m C k H 3 # & =   O j ; l f W i.].].].].].].].",
"].].].].].].].].].~ 8 & q h 6 e ; ; 0 j q k 8._.].].].].].].].].",
"].].].].].].].].].C.V.b &     # X 7   % x Q N.].].].].].].].].].",
"].].].].].].].].].y./   I 7.  w +   S V & z c.].].].].].].].].].",
"].].].].].].].].).Y.U D   @.c . . u l b s   n.`.].].].].].].].].",
"].].].].].].].].S.i.N   o.: b > > r   m d   y.( ].].].].].].].].",
"].].].].].].].].x.` I 6 f   r     f     6 j b.z.].].].].].].].].",
"].].].].].].].].'.W f > @.+.t : > * &.Z . % 3.Y.].].].].].].].].",
"].].].].].].].^.x.O Y Z m   ; @ X & 1 ; > 6.0 W.].].].].].].].].",
"].].].].].].!.u.L 2.; 7 g   s X O c , V f   D M I.].].].].].].].",
"].].].].H.j.5.$.    #.f # n = e w * b > , @.  3 S p.D.(.].].].].",
"].].].].4.>.#.Z 1.w.  U q 2 $   = r 7 f L   j S b  .=.Q ].].].].",
"].].].].! h.:.U u.S.J.e.b.x -   = : v / z.S.f.I D | ,.  ].].].].",
"].].].].].) k.].].].].].p.T   e t u 1.w.E.].].A.4.;.q.F ].].].].",
"].].].].].].].].].].].].i O.7.0.Z 0.S 8 ].].].].].].].].].].].].",
"].].].].].].].].].].].].Q 5 S H j h q r.].].].].].].].].].].].].",
"].].].].].].].].].].].].` 9 n B @.< 0 b.].].].].].].].].].].].].",
"].].].].].].].].].].].].` 7 d [ { i m M.].].].].].].].].].].].].",
"].].].].].].].].].].].].].W s * e g Q ].].].].].].].].].].].].].",
"].].].].].].].].].].].].].].Y K W G ].].].].].].].].].].].].].].",
"].].].].].].].].].].].].].].].L.J.].].].].].].].].].].].].].].]."
};
