/* XPM */
static char *result[] = {
/* columns rows colors chars-per-pixel */
"32 32 180 2 ",
"   c black",
".  c #341C0C",
"X  c #381C08",
"o  c #3F2007",
"O  c #39220D",
"+  c #511C02",
"@  c #4E2007",
"#  c #45220B",
"$  c #4A250C",
"%  c #47280C",
"&  c #4C2B0D",
"*  c #532303",
"=  c #542B04",
"-  c #5A2B05",
";  c #532B0B",
":  c #592F0A",
">  c #53320C",
",  c #5C350F",
"<  c #5D3B0F",
"1  c #452410",
"2  c #4A2D14",
"3  c #512D10",
"4  c #582F10",
"5  c #4E301C",
"6  c #563214",
"7  c #5C3513",
"8  c #5D3C15",
"9  c #51361C",
"0  c #5B361B",
"q  c #5C3A1A",
"w  c #632601",
"e  c #632C04",
"r  c #653106",
"t  c #6A3604",
"y  c #63360D",
"u  c #683708",
"i  c #613B0E",
"p  c #6C3F0F",
"a  c #773D05",
"s  c #733D0D",
"d  c #623210",
"f  c #633B14",
"g  c #6C3F13",
"h  c #643719",
"j  c #633D1B",
"k  c #693E1A",
"l  c #723F13",
"z  c #5E3F29",
"x  c #5F421F",
"c  c #7B450B",
"v  c #624417",
"b  c #6B4216",
"n  c #64421C",
"m  c #6F441B",
"M  c #6A491D",
"N  c #724214",
"B  c #7C4613",
"V  c #774913",
"C  c #794916",
"Z  c #73461C",
"A  c #7A471D",
"S  c #734A1C",
"D  c #7B4B1D",
"F  c #5B4B39",
"G  c #644120",
"H  c #6C4421",
"J  c #6F4C27",
"K  c #6B4C29",
"L  c #7A4F22",
"P  c #6E512C",
"I  c #775022",
"U  c #7C5024",
"Y  c #76532E",
"T  c #7C5129",
"R  c #7C592F",
"E  c #6B5437",
"W  c #745633",
"Q  c #7B5B35",
"!  c #755438",
"~  c #785739",
"^  c #7A5E3D",
"/  c #7A5432",
"(  c #7C643D",
")  c #7C6236",
"_  c #6C5A43",
"`  c #7F6347",
"'  c #7D7257",
"]  c #804105",
"[  c #884000",
"{  c #824108",
"}  c #904603",
"|  c #964904",
" . c #8B550E",
".. c #9F5505",
"X. c #965A0B",
"o. c #834D1E",
"O. c #8B4C1E",
"+. c #8C5414",
"@. c #82531E",
"#. c #835314",
"$. c #95571A",
"%. c #945B1C",
"&. c #99591B",
"*. c #A54D00",
"=. c #AD5F0B",
"-. c #A35202",
";. c #B15E0E",
":. c #A55F13",
">. c #B06001",
",. c #B06009",
"<. c #A96012",
"1. c #825325",
"2. c #835820",
"3. c #83572F",
"4. c #845D2C",
"5. c #8F5E2C",
"6. c #8B5225",
"7. c #945E24",
"8. c #815C36",
"9. c #885C31",
"0. c #8C6123",
"q. c #95632E",
"w. c #96682C",
"e. c #846134",
"r. c #8F6130",
"t. c #8F6C36",
"y. c #82613B",
"u. c #8A633B",
"i. c #8C6C3E",
"p. c #926933",
"a. c #986F34",
"s. c #976C3E",
"d. c #9A6E3C",
"f. c #926433",
"g. c #A56C2E",
"h. c #B06E21",
"j. c #B5792A",
"k. c #B17739",
"l. c #806243",
"z. c #866940",
"x. c #8C6D44",
"c. c #8A6446",
"v. c #976F43",
"b. c #957344",
"n. c #9B7546",
"m. c #9E7F45",
"M. c #977749",
"N. c #9A754A",
"B. c #967849",
"V. c #9C7C4D",
"C. c #9A7C51",
"Z. c #A17F44",
"A. c #A27D4B",
"S. c #A77A52",
"D. c #C08633",
"F. c #9B8152",
"G. c #AB8447",
"H. c #A4814D",
"J. c #AC844F",
"K. c #B18147",
"L. c #B9864E",
"P. c #A48056",
"I. c #A98250",
"U. c #A38A54",
"Y. c #B38955",
"T. c #BA8F51",
"R. c #B68E5F",
"E. c #B79053",
"W. c #B2925B",
"Q. c #BF965C",
"!. c #A68E65",
"~. c #AE9465",
"^. c #BF9364",
"/. c #C28A41",
"(. c #C08C48",
"). c #C3995A",
"_. c #C9A16C",
"`. c #C8A369",
"'. c #D2AC65",
"]. c None",
/* pixels */
"].].].].].].].].].].].].].].].I.L.].].].].].].].].].].].].].].].",
"].].].].].].].].].].].].].].x Y K Y ].].].].].].].].].].].].].].",
"].].].].].].].].].].].].].8.l e * s W ].].].].].].].].].].].].].",
"].].].].].].].].].].].].B.H y { [ 7 0 ^ ].].].].].].].].].].].].",
"].].].].].].].].].].].].b.0 < @.B b 9 ` ].].].].].].].].].].].].",
"].].].].].].].].].].].].r.0 7 j H A 5 Q ].].].].].].].].].].].].",
"].].].].].].].].].].].].x V 7.Z 4.%.O.i ].].].].].].].].].].].].",
"].].].].F q.;.9.n.].].E.q.2.y t r   T p.].].].].].k.( ].].].].].",
"].].].].  ,.| C A p.C.z.R v : -   - q b.u.J.S.u.T :.<.^ ].].].].",
"].].].].) =. .b D j   T f y r ;   $ 2 q I   w.@.m +.>.4.].].].].",
"].].].].(.D.p.S >   @.d > b * e e : G # k #.    $.5.j.H.].].].].",
"].].].].].].].H.M D   d V > c O o s   N 6 = @.I u.!.].].].].].].",
"].].].].].].].].W.0 6.> ; % & X @ ;   k Z P O x.^.].].].].].].].",
"].].].].].].].].Y.8.% . Z &.@ > = u +.@.> f Y '.].].].].].].].].",
"].].].].].].].].i.v.j 6     d     r   f q A ` x.].].].].].].].].",
"].].].].].].].].( ^   d m   u 3 > g : @.  Z i.P.].].].].].].].].",
"].].].].].].].].`.b.  s b N u . . c @.  L U Y.).].].].].].].].].",
"].].].].].].].].].c.z 2 V A   + w   7.I   Y y.].].].].].].].].].",
"].].].].].].].].].N.Q G &   , . #     & b V.C.].].].].].].].].].",
"].].].].].].].].`.u.j 8 j 0 & : e 6 h q & 7 ~ ].].].].].].].].].",
"].].].].].].].x.W f l 3 8 O   = & # 2 Z k C m V.].].].].].].].].",
"].].].].].].P.K   b h f Z f B     Z A f f   m S Q ].].].].].].].",
"].].].].5.1.D j : 7     K $ C # # 0 2 n f     U H e.H.].].].].].",
"].].].].J -.} l I 7 n ( b.Q.j 4 ; j I.E ) v j B b o.X.g.].].].].",
"].].].].E $.*.%.Z.H.V.U.]._.4.& $ D ).~.C.x.x.a.0...=.s.].].].].",
"].].].]._ ! q.K.].].].].].].G.g b d.].].].].].]./.<.f._ ].].].].",
"].].].].].].].].].].].].].].B.Z B Z.].].].].].].].N.' ].].].].].",
"].].].].].].].].].].].].].].W.  a T.].].].].].].].].].].].].].].",
"].].].].].].].].].].].].].].A.V   J.].].].].].].].].].].].].].].",
"].].].].].].].].].].].].].].).A   A.].].].].].].].].].].].].].].",
"].].].].].].].].].].].].].].].D o.d.].].].].].].].].].].].].].].",
"].].].].].].].].].].].].].].].].R.].].].].].].].].].].].].].].]."
};
