/* XPM */
static char *result[] = {
/* columns rows colors chars-per-pixel */
"32 32 180 2 ",
"   c black",
".  c #341C0C",
"X  c #381C08",
"o  c #3F2007",
"O  c #39220D",
"+  c #511C02",
"@  c #4E2007",
"#  c #45220B",
"$  c #4A250C",
"%  c #47280C",
"&  c #4C2B0D",
"*  c #532303",
"=  c #542B04",
"-  c #5A2B05",
";  c #532B0B",
":  c #592F0A",
">  c #53320C",
",  c #5C350F",
"<  c #5D3B0F",
"1  c #452410",
"2  c #4A2D14",
"3  c #512D10",
"4  c #582F10",
"5  c #4E301C",
"6  c #563214",
"7  c #5C3513",
"8  c #5D3C15",
"9  c #51361C",
"0  c #5B361B",
"q  c #5C3A1A",
"w  c #632601",
"e  c #632C04",
"r  c #653106",
"t  c #6A3604",
"y  c #63360D",
"u  c #683708",
"i  c #613B0E",
"p  c #6C3F0F",
"a  c #773D05",
"s  c #733D0D",
"d  c #623210",
"f  c #633B14",
"g  c #6C3F13",
"h  c #643719",
"j  c #633D1B",
"k  c #693E1A",
"l  c #723F13",
"z  c #5E3F29",
"x  c #5F421F",
"c  c #7B450B",
"v  c #624417",
"b  c #6B4216",
"n  c #64421C",
"m  c #6F441B",
"M  c #6A491D",
"N  c #724214",
"B  c #7C4613",
"V  c #774913",
"C  c #794916",
"Z  c #73461C",
"A  c #7A471D",
"S  c #734A1C",
"D  c #7B4B1D",
"F  c #5B4B39",
"G  c #644120",
"H  c #6C4421",
"J  c #6F4C27",
"K  c #6B4C29",
"L  c #7A4F22",
"P  c #6E512C",
"I  c #775022",
"U  c #7C5024",
"Y  c #76532E",
"T  c #7C5129",
"R  c #7C592F",
"E  c #6B5437",
"W  c #745633",
"Q  c #7B5B35",
"!  c #755438",
"~  c #785739",
"^  c #7A5E3D",
"/  c #7A5432",
"(  c #7C643D",
")  c #7C6236",
"_  c #6C5A43",
"`  c #7F6347",
"'  c #7D7257",
"]  c #804105",
"[  c #884000",
"{  c #824108",
"}  c #904603",
"|  c #964904",
" . c #8B550E",
".. c #9F5505",
"X. c #965A0B",
"o. c #834D1E",
"O. c #8B4C1E",
"+. c #8C5414",
"@. c #82531E",
"#. c #835314",
"$. c #95571A",
"%. c #945B1C",
"&. c #99591B",
"*. c #A54D00",
"=. c #AD5F0B",
"-. c #A35202",
";. c #B15E0E",
":. c #A55F13",
">. c #B06001",
",. c #B06009",
"<. c #A96012",
"1. c #825325",
"2. c #835820",
"3. c #83572F",
"4. c #845D2C",
"5. c #8F5E2C",
"6. c #8B5225",
"7. c #945E24",
"8. c #815C36",
"9. c #885C31",
"0. c #8C6123",
"q. c #95632E",
"w. c #96682C",
"e. c #846134",
"r. c #8F6130",
"t. c #8F6C36",
"y. c #82613B",
"u. c #8A633B",
"i. c #8C6C3E",
"p. c #926933",
"a. c #986F34",
"s. c #976C3E",
"d. c #9A6E3C",
"f. c #926433",
"g. c #A56C2E",
"h. c #B06E21",
"j. c #B5792A",
"k. c #B17739",
"l. c #806243",
"z. c #866940",
"x. c #8C6D44",
"c. c #8A6446",
"v. c #976F43",
"b. c #957344",
"n. c #9B7546",
"m. c #9E7F45",
"M. c #977749",
"N. c #9A754A",
"B. c #967849",
"V. c #9C7C4D",
"C. c #9A7C51",
"Z. c #A17F44",
"A. c #A27D4B",
"S. c #A77A52",
"D. c #C08633",
"F. c #9B8152",
"G. c #AB8447",
"H. c #A4814D",
"J. c #AC844F",
"K. c #B18147",
"L. c #B9864E",
"P. c #A48056",
"I. c #A98250",
"U. c #A38A54",
"Y. c #B38955",
"T. c #BA8F51",
"R. c #B68E5F",
"E. c #B79053",
"W. c #B2925B",
"Q. c #BF965C",
"!. c #A68E65",
"~. c #AE9465",
"^. c #BF9364",
"/. c #C28A41",
"(. c #C08C48",
"). c #C3995A",
"_. c #C9A16C",
"`. c #C8A369",
"'. c #D2AC65",
"]. c None",
/* pixels */
"].].].].].].].].].].].].].].].].].].].].].].].].].].].].].].].].",
"].].].].].].].].].].].].].].].].].].].].].].].].].].].].].].].].",
"].].].].].].].].].].].].].].].].].].].].].].].].].].].].].].].].",
"].].].].].].].].].].].].].].].].].].].].].].].].].].].].].].].].",
"].].].].].]._ E J 5.].].].].].].].].].].].(.R   F ].].].].].].].",
"].].].].].].! $.-.1.].].].].].].].].].].].D.=.;.q.].].].].].].].",
"].].].].].].f.*.} D S.].].].].].].].].].].t. .| ,.].].].].].].].",
"].].].].].].K.%.N j P s.].].].].].].].].I.S b D 9.].].].].].].].",
"].].].].].].].H.S >   W _.].].`.( i.Y.W.M 3 L L N.].].].].].].].",
"].].].].].].].H.> 7 Z f 8.M.c.b.( b.3.0 A   h p.].].].].].].].].",
"].].].].].].].V.n   0 l G Q z     q % 6.  @.  V.].].].].].].].].",
"].].].].].].].U.(   f ; 8 G $ s d 6 . > d y L i.E.].].].].].].].",
"].].].].].].].].n.K Z j j % V b H   S ; C > f Q w.x r.b.B.].].].",
"].].].].].].]._.Q.$ f O 0   S N     &.1 > b 7 v @.S 7 0 H 8.].].",
"].].).A.W.M.G.3.8 C B   & 7   u r y * & ] * u - y 0.0 , f l n ].",
"].D A V   Z g & 6 $   = = O + . >   > X O w ; - t Z j @.] e Y I.",
"R.o.    a B b $ & $   2 r # w . 6   = @ X e     r 4.H B [ * J L.",
"].d.H.J.T.Z.d.A j q N # 3     c b r t ; a ; & -   %.S v 7 l Y ].",
"].].].].].].].).I.2 S 3 h   7.@.>   +.    G 2 q 1.O.5 9 7 W ].].",
"].].].].].].].~.P H f H q & U   O.7 @.m N # q b.p.f Q ` ^ ].].].",
"].].].].].].].F.( d v k & b   D   q > Z > k L e.].].].].].].].].",
"].].].].].].].x.v     C 8 V.W L N S f P ; #.  J.].].].].].].].].",
"].].].].].].].x.j   m m ~ C.y.Y.x.` R O @.  w.S.].].].].].].].].",
"].].].].].].].a.B L S A.].].].).P.x.'.x.U   @.u.].].].].].].].].",
"].].].].].]./.0.b m Q ].].].].].].].].^.u.$.Z Y ].].].].].].].].",
"].].].].].N.<...o.e.].].].].].].].].].].!.4.+.<.k.].].].].].].].",
"].].].].].' f.=.X.A.].].].].].].].].].].].j.>.h.^ ].].].].].].].",
"].].].].].]._ d.g.].].].].].].].].].].].].Z.4.! ].].].].].].].].",
"].].].].].].].].].].].].].].].].].].].].].].].].].].].].].].].].",
"].].].].].].].].].].].].].].].].].].].].].].].].].].].].].].].].",
"].].].].].].].].].].].].].].].].].].].].].].].].].].].].].].].].",
"].].].].].].].].].].].].].].].].].].].].].].].].].].].].].].].]."
};
