/* XPM */
static char *result[] = {
/* columns rows colors chars-per-pixel */
"32 48 37 1 ",
"  c #181313",
". c #1B1414",
"X c #1A1515",
"o c #1B1515",
"O c #1C1616",
"+ c #1D1616",
"@ c #1D1717",
"# c #1E1717",
"$ c #1E1818",
"% c #1F1818",
"& c #201818",
"* c #201919",
"= c #211919",
"- c #211A1A",
"; c #221A1A",
": c #221B1B",
"> c #231B1B",
", c #241B1B",
"< c #221C1C",
"1 c #231C1C",
"2 c #231D1D",
"3 c #241C1C",
"4 c #251C1C",
"5 c #241D1D",
"6 c #261E1E",
"7 c #2A2121",
"8 c #3D3131",
"9 c #3F3333",
"0 c #594949",
"q c #5B4B4B",
"w c #6C5959",
"e c #7B6666",
"r c #7F6969",
"t c #8A7272",
"y c #A78A8A",
"u c #DAB7B7",
"i c None",
/* pixels */
"iiiiiiiiiiiiiiiiiiiiiiiiiiiiiiii",
"iiiiiiiiiiiiiiiiiiiiiiiiiiiiiiii",
"iiiiiiiiiiiiiiiiiiiiiiiiiiiiiiii",
"iiiiiiiiiiiiiiiiiiiiiiiiiiiiiiii",
"iiiiiiiiiiiiiiiiiiiiiiiiiiiiiiii",
"iiiiiiiiiiiiiiiiiiiiiiiiiiiiiiii",
"iiiiiiiiiiiiiiiiiiiiiiiiiiiiiiii",
"iiiiiii;iiiiiiiiii-#iiiiiiiiiiii",
"iiiiiii3iiiiiiiiiii3iiiiiiiiiiii",
"iiiiiii3iiiiiiiiiii3iiiiiiiiiiii",
"ii3iiii33iiiiiiiiii3iiiiiiiiiiii",
"ii3iiii33iiiiiiiii33iiiiiiiiiiii",
"ii3iiii33iiiiiiiii33iiiiiiiiiiii",
"ii3iiii33iiiiiiiii33iiiiiiiiiiii",
"ii3iiii33iiiiiiiii33iiiiiiiiiiii",
"ii3iiii33iiiiiiiii33iiiiiiiiiiii",
"ii3iiii33iiiiiiiii33iiiiiiiiiiii",
"ii3iiii33iiiiiiiii33iiiiiiiiiiii",
"ii3iiii33iii132,ii33iiiiiiiiiiii",
"ii3iiii33i3333335i33iiiiiiiiiiii",
"ii33iiii333333333333iiiiiiiiiiii",
"ii33iiii#:33333333@iiiiiiiiiiiii",
"iii3iiii.333333333oiiiiiiiiiiiii",
"iii3iiiii13333333, iiiiiiiiiiiii",
"iii3iiiii&3333333=iiiiiiiiiiiiii",
"iii33iiiii$%333-+iiiiiiiiiiiiiii",
"iiii3iiiii3*OOO#3iiiiiiiiiiiiiii",
"iiii3iiiii3333333iiiiiiiiiiiiiii",
"iiii33iiii3333333iiiiiiiiiiiiiii",
"iiiii3iiii3333333iiiiiiiiiiiiiii",
"iiiiii3iii4333331iiiiiiiiiiiiiii",
"iiiiii33ii3333333iiiiiiiiiiiiiii",
"iiiiiii33i2333333iiiiiiiiiiiiiii",
"iiiiiiii3337wr9,3iiiiiiiiiiiiiii",
"iiiiiiiii33qtyu33iiiiiiiiiiiiiii",
"iiiiiiiiii368e033iiiiiiiiiiiiiii",
"iiiiiiiiiii33i433iiiiiiiiiiiiiii",
"iiiiiiiiiii33ii33iiiiiiiiiiiiiii",
"iiiiiiiiiii33>i33iiiiiiiiiiiiiii",
"iiiiiiiiiii53i>3,iiiiiiiiiiiiiii",
"iiiiiiiiiii33i33iiiiiiiiiiiiiiii",
"iiiiiiiiiii33i33iiiiiiiiiiiiiiii",
"iiiiiiiiiii33i23iiiiiiiiiiiiiiii",
"iiiiiiiiiii13ii3iiiiiiiiiiiiiiii",
"iiiiiiiiiiii3ii33iiiiiiiiiiiiiii",
"iiiiiiiiiiii;<i;:iiiiiiiiiiiiiii",
"iiiiiiiiiiiioiiXoiiiiiiiiiiiiiii",
"iiiiiiiiiiiiiiiiiiiiiiiiiiiiiiii"
};
