/* XPM */
static char *result[] = {
/* columns rows colors chars-per-pixel */
"32 48 68 1 ",
"  c #191313",
". c #1A1515",
"X c #1C1616",
"o c #211919",
"O c #221B1B",
"+ c #231B1B",
"@ c #241B1B",
"# c #251B1B",
"$ c #231C1C",
"% c #231D1D",
"& c #241C1C",
"* c #251C1C",
"= c #241D1D",
"- c #251D1D",
"; c #261D1D",
": c #292020",
"> c #2B2222",
", c #322626",
"< c #322929",
"1 c #322A2A",
"2 c #352C2C",
"3 c #392B2B",
"4 c #3D2F2F",
"5 c #413232",
"6 c #443535",
"7 c #483C3C",
"8 c #4E4141",
"9 c #4E4242",
"0 c #4F4242",
"q c #504343",
"w c #554848",
"e c #5D4F4F",
"r c #5E5050",
"t c #645656",
"y c #766565",
"u c #7E6D6D",
"i c #807070",
"p c #817070",
"a c #837171",
"s c #847373",
"d c #8F7E7E",
"f c #998585",
"g c #9E8A8A",
"h c #A49090",
"j c #A79292",
"k c #AB9595",
"l c #AF9A9A",
"z c #B69F9F",
"x c #B7A1A1",
"c c #BBA4A4",
"v c #BDA5A5",
"b c #C0A9A9",
"n c #C4ABAB",
"m c #C3ACAC",
"M c #C9B1B1",
"N c #CEB4B4",
"B c #CFB6B6",
"V c #D3B9B9",
"C c #D4BCBC",
"Z c #DAC0C0",
"A c #DBC1C1",
"S c #DCC2C2",
"D c #E6CACA",
"F c #E8CCCC",
"G c #EED2D2",
"H c #F1D4D4",
"J c #F4D7D7",
"K c None",
/* pixels */
"KKKKKKKKKKKKKKKKKKKKKKKKKKKKKKKK",
"KKKKKKKKKKKKKKKKKKKKKKKKKKKKKKKK",
"KKKKKKKKKKKKKKKKKKKKKKKKKKKKKKKK",
"KKKKKKKKKKKKKKKKKKKKKKKKKKKKKKKK",
"KKKKKKKKKKKKKKKKKKKKKKKKKKKKKKKK",
"KKKKKKKKKKKKKKKKKKKKKKKKKKKKKKKK",
"KKKKKKKKKKKKKKKKKKKKKKKKKKKKKKKK",
"KKKKKKKKKKKKKKKKKKKKKKKKKKKKKKKK",
"KKKKKKKKKKKKKKKKKKKKKKKKKKKKKKKK",
"KKKKKKKKKKKKKKKKKKKKKKKKKKKKKKKK",
"KKKKKKKKKKKKKKKKKKKKKKKKKKKKKKKK",
"KKKKKKKKKKKKKKKKKKKKKKKKKKKKKKKK",
"KKKKKKKKKKKKKKKKKKKKKKKKKKKKKKKK",
"KKKKKKKKKKKKKKKKKKKKKKKKKKKKKKKK",
"KKKKKKKKKKKKKKKKKKKKKKKKKKKKKKKK",
"KKKKKKKKKKKKKKKKKKKKKKKKKKKKKKKK",
"KKKKKKKKKKKKKKKKKKKKKKKKKKKKKKKK",
"KKKKKKKKKKKKKKKKKKKKKKKKKKKKKKKK",
"KKKKKKKKKKKKKKKKKKKKKKKKKKKKKKKK",
"KKKKKKKKKKKKKKKKKKKKKKKKKKKKKKKK",
"KKKKKKKKKKKKKKK&&&&&&KKKKKKKKKKK",
"KKKKKKKKKKKKKKK&&&&&&&KKKKKKKKKK",
"KKKKKKKKKKKKKK#&&&&&&&KKKKKKKKKK",
"KKKKKKKKKKKKK6&&&&&&&&,3KKKKKKKK",
"KKKKKKKK&&KKK5&&&&&&&&4KKKK&=KKK",
"KKKKKKKK=&KKKK-BSf;kbrKKKKK&@KKK",
"KKKKKKKKK&KKKKKzas9dyq&KKKK&KKKK",
"KKKKKKKKK&KKK#&&tmhlp&&&KKK&KKKK",
"KKKKKKKKK&&KK&*&CgixG&#&*K+&KKKK",
"KKKKKKKKK&@*&*K&ZJJJD&K&&&&&KKKK",
"KKKKKKK&K&&&KKK*MJJJV*KKK&&&KKKK",
"KKKKKK&KK$&KKKK&vJJJn&KKKK@&KKKK",
"KKKKK&KKKKKKKKK%nJJJN&KKKKKKKKKK",
"KKKKK&KKKKKKKKK&uFJJc&KKKKKKKKKK",
"KKKKK&KKKKKKKK&&&7HA>&KKKKKKKKKK",
"KKKKK&KKKKKKKK*&&<j2&&&KKKKKKKKK",
"KKKKKK&=KKKKKK&&081@&:weKKKKKKKK",
"KKKKKKK=&&&&$@KK&&KKK&&&KKKKKKKK",
"KKKKKKKKKKKKKKKK&&KKK&&$KKKKKKKK",
"KKKKKKKKKKKKKKKK&&KKK@&KKKKKKKKK",
"KKKKKKKKKKKKKKKK&&KKK#&KKKKKKKKK",
"KKKKKKKKKKKKKKKK&@KKK@&KKKKKKKKK",
"KKKKKKKKKKKKKKKK&$KKKK&KKKKKKKKK",
"KKKKKKKKKKKKKKKK%&KKKK&@KKKKKKKK",
"KKKKKKKKKKKKKKKKK&KKKKOoKKKKKKKK",
"KKKKKKKKKKKKKKKKK KKKK.XKKKKKKKK",
"KKKKKKKKKKKKKKKKKKKKKKKKKKKKKKKK",
"KKKKKKKKKKKKKKKKKKKKKKKKKKKKKKKK"
};
