/* XPM */
static char *result[] = {
/* columns rows colors chars-per-pixel */
"32 48 33 1 ",
"  c #120E0E",
". c #181212",
"X c #191313",
"o c #1A1414",
"O c #1B1414",
"+ c #1C1515",
"@ c #1C1616",
"# c #1D1616",
"$ c #1D1717",
"% c #1E1717",
"& c #1F1818",
"* c #201919",
"= c #211919",
"- c #201A1A",
"; c #221B1B",
": c #231B1B",
"> c #241B1B",
", c #251B1B",
"< c #231C1C",
"1 c #241C1C",
"2 c #251C1C",
"3 c #241D1D",
"4 c #2F2626",
"5 c #382C2C",
"6 c #392E2E",
"7 c #4A3B3B",
"8 c #624F4F",
"9 c #AB8E8E",
"0 c #AF9191",
"q c #B49696",
"w c #FDD3D3",
"e c #FED4D4",
"r c None",
/* pixels */
"rrrrrrrrrrrrrrrrrrrrrrrrrrrrrrrr",
"rrrrrrrrrrrrrrrrrrrrrrrrrrrrrrrr",
"rrrrrrrrrrrrrrrrrrrrrrrrrrrrrrrr",
"rrrrrrrrrrrrrrrrrrrrrrrrrrrrrrrr",
"rrrrrrrrrrrrrrrrrrrrrrrrrrrrrrrr",
"rrrrrrrrrrrrrrrrrrrrrrrrrrrrrrrr",
"rrrrrrrrrrrrrrrrrrrrrrrrrrrrrrrr",
"rrrrrrrrrrrrrrrrrrrrrrrrrrrrrrrr",
"rrrrrrrrrrrrrrrrrrrrrrrrrrrrrrrr",
"rrrrrrrrrrrrrrrrrrrrrrrrrrrrrrrr",
"rrrrrrrrrrrrrrrrrrrrrrrrrrrrrrrr",
"rrrrrrrrrrrrrrrrrrrrrrrrrrrrrrrr",
"rrrrrrrrrrrrrrrrrrrrrrrrrrrrrrrr",
"rrrrrrrrrrrrrrrrrrrrrrrrrrrrrrrr",
"rrrrrrrrrrrrrrrrrrrrrrrrrrrrrrrr",
"rrrrrrrrrrrrrrrrrrrrrrrrrrrrrrrr",
"rrrrrrrrrrrrrrrrrrrrrrrrrrrrrrrr",
"rrrrrrrrrrrrrrrrrrrrrrrrrrrrrrrr",
"rrrrrrrrrrr111>1rrrrrrrrrrrrrrrr",
"rrrrrrrrrr3111111rrrrrrrrrrrrrrr",
"rrrrrrrrrr1111111rrrrrrrrrrrrrrr",
"rrrrrrrrr-1111111; rrrrrrrrrrrrr",
"rrrrrrrr.:11111111Xrrrrrrrrrrrrr",
"rrrrrrrrr&1111111=rrrrrrrrrrrrrr",
"rrrrrrrrrr:11111:rrrrrrrrrrrrrrr",
"rrrrrrrrrr*+111%%1rrrrrrrrrrrrrr",
"rrrrrrrrr11:@$#=111rrrrrrrrrrrrr",
"rrrrrrrrr1311111111rrrrrrrrrrrrr",
"rrrrrrrr11<111111r11rrrrrrrrrrrr",
"rrrrrrrr1,r111113rr1<rrrrrrrrrrr",
"rrrrrrr11rr111111rr11rrrrrrrrrrr",
"rrrrrrr31r2111111rr11rrrrrrrrrrr",
"rrrrrrr11r1115611rr12rrrrrrrrrrr",
"rrrrrrrr1r310ew81rr1>rrrrrrrrrrr",
"rrrrrrrr1rr197q41rr1<rrrrrrrrrrr",
"rrrrrrrr1rr11111<rr1:rrrrrrrrrrr",
"rrrrrrrr1rr111r11rr11rrrrrrrrrrr",
"rrrrrrrr1rrr11113rr<>rrrrrrrrrrr",
"rrrr1rrr1rr11121,rrrrrrrrrrrrrrr",
"rrr1rrrrrr1<1131rrrrrrrrrrrrrrrr",
"rr<rrrrrrr111r11rrrrrrrrrrrrrrrr",
"rr<,rrrr>3r31r11rrrrrrrrrrrrrrrr",
"rrrr1111rrrr1r12rrrrrrrrrrrrrrrr",
"rrrrrrrrrrrr1r11rrrrrrrrrrrrrrrr",
"rrrrrrrrrrrr-rr1rrrrrrrrrrrrrrrr",
"rrrrrrrrrrrrorrOrrrrrrrrrrrrrrrr",
"rrrrrrrrrrrrrrrrrrrrrrrrrrrrrrrr",
"rrrrrrrrrrrrrrrrrrrrrrrrrrrrrrrr"
};
