/* XPM */
static char *result[] = {
/* columns rows colors chars-per-pixel */
"32 48 47 1 ",
"  c #191515",
". c #1B1515",
"X c #1D1616",
"o c #1E1717",
"O c #211A1A",
"+ c #231B1B",
"@ c #241B1B",
"# c #251B1B",
"$ c #231C1C",
"% c #231D1D",
"& c #241C1C",
"* c #251C1C",
"= c #241D1D",
"- c #251D1D",
"; c #261D1D",
": c #261E1E",
"> c #271E1E",
", c #2A2222",
"< c #2C2222",
"1 c #2D2424",
"2 c #2F2424",
"3 c #3B2D2D",
"4 c #3D3333",
"5 c #423737",
"6 c #4A3E3E",
"7 c #514545",
"8 c #554848",
"9 c #584B4B",
"0 c #635454",
"q c #6C5353",
"w c #6B5C5C",
"e c #6C5E5E",
"r c #716262",
"t c #7D6D6D",
"y c #7E6D6D",
"u c #806E6E",
"i c #917E7E",
"p c #978383",
"a c #9C8888",
"s c #AA9696",
"d c #AF9898",
"f c #C7AEAE",
"g c #DEC3C3",
"h c #E2C8C8",
"j c #EBD0D0",
"k c #F4D7D7",
"l c None",
/* pixels */
"llllllllllllllllllllllllllllllll",
"llllllllllllllllllllllllllllllll",
"llllllllllllllllllllllllllllllll",
"llllllllllllllllllllllllllllllll",
"llllllllllllllllllllllllllllllll",
"llllllllllllllllllllllllllllllll",
"llllllllllllllllllllllllllllllll",
"llllllllllllllllllllllllllllllll",
"llllllllllllllllllllllllllllllll",
"llllllllllllllllllllllllllllllll",
"llllllllllllllllllllllllllllllll",
"llllllllllllllllllllllllllllllll",
"llllllllllllllllllllllllllllllll",
"llllllllllllllllllllllllllllllll",
"llllllllllllllllllllllllllllllll",
"llllllllllllllllllllllllllllllll",
"llllllllllllllllllllllllllllllll",
"lllllllllllllllll=&&&&llllllllll",
"llllllllllllllll%&&&&&&&llllllll",
"llllllllllllllll&&&&&&&&llllllll",
"lllllllllllllll$&+3<&&&&&lllllll",
"llllllllllllllll&;q<&&&&&lllllll",
"llllllllllllllll&$2+&-w&&lllllll",
"llllllllllllllll&&&&&1p:5lllllll",
"llllllllllllllll$&&&&&ehslllllll",
"lllllllllllllll#&&&8>&atllllllll",
"llllllllllllll$&&&&ujlllllllllll",
"lllllllllllll&&&&&&7klllllllllll",
"lllllllllllll&&l&&,-glllllllllll",
"llllllllllll=&ll&&4&alllllllllll",
"llllllllllll&&ll&&0&9lllllllllll",
"llllllllllll&ll&&&i6>lllllllllll",
"llllllllllll&ll@&&df;&llllllllll",
"lllllllllll&$l@&&&ryl&&lllllllll",
"llllllllll&&ll&&&&&&@l&&llllllll",
"llllllllll=&l&&&&&&&&=l=@lllllll",
"lllll=llllll&&&&&ll&&&&l&&llllll",
"llll&lllllll&l&&#lll&&&ll&&lllll",
"lll&llllll-&l&&&lllll&#lllllllll",
"llll$llll&@ll&&lllll=&llllllllll",
"lllll$&@&#ll&&llllll&&llllllllll",
"lllllllllll$&lllllll*&llllllllll",
"lllllllllll&llllllll&&llllllllll",
"lllllllllll&lllllllll&llllllllll",
"llllllllllXOlllllllllollllllllll",
"llllllllll llllllllll.llllllllll",
"llllllllllllllllllllllllllllllll",
"llllllllllllllllllllllllllllllll"
};
