/* XPM */
static char *result[] = {
/* columns rows colors chars-per-pixel */
"32 48 52 1 ",
"  c #1B1515",
". c #1C1616",
"X c #1E1717",
"o c #1E1818",
"O c #221A1A",
"+ c #231B1B",
"@ c #241B1B",
"# c #251B1B",
"$ c #231C1C",
"% c #231D1D",
"& c #241C1C",
"* c #251C1C",
"= c #241D1D",
"- c #251D1D",
"; c #271F1F",
": c #281F1F",
"> c #2A2020",
", c #2E2323",
"< c #2E2626",
"1 c #352B2B",
"2 c #3A3030",
"3 c #3C3232",
"4 c #3F3434",
"5 c #413636",
"6 c #463B3B",
"7 c #4C4040",
"8 c #564343",
"9 c #584545",
"0 c #5F5252",
"q c #645555",
"w c #655858",
"e c #6C5C5C",
"r c #766666",
"t c #816F6F",
"y c #827070",
"u c #877575",
"i c #8E7B7B",
"p c #907C7C",
"a c #907F7F",
"s c #948181",
"d c #968282",
"f c #9B8686",
"g c #A38E8E",
"h c #A79393",
"j c #A99393",
"k c #C4ACAC",
"l c #D4BBBB",
"z c #E8CCCC",
"x c #E9CDCD",
"c c #F2D6D6",
"v c #F4D7D7",
"b c None",
/* pixels */
"bbbbbbbbbbbbbbbbbbbbbbbbbbbbbbbb",
"bbbbbbbbbbbbbbbbbbbbbbbbbbbbbbbb",
"bbbbbbbbbbbbbbbbbbbbbbbbbbbbbbbb",
"bbbbbbbbbbbbbbbbbbbbbbbbbbbbbbbb",
"bbbbbbbbbbbbbbbbbbbbbbbbbbbbbbbb",
"bbbbbbbbbbbbbbbbbbbbbbbbbbbbbbbb",
"bbbbbbbbbbbbbbbbbbbbbbbbbbbbbbbb",
"bbbbbbbbbbbbbbbbbbbbbbbbbbbbbbbb",
"bbbbbbbbbbbbbbbbbbbbbbbbbbbbbbbb",
"bbbbbbbbbbbbbbbbbbbbbbbbbbbbbbbb",
"bbbbbbbbbbbbbbbbbbbbbbbbbbbbbbbb",
"bbbbbbbbbbbbbbbbbbbbbbbbbbbbbbbb",
"bbbbbbbbbbbbbbbbbbbbbbbbbbbbbbbb",
"bbbbbbbbbbbbbbbbbbbbbbbbbbbbbbbb",
"bbbbbbbbbbbbbbbbbbbbbbbbbbbbbbbb",
"bbbbbbbbbbbbbbbbbbbbbbbbbbbbbbbb",
"bbbbbbbbbbbbbbbbbbbbbbbbbbbbbbbb",
"bbbbbbbbbbbbbbbbbbbbbbbbbbbbbbbb",
"bbbbbbbb=&&&&$bbbbbbbbbbbbbbbbbb",
"bbbbbbb$&&&&&&&bbbbbbbbbbbbbbbbb",
"bbbbbbb&&&&&O&&&bbbbbbbbbbbbbbbb",
"bbbbbb$&&&&>9:&*bbbbbbbbbbbbbbbb",
"bbbbbb&&&&&*8,&=bbbbbbbbbbbbbbbb",
"bbbbbbb&p4&&++&bbbbbbbbbbbbbbbbb",
"bbbbbbuqw2&&&&&&bbbbbbbbbbbbbbbb",
"bbbbbbalh;&&<0&&bbbbbbbbbbbbbbbb",
"bbbbbbbbd$2szf&&bbbbbbbbbbbbbbbb",
"bbbbbbbbb&rvve&&bbbbbbbbbbbbbbbb",
"bbbbbbbb-&ivc1&&bbbbbbbbbbbbbbbb",
"bbbbbbbb&+gvk&&&bbbbbbbbbbbbbbbb",
"bbbbbbb*&bjvy&&&bbbbbbbbbbbbbbbb",
"bbbbbbb&&btx3;&&bbbbbbbbbbbbbbbb",
"bbbbbb&&bbb6&r&&&bbbbbbbbbbbbbbb",
"bbbbbb&&bb&&75&&=bbbbbbbbbbbbbbb",
"bbbbb&&bb&&&&&&&&bbbbbbbbbbbbbbb",
"bbbb&&bb&&b@&&&&&@bbbbbbbbbbbbbb",
"bbbb&&b&&bb&&$&&b&bbbbbbbbbbbbbb",
"bbbbbb&&&bb&&&&=bb&bbbbbbbbbbbbb",
"bbbbbbbbbbb&&=&+bbb&bbbb#bbbbbbb",
"bbbbbbbbbbb&&b&&bbb@bbbbbbbbbbbb",
"bbbbbbbbbbb&&b&@bbbb=bbbbb&bbbbb",
"bbbbbbbbbbb&$b&&bbbbb=bbbb&bbbbb",
"bbbbbbbbbbb&bb&&bbbbbb&&@&bbbbbb",
"bbbbbbbbbb%&bb&bbbbbbbbbbbbbbbbb",
"bbbbbbbbbb&bb&&bbbbbbbbbbbbbbbbb",
"bbbbbbbbb .bboXbbbbbbbbbbbbbbbbb",
"bbbbbbbbbbbbbbbbbbbbbbbbbbbbbbbb",
"bbbbbbbbbbbbbbbbbbbbbbbbbbbbbbbb"
};
