/* XPM */
static char *result[] = {
/* columns rows colors chars-per-pixel */
"32 48 38 1 ",
"  c #181212",
". c #191414",
"X c #1A1515",
"o c #1B1515",
"O c #1C1616",
"+ c #1D1616",
"@ c #1F1616",
"# c #1E1717",
"$ c #1F1717",
"% c #1E1818",
"& c #1F1818",
"* c #201919",
"= c #211A1A",
"- c #221B1B",
"; c #231B1B",
": c #241B1B",
"> c #251B1B",
", c #231C1C",
"< c #231D1D",
"1 c #241C1C",
"2 c #251C1C",
"3 c #241D1D",
"4 c #251D1D",
"5 c #271F1F",
"6 c #2B2222",
"7 c #2C2323",
"8 c #2E2525",
"9 c #302626",
"0 c #3B3030",
"q c #483C3C",
"w c #4F4242",
"e c #6E5B5B",
"r c #8A7272",
"t c #8C7474",
"y c #9A7F7F",
"u c #B79898",
"i c #D0AEAE",
"p c None",
/* pixels */
"pppppppppppppppppppppppppppppppp",
"pppppppppppppppppppppppppppppppp",
"pppppppppppppppppppppppppppppppp",
"pppppppppppppppppppppppppppppppp",
"pppppppppppppppppppppppppppppppp",
"pppppppppppppppppppppppppppppppp",
"pppppppppppppppppppppppppppppppp",
"pppppppppppppppppppppppppppppppp",
"pppppppppppppppppppppppppppppppp",
"pppppppppppppppppppppppppppppppp",
"pppppppppppppppppppppppppppppppp",
"pppppppppppppppppppppppppppppppp",
"pppppppppppppppppppppppppppppppp",
"pppppppppppppppppppppppppppppppp",
"pppppppppppppppppppppppppppppppp",
"pppppppppppppppppppppppppppppppp",
"pppppppppppppppppppppppppppppppp",
"pppppppppppppppppppppppppppppppp",
"pppppppppppppppppppppppppppppppp",
"pppppppppppppppppppppppppppppppp",
"pppppppppppp,1<:pppppppppppppppp",
"pppppppppp1111113ppppppppppppppp",
"pppppppppp1111111ppppppppppppppp",
"ppppppppp-1111111,pppppppppppppp",
"ppp11ppp 111111111.ppp1ppppppppp",
"ppp,1pppp,1111111:pppp1,pppppppp",
"pppp1pppp@1111111$pppp1ppppppppp",
"pppp1pppp1%&111=+1ppp:1ppppppppp",
"pppp1ppp111*OOO#111pp11ppppppppp",
"pppp1pp1,p1111111p,1p31ppppppppp",
"pppp1111pp1111112pp1111ppppppppp",
"pppp113ppp1111114ppp11>ppppppppp",
"pppppppppp:11111<ppppppppppppppp",
"pppppppppp1111114pppppp1pppppppp",
"pppppppppp3111111ppppppp33pppppp",
"ppppppppp1111ruy72ppppppp3pppppp",
"ppppppppp1119iet0ppppppppp2ppppp",
"pppppppp,413pp61;ppppppppp3ppppp",
"pppppppp1wqppp85:pppppppp<pppppp",
"ppppppppp11ppp111,pppppp11pppppp",
"ppppppppp11ppp11p11311,1pppppppp",
"ppppppppp11ppp<1pppppppppppppppp",
"ppppppppp1<pppp1pppppppppppppppp",
"ppppppppp1pppp11pppppppppppppppp",
"ppppppppp1pppp1,pppppppppppppppp",
"pppppppppopppp%ppppppppppppppppp",
"ppppppppppppppXppppppppppppppppp",
"pppppppppppppppppppppppppppppppp"
};
