/* XPM */
static char *result[] = {
/* columns rows colors chars-per-pixel */
"32 48 37 1 ",
"  c #120E0E",
". c #181212",
"X c #191313",
"o c #1B1515",
"O c #1C1515",
"+ c #1C1616",
"@ c #1D1616",
"# c #1D1717",
"$ c #1E1717",
"% c #1D1818",
"& c #1F1818",
"* c #201919",
"= c #211919",
"- c #201A1A",
"; c #221B1B",
": c #231B1B",
"> c #241B1B",
", c #251B1B",
"< c #231C1C",
"1 c #231D1D",
"2 c #241C1C",
"3 c #251C1C",
"4 c #241D1D",
"5 c #251D1D",
"6 c #282020",
"7 c #2A2222",
"8 c #2C2222",
"9 c #352A2A",
"0 c #3A2F2F",
"q c #473A3A",
"w c #554545",
"e c #735E5E",
"r c #DAB5B5",
"t c #DDB8B8",
"y c #E2BCBC",
"u c #FED4D4",
"i c None",
/* pixels */
"iiiiiiiiiiiiiiiiiiiiiiiiiiiiiiii",
"iiiiiiiiiiiiiiiiiiiiiiiiiiiiiiii",
"iiiiiiiiiiiiiiiiiiiiiiiiiiiiiiii",
"iiiiiiiiiiiiiiiiiiiiiiiiiiiiiiii",
"iiiiiiiiiiiiiiiiiiiiiiiiiiiiiiii",
"iiiiiiiiiiiiiiiiiiiiiiiiiiiiiiii",
"iiiiiiiiiiiiiiiiiiiiiiiiiiiiiiii",
"iiiiiiiiiiiiiiiiiiiiiiiiiiiiiiii",
"iiiiiiiiiiiiiiiiiiiiiiiiiiiiiiii",
"iiiiiiiiiiiiiiiiiiiiiiiiiiiiiiii",
"iiiiiiiiiiiiiiiiiiiiiiiiiiiiiiii",
"iiiiiiiiiiiiiiiiiiiiiiiiiiiiiiii",
"iiiiiiiiiiiiiiiiiiiiiiiiiiiiiiii",
"iiiiiiiiiiiiiiiiiiiiiiiiiiiiiiii",
"iiiiiiiiiiiiiiiiiiiiiiiiiiiiiiii",
"iiiiiiiiiiiiiiiiiiiiiiiiiiiiiiii",
"iiiiiiiiiiiiiiiiiiiiiiiiiiiiiiii",
"iiiiiiiiiiiiiiiiiiiiiiiiiiiiiiii",
"iiiiiiiiiii222>2iiiiiiiiiiiiiiii",
"iiiiiiiiii4222222iiiiiiiiiiiiiii",
"iiiiiiiiii2222222iiiiiiiiiiiiiii",
"iiiiiiiii-2222222; iiiiiiiiiiiii",
"iiiiiiii.:22222222Xiiiiiiiiiiiii",
"iiiiiiiii&2222222=iiiiiiiiiiiiii",
"iiiiiiiiii:22222:iiiiiiiiiiiiiii",
"iiiiiiiii2*O222$$2iiiiiiiiiiiiii",
"iiiiiiii222:+#@=22iiiiiiiiiiiiii",
"iiiiiiii22222222222iiiiiiiiiiiii",
"iiiiiii32i<22222222iiiiiiiiiiiii",
"iiiiii<2,i:222222422iiiiiiiiiiii",
"iiiiii>2ii>222222i22iiiiiiiiiiii",
"iiiiii>2ii<22222>i22iiiiiiiiiiii",
"iiiiii22ii2222222i22iiiiiiiiiiii",
"iiiiii:2ii30tyr72i22iiiiiiiiiiii",
"iiiiiii2ii<6qeuw3i22iiiiiiiiiiii",
"iiiiii<2ii322982:i21iiiiiiiiiiii",
"iiiiii22ii>22322ii2,iiiiiiiiiiii",
"iiiiiii<ii521225ii2>iiiiiiiiiiii",
"iiiiiiiiii<2222>ii32iiiiiiiiiiii",
"iiiiiiiiii22222<ii2<iiiiiiiiiiii",
"iiiiiiiii3>22i22iiiiiiiiiiiiiiii",
"iiii2<iii2i<2i22iiiiiiiiiiiiiiii",
"iii<2iii:2i<2i:4iiiiiiiiiiiiiiii",
"ii32iiii2ii2:i2iiiiiiiiiiiiiiiii",
"ii>2iii2iii22io%iiiiiiiiiiiiiiii",
"ii>22>>>iii24iiiiiiiiiiiiiiiiiii",
"iiiiiiiiiiiiiiiiiiiiiiiiiiiiiiii",
"iiiiiiiiiiiiiiiiiiiiiiiiiiiiiiii"
};
