/* XPM */
static char *result[] = {
/* columns rows colors chars-per-pixel */
"32 48 50 1 ",
"  c #1B1515",
". c #1B1616",
"X c #231A1A",
"o c #231B1B",
"O c #241B1B",
"+ c #251B1B",
"@ c #231C1C",
"# c #231D1D",
"$ c #241C1C",
"% c #251C1C",
"& c #241D1D",
"* c #251D1D",
"= c #261E1E",
"- c #292121",
"; c #292222",
": c #2C2323",
"> c #2E2525",
", c #322828",
"< c #352929",
"1 c #3A2D2D",
"2 c #3C3232",
"3 c #3F3434",
"4 c #423232",
"5 c #433838",
"6 c #443A3A",
"7 c #473B3B",
"8 c #523F3F",
"9 c #4F4242",
"0 c #524747",
"q c #554848",
"w c #594C4C",
"e c #5B4D4D",
"r c #5C4E4E",
"t c #655757",
"y c #6F5F5F",
"u c #746464",
"i c #786868",
"p c #7F6E6E",
"a c #897676",
"s c #978484",
"d c #A79393",
"f c #BAA3A3",
"g c #C9B1B1",
"h c #CEB5B5",
"j c #D2B9B9",
"k c #E1C7C7",
"l c #EED2D2",
"z c #F3D6D6",
"x c #F4D7D7",
"c c None",
/* pixels */
"cccccccccccccccccccccccccccccccc",
"cccccccccccccccccccccccccccccccc",
"cccccccccccccccccccccccccccccccc",
"cccccccccccccccccccccccccccccccc",
"cccccccccccccccccccccccccccccccc",
"cccccccccccccccccccccccccccccccc",
"cccccccccccccccccccccccccccccccc",
"cccccccccccccccccccccccccccccccc",
"cccccccccccccccccccccccccccccccc",
"cccccccccccccccccccccccccccccccc",
"cccccccccccccccccccccccccccccccc",
"cccccccccccccccccccccccccccccccc",
"cccccccccccccccccccccccccccccccc",
"cccccccccccccccccccccccccccccccc",
"cccccccccccccccccccccccccccccccc",
"cccccccccccccccccccccccccccccccc",
"cccccccccccccccccccccccccccccccc",
"cccccccccccccccccccc$ccccccccccc",
"cccccccccccccccccO$$$$$ccccccccc",
"cccccccccccccccc+$$$$$$$cccccccc",
"cccccccccccccccc@$$o$$$$@ccccccc",
"cccccccccccccccc$$<8X$$$$ccccccc",
"cccccccccccccccc$$41$$$$$ccccccc",
"cccccccccccccccc+$Xo$$ir$ccccccc",
"cccccccccccccccc$$$$$$t0uccccccc",
"ccccccccccccccc@$;e$$$wdfccccccc",
"cccccccccccccccO$-lhu&5scccccccc",
"ccccccccccccccc&$$gxz=#ccccccccc",
"cccccccccccccccc$$axx,$ccccccccc",
"cccccccccccccccc$$6xx9$&cccccccc",
"cccccccccccccccc$>$jxc%$cccccccc",
"ccccccccccccccc$$3$pkcc$$ccccccc",
"ccccccccccccccc$$27$qcco$ccccccc",
"ccccccccccccccc$$$y:$ccc$$cccccc",
"ccccccccccccccc$$$$$$$ccc$cccccc",
"cccccccccccccc$$$$$$c$$cc$$ccccc",
"ccccccccccccc+&c$$$$cc%$cc$ccccc",
"ccccccccccccc$cc$$$$Occ$$ccccccc",
"cccccc$ccccc$ccc$$@$$ccccccccccc",
"cccccOccccc&cccc$$c$*ccccccccccc",
"ccccOccccc&$cccc$$c$$ccccccccccc",
"cccc$cccc@Occccc$@c$&ccccccccccc",
"ccccc$$$$$cccccc$$c$$ccccccccccc",
"cccccccccccccccc%&cc$ccccccccccc",
"ccccccccccccccccc$cc%$cccccccccc",
"ccccccccccccccccc.ccc cccccccccc",
"cccccccccccccccccccccccccccccccc",
"cccccccccccccccccccccccccccccccc"
};
