/* XPM */
static char *result[] = {
/* columns rows colors chars-per-pixel */
"32 48 57 1 ",
"  c #1C1616",
". c #1D1616",
"X c #1F1818",
"o c #231B1B",
"O c #241B1B",
"+ c #251B1B",
"@ c #231C1C",
"# c #241C1C",
"$ c #251C1C",
"% c #241D1D",
"& c #251D1D",
"* c #261D1D",
"= c #261E1E",
"- c #271F1F",
"; c #282020",
": c #2F2424",
"> c #312525",
", c #382D2D",
"< c #3A2F2F",
"1 c #3D2F2F",
"2 c #3B3131",
"3 c #3E3030",
"4 c #423434",
"5 c #4E4242",
"6 c #4F4343",
"7 c #5C4F4F",
"8 c #605252",
"9 c #605353",
"0 c #766565",
"q c #807070",
"w c #837171",
"e c #847373",
"r c #8D7B7B",
"t c #8F7E7E",
"y c #998585",
"u c #9D8989",
"i c #9E8A8A",
"p c #A18D8D",
"a c #A49090",
"s c #AA9494",
"d c #AB9595",
"f c #AC9696",
"g c #AF9A9A",
"h c #B59F9F",
"j c #B69F9F",
"k c #B7A1A1",
"l c #BCA5A5",
"z c #C0A9A9",
"x c #C3ACAC",
"c c #CFB6B6",
"v c #DCC2C2",
"b c #E6CACA",
"n c #EACDCD",
"m c #EBCECE",
"M c #F3D6D6",
"N c #F4D7D7",
"B c None",
/* pixels */
"BBBBBBBBBBBBBBBBBBBBBBBBBBBBBBBB",
"BBBBBBBBBBBBBBBBBBBBBBBBBBBBBBBB",
"BBBBBBBBBBBBBBBBBBBBBBBBBBBBBBBB",
"BBBBBBBBBBBBBBBBBBBBBBBBBBBBBBBB",
"BBBBBBBBBBBBBBBBBBBBBBBBBBBBBBBB",
"BBBBBBBBBBBBBBBBBBBBBBBBBBBBBBBB",
"BBBBBBBBBBBBB#BBBBBBBBBBBBBBBBBB",
"BBBBBBBBBBBB#BBBBBBBBBBB#@BBBBBB",
"BBBBBBBBBBBB#%BBBBBBBBBB##BBBBBB",
"BBBBBBBBBBBB#oBBBBBBBBBB#BBBBBBB",
"BBBBBBBB#BBB#$BBBBBBBBBB#BBBBBBB",
"BBBBBBB$#BBB##BBBBBBBBBB#BBBBBBB",
"BBBBBBB@BBBB##BBBBBBBBBB#BBBBBBB",
"BBBBBBB#BBBB##BBBBBBBBB@#BBBBBBB",
"BBBBBBB#BBBB##BBBBBBBBBO#BBBBBBB",
"BBBBBBB#BBBB##BBBBBBBBB##@BBBBBB",
"BBBBBBB#BBBB##BBBBBBBBB$#%BBBBBB",
"BBBBBBB#BBBB##BBBBBBBBB##BBBBBBB",
"BBBBBBB+%BBB##B######BB##BBBBBBB",
"BBBBBBB@OBBBB#########B##BBBBBBB",
"BBBBBBBB@BBBBo########oo#BBBBBBB",
"BBBBBBBB#BBBB4########>:BBBBBBBB",
"BBBBBBBB#BBBB3########1;BBBBBBBB",
"BBBBBBBB#BBBBB&cvy*dz7=BBBBBBBBB",
"BBBBBBBB#$BBBBBjwe5t06#BBBBBBBBB",
"BBBBBBBBB#BBBBB#9xagr=BBBBBBBBBB",
"BBBBBBBBB#BBBBB$hiqkN2BBBBBBBBBB",
"BBBBBBBBB@&BBBB#lNNNN,BBBBBBBBBB",
"BBBBBBBBBB#BBBB@fNNNM-BBBBBBBBBB",
"BBBBBBBBBBO#BBB@uNNNb#BBBBBBBBBB",
"BBBBBBBBBBB#%BB@pNNNn#BBBBBBBBBB",
"BBBBBBBBBBBB#BB&pNNNn#BBBBBBBBBB",
"BBBBBBBBBBBB##B$<bNN0#BBBBBBBBBB",
"BBBBBBBBBBBBB+###8ms##BBBBBBBBBB",
"BBBBBBBBBBBBBBB###@+##BBBBBBBBBB",
"BBBBBBBBBBBBBBBB##BB##BBBBBBBBBB",
"BBBBBBBBBBBBBBBB##BB##BBBBBBBBBB",
"BBBBBBBBBBBBBBBB@##B##BBBBBBBBBB",
"BBBBBBBBBBBBBBBBB#OB#OBBBBBBBBBB",
"BBBBBBBBBBBBBBBB%#BB##BBBBBBBBBB",
"BBBBBBBBBBBBBBBB##BB#BBBBBBBBBBB",
"BBBBBBBBBBBBBBBBO#BB#BBBBBBBBBBB",
"BBBBBBBBBBBBBBBB$#BB#BBBBBBBBBBB",
"BBBBBBBBBBBBBBBBB#BB#BBBBBBBBBBB",
"BBBBBBBBBBBBBBBBB#@B@$BBBBBBBBBB",
"BBBBBBBBBBBBBBBBB.XBX BBBBBBBBBB",
"BBBBBBBBBBBBBBBBBBBBBBBBBBBBBBBB",
"BBBBBBBBBBBBBBBBBBBBBBBBBBBBBBBB"
};
