/* XPM */
static char *result[] = {
/* columns rows colors chars-per-pixel */
"32 48 32 1 ",
"  c #120E0E",
". c #181212",
"X c #191313",
"o c #1C1515",
"O c #1C1616",
"+ c #1D1616",
"@ c #1D1717",
"# c #1E1717",
"$ c #1F1818",
"% c #201717",
"& c #201919",
"* c #211919",
"= c #221A1A",
"- c #221B1B",
"; c #231B1B",
": c #241B1B",
"> c #251B1B",
", c #231C1C",
"< c #231D1D",
"1 c #241C1C",
"2 c #251C1C",
"3 c #241D1D",
"4 c #251D1D",
"5 c #281F1F",
"6 c #292020",
"7 c #584848",
"8 c #756161",
"9 c #776262",
"0 c #917777",
"q c #C2A1A1",
"w c #C3A3A3",
"e c None",
/* pixels */
"eeeeeeeeeeeeeeeeeeeeeeeeeeeeeeee",
"eeeeeeeeeeeeeeeeeeeeeeeeeeeeeeee",
"eeeeeeeeeeeeeeeeeeeeeeeeeeeeeeee",
"eeeeeeeeeeeeeeeeeeeeeeeeeeeeeeee",
"eeeeeeeeeeeeeeeeeeeeeeeeeeeeeeee",
"eeeeeeeeeeeeeeeeeeeeeeeeeeeeeeee",
"eeeeeeeeeeeeeeeeeeeeeeeeeeeeeeee",
"eeeeeeeeeeeeeeeeeeeeeeeeeeeeeeee",
"eeeeeeeeeeeeeeeeeeeeeeeeeeeeeeee",
"eeeeeeeeeeeeeeeeeeeeeeeeeeeeeeee",
"eeeeeeeeeeeeeeeeeeeeeeeeeeeeeeee",
"eeeeeeeeeeeeeeeeeeeeeeeeeeeeeeee",
"eeeeeeeeeeeeeeeeeeeeeeeeeeeeeeee",
"eeeeeeeeeeeeeeeeeeeeeeeeeeeeeeee",
"eeeeeeeeeeeeeeeeeeeeeeeeeeeeeeee",
"eeeeeeeeeeeeeeeeeeeeeeeeeeeeeeee",
"eeeeeeeeeeeeeeeeeeeeeeeeeeeeeeee",
"eeeeeeeeeeeeeeeeeeeeeeeeeeeeeeee",
"eeeeeeeeeee111:1eeeeeeeeeeeeeeee",
"eeeeeeeeee3111111eeeeeeeeeeeeeee",
"eeeeeeeeee11111111eeeeeeeeeeeeee",
"eeeeeeeee-1111111, eeeeeeeeeeeee",
"eeeeeeee.111111111Xeeeeeeeeeeeee",
"eeeeeeeee=11111111eeeeeeeeeeeeee",
"eeeeeeeeee;11111;eeeeeeeeeeeeeee",
"eeeeeeeeee&o111##:eeeeeeeeeeeeee",
"eeeeeeeee11;O@+*11:eeeeeeeeeeeee",
"eeeeeeee,13111111:1eeeeeeeeeeeee",
"eeeeeeee111111111e11eeeeeeeeeeee",
"eeeeeee:1e1111111e11eeeeeeeeeeee",
"eeeeeee11ee111111ee12eeeeeeeeeee",
"eeeeeee11e>111111ee11eeeeeeeeeee",
"eeeeeee11e1111111ee1,eeeeeeeeeee",
"eeeeeee11e118qw71ee1<eeeeeeeeeee",
"eeeeeee11e3105w91ee1:eeeeeeeeeee",
"eeeeeee4,ee116e11ee11eeeeeeeeeee",
"eeeeeee2:ee:11e11ee11eeeeeeeeeee",
"eeeeeee1:ee111e11ee<1eeeeeeeeeee",
"eeeeeee:<e;311e11ee11eeeeeeeeeee",
"eeee1eeee11e14e13eeeeeeeeeeeeeee",
"eee1eeeee1e,1ee12eeeeeeeeeeeeeee",
"ee:eeeee1ee11ee1eeeeeeeeeeeeeeee",
"e:eeeee1eeee1ee1eeeeeeeeeeeeeeee",
"ee13;e,eeeee1ee1,eeeeeeeeeeeeeee",
"eeee2eeeeeee11e11eeeeeeeeeeeeeee",
"eeeeeeeeeeee%@e$+eeeeeeeeeeeeeee",
"eeeeeeeeeeeeeeeeeeeeeeeeeeeeeeee",
"eeeeeeeeeeeeeeeeeeeeeeeeeeeeeeee"
};
