/* XPM */
static char *result[] = {
/* columns rows colors chars-per-pixel */
"32 48 45 1 ",
"  c #181313",
". c #1D1818",
"X c #1F1A1A",
"o c #221A1A",
"O c #231B1B",
"+ c #241B1B",
"@ c #251B1B",
"# c #231C1C",
"$ c #231D1D",
"% c #241C1C",
"& c #251C1C",
"* c #241D1D",
"= c #251D1D",
"- c #261D1D",
"; c #261E1E",
": c #2C2222",
"> c #2D2424",
", c #2F2424",
"< c #342A2A",
"1 c #3B2D2D",
"2 c #423737",
"3 c #443737",
"4 c #534747",
"5 c #5E5050",
"6 c #655656",
"7 c #655757",
"8 c #6C5353",
"9 c #695B5B",
"0 c #6B5C5C",
"q c #6C5E5E",
"w c #776666",
"e c #7D6D6D",
"r c #847272",
"t c #877575",
"y c #938080",
"u c #978383",
"i c #9C8888",
"p c #AA9696",
"a c #DCC2C2",
"s c #E2C8C8",
"d c #E5C9C9",
"f c #F1D4D4",
"g c #F3D6D6",
"h c #F4D7D7",
"j c None",
/* pixels */
"jjjjjjjjjjjjjjjjjjjjjjjjjjjjjjjj",
"jjjjjjjjjjjjjjjjjjjjjjjjjjjjjjjj",
"jjjjjjjjjjjjjjjjjjjjjjjjjjjjjjjj",
"jjjjjjjjjjjjjjjjjjjjjjjjjjjjjjjj",
"jjjjjjjjjjjjjjjjjjjjjjjjjjjjjjjj",
"jjjjjjjjjjjjjjjjjjjjjjjjjjjjjjjj",
"jjjjjjjjjjjjjjjjjjjjjjjjjjjjjjjj",
"jjjjjjjjjjjjjjjjjjjjjjjjjjjjjjjj",
"jjjjjjjjjjjjjjjjjjjjjjjjjjjjjjjj",
"jjjjjjjjjjjjjjjjjjjjjjjjjjjjjjjj",
"jjjjjjjjjjjjjjjjjjjjjjjjjjjjjjjj",
"jjjjjjjjjjjjjjjjjjjjjjjjjjjjjjjj",
"jjjjjjjjjjjjjjjjjjjjjjjjjjjjjjjj",
"jjjjjjjjjjjjjjjjjjjjjjjjjjjjjjjj",
"jjjjjjjjjjjjjjjjjjjjjjjjjjjjjjjj",
"jjjjjjjjjjjjjjjjjjjjjjjjjjjjjjjj",
"jjjjjjjjjjjjjjjjjjjjjjjjjjjjjjjj",
"jjjjjjjjjjjjjjjjj*%%%%jjjjjjjjjj",
"jjjjjjjjjjjjjjjj$%%%%%%%jjjjjjjj",
"jjjjjjjjjjjjjjjj%%%%%%%%jjjjjjjj",
"jjjjjjjjjjjjjjj#%O1:%%%%%jjjjjjj",
"jjjjjjjjjjjjjjjj%-8:%%%%%jjjjjjj",
"jjjjjjjjjjjjjjjj%#,O%=0%%jjjjjjj",
"jjjjjjjjjjjjjjjj%%%%%>u;2jjjjjjj",
"jjjjjjjjjjjjjjjj%%%%%%qspjjjjjjj",
"jjjjjjjjjjjjjj$%%%76;%iejjjjjjjj",
"jjjjjjjjjjjjj%%#%%thd%jjjjjjjjjj",
"jjjjjjjjjjj+%#j%%%rhf%%jjjjjjjjj",
"jjjjjjjjjj@%%jj*%%whh>%jjjjjjjjj",
"jjjjjjjjjj%@jjjj%%9hhj%%jjjjjjjj",
"jjjjjjjjj#%jjjjj%%5hhj#%%jjjjjjj",
"jjjjjjjjj%%jjjj%%%4hajjj%%jjjjjj",
"jjjjjjjjO%jjjjj%%%3gyjjjjj%%jjjj",
"jjjjjjjj#%jjjjj%%%%<jjjjjjj&%%jj",
"jjjjjjj%%jjjjj%%%%%%%%jjjjjjj%jj",
"jjjjjjj%jjjjj+%%%%&%%%&jjjjjjjjj",
"jjjjjjjjjjjjj%j%%%jj+%%%jjjjjjjj",
"jjjjjjjjjjjj%jj%%jjjjj%%jjjjjjjj",
"jjjjjjjjjjj%@j%%*jjjjj%%jjjjjjjj",
"jjjjj%*jjjj%j#%%jjjjjj%%jjjjjjjj",
"jjjj%jjjjj%jj%+jjjjjjj%%jjjjjjjj",
"jjj&jjjjj%jj#%jjjjjjjj%#jjjjjjjj",
"jjj%jjjjOjjj%jjjjjjjjj%%jjjjjjjj",
"jjjj%%%%jjjj%jjjjjjjjjj%jjjjjjjj",
"jjjjjjjjjjjXojjjjjjjjjj.jjjjjjjj",
"jjjjjjjjjjj jjjjjjjjjjjjjjjjjjjj",
"jjjjjjjjjjjjjjjjjjjjjjjjjjjjjjjj",
"jjjjjjjjjjjjjjjjjjjjjjjjjjjjjjjj"
};
