/* XPM */
static char *result[] = {
/* columns rows colors chars-per-pixel */
"32 48 62 1 ",
"  c #1A1414",
". c #1E1717",
"X c #1E1818",
"o c #201919",
"O c #231B1B",
"+ c #241B1B",
"@ c #251B1B",
"# c #231C1C",
"$ c #231D1D",
"% c #241C1C",
"& c #251C1C",
"* c #241D1D",
"= c #251D1D",
"- c #261D1D",
"; c #251E1E",
": c #271F1F",
"> c #282020",
", c #2A2121",
"< c #2B2121",
"1 c #2B2222",
"2 c #332A2A",
"3 c #372B2B",
"4 c #3E3333",
"5 c #453535",
"6 c #473737",
"7 c #443A3A",
"8 c #4A3D3D",
"9 c #514343",
"0 c #645555",
"q c #685A5A",
"w c #6C5D5D",
"e c #786868",
"r c #7D6D6D",
"t c #847575",
"y c #867676",
"u c #8B7A7A",
"i c #8D7C7C",
"p c #958282",
"a c #988484",
"s c #988585",
"d c #9A8585",
"f c #A38F8F",
"g c #A69191",
"h c #A79292",
"j c #A99393",
"k c #B09999",
"l c #B39D9D",
"z c #B39E9E",
"x c #B7A1A1",
"c c #BBA4A4",
"v c #BDA5A5",
"b c #C2AAAA",
"n c #C8B0B0",
"m c #C9B0B0",
"M c #CDB4B4",
"N c #D1B8B8",
"B c #DAC0C0",
"V c #DBC1C1",
"C c #E4C8C8",
"Z c #F3D6D6",
"A c #F4D7D7",
"S c None",
/* pixels */
"SSSSSSSSSSSSSSSSSSSSSSSSSSSSSSSS",
"SSSSSSSSSSSSSSSSSSSSSSSSSSSSSSSS",
"SSSSSSSSSSSSSSSSSSSSSSSSSSSSSSSS",
"SSSSSSSSSSSSSSSSSSSSSSSSSSSSSSSS",
"SSSSSSSSSSSSSSSSSSSSSSSSSSSSSSSS",
"SSSSSSSSSSSSSSSSSSSSSSSSSSSSSSSS",
"SSSSSSSSSSSSSSSSSSSSSSSSSSSSSSSS",
"SSSSSSSSSSSSSSSSSSSSSSSSSSSSSSSS",
"SSSSSSSSSSSSSSSSSSSSSSSSSSSSSSSS",
"SSSSSSSSSSSSSSSSSSSSSSSSSSSSSSSS",
"SSSSSSSSSSSSSSSSSSSSSSSSSSSSSSSS",
"SSSSSSSSSSSSSSSSSSSSSSSSSSSSSSSS",
"SSSSSSSSSSSSSSSSSSSSSSSSSSSSSSSS",
"SSSSSSSSSSSSSSSSSSSSSSSSSSSSSSSS",
"SSSSSSSSSSSSSSSSSSSSSSSSSSSSSSSS",
"SSSSSSSSSSSSSSSSSSSSSSSSSSSSSSSS",
"SSSSSSSSSSSSSSSSSSSSSSSSSSSSSSSS",
"SSSSSSSSSSSSSSSSSSSSSSSSSSSSSSSS",
"SSSSSSSSSSSSSSSS#%%#*SSSSSSSSSSS",
"SSSSSSSSSSSSSSS%%%%%%%SSSSSSSSSS",
"SSSSSSSSSSSSSSS%%%%%%%SSSSSSSSSS",
"SSSSSSSSSSSSSS:%%%%%%%=3SSSSSSSS",
"SSSSSSSSSSSSS5,%%%%%%%-6SSSSSSSS",
"SSSSSSSSSSSSSS<8jw%4e7>SSSSSSSSS",
"SSSSSSSSSSSSSSSmhc%fdgSSSSSSSSSS",
"SSSSSSSSSSSSSSS>qpys9>OSSSSSSSSS",
"SSSSSSSSSSSSSS%%kuitz%%SSSSSSSSS",
"SSSSSSSSSSSSS%%%VAAAZ;%%SSSSSSSS",
"SSSSSSSSSSSSS%%%MAAAC%+%OSSSSSSS",
"SSSSSSSSSSSS%%S&vAAAN%S%%SSSSSSS",
"SSSSSSSSSSSS%%S#xAAAM%SS%SSSSSSS",
"SSSSSSSSSSSS%%S+bAAAB%SS%+SSSSSS",
"SSSSSSSSSSSS%%S%rAAAa#SS%%SSSSSS",
"SSSSSSSSSSSS%$S&%lAn>#SS%*SSSSSS",
"SSSSSSSSSSSS%+S@%102%%SS%SSSSSSS",
"SSSSSSSSSSSS%&S#%%*=%%SS%SSSSSSS",
"SSSSSSSSSSSS%OSS%%S%%%SS%SSSSSSS",
"SSSSSSSSSSSS%SSS%%#S%OSS%%SSSSSS",
"SSSSSSSSSSSS+*S%%%+S%%SS%+SSSSSS",
"SSSSSSSSS#SSSS%%%%SS%&SSSSSSSSSS",
"SSSSSSSSOSSSSS&S%%S&%SSSSSSSSSSS",
"SSSSSSS%SSSSS%SS+%S&%SSSSSSSSSSS",
"SSSSSS%SSSSS%SSS%%S&%SSSSSSSSSSS",
"SSSSSSS%#SS%SSSSS%SS%SSSSSSSSSSS",
"SSSSSSSS#%%SSSSSS%%S%*SSSSSSSSSS",
"SSSSSSSSSSSSSSSSSXoS.XSSSSSSSSSS",
"SSSSSSSSSSSSSSSSS SSSSSSSSSSSSSS",
"SSSSSSSSSSSSSSSSSSSSSSSSSSSSSSSS"
};
