/* XPM */
static char *result[] = {
/* columns rows colors chars-per-pixel */
"32 48 48 1 ",
"  c #1A1313",
". c #1F1818",
"X c #211919",
"o c #231B1B",
"O c #241B1B",
"+ c #231C1C",
"@ c #231D1D",
"# c #241C1C",
"$ c #251C1C",
"% c #241D1D",
"& c #251D1D",
"* c #261E1E",
"= c #271E1E",
"- c #2B2121",
"; c #2D2323",
": c #302727",
"> c #322929",
", c #332929",
"< c #3A2D2D",
"1 c #3F3434",
"2 c #403535",
"3 c #413636",
"4 c #423737",
"5 c #473737",
"6 c #443939",
"7 c #473A3A",
"8 c #493838",
"9 c #483D3D",
"0 c #4E4141",
"q c #514444",
"w c #5B4D4D",
"e c #5C4F4F",
"r c #917E7E",
"t c #917F7F",
"y c #948181",
"u c #958282",
"i c #988484",
"p c #998585",
"a c #9A8686",
"s c #A08B8B",
"d c #A99494",
"f c #B49D9D",
"g c #B6A0A0",
"h c #C5ADAD",
"j c #D4BABA",
"k c #EED2D2",
"l c #F4D7D7",
"z c None",
/* pixels */
"zzzzzzzzzzzzzzzzzzzzzzzzzzzzzzzz",
"zzzzzzzzzzzzzzzzzzzzzzzzzzzzzzzz",
"zzzzzzzzzzzzzzzzzzzzzzzzzzzzzzzz",
"zzzzzzzzzzzzzzzzzzzzzzzzzzzzzzzz",
"zzzzzzzzzzzzzzzzzzzzzzzzzzzzzzzz",
"zzzzzzzzzzzzzzzzzzzzzzzzzzzzzzzz",
"zzzzzzzzzzzzzzzzzzzzzzzzzzzzzzzz",
"zzzzzzzzzzzzzzzzzzzzzzzzzzzzzzzz",
"zzzzzzzzzzzzzzzzzzzzzzzzzzzzzzzz",
"zzzzzzzzzzzzzzzzzzzzzzzzzzzzzzzz",
"zzzzzzzzzzzzzzzzzzzzzzzzzzzzzzzz",
"zzzzzzzzzzzzzzzzzzzzzzzzzzzzzzzz",
"zzzzzzzzzzzzzzzzzzzzzzzzzzzzzzzz",
"zzzzzzzzzzzzzzzzzzzzzzzzzzzzzzzz",
"zzzzzzzzzzzzzzzzzzzzzzzzzzzzzzzz",
"zzzzzzzzzzzzzzzzzzzzzzzzzzzzzzzz",
"zzzzzzzzzzzzzzzzzzzzzzzzzzzzzzzz",
"zzzzzzzzz$####zzzzzzzzzzzzzzzzzz",
"zzzzzzzz#######zzzzzzzzzzzzzzzzz",
"zzzzzzzO#######$zzzzzzzzzzzzzzzz",
"zzzzzzz####o<;##zzzzzzzzzzzzzzzz",
"zzzzzzz####O58##zzzzzzzzzzzzzzzz",
"zzzzzzz#1q##=-##zzzzzzzzzzzzzzzz",
"zzzzzzz,9u#####zzzzzzzzzzzzzzzzz",
"zzzzzzzhg6#####&zzzzzzzzzzzzzzzz",
"zzzzzzzztw&>7###zzzzzzzzzzzzzzzz",
"zzzzzzzzzzyl:####zzzzzzzzzzzzzzz",
"zzzzzzzzzzpj######zzzzzzzzzzzzzz",
"zzzzzzzzzzsr####z##zzzzzzzzzzzzz",
"zzzzzzzzzzd0####z##zzzzzzzzzzzzz",
"zzzzzzzzzza#4*##zz##zzzzzzzzzzzz",
"zzzzzzzzzz3#i2##zz##zzzzzzzzzzzz",
"zzzzzzzzz##6ke###zz#zzzzzzzzzzzz",
"zzzzzzzzz##zf,###zz##zzzzzzzzzzz",
"zzzzzzzz##z#######z##zzzzzzzzzzz",
"zzzzzzz#zz###+#####z#zzzzzzzzzzz",
"zzzzzz##z###Oz#####zzzzzzz#zzzzz",
"zzzzz##zz##zzzz#####zzzzzzz#zzzz",
"zzzzzzzzz##zzzz###z##zzzzzz#zzzz",
"zzzzzzzzz##zzzzz@#ozz#zzzz##zzzz",
"zzzzzzzzzz#zzzzzzo##zz####zzzzzz",
"zzzzzzzzzz#zzzzzzz+#zzzzzzzzzzzz",
"zzzzzzzzzz#zzzzzzzz#%zzzzzzzzzzz",
"zzzzzzzzz##zzzzzzzz##zzzzzzzzzzz",
"zzzzzzzzzX.zzzzzzzzz.zzzzzzzzzzz",
"zzzzzzzzzz zzzzzzzzzzzzzzzzzzzzz",
"zzzzzzzzzzzzzzzzzzzzzzzzzzzzzzzz",
"zzzzzzzzzzzzzzzzzzzzzzzzzzzzzzzz"
};
