/* XPM */
static char *result[] = {
/* columns rows colors chars-per-pixel */
"32 48 62 1 ",
"  c #1B1515",
". c #1A1616",
"X c #1C1616",
"o c #211919",
"O c #231B1B",
"+ c #241B1B",
"@ c #231C1C",
"# c #231D1D",
"$ c #241C1C",
"% c #251C1C",
"& c #241D1D",
"* c #251D1D",
"= c #261C1C",
"- c #271E1E",
"; c #291F1F",
": c #282020",
"> c #292020",
", c #2A2020",
"< c #2B2121",
"1 c #2E2525",
"2 c #372B2B",
"3 c #3D3333",
"4 c #3E3333",
"5 c #453535",
"6 c #483737",
"7 c #453939",
"8 c #473A3A",
"9 c #4A3E3E",
"0 c #4E4141",
"q c #514444",
"w c #675858",
"e c #6A5B5B",
"r c #6C5D5D",
"t c #786868",
"y c #847474",
"u c #867676",
"i c #8B7A7A",
"p c #8E7C7C",
"a c #958282",
"s c #988484",
"d c #988585",
"f c #998686",
"g c #A38E8E",
"h c #A69191",
"j c #A79292",
"k c #A89393",
"l c #AE9797",
"z c #B8A1A1",
"x c #BAA3A3",
"c c #BDA6A6",
"v c #C7AFAF",
"b c #CBB2B2",
"n c #CCB3B3",
"m c #D2B9B9",
"M c #D8BDBD",
"N c #D8BEBE",
"B c #D9BFBF",
"V c #DDC2C2",
"C c #EBCECE",
"Z c #F1D4D4",
"A c #F4D7D7",
"S c None",
/* pixels */
"SSSSSSSSSSSSSSSSSSSSSSSSSSSSSSSS",
"SSSSSSSSSSSSSSSSSSSSSSSSSSSSSSSS",
"SSSSSSSSSSSSSSSSSSSSSSSSSSSSSSSS",
"SSSSSSSSSSSSSSSSSSSSSSSSSSSSSSSS",
"SSSSSSSSSSSSSSSSSSSSSSSSSSSSSSSS",
"SSSSSSSSSSSSSSSSSSSSSSSSSSSSSSSS",
"SSSSSSSSSSSSSSSSSSSSSSSSSSSSSSSS",
"SSSSSSSSSSSSSSSSSSSSSSSSSSSSSSSS",
"SSSSSSSSSSSSSSSSSSSSSSSSSSSSSSSS",
"SSSSSSSSSSSSSSSSSSSSSSSSSSSSSSSS",
"SSSSSSSSSSSSSSSSSSSSSSSSSSSSSSSS",
"SSSSSSSSSSSSSSSSSSSSSSSSSSSSSSSS",
"SSSSSSSSSSSSSSSSSSSSSSSSSSSSSSSS",
"SSSSSSSSSSSSSSSSSSSSSSSSSSSSSSSS",
"SSSSSSSSSSSSSSSSSSSSSSSSSSSSSSSS",
"SSSSSSSSSSSSSSSSSSSSSSSSSSSSSSSS",
"SSSSSSSSSSSSSSSSSSSSSSSSSSSSSSSS",
"SSSSSSSSSSSSSSSSSSSSSSSSSSSSSSSS",
"SSSSSSSSSSSSSSSS@$$@&SSSSSSSSSSS",
"SSSSSSSSSSSSSSS$$$$$$$SSSSSSSSSS",
"SSSSSSSSSSSSSSS$$$$$$$SSSSSSSSSS",
"SSSSSSSSSSSSSS-$$$$$$$=2SSSSSSSS",
"SSSSSSSSSSSSS5,$$$$$$$*6SSSSSSSS",
"SSSSSSSSSSSSSS<9kr$4t7;SSSSSSSSS",
"SSSSSSSSSSSSSSSvjx$gfhSSSSSSSSSS",
"SSSSSSSSSSSSSS+:eausq;$SSSSSSSSS",
"SSSSSSSSSSSSSS$$lipyz*$SSSSSSSSS",
"SSSSSSSSSSSSS$$$MAAAZ>$+SSSSSSSS",
"SSSSSSSSSSSSS$$%mAAAN@&$%SSSSSSS",
"SSSSSSSSSSSS$$S$nAAAcSS$$SSSSSSS",
"SSSSSSSSSSSS$$S&bAAAV%S&$SSSSSSS",
"SSSSSSSSSSSSO$S$VAAAC1SS$$SSSSSS",
"SSSSSSSSSSSS+$S%3BAAw@SS$$SSSSSS",
"SSSSSSSSSSSS&$S$$0Ad%&SS$OSSSSSS",
"SSSSSSSSSSSSS$S&$$8$$$SS$OSSSSSS",
"SSSSSSSSSSSSS$SS$$&#$$SS$SSSSSSS",
"SSSSSSSSSSSSS$SS$$%%$SSS$SSSSSSS",
"SSSSSSSSSSSS$@SS$$$$$SSS$&SSSSSS",
"SSSSSSSSSSSSSSSS$$$$$SSS$$SSSSSS",
"SSSSSSSSSSSSSSS+%$+$$SSS$SSSSSSS",
"SSSSSSSSSSSSSSS$O$S$$SSSSSSSSSSS",
"SSSSSSSSSS$SSS&$$$S$#SSSSSSSSSSS",
"SSSSSSSSS$SSSS$S$%S$$SSSSSSSSSSS",
"SSSSSSSS$SSSS&SS$$S#$SSSSSSSSSSS",
"SSSSSSSS%SSS&&SSS$SSoSSSSSSSSSSS",
"SSSSSSSS$$%$+SSSSXSS SSSSSSSSSSS",
"SSSSSSSSSSSSSSSSS.SSSSSSSSSSSSSS",
"SSSSSSSSSSSSSSSSSSSSSSSSSSSSSSSS"
};
