/* XPM */
static char *result[] = {
/* columns rows colors chars-per-pixel */
"32 48 49 1 ",
"  c #191313",
". c #1E1717",
"X c #1F1818",
"o c #1F1919",
"O c #231B1B",
"+ c #241B1B",
"@ c #251B1B",
"# c #231C1C",
"$ c #231D1D",
"% c #241C1C",
"& c #251C1C",
"* c #241D1D",
"= c #251D1D",
"- c #271E1E",
"; c #292020",
": c #292121",
"> c #2B2121",
", c #2A2222",
"< c #2D2323",
"1 c #322929",
"2 c #332929",
"3 c #362C2C",
"4 c #3A2D2D",
"5 c #382E2E",
"6 c #3F3434",
"7 c #473737",
"8 c #443939",
"9 c #493838",
"0 c #483D3D",
"q c #514444",
"w c #5B4D4D",
"e c #645555",
"r c #726262",
"t c #887676",
"y c #897676",
"u c #8B7878",
"i c #917F7F",
"p c #958282",
"a c #A38E8E",
"s c #AE9898",
"d c #B6A0A0",
"f c #BCA6A6",
"g c #C5ADAD",
"h c #C6AEAE",
"j c #D3B9B9",
"k c #DFC4C4",
"l c #ECD0D0",
"z c #F4D7D7",
"x c None",
/* pixels */
"xxxxxxxxxxxxxxxxxxxxxxxxxxxxxxxx",
"xxxxxxxxxxxxxxxxxxxxxxxxxxxxxxxx",
"xxxxxxxxxxxxxxxxxxxxxxxxxxxxxxxx",
"xxxxxxxxxxxxxxxxxxxxxxxxxxxxxxxx",
"xxxxxxxxxxxxxxxxxxxxxxxxxxxxxxxx",
"xxxxxxxxxxxxxxxxxxxxxxxxxxxxxxxx",
"xxxxxxxxxxxxxxxxxxxxxxxxxxxxxxxx",
"xxxxxxxxxxxxxxxxxxxxxxxxxxxxxxxx",
"xxxxxxxxxxxxxxxxxxxxxxxxxxxxxxxx",
"xxxxxxxxxxxxxxxxxxxxxxxxxxxxxxxx",
"xxxxxxxxxxxxxxxxxxxxxxxxxxxxxxxx",
"xxxxxxxxxxxxxxxxxxxxxxxxxxxxxxxx",
"xxxxxxxxxxxxxxxxxxxxxxxxxxxxxxxx",
"xxxxxxxxxxxxxxxxxxxxxxxxxxxxxxxx",
"xxxxxxxxxxxxxxxxxxxxxxxxxxxxxxxx",
"xxxxxxxxxxxxxxxxxxxxxxxxxxxxxxxx",
"xxxxxxxxxxxxxxxxxxxxxxxxxxxxxxxx",
"xxxxxxxxx&%%%%xxxxxxxxxxxxxxxxxx",
"xxxxxxxx%%%%%%%xxxxxxxxxxxxxxxxx",
"xxxxxxx+%%%%%%%&xxxxxxxxxxxxxxxx",
"xxxxxxx%%%%O4<%%xxxxxxxxxxxxxxxx",
"xxxxxxx%%%%+79%%xxxxxxxxxxxxxxxx",
"xxxxxxx%6q%%->%%xxxxxxxxxxxxxxxx",
"xxxxxxx20p%%%%%#xxxxxxxxxxxxxxxx",
"xxxxxxxgd8%%%%%*xxxxxxxxxxxxxxxx",
"xxxxxxxxiw=1y,%%%xxxxxxxxxxxxxxx",
"xxxxxxxxxxezz5%%%%%xxxxxxxxxxxxx",
"xxxxxxxxx%rzz3%%x%%%xxxxxxxxxxxx",
"xxxxxxxx+%uzz;%%xxx%%xxxxxxxxxxx",
"xxxxxxxx%%azl%%%xxxx%%xxxxxxxxxx",
"xxxxxxx#%xszk%%%xxxx%%xxxxxxxxxx",
"xxxxx%%%xxtzj%%%xxxxx%%xxxxxxxxx",
"xxx%%%xxxxxhf%%%%xxxxx%xxxxxxxxx",
"x%%%xxxxxxx,:%%%%xxxxx%%xxxxxxxx",
"x%xxxxxxxxO%%%%%++xxxxx%%xxxxxxx",
"xxxxxxxxx%%%%%%%@%xxxxx%%xxxxxxx",
"xxxxxxxx%%%%xx%%+@%xxxxxxxxxxxxx",
"xxxxxxxO%%xxxx%%%x#@xxxxxxxxxxxx",
"xxxxxxxx%*xxxxx%%xx%xxxxxxxxxxxx",
"xxxxxxxx%#xxxxxx%%xx%xxxx%xxxxxx",
"xxxxxxxx%*xxxxxxx%*x+%xxxx@*xxxx",
"xxxxxxxx%$xxxxxxx#%xx$%xxxx%xxxx",
"xxxxxxxx%xxxxxxxxx%+xx%%xxx*%xxx",
"xxxxxxx&%xxxxxxxxx%%xxxx%%%+xxxx",
"xxxxxxx.Xxxxxxxxxxxoxxxxxxxxxxxx",
"xxxxxxxxxxxxxxxxxxx xxxxxxxxxxxx",
"xxxxxxxxxxxxxxxxxxxxxxxxxxxxxxxx",
"xxxxxxxxxxxxxxxxxxxxxxxxxxxxxxxx"
};
