/* XPM */
static char *result[] = {
/* columns rows colors chars-per-pixel */
"32 48 64 1 ",
"  c #191414",
". c #1B1414",
"X c #1E1818",
"o c #1E1919",
"O c #241B1B",
"+ c #231C1C",
"@ c #241C1C",
"# c #251C1C",
"$ c #241D1D",
"% c #251D1D",
"& c #261C1C",
"* c #271E1E",
"= c #261F1F",
"- c #271F1F",
"; c #291F1F",
": c #2A2020",
"> c #2A2121",
", c #2B2121",
"< c #312828",
"1 c #322929",
"2 c #372B2B",
"3 c #352C2C",
"4 c #392F2F",
"5 c #3E3333",
"6 c #3F3535",
"7 c #423636",
"8 c #453535",
"9 c #483737",
"0 c #433939",
"q c #453939",
"w c #4A3E3E",
"e c #4F4343",
"r c #6C5D5D",
"t c #6E5F5F",
"y c #786868",
"u c #847474",
"i c #867676",
"p c #897777",
"a c #8B7A7A",
"s c #8E7C7C",
"d c #8F7C7C",
"f c #958282",
"g c #988484",
"h c #998686",
"j c #A38E8E",
"k c #A59090",
"l c #A79292",
"z c #A89393",
"x c #AB9595",
"c c #AD9898",
"v c #B59E9E",
"b c #BAA3A3",
"n c #BBA3A3",
"m c #BDA5A5",
"M c #BDA6A6",
"N c #C6AEAE",
"B c #C9B1B1",
"V c #CEB4B4",
"C c #D8BDBD",
"Z c #EFD3D3",
"A c #F0D4D4",
"S c #F2D5D5",
"D c #F4D7D7",
"F c None",
/* pixels */
"FFFFFFFFFFFFFFFFFFFFFFFFFFFFFFFF",
"FFFFFFFFFFFFFFFFFFFFFFFFFFFFFFFF",
"FFFFFFFFFFFFFFFFFFFFFFFFFFFFFFFF",
"FFFFFFFFFFFFFFFFFFFFFFFFFFFFFFFF",
"FFFFFFFFFFFFFFFFFFFFFFFFFFFFFFFF",
"FFFFFFFFFFFFFFFFFFFFFFFFFFFFFFFF",
"FFFFFFFFFFFFFFFFFFFFFFFFFFFFFFFF",
"FFFFFFFFFFFFFFFFFFFFFFFFFFFFFFFF",
"FFFFFFFFFFFFFFFFFFFFFFFFFFFFFFFF",
"FFFFFFFFFFFFFFFFFFFFFFFFFFFFFFFF",
"FFFFFFFFFFFFFFFFFFFFFFFFFFFFFFFF",
"FFFFFFFFFFFFFFFFFFFFFFFFFFFFFFFF",
"FFFFFFFFFFFFFFFFFFFFFFFFFFFFFFFF",
"FFFFFFFFFFFFFFFFFFFFFFFFFFFFFFFF",
"FFFFFFFFFFFFFFFFFFFFFFFFFFFFFFFF",
"FFFFFFFFFFFFFFFFFFFFFFFFFFFFFFFF",
"FFFFFFFFFFFFFFFFFFFFFFFFFFFFFFFF",
"FFFFFFFFFFFFFFFFFFFFFFFFFFFFFFFF",
"FFFFFFFFFFFFFFFF+@@+$FFFFFFFFFFF",
"FFFFFFFFFFFFFFF@@@@@@@FFFFFFFFFF",
"FFFFFFFFFFFFFFF@@@@@@@FFFFFFFFFF",
"FFFFFFFFFFFFFF*@@@@@@@&2FFFFFFFF",
"FFFFFFFFFFFFF8:@@@@@@@%9FFFFFFFF",
"FFFFFFFFFFFFFF,wzr@5yq;FFFFFFFFF",
"FFFFFFFFFFFFFFFBlb@jhkFFFFFFFFFF",
"FFFFFFFFFFFFFF@>tfige;+FFFFFFFFF",
"FFFFFFFFFFFFF@@4Vasud@@FFFFFFFFF",
"FFFFFFFFFFFFF@@6DDDDM@@@FFFFFFFF",
"FFFFFFFFFFFF@@F=ZDDDv$O@FFFFFFFF",
"FFFFFFFFFFFF@@FOCDDDc$F@@FFFFFFF",
"FFFFFFFFFFF#@FF1ADDDx#F@OFFFFFFF",
"FFFFFFFFFFF@@FF0SDDDmOF@@FFFFFFF",
"FFFFFFFFFFF+@FF$pDDN<#F@@FFFFFFF",
"FFFFFFFFFFF@@FF@%nZ3@@F@FFFFFFFF",
"FFFFFFFFFFF@@FF@@-7@@$F@FFFFFFFF",
"FFFFFFFFFFF@@FF@@@@@@FF@FFFFFFFF",
"FFFFFFFFFFFF@FF@@@@@@FF@FFFFFFFF",
"FFFFFFFFFFF$@FF+@@@@FFF+OFFFFFFF",
"FFFFFFFFFFF@+FF@@%@@FFFFFFFFFFFF",
"FFFFFFF+FFFF@FF@@@@@FFFFFFFFFFFF",
"FFFFFFFFFFFFFF@O@@#@FFFFFFFFFFFF",
"FFFFFFFOFFFFF@FF@@F@+FFFFFFFFFFF",
"FFFFFFFF@#$@@FFFO#F@@FFFFFFFFFFF",
"FFFFFFFFFFFFFFFF@FF@FFFFFFFFFFFF",
"FFFFFFFFFFFFFFFFoFF@FFFFFFFFFFFF",
"FFFFFFFFFFFFFFFF.FFXFFFFFFFFFFFF",
"FFFFFFFFFFFFFFFFFFF FFFFFFFFFFFF",
"FFFFFFFFFFFFFFFFFFFFFFFFFFFFFFFF"
};
