/* XPM */
static char *result[] = {
/* columns rows colors chars-per-pixel */
"32 32 30 1 ",
"  c black",
". c #050200",
"X c #090400",
"o c #0C0500",
"O c #0E0500",
"+ c #120700",
"@ c #150800",
"# c #170900",
"$ c #1B0B00",
"% c #1D0B00",
"& c #200C00",
"* c #220E00",
"= c #240E00",
"- c #250F00",
"; c #291000",
": c #2C1200",
"> c #2D1200",
", c #2E1200",
"< c #361500",
"1 c #371600",
"2 c #352E27",
"3 c #3E3227",
"4 c #453B32",
"5 c #9A8571",
"6 c #A08B75",
"7 c #BBA289",
"8 c #C0A68D",
"9 c #CAAF94",
"0 c #F0D0B0",
"q c None",
/* pixels */
"qqqqqqqqqqqqqqqqqqqqqqqqqqqqqqqq",
"qqqqqqqqqqqqqqqqqqqqqqqqqqqqqqqq",
"qqqqqqqqqqqqqoOOOOoqqqqqqqqqqqqq",
"qqqqqqqqqqqo$=;;;;=$oqqqqqqqqqqq",
"qqqqqqqqqq &;;;;;;;;& qqqqqqqqqq",
"qqqqqqqqqq ;;;;;;;;;; qqqqqqqqqq",
"qqqqqqqqqq ;;;;;;;;;; qqqqqqqqqq",
"qqqqqqqqq4 ;;;;;;;;;; 4qqqqqqqqq",
"qqqqqqqq 2 OO&;;;;&OO 2 qqqqqqqq",
"qqqqqqqq@$$$$+&;;&+$$$$@qqqqqqqq",
"qqqqqqqO;;;;;;O  O;;;;;;Oqqqqqqq",
"qqqqqq#;;;;;;;;;<>;;;;;;;#qqqqqq",
"qqqqq ;;;;;;;;;;1:;;;;;;;; qqqqq",
"qqqqq*;;;;;;;;#;,#;;;;;;;;$qqqqq",
"qqqq ,;;#&;;;;O;;O;;;;&#;;; qqqq",
"qqq 1;;;O$ ;;O ;; O;; $O;;;$ qqq",
"qqq -;;$ $    $;;$    $ $;;$ qqq",
"qqq %;;;;O;OO&;;;;&OO;O;;;;$ qqq",
"qqq $;;;;O;;;;;;;;;;;;O;;;;$ qqq",
"qqqqo;;;;O;;;;;;;;;;;;O;;;;oqqqq",
"qqqqqOOOO.;;;;#;;#;;;;.OOOOqqqqq",
"qqqqqqqq $;;;;;  ;;;;;$ qqqqqqqq",
"qqqqqqqqo&;;;;;  ;;;;;&oqqqqqqqq",
"qqqqqqqq$;;&;;;  ;;;&;;$qqqqqqqq",
"qqqqqqqo=;;#OOO  OOO#;;=oqqqqqqq",
"qqqqqqqO;;;=$$X  X$$=;;;Oqqqqqqq",
"qqqqqqqO;;;;;OqqqqO;;;;;Oqqqqqqq",
"qqqqqqqo=;;;$qqqqqq$;;;=oqqqqqqq",
"qqqqqqq $;;;$qqqqqq$;;;$ qqqqqqq",
"qqqqqq463&;;$qqqqqq$;;&364qqqqqq",
"qqqqq 7073OOXqqqqqqXOO3707 qqqqq",
"qqqq 9000985 qqqqqq 5890009 qqqq"
};
