/* XPM */
static char *result[] = {
/* columns rows colors chars-per-pixel */
"32 32 36 1 ",
"  c black",
". c #050200",
"X c #080300",
"o c #090400",
"O c #0C0500",
"+ c #0E0500",
"@ c #0E0600",
"# c #120700",
"$ c #150800",
"% c #170900",
"& c #1B0B00",
"* c #1E0C00",
"= c #1B1714",
"- c #200C00",
"; c #210D00",
": c #240E00",
"> c #281000",
", c #291000",
"< c #2B1100",
"1 c #301300",
"2 c #341400",
"3 c #302A23",
"4 c #352E27",
"5 c #3E3227",
"6 c #453B32",
"7 c #50453B",
"8 c #6B503B",
"9 c #6B5C4E",
"0 c #705F4E",
"q c #786858",
"w c #A08B75",
"e c #BBA289",
"r c #C4A589",
"t c #D5B99C",
"y c #F0D0B0",
"u c None",
/* pixels */
"uuuuuuuuuuuuuuuuuuuuuuuuuuuuuuuu",
"uuuuuuuuuuuuuuuuuuuuuuuuuuuuuuuu",
"uuuu6776uuuuuuu+++++Xuuuuuuuuuuu",
"uuuqtyyt6uuuu$&,,,,,-&uuuuuuuuuu",
"uuuwyyyy7uuuO:,,,,,,,,$uuuuuuuuu",
"uu7yyyyy7uuu+,,,,,,,,,& uuuuuuuu",
"uu4tyytquuu +,,,,,,,,,& uuuuuuuu",
"uu.0ww9 uuu4+,,,,,,,,,;=3uuuuuuu",
"uu@;&&# uu w.+++,,,,,+@==uuuuuuu",
"uu+,,,:$   5&&&&+,,,%&&# uuuuuuu",
"uu+,,,,,,,,,,,,,,   &,,,,+uuuuuu",
"uuu&,,,,,,,,,,,,,,,,,,,,,,+uuuuu",
"uuu$:,,,,,,,,,,,,,::,,,,,,,Ouuuu",
"uuuuO+,,,,,,,,,,+,&&,,,,,,,& uuu",
"uuuuuu+%,,,,,,,, ,&o-,,,,,,& uuu",
"uuuuuuuu  ,,,,,  ,,+   +,,,& uuu",
"uuuuuuuuuu &    ,,,,+ +,+&,& uuu",
"uuuuuuuuuuu+-++,,,,,,,,:o#,$uuuu",
"uuuuuuuuuuuo-,,,,,,,,,,-+.&uuuuu",
"uuuuuuuuuuuo-,,,,,,%-,,,,-&uuuuu",
"uuuuuuuuuuu+,,,+,,-%:,,,,,,$uuuu",
"uuuuuuuuuu ,,,,,  +,,,,,,,,& uuu",
"uuuuuuuuuu+,,,,,, +,,,%%,,,&uuuu",
"uuuuuuuuu ,,,-:,, o&&&%,,,&uuuuu",
"uuuuuuuuu ,,,-#++ uu  ++++uuuuuu",
"uuuuuuuuu ,,,,-& uuu wwwww uuuuu",
"uuuuuuuuu ,,,,, uuuu yyyyyy uuuu",
"uuuuuuuuuu &-<12+uuuuwwwwww uuuu",
"uuuuuuuuuuu=5*>&& uuu      uuuuu",
"uuuuuuuuuu etwwww uuuuuuuuuuuuuu",
"uuuuuuuuuuwr88887uuuuuuuuuuuuuuu",
"uuuuuuuuu y,,,, uuuuuuuuuuuuuuuu"
};
