/* XPM */
static char *result[] = {
/* columns rows colors chars-per-pixel */
"32 32 34 1 ",
"  c black",
". c #050200",
"X c #060200",
"o c #080300",
"O c #090400",
"+ c #0C0500",
"@ c #0E0500",
"# c #100600",
"$ c #110700",
"% c #120700",
"& c #150800",
"* c #170900",
"= c #180900",
"- c #1B0B00",
"; c #200C00",
": c #240E00",
"> c #260F00",
", c #291000",
"< c #2A1000",
"1 c #311300",
"2 c #311807",
"3 c #352E27",
"4 c #453B32",
"5 c #50453B",
"6 c #59493B",
"7 c #6B503B",
"8 c #71553F",
"9 c #6B5C4E",
"0 c #786858",
"q c #907D6A",
"w c #A08B75",
"e c #D5B99C",
"r c #F0D0B0",
"t c None",
/* pixels */
"tttttttttttttttttttttttttttttttt",
"tttttttttttttttttttttttttttttttt",
"ttttttttttttt+@@@@+ttttttttttttt",
"ttttttttttt+-:,,,,:-+ttttttttttt",
"tttttttttt ;,,,,,,,,; tttttttttt",
"tttttttttt ,,,,,,,,,, tttttttttt",
"tttttttt#$ ,,,,,,,,,, tttttttttt",
"ttttttto>1 ,,,,,,,,,, 4ttttttttt",
"tttttt+;,, @@@;,,,,*@ 3 tttttttt",
"ttttt ;,,* ---%,,,;*--  tttttttt",
"ttttt ,,@-,,,,,   @,,,,-tttttttt",
"ttttt ,,,,,,,,,,,,,,,,,,*otttttt",
"ttttt ,,,,,,,,,,,;,,,,,,,=tttttt",
"tttttt*,,,,,,,*,,@,,,,,,,< ttttt",
"tttttt@,,,,,,,@,,.*,,,,,,, ttttt",
"ttttttt@,,,,,@ ,,-    ,,,, ttttt",
"tttttttt-,    -,,,-  ,-@,, ttttt",
"ttttttttt&,@@;,,,,,,,,%O:; ttttt",
"ttttttttt -,,,,,,,,,,,@O%+tttttt",
"ttttttttt -,,,,,,;*,,,,:-+tttttt",
"ttttttttt ,,,*;,,%;,,,,,,; ttttt",
"tttttttt -,,,,@  ,,,,,,,,, ttttt",
"tttttttt+;,,,,,  ,,,;@,,,; ttttt",
"tttttttt-,,:;,,  ---%,,,;+tttttt",
"tttttttt-,,:*@@ tt  O@@@ottttttt",
"tttttttt-,,,:-Otttt9wwww4ttttttt",
"tttttttt-,,,,@tttttwrrrrr5tttttt",
"ttttttttt&-,,,*tttt0wwwww3tttttt",
"ttttttttt 5---- tttt      tttttt",
"ttttttttt0rwwww tttttttttttttttt",
"tttttttt0e77776ttttttttttttttttt",
"ttttttttq82,,&Xttttttttttttttttt"
};
