/* XPM */
static char *result[] = {
/* columns rows colors chars-per-pixel */
"32 32 64 1 ",
"  c black",
". c #140800",
"X c #1B1714",
"o c #230E00",
"O c #271000",
"+ c #291000",
"@ c #2B1201",
"# c #2C1100",
"$ c #2F1300",
"% c #321400",
"& c #331400",
"* c #371600",
"= c #381600",
"- c #391700",
"; c #3B1700",
": c #301A0B",
"> c #391D0A",
", c #3B200D",
"< c #352E27",
"1 c #411A00",
"2 c #421A00",
"3 c #491D00",
"4 c #4C1E00",
"5 c #4D1E00",
"6 c #4E1F00",
"7 c #442008",
"8 c #452109",
"9 c #45220B",
"0 c #582300",
"q c #4F2B12",
"w c #4D2D17",
"e c #4E2E18",
"r c #4C2F1B",
"t c #5B3318",
"y c #602700",
"u c #612700",
"i c #642800",
"p c #752F00",
"a c #63391C",
"s c #4B3321",
"d c #593F2C",
"f c #453B32",
"g c #4D4136",
"h c #534032",
"j c #50453B",
"k c #6F5844",
"l c #6B5C4E",
"z c #9C521E",
"x c #98653F",
"c c #926C4E",
"v c #9B6D4B",
"b c #81705E",
"n c #857462",
"m c #A08B75",
"M c #CD8E5E",
"N c #D49362",
"B c #BBA289",
"V c #D5B99C",
"C c #E2B189",
"Z c #E2BB96",
"A c #E9C19C",
"S c #EFCFAF",
"D c #F0D0B0",
"F c None",
/* pixels */
"FFFFFFFFFFFFFFFFFFFFFF   FFFFFFF",
"FFFFFFFFFFFFFFFFFFFFFjDDDnFFFFFF",
"FFFFFFFFFFFFo;;;;%FF DDDDD FFFFF",
"FFFFFFFFFF #++++++%$ jnDDn FFFFF",
"FFFFFFFFFF++#++++&++Omnnn8-6FFFF",
"FFFFFFFFF 1:Dg*+ Dm+& m *+++=FFF",
"FFFFFFFFF jn<llgmXlhXF %+++++oFF",
"FFFFFFFFfXDnm<BDjjBBjjFF*++++;FF",
"FFFFFFFFmjDDmmnjDjDDjD %+++++;FF",
"FFFFFFF mjDDVVBmDBDDjDO++++++;FF",
"FFFFFF;+;mDDDDDDDDDDD +++++++;FF",
"FFFFF;+*mDDn<<jjjXlVDD;+++++4FFF",
"FFFF ++*mDmlllVDm<nnVD;++++4FFFF",
"FFFF4+++rB VllVDm<Bjmg++++;FFFFF",
"FFF *++++rmj<<jjjXjnl*+++3FFFFFF",
"FFF*++ ;++ DDDDDDDDj*+++;FFFFFFF",
"FFF*+++* *         pw+@*FFFFFFFF",
"FFF*+++++rDVnb+++MDDxep FFFFFFFF",
"FFF*++++5>SBnj*+9DDDD+* FFFFFFFF",
"FFF%+++*uqSDDjO;DDDNC++*% FFFFFF",
"FFFF%++*,tDDDjlmjDDCd++++* FFFFF",
"FFFFF    kDDmmDDD   *++++++ FFFF",
"FFFFFFo3+3;XnDDDDBr++++++++ FFFF",
"FFFFFF3++++rBDDDDVd+++++++* FFFF",
"FFFFF*++++++7BDDD<.;;+++;dmmmfFF",
"FFFF ++++++++rjjjFFFF;;rmVDDDjFF",
"FFFF +++++++*FFFFFFFFFjDDD+++;FF",
"FFFFF +++++4FFFFFFFFFFjAz2*4 FFF",
"FFFFFFO**++ FFFFFFFFFFfcy% FFFFF",
"FFFFF ,icr;0FFFFFFFFFFFFFFFFFFFF",
"FFFFFsavZBmO FFFFFFFFFFFFFFFFFFF",
"FFF mSDDDDD FFFFFFFFFFFFFFFFFFFF"
};
