/* XPM */
static char *result[] = {
/* columns rows colors chars-per-pixel */
"32 32 59 1 ",
"  c black",
". c #140800",
"X c #230E00",
"o c #271000",
"O c #291000",
"+ c #2A1000",
"@ c #2B1202",
"# c #2C1100",
"$ c #2F1300",
"% c #321400",
"& c #331400",
"* c #341400",
"= c #371600",
"- c #391600",
"; c #3B1700",
": c #301A0B",
"> c #341908",
", c #3F2310",
"< c #3C2A1D",
"1 c #302A23",
"2 c #352E27",
"3 c #441B00",
"4 c #491D00",
"5 c #4A1D00",
"6 c #4C1E00",
"7 c #4D1E00",
"8 c #41210B",
"9 c #442008",
"0 c #442009",
"q c #45220B",
"w c #572300",
"e c #462713",
"r c #4C2F1B",
"t c #622700",
"y c #493627",
"u c #5B3921",
"i c #5C3E27",
"p c #593F2C",
"a c #453B32",
"s c #4D4136",
"d c #4D4137",
"f c #50453B",
"g c #714323",
"h c #7E644E",
"j c #9D704F",
"k c #816F5E",
"l c #857462",
"z c #8D7B68",
"x c #BE8B62",
"c c #A08B75",
"v c #BB9473",
"b c #C39E7D",
"n c #D29D73",
"m c #BBA289",
"M c #D1A884",
"N c #D5B99C",
"B c #E9C19C",
"V c #F0D0B0",
"C c None",
/* pixels */
"CCCCCCCCCCCCCCCCCCCCCCCCCCCCCCCC",
"CCCCCCCCCCCCC%;;;;%CCCCCCCCCCCCC",
"CCCCCCCCCCCX*OOOOO+&XCCCCCCCCCCC",
"CCCCCCCCCC OO&OOOO&OO CCCCCCCCCC",
"CCCCCCCCCC OOcrOOrcOO CCCCCCCCCC",
"CCCCCCCCCC <c c  c c: CCCCCCCCCC",
"CCCCCCCCCa mlf2VV2flm aCCCCCCCCC",
"CCCCCCCC c VVfcVVcfVV c CCCCCCCC",
"CCCCCCCC c VVmNffNmVV c CCCCCCCC",
"CCCCCCC%=icVVVVccVVVVci#%CCCCCCC",
"CCCCCC;OO;VVVVVVVVVVVV;OO;CCCCCC",
"CCCCC OOO4cNlfffffflNc3OOO CCCCC",
"CCCCC;OOOO;llVVVVVVll;OOOO;CCCCC",
"CCCC OOOOOO9lVVVVVVl9OOOOO$ CCCC",
"CCCC6OO;OOOO9ffsdff0OOOO;OO6CCCC",
"CCC =OOO; O  cqOOqc  O ;OOO= CCC",
"CCC =OOOOO VVfcOOcfVV OOOOO= CCC",
"CCC =OOOO7eVmmsOOsmmVe7OOOO= CCC",
"CCCC6OOO;wOVVVf==fVVVOw;OOO6CCCC",
"CCCCC;OO;@OVVVfccfVVVO@;5-;CCCCC",
"CCCCCC;;.2eVVllVVllVVe2.;;CCCCCC",
"CCCCCCCC=O   cVVVVc   O=CCCCCCCC",
"CCCCCCX4OOOOrNVVVVNrOOOO4XCCCCCC",
"CCCCCC4OOOOOOpNVVNpOOOOOO4CCCCCC",
"CCCCC OOOOOOOOrffrOOOOOOOO CCCCC",
"CCCCC OOOOOOO4XCCX4OOOOOOO CCCCC",
"CCCCCC;OOOOO=CCCCCC=OOOOO;CCCCCC",
"CCCCCCCo==O= CCCCCC =O==oCCCCCCC",
"CCCCCC1y;y=t%CCCCCC%t=y;y1CCCCCC",
"CCCCC >8ubchoCCCCCCohcBxg, CCCCC",
"CCCCCkvjVVVz CCCCCC zVVVnMkCCCCC",
"CCCCCCCCCCCCCCCCCCCCCCCCCCCCCCCC"
};
