/* XPM */
static char *result[] = {
/* columns rows colors chars-per-pixel */
"32 32 66 1 ",
"  c black",
". c #140800",
"X c #1B1714",
"o c #230E00",
"O c #271000",
"+ c #291000",
"@ c #2B1100",
"# c #2E1200",
"$ c #2F1300",
"% c #2F1402",
"& c #311300",
"* c #321400",
"= c #331400",
"- c #351500",
"; c #361500",
": c #371500",
"> c #371600",
", c #3B1700",
"< c #3A1F0D",
"1 c #352E27",
"2 c #431A00",
"3 c #441A00",
"4 c #491D00",
"5 c #4C1E00",
"6 c #442008",
"7 c #442009",
"8 c #45220B",
"9 c #46240E",
"0 c #582300",
"q c #5F2500",
"w c #5F2600",
"e c #4A2B16",
"r c #4B2B16",
"t c #4C2D17",
"y c #4C2F1B",
"u c #512C13",
"i c #612700",
"p c #752F00",
"a c #4E3B2C",
"s c #593F2C",
"d c #453B32",
"f c #4B3E34",
"g c #4C4035",
"h c #4D4136",
"j c #50453B",
"k c #664F3C",
"l c #6B5C4E",
"z c #926C4E",
"x c #81705E",
"c c #857462",
"v c #997C63",
"b c #9F7D60",
"n c #A08B75",
"m c #A98B71",
"M c #D49362",
"N c #BBA289",
"B c #D5B99C",
"V c #E2B189",
"C c #E9C19C",
"Z c #EBCBAB",
"A c #EBCBAC",
"S c #ECCCAD",
"D c #EECEAE",
"F c #EFCFAF",
"G c #F0D0B0",
"H c None",
/* pixels */
"HHHHHHH   HHHHHHHHHHHHHHHHHHHHHH",
"HHHHHHcGGGjHHHHHHHHHHHHHHHHHHHHH",
"HHHHH GGGGG HH*,,,,oHHHHHHHHHHHH",
"HHHHH cGGcj $*++++++* HHHHHHHHHH",
"HHHH5>7cccnO++=++++:q;HHHHHHHHHH",
"HHH>+++> n =+nG +>hGg+ HHHHHHHHH",
"HHo+++++* HXalXnhll1ch HHHHHHHHH",
"HH,++++#HHjjNNjjGN1ncGXdHHHHHHHH",
"HH,+++++* GjGGjGjcnnGGjnHHHHHHHH",
"HH,++++++OGjGGNGnNBBGGjn HHHHHHH",
"HH,+++++++ GGGGGGGGGGGn,+,HHHHHH",
"HHH2+++++,GGBlXjjj11cGGn>+,HHHHH",
"HHHH2++++,GBcc1nGBlllnGn>++ HHHH",
"HHHHH,++++fnjN1nGBllB Ny+++5HHHH",
"HHHHHH,+++&lcjXjjj11jny++++> HHH",
"HHHHHHH,+++>jGGGGGGGG ++, ++>HHH",
"HHHHHHHH&++ep         > >+++>HHH",
"HHHHHHHH pt+vm++++xcBZ++++++>HHH",
"HHHHHHHH >+vGGm8+>jcNA+3++++>HHH",
"HHHHHH *>++VMGGG,OjGGS+->+++*HHH",
"HHHHH >++++sVGGjnljGGD9z>++*HHHH",
"HHHH ++++++>   GGGnnGGn    HHHHH",
"HHHH ++++++++yNGGGGcX,4+4oHHHHHH",
"HHHH >+++++++sBGGGGNy++++4HHHHHH",
"HHdnnns,+++,,.1GGGN6++++++>HHHHH",
"HHjGGGBny,,HHHHjjjy++++++++ HHHH",
"HH,+++GGGjHHHHHHHHH>+++++++ HHHH",
"HHH 5$+%CjHHHHHHHHHH5+++++ HHHHH",
"HHHHH @wzdHHHHHHHHHH ++>>OHHHHHH",
"HHHHHHHHHHHHHHHHHHHH0,yzi< HHHHH",
"HHHHHHHHHHHHHHHHHHH OnNbrukHHHHH",
"HHHHHHHHHHHHHHHHHHHH GGGFGGn HHH"
};
