/* XPM */
static char *result[] = {
/* columns rows colors chars-per-pixel */
"32 32 58 1 ",
"  c black",
". c #140800",
"X c #1B1714",
"o c #230E00",
"O c #271000",
"+ c #291000",
"@ c #2A1000",
"# c #2D1200",
"$ c #2D1201",
"% c #2F1300",
"& c #2F1403",
"* c #301300",
"= c #321400",
"- c #341400",
"; c #361500",
": c #371600",
"> c #381600",
", c #391600",
"< c #3B1700",
"1 c #3D1800",
"2 c #301A0B",
"3 c #3D2210",
"4 c #332921",
"5 c #352E27",
"6 c #401900",
"7 c #441B00",
"8 c #491D00",
"9 c #4C1E00",
"0 c #4D1E00",
"q c #4F1F00",
"w c #442008",
"e c #45220B",
"r c #522000",
"t c #4D2D17",
"y c #4C2F1B",
"u c #4C301B",
"i c #5A3318",
"p c #5C3419",
"a c #752F00",
"s c #593F2C",
"d c #453B32",
"f c #4A3C31",
"g c #4B3F34",
"h c #4D4136",
"j c #50453B",
"k c #6B5C4E",
"l c #786858",
"z c #875D3D",
"x c #976A48",
"c c #857462",
"v c #B8855E",
"b c #A08B75",
"n c #CD8E5E",
"m c #BBA289",
"M c #D5B99C",
"N c #E2B189",
"B c #F0D0B0",
"V c None",
/* pixels */
"VVVVVVVVVVVVVVVVVVVVVVVVVVVVVVVV",
"VVVVVVVVVVVVVVVVVVVVVVVVVVVVVVVV",
"VVVVVVVVVVVVo<<<<VVVVVVVVVVVVVVV",
"VVVVVVVVVV :+++++:9VVVVVVVVVVVVV",
"VVVVVVVVVV ++<<<+++=VVVVVVVVVVVV",
"VVVVVVVVV  :hBBB +++<VVVVVVVVVVV",
"VVVVVVVVV bcMkjbBy++<VVVVVVVVVVV",
"VVVVVVVVV jMkbBjBs=+yjVVVVVVVVVV",
"VVVVVVVVlbjMkbBB2+++MB VVVVVVVVV",
"VVVVVVVdMBbBMMBBb++bBB VVVVVVVVV",
"VVVVVVVjBBBBBBBBBb2Bj    VVVVVVV",
"VVVVVV<<. jj55jbBBBj:+++@q<VVVVV",
"VVVVV ++8.bMkkMjbBMy++++++-=VVVV",
"VVVVV:+++<bMkkMB Bb:+++++++*rVVV",
"VVVV ++++<jj55jjbmy+++++++++7VVV",
"VVVV +++<bBBBBBBB<++++++++++,VVV",
"VVVV +++<        t++++++<:++:VVV",
"VVVV :::Obe++eNBBip++   ,6#%1VVV",
"VVVVdjjjXbB+nBBBBz+++ V 4ffg5VVV",
"VVV bBBBjbB3BBB$Bv++<VdbMBBBMdVV",
"VVV bBjjX5BXcBBxB&++<VjBBBBBBjVV",
"VVV b   VV Bb    ++++    bBBBjVV",
"VVVVlBklVV mBBc;+++++<VVV BMlVVV",
"VVVVVblVVVV5mBm<++++++ VVVblVVVV",
"VVVVVVVVVV :wjw+++++++ VVVVVVVVV",
"VVVVVVVVVV ++O>++++++<VVVVVVVVVV",
"VVVVVVVVVVV<++<+++++<VVVVVVVVVVV",
"VVVVVVVVVVVV=++<:+++8VVVVVVVVVVV",
"VVVVVVVVVVVVV0:a ::++ VVVVVVVVVV",
"VVVVVVVVVVVVdbb bbbu<aVVVVVVVVVV",
"VVVVVVVVVVVdmBcbBBBmb< VVVVVVVVV",
"VVVVVVVVVV BBjbBBBBBBB VVVVVVVVV"
};
