/* XPM */
static char *result[] = {
/* columns rows colors chars-per-pixel */
"32 32 48 1 ",
"  c black",
". c #1B1714",
"X c #230E00",
"o c #271000",
"O c #291000",
"+ c #2A1000",
"@ c #2D1200",
"# c #2D1303",
"$ c #321400",
"% c #341400",
"& c #371600",
"* c #3A1700",
"= c #3B1700",
"- c #3D1800",
"; c #3B291B",
": c #302A23",
"> c #352E27",
", c #441B00",
"< c #491D00",
"1 c #4C1E00",
"2 c #4E1F00",
"3 c #442008",
"4 c #452109",
"5 c #562200",
"6 c #592400",
"7 c #4C2F1B",
"8 c #4E311C",
"9 c #653A1D",
"0 c #593F2C",
"q c #453B32",
"w c #4A3D32",
"e c #4A3D33",
"r c #4D4136",
"t c #4D4137",
"y c #50453B",
"u c #6B5C4E",
"i c #786858",
"p c #8D5026",
"a c #895937",
"s c #857462",
"d c #99846E",
"f c #A08B75",
"g c #C69A75",
"h c #BBA289",
"j c #D5B99C",
"k c #E2B189",
"l c #F0D0B0",
"z c None",
/* pixels */
"zzzzzzzzzzzzzzzzzzzzzzzzzzzzzzzz",
"zzzzzzzzzzzzzzzzzzzzzzzzzzzzzzzz",
"zzzzzzzzzzzX====zzzzzzzzzzzzzzzz",
"zzzzzzzzzz&OOOOO&1zzzzzzzzzzzzzz",
"zzzzzzzzz OO===OOO1zzzzzzzzzzzzz",
"zzzzzzzz  Orlll OOO=zzzzzzzzzzzz",
"zzzzzzzz utjsyslrOO= zzzzzzzzzzz",
"zzzzzzzz >luylslf@O7yzzzzzzzzzzz",
"zzzzzzzqfuluyllw,%#jl zzzzzzzzzz",
"zzzzzzqhlhljhllf*6;ll zzzzzzzzzz",
"zzzzzzyllllllllllyly    zzzzzzzz",
"zzzzz=>ffffffjllllf&OOOO<=zzzzzz",
"zzzz Oo.yyyy>ujllj0OOOOOOO=zzzzz",
"zzzz1OO3hllljfjll7OOOOOOOOO1zzzz",
"zzz &OOO7hllllllrOOOOOOOOOO& zzz",
"zzz &OOO=        OOOOOOOOOO& zzz",
"zzz &OO& dOOOll5lOOOOOO&&OO& zzz",
"zzz 2&&2faOOOkllp9OO=  o-&&2 zzz",
"zzzqyyy>flOalllllOOO$z .yyy> zzz",
"zzzflllffl=lll+llOO=z fhllljizzz",
"zzzflyy>>h sllgleOO=z llllllfzzz",
"zzzfy  =O=lf    OOOO=   flllfzzz",
"zzzij <OO=llls3OOOOOO=zz flizzzz",
"zzzzi OOO<fllls&OOOOOO zzifzzzzz",
"zzzzz OOOO&slls&OOOOOO zzzzzzzzz",
"zzzz  OOOOO3ry3OOOOOOO zzzzzzzzz",
"zzzfll=OOOOOO= OOOOOO   zzzzzzzz",
"zzzfllh7&&   zz &OOOOOOO8yzzzzzz",
"zzzifllhyy zzzzz OOOOOO4hl zzzzz",
"zzzzzyslll zzzzzzX==OO7hll zzzzz",
"zzzzzz:yyyzzzzzzzzzz$=hllszzzzzz",
"zzzzzzzzzzzzzzzzzzz flllyzzzzzzz"
};
