/* XPM */
static char *result[] = {
/* columns rows colors chars-per-pixel */
"32 32 47 1 ",
"  c black",
". c #140800",
"X c #1B1714",
"o c #230E00",
"O c #271000",
"+ c #291000",
"@ c #2F1300",
"# c #321400",
"$ c #331400",
"% c #341400",
"& c #371600",
"* c #3B1700",
"= c #3E1800",
"- c #301A0B",
"; c #32271E",
": c #302A23",
"> c #352E27",
", c #421A00",
"< c #491D00",
"1 c #4C1E00",
"2 c #4E1F00",
"3 c #42200A",
"4 c #442008",
"5 c #542200",
"6 c #592300",
"7 c #4C2F1B",
"8 c #522C12",
"9 c #752F00",
"0 c #693614",
"q c #5C3E27",
"w c #593F2C",
"e c #453B32",
"r c #4C4035",
"t c #4D4136",
"y c #50453B",
"u c #6B5C4E",
"i c #7E644E",
"p c #844D27",
"a c #9E643B",
"s c #81705E",
"d c #B97C4E",
"f c #857462",
"g c #A08B75",
"h c #BBA289",
"j c #D5B99C",
"k c #F0D0B0",
"l c None",
/* pixels */
"llllllleyyy:llllllllllllllllllll",
"llllll:hkkkf:lllllllllllllllllll",
"llllllykkkkky    lllllllllllllll",
"llllllykkkkfX&&&&# lllllllllllll",
"llllllykkkg&+++++++ llllllllllll",
"llllll.iggu&+ttt4+++#lllllllllll",
"llllll*<**X07kghf4++&lllllllllll",
"llllll*+++Xfjygfhh*+& llllllllll",
"llllllo++*>jf kjjf&+7g lllllllll",
"lllllll&*kggk kky5%rkk lllllllll",
"lllllll gkkkkkkkkf6fjg lllllllll",
"lllllll >yyyyyyfkkghq&&lllllllll",
"lllllll  &>gg gfhkkg*++1llllllll",
"lllllll  + gy ykygk*++++&lllllll",
"llllllll  ugg gguhg<+++++ollllll",
"lllllllll hyyyyyhh*++++++*llllll",
"lllllllll y--yyyys+<<++++*llllll",
"llllllllll;8,@9pgd*O.+++++#lllll",
"llllllllllyk3+kkkykkkt++++*lllll",
"llllllllllykakkkygykkkt+++*lllll",
"llllllllllykygkkygkkkkk*++*lllll",
"lllllllll 0yfgyyXgkkkkk*+*olllll",
"llllllll $=gkkg*+*kkkk   lllllll",
"lllllll &++wjkh7++****+ llllllll",
"lllllll#+++<wkkg&++++++ llllllll",
"lllll  &+++++ty>&++++++ llllllll",
"llll gg7+++++&2 O+++++*  lllllll",
"llll kkkt++*   l &+++++++* lllll",
"llll ghkkttXllllll&+++++4hk llll",
"lllll egjkkyllllll &&++4fkk llll",
"lllllllleyy:llllllll O*hkkflllll",
"lllllllllllllllllllleggkkf:lllll"
};
