/* XPM */
static char *result[] = {
/* columns rows colors chars-per-pixel */
"32 32 48 1 ",
"  c black",
". c #1B1714",
"X c #230E00",
"o c #271000",
"O c #291000",
"+ c #2A1000",
"@ c #2D1200",
"# c #2D1303",
"$ c #321400",
"% c #341400",
"& c #371600",
"* c #3A1700",
"= c #3B1700",
"- c #3D1800",
"; c #3B291B",
": c #302A23",
"> c #352E27",
", c #441B00",
"< c #491D00",
"1 c #4C1E00",
"2 c #4E1F00",
"3 c #442008",
"4 c #452109",
"5 c #562200",
"6 c #592400",
"7 c #4C2F1B",
"8 c #4E311C",
"9 c #653A1D",
"0 c #593F2C",
"q c #453B32",
"w c #4A3D32",
"e c #4A3D33",
"r c #4D4136",
"t c #4D4137",
"y c #50453B",
"u c #6B5C4E",
"i c #786858",
"p c #8D5026",
"a c #895937",
"s c #857462",
"d c #99846E",
"f c #A08B75",
"g c #C69A75",
"h c #BBA289",
"j c #D5B99C",
"k c #E2B189",
"l c #F0D0B0",
"z c None",
/* pixels */
"zzzzzzzzzzzzzzzzzzzzzzzzzzzzzzzz",
"zzzzzzzzzzzzzzzzzzzzzzzzzzzzzzzz",
"zzzzzzzzzzzzzzzz====Xzzzzzzzzzzz",
"zzzzzzzzzzzzzz1&OOOOO&zzzzzzzzzz",
"zzzzzzzzzzzzz1OOO===OO zzzzzzzzz",
"zzzzzzzzzzzz=OOO lllrO  zzzzzzzz",
"zzzzzzzzzzz =OOrlsysjtu zzzzzzzz",
"zzzzzzzzzzzy7O@flslyul> zzzzzzzz",
"zzzzzzzzzz lj#%,wllyulufqzzzzzzz",
"zzzzzzzzzz ll;6*fllhjlhlhqzzzzzz",
"zzzzzzzz    ylyllllllllllyzzzzzz",
"zzzzzz=<OOOO&flllljffffff>=zzzzz",
"zzzzz=OOOOOOO0jllju>yyyy.oO zzzz",
"zzzz1OOOOOOOOO7lljfjlllh3OO1zzzz",
"zzz &OOOOOOOOOOrllllllh7OOO& zzz",
"zzz &OOOOOOOOOO        =OOO& zzz",
"zzz &OO&&OOOOOOl5llOOOd &OO& zzz",
"zzz 2&&-o  =OO9pllkOOOaf2&&2 zzz",
"zzz >yyy. z$OOOlllllaOlf>yyyqzzz",
"zzzijlllhf z=OOll+lll=lfflllfzzz",
"zzzfllllll z=OOelglls h>>yylfzzz",
"zzzflllf   =OOOO    fl=O=  yfzzz",
"zzzzilf zz=OOOOOO3slll=OO< jizzz",
"zzzzzfizz OOOOOO&slllf<OOO izzzz",
"zzzzzzzzz OOOOOO&slls&OOOO zzzzz",
"zzzzzzzzz OOOOOOO3yr3OOOOO  zzzz",
"zzzzzzzz   OOOOOO =OOOOOO=llfzzz",
"zzzzzzy8OOOOOOO& zz   &&7hllfzzz",
"zzzzz lh4OOOOOO zzzzz yyhllfizzz",
"zzzzz llh7OO==Xzzzzzz lllsyzzzzz",
"zzzzzzsllh=$zzzzzzzzzzyyy:zzzzzz",
"zzzzzzzylllf zzzzzzzzzzzzzzzzzzz"
};
